<svg width="31" height="36" viewBox="0 0 31 36" fill="none" xmlns="http://www.w3.org/2000/svg">
<g id="Group">
<path id="Oval (Stroke)" fill-rule="evenodd" clip-rule="evenodd" d="M6.29178 4.77386C3.96374 6.17069 2.75 7.96108 2.75 9.75C2.75 11.5389 3.96374 13.3293 6.29178 14.7261C8.59991 16.111 11.8531 17 15.5 17C19.1469 17 22.4001 16.111 24.7082 14.7261C27.0363 13.3293 28.25 11.5389 28.25 9.75C28.25 7.96108 27.0363 6.17069 24.7082 4.77386C22.4001 3.38898 19.1469 2.5 15.5 2.5C11.8531 2.5 8.59991 3.38898 6.29178 4.77386ZM5.26279 3.05888C7.93117 1.45784 11.553 0.5 15.5 0.5C19.447 0.5 23.0688 1.45784 25.7372 3.05888C28.3857 4.64796 30.25 6.98257 30.25 9.75C30.25 12.5174 28.3857 14.852 25.7372 16.4411C23.0688 18.0422 19.447 19 15.5 19C11.553 19 7.93117 18.0422 5.26279 16.4411C2.61431 14.852 0.75 12.5174 0.75 9.75C0.75 6.98257 2.61431 4.64796 5.26279 3.05888Z" fill="#86868B"/>
<path id="Oval Copy 2" d="M23.75 9.75C23.75 12.0282 20.0563 13.875 15.5 13.875C10.9437 13.875 7.25 12.0282 7.25 9.75C7.25 7.47183 10.9437 5.625 15.5 5.625C20.0563 5.625 23.75 7.47183 23.75 9.75Z" fill="#9E9E9E"/>
<path id="Oval Copy (Stroke)" fill-rule="evenodd" clip-rule="evenodd" d="M0.75 9.75014C0.75 9.75005 0.75 9.75 1.75 9.75C2.75 9.75 2.75 9.75005 2.75 9.75014V26.25C2.75 28.0389 3.96374 29.8293 6.29178 31.2261C8.59991 32.611 11.8531 33.5 15.5 33.5C19.1469 33.5 22.4001 32.611 24.7082 31.2261C27.0363 29.8293 28.25 28.0389 28.25 26.25V9.75H30.25V26.25C30.25 29.0174 28.3857 31.352 25.7372 32.9411C23.0688 34.5422 19.447 35.5 15.5 35.5C11.553 35.5 7.93117 34.5422 5.26279 32.9411C2.61431 31.352 0.75 29.0174 0.75 26.25V9.75014Z" fill="#86868B"/>
</g>
</svg>
