<svg xmlns="http://www.w3.org/2000/svg" width="30" height="36" viewBox="0 0 30 36" fill="none">
<path fill-rule="evenodd" clip-rule="evenodd" d="M5.79178 4.77386C3.46374 6.17069 2.25 7.96108 2.25 9.75C2.25 11.5389 3.46374 13.3293 5.79178 14.7261C8.09991 16.111 11.3531 17 15 17C18.6469 17 21.9001 16.111 24.2082 14.7261C26.5363 13.3293 27.75 11.5389 27.75 9.75C27.75 7.96108 26.5363 6.17069 24.2082 4.77386C21.9001 3.38898 18.6469 2.5 15 2.5C11.3531 2.5 8.09991 3.38898 5.79178 4.77386ZM4.76279 3.05888C7.43117 1.45784 11.053 0.5 15 0.5C18.947 0.5 22.5688 1.45784 25.2372 3.05888C27.8857 4.64796 29.75 6.98257 29.75 9.75C29.75 12.5174 27.8857 14.852 25.2372 16.4411C22.5688 18.0422 18.947 19 15 19C11.053 19 7.43117 18.0422 4.76279 16.4411C2.11431 14.852 0.25 12.5174 0.25 9.75C0.25 6.98257 2.11431 4.64796 4.76279 3.05888Z" fill="#86868B"/>
<path d="M23.25 9.75C23.25 12.0282 19.5563 13.875 15 13.875C10.4437 13.875 6.75 12.0282 6.75 9.75C6.75 7.47183 10.4437 5.625 15 5.625C19.5563 5.625 23.25 7.47183 23.25 9.75Z" fill="#FF6633"/>
<path fill-rule="evenodd" clip-rule="evenodd" d="M0.25 9.75014C0.25 9.75005 0.25 9.75 1.25 9.75C2.25 9.75 2.25 9.75005 2.25 9.75014V26.25C2.25 28.0389 3.46374 29.8293 5.79178 31.2261C8.09991 32.611 11.3531 33.5 15 33.5C18.6469 33.5 21.9001 32.611 24.2082 31.2261C26.5363 29.8293 27.75 28.0389 27.75 26.25V9.75H29.75V26.25C29.75 29.0174 27.8857 31.352 25.2372 32.9411C22.5688 34.5422 18.947 35.5 15 35.5C11.053 35.5 7.43117 34.5422 4.76279 32.9411C2.11431 31.352 0.25 29.0174 0.25 26.25V9.75014Z" fill="#86868B"/>
</svg>