<svg xmlns="http://www.w3.org/2000/svg" width="44" height="28" viewBox="0 0 44 28" fill="none">
  <path d="M16.5 7.8125C16.5 5.15463 14.3454 3 11.6875 3C9.02963 3 6.875 5.15463 6.875 7.8125" fill="#FF6633"/>
  <path d="M37.125 7.8125C37.125 5.15463 34.9704 3 32.3125 3C29.6546 3 27.5 5.15463 27.5 7.8125" fill="#FF6633"/>
  <path fill-rule="evenodd" clip-rule="evenodd" d="M12.7617 8.55947C13.4011 4.07359 17.2563 0.625 21.9188 0.625C26.478 0.625 30.265 3.92252 31.0285 8.26255L29.0588 8.60908C28.4606 5.20866 25.4904 2.625 21.9188 2.625C18.2659 2.625 15.2426 5.32738 14.7417 8.84166L12.7617 8.55947Z" fill="#86868B"/>
  <path fill-rule="evenodd" clip-rule="evenodd" d="M32.5469 8.34828C33.6168 7.80546 34.827 7.5 36.1055 7.5C40.4548 7.5 43.9805 11.0258 43.9805 15.375C43.9805 17.1284 43.4063 18.7505 42.436 20.0598L40.8292 18.869C41.5529 17.8925 41.9805 16.6851 41.9805 15.375C41.9805 12.1303 39.3502 9.5 36.1055 9.5C35.1486 9.5 34.2477 9.72805 33.4517 10.1319L32.5469 8.34828Z" fill="#86868B"/>
  <path fill-rule="evenodd" clip-rule="evenodd" d="M0.375 15.375C0.375 11.0258 3.90076 7.5 8.25 7.5C9.65939 7.5 10.9851 7.87113 12.1316 8.52171L11.1446 10.2612C10.2911 9.77687 9.30439 9.5 8.25 9.5C5.00533 9.5 2.375 12.1303 2.375 15.375C2.375 16.7224 2.82738 17.9613 3.58909 18.9521L2.00352 20.1711C0.982512 18.8431 0.375 17.1786 0.375 15.375Z" fill="#86868B"/>
  <path fill-rule="evenodd" clip-rule="evenodd" d="M0.375 26.1844C0.375 15.1059 9.3559 6.125 20.4344 6.125H23.5656C34.6441 6.125 43.625 15.1059 43.625 26.1844C43.625 26.842 43.092 27.375 42.4344 27.375H1.56559C0.908038 27.375 0.375 26.8419 0.375 26.1844ZM2.39281 25.375H41.6072C41.1838 15.7767 33.2683 8.125 23.5656 8.125H20.4344C10.7317 8.125 2.81616 15.7767 2.39281 25.375Z" fill="#86868B"/>
  <path d="M19.25 14C19.25 14.7594 18.6344 15.375 17.875 15.375C17.1156 15.375 16.5 14.7594 16.5 14C16.5 13.2406 17.1156 12.625 17.875 12.625C18.6344 12.625 19.25 13.2406 19.25 14Z" fill="#FF6633"/>
  <path d="M24.75 19.5C24.75 20.2594 24.1344 20.875 23.375 20.875C22.6156 20.875 22 20.2594 22 19.5C22 18.7406 22.6156 18.125 23.375 18.125C24.1344 18.125 24.75 18.7406 24.75 19.5Z" fill="#FF6633"/>
  <path d="M34.375 18.125C34.375 18.8844 33.7594 19.5 33 19.5C32.2406 19.5 31.625 18.8844 31.625 18.125C31.625 17.3656 32.2406 16.75 33 16.75C33.7594 16.75 34.375 17.3656 34.375 18.125Z" fill="#FF6633"/>
  <path d="M11 20.875C11 21.6344 10.3844 22.25 9.625 22.25C8.86561 22.25 8.25 21.6344 8.25 20.875C8.25 20.1156 8.86561 19.5 9.625 19.5C10.3844 19.5 11 20.1156 11 20.875Z" fill="#FF6633"/>
</svg>