<svg xmlns="http://www.w3.org/2000/svg" width="44" height="44" viewBox="0 0 44 44" fill="none">
  <path fill-rule="evenodd" clip-rule="evenodd" d="M11.6299 14.4581C11.8196 14.2461 12.0906 14.125 12.375 14.125H31.625C31.9094 14.125 32.1804 14.2461 32.3701 14.4581C32.5598 14.67 32.6503 14.9527 32.6189 15.2354L29.8689 39.9854C29.8126 40.4919 29.3846 40.875 28.875 40.875H15.125C14.6155 40.875 14.1874 40.4919 14.1311 39.9854L11.3811 15.2354C11.3497 14.9527 11.4402 14.67 11.6299 14.4581ZM13.4923 16.125L16.02 38.875H27.98L30.5077 16.125H13.4923Z" fill="#86868B"/>
  <path fill-rule="evenodd" clip-rule="evenodd" d="M8.625 8.25C8.625 7.69772 9.07272 7.25 9.625 7.25H34.375C34.9273 7.25 35.375 7.69772 35.375 8.25V15.125C35.375 15.6773 34.9273 16.125 34.375 16.125H9.625C9.07272 16.125 8.625 15.6773 8.625 15.125V8.25ZM10.625 9.25V14.125H33.375V9.25H10.625Z" fill="#86868B"/>
  <path d="M30.25 26.125C30.25 30.6813 26.5563 34.375 22 34.375C17.4437 34.375 13.75 30.6813 13.75 26.125C13.75 21.5687 17.4437 17.875 22 17.875C26.5563 17.875 30.25 21.5687 30.25 26.125Z" fill="#FF6633"/>
  <path fill-rule="evenodd" clip-rule="evenodd" d="M11.4048 1.1327C11.5388 0.596906 12.0817 0.271145 12.6175 0.405094L18.1175 1.78009C18.4007 1.8509 18.6389 2.04192 18.7694 2.30302L21.5194 7.80302C21.7664 8.297 21.5662 8.89767 21.0722 9.14466C20.5782 9.39165 19.9776 9.19143 19.7306 8.69745L17.1863 3.60883L12.1325 2.34538C11.5967 2.21143 11.2709 1.6685 11.4048 1.1327Z" fill="#86868B"/>
</svg>