<svg xmlns="http://www.w3.org/2000/svg" width="44" height="44" viewBox="0 0 44 44" fill="none">
<path fill-rule="evenodd" clip-rule="evenodd" d="M6.20618 18.2945C6.73404 18.1321 7.29363 18.4283 7.45604 18.9562L9.42758 25.3637C9.81715 26.6298 10.8083 27.6209 12.0744 28.0104L25.3681 32.1008C26.4159 32.4232 27.5501 32.3015 28.5055 31.764L37.635 26.6287C38.1164 26.3579 38.7261 26.5286 38.9968 27.01C39.2676 27.4914 39.0969 28.1011 38.6155 28.3718L29.486 33.5072C28.0529 34.3133 26.3516 34.496 24.78 34.0124L11.4862 29.922C9.58704 29.3377 8.10038 27.851 7.51602 25.9518L5.54449 19.5444C5.38207 19.0165 5.67832 18.4569 6.20618 18.2945Z" fill="#86868B"/>
<path d="M40.1272 29.6697C37.6596 26.8446 27.5583 23.7 19.4055 22.0694C9.09303 20.0069 -1.21947 22.0694 3.59303 14.5069C8.2189 7.23768 36.0958 5.42873 41.5206 28.1672C41.9627 30.0201 40.6617 30.2816 40.1272 29.6697Z" fill="#FF6633"/>
<path fill-rule="evenodd" clip-rule="evenodd" d="M21.9622 9.38268C22.0961 9.91847 21.7704 10.4614 21.2346 10.5954C19.7854 10.9577 18.3733 12.015 17.113 13.582C15.8604 15.1394 14.8195 17.126 14.0965 19.1935C13.3729 21.2629 12.986 23.3614 13.0004 25.1288C13.0151 26.9389 13.4455 28.1972 14.119 28.8384C14.5191 29.2192 14.5346 29.8522 14.1538 30.2522C13.773 30.6522 13.1401 30.6678 12.7401 30.287C11.4778 29.0854 11.0167 27.1473 11.0005 25.1451C10.9838 23.1002 11.4264 20.7705 12.2086 18.5334C12.9914 16.2946 14.1327 14.0964 15.5546 12.3285C16.9688 10.5702 18.7236 9.16162 20.7495 8.6551C21.2853 8.52114 21.8282 8.84689 21.9622 9.38268ZM30.2279 12.1971C30.3261 12.7406 29.9652 13.2608 29.4217 13.3591C28.3157 13.559 27.039 14.2897 25.7672 15.4947C24.5084 16.6874 23.322 18.2822 22.3892 20.0805C20.5031 23.7166 19.7675 27.9427 21.2205 31.2197C21.4444 31.7245 21.2166 32.3153 20.7117 32.5392C20.2068 32.763 19.6161 32.5352 19.3922 32.0303C17.5923 27.9709 18.5871 23.067 20.6138 19.1596C21.6374 17.1862 22.953 15.4059 24.3917 14.0428C25.8174 12.6919 27.4337 11.686 29.066 11.3909C29.6095 11.2927 30.1297 11.6537 30.2279 12.1971Z" fill="#86868B"/>
</svg>