<svg xmlns="http://www.w3.org/2000/svg" width="33" height="41" viewBox="0 0 33 41" fill="none">
  <path d="M12.9 6.95703V8.69143C12.9 9.22509 11.4547 10.2035 9.05323 10.2035C6.65175 10.2035 5.20642 9.22509 5.20642 8.69143V6.95703C6.22927 7.46846 7.54119 7.77976 9.05323 7.77976C10.5653 7.802 11.8994 7.49069 12.9 6.95703Z" fill="#FF6633"/>
  <path d="M17.6318 11.1816H15.6306V18.5862H17.6318V11.1816Z" fill="#86868B"/>
  <path d="M9.07238 36.0394C4.26942 36.0394 0.489319 33.8603 0.489319 31.1031V11.1797H2.49055V31.1031C2.49055 32.4817 5.29227 34.0382 9.07238 34.0382V36.0394Z" fill="#86868B"/>
  <path d="M9.07238 16.1182C4.24719 16.1182 0.489319 13.9613 0.489319 11.1819C0.489319 9.6031 1.71229 8.15777 3.8247 7.24609L4.6252 9.09167C3.29104 9.66981 2.49055 10.4481 2.49055 11.2041C2.49055 12.5827 5.29227 14.1392 9.07238 14.1392C12.8525 14.1392 15.6542 12.5827 15.6542 11.2041C15.6542 10.4703 14.8537 9.66981 13.5196 9.09167L14.3201 7.24609C16.4325 8.15777 17.6554 9.6031 17.6554 11.1819C17.6332 13.9613 13.8753 16.1182 9.07238 16.1182Z" fill="#86868B"/>
  <path d="M14.9002 4.28711V8.71205C14.9002 8.88994 14.878 9.06783 14.8335 9.24572C14.4333 10.9801 12.0763 12.2031 9.07442 12.2031C6.29493 12.2031 4.09358 11.158 3.4265 9.64596C3.29309 9.33466 3.22638 9.02336 3.22638 8.68982V4.28711H5.22761V8.71205C5.22761 9.24572 6.69518 10.2241 9.07442 10.2241C11.4537 10.2241 12.9212 9.24572 12.9212 8.71205V4.28711H14.9002Z" fill="#86868B"/>
  <path d="M14.3861 2.79886C13.4966 1.57588 11.4954 0.775391 9.04946 0.775391C6.93705 0.775391 5.15818 1.37576 4.13532 2.3319C3.53495 2.8878 3.20142 3.55488 3.20142 4.28866C3.20142 5.40046 3.95744 6.33437 5.20265 6.97921C6.2255 7.49063 7.53742 7.80194 9.04946 7.80194C10.5393 7.80194 11.8734 7.49063 12.8963 6.97921C14.1415 6.3566 14.8975 5.40046 14.8975 4.28866C14.8975 3.73277 14.7196 3.24358 14.3861 2.79886ZM9.0717 5.80071C6.69245 5.80071 5.22488 4.82233 5.22488 4.28866C5.22488 3.755 6.69245 2.77662 9.0717 2.77662C11.4509 2.77662 12.9185 3.755 12.9185 4.28866C12.8963 4.82233 11.4509 5.80071 9.0717 5.80071Z" fill="#86868B"/>
  <path d="M12.9 4.28939C12.9 4.82305 11.4547 5.80143 9.05323 5.80143C6.65175 5.80143 5.20642 4.82305 5.20642 4.28939C5.20642 3.75572 6.67399 2.77734 9.05323 2.77734C11.4325 2.77734 12.9 3.75572 12.9 4.28939Z" fill="#FF6633"/>
  <path d="M18.7029 17.5859C10.9648 17.5859 4.89441 20.9436 4.89441 25.2351C4.89441 29.5266 10.9648 32.8842 18.7029 32.8842C26.441 32.8842 32.5114 29.5266 32.5114 25.2351C32.5114 20.9436 26.4632 17.5859 18.7029 17.5859ZM29.2872 27.7033C27.3304 29.5711 23.2835 30.883 18.7029 30.883C14.1223 30.883 10.0754 29.5711 8.11862 27.681C7.34036 26.9473 6.89564 26.1023 6.89564 25.2351C6.89564 22.1888 12.299 19.5872 18.7029 19.5872C25.0846 19.5872 30.5102 22.1665 30.5102 25.2351C30.5102 26.1023 30.0655 26.9473 29.2872 27.7033Z" fill="#86868B"/>
  <path d="M18.6974 41.0022C13.1162 41.0022 9.31389 38.9342 8.22433 35.3542L6.06744 28.2832L7.97973 27.7051L10.1366 34.7761C10.9371 37.4666 14.0501 39.0009 18.6752 39.0009V41.0022H18.6974Z" fill="#86868B"/>
  <path d="M18.7047 41.0009V38.9997C23.3297 38.9997 26.4427 37.4654 27.2432 34.7749L29.4001 27.6816L31.3124 28.2598L29.1555 35.3308C28.0882 38.933 24.2859 41.0009 18.7047 41.0009Z" fill="#86868B"/>
  <path d="M29.2868 27.7038C27.33 29.5716 23.2831 30.8835 18.7025 30.8835C14.1219 30.8835 10.075 29.5716 8.11823 27.6815C9.54132 25.7915 13.4993 24.1016 18.7025 24.1016C23.928 24.1238 27.8859 25.7915 29.2868 27.7038Z" fill="#FF6633"/>
</svg>