<svg width="45" height="28" viewBox="0 0 45 28" fill="none" xmlns="http://www.w3.org/2000/svg">
<g id="Group 1912">
<path id="Oval Copy 3" d="M17 7.8125C17 5.15463 14.8454 3 12.1875 3C9.52963 3 7.375 5.15463 7.375 7.8125" fill="#9E9E9E"/>
<path id="Oval Copy 4" d="M37.625 7.8125C37.625 5.15463 35.4704 3 32.8125 3C30.1546 3 28 5.15463 28 7.8125" fill="#9E9E9E"/>
<path id="Oval (Stroke)" fill-rule="evenodd" clip-rule="evenodd" d="M13.2617 8.55947C13.9011 4.07359 17.7563 0.625 22.4188 0.625C26.978 0.625 30.765 3.92252 31.5285 8.26255L29.5588 8.60908C28.9606 5.20866 25.9904 2.625 22.4188 2.625C18.7659 2.625 15.7426 5.32738 15.2417 8.84166L13.2617 8.55947Z" fill="#86868B"/>
<path id="Oval Copy (Stroke)" fill-rule="evenodd" clip-rule="evenodd" d="M33.0469 8.34828C34.1168 7.80546 35.327 7.5 36.6055 7.5C40.9548 7.5 44.4805 11.0258 44.4805 15.375C44.4805 17.1284 43.9063 18.7505 42.936 20.0598L41.3292 18.869C42.0529 17.8925 42.4805 16.6851 42.4805 15.375C42.4805 12.1303 39.8502 9.5 36.6055 9.5C35.6486 9.5 34.7477 9.72805 33.9517 10.1319L33.0469 8.34828Z" fill="#86868B"/>
<path id="Oval Copy 2 (Stroke)" fill-rule="evenodd" clip-rule="evenodd" d="M0.875 15.375C0.875 11.0258 4.40076 7.5 8.75 7.5C10.1594 7.5 11.4851 7.87113 12.6316 8.52171L11.6446 10.2612C10.7911 9.77687 9.80439 9.5 8.75 9.5C5.50533 9.5 2.875 12.1303 2.875 15.375C2.875 16.7224 3.32738 17.9613 4.08909 18.9521L2.50352 20.1711C1.48251 18.8431 0.875 17.1786 0.875 15.375Z" fill="#86868B"/>
<path id="Rectangle (Stroke)" fill-rule="evenodd" clip-rule="evenodd" d="M0.875 26.1844C0.875 15.1059 9.8559 6.125 20.9344 6.125H24.0656C35.1441 6.125 44.125 15.1059 44.125 26.1844C44.125 26.842 43.592 27.375 42.9344 27.375H2.06559C1.40804 27.375 0.875 26.8419 0.875 26.1844ZM2.89281 25.375H42.1072C41.6838 15.7767 33.7683 8.125 24.0656 8.125H20.9344C11.2317 8.125 3.31616 15.7767 2.89281 25.375Z" fill="#86868B"/>
<path id="Oval 7" d="M19.75 14C19.75 14.7594 19.1344 15.375 18.375 15.375C17.6156 15.375 17 14.7594 17 14C17 13.2406 17.6156 12.625 18.375 12.625C19.1344 12.625 19.75 13.2406 19.75 14Z" fill="#9E9E9E"/>
<path id="Oval 7 Copy" d="M25.25 19.5C25.25 20.2594 24.6344 20.875 23.875 20.875C23.1156 20.875 22.5 20.2594 22.5 19.5C22.5 18.7406 23.1156 18.125 23.875 18.125C24.6344 18.125 25.25 18.7406 25.25 19.5Z" fill="#9E9E9E"/>
<path id="Oval 7 Copy 2" d="M34.875 18.125C34.875 18.8844 34.2594 19.5 33.5 19.5C32.7406 19.5 32.125 18.8844 32.125 18.125C32.125 17.3656 32.7406 16.75 33.5 16.75C34.2594 16.75 34.875 17.3656 34.875 18.125Z" fill="#9E9E9E"/>
<path id="Oval 7 Copy 3" d="M11.5 20.875C11.5 21.6344 10.8844 22.25 10.125 22.25C9.36561 22.25 8.75 21.6344 8.75 20.875C8.75 20.1156 9.36561 19.5 10.125 19.5C10.8844 19.5 11.5 20.1156 11.5 20.875Z" fill="#9E9E9E"/>
</g>
</svg>
