<svg width="34" height="41" viewBox="0 0 34 41" fill="none" xmlns="http://www.w3.org/2000/svg">
<g id="Group 1913">
<path id="Vector" d="M13.3997 6.95703V8.69143C13.3997 9.22509 11.9543 10.2035 9.55287 10.2035C7.15139 10.2035 5.70605 9.22509 5.70605 8.69143V6.95703C6.72891 7.46846 8.04082 7.77976 9.55287 7.77976C11.0649 7.802 12.3991 7.49069 13.3997 6.95703Z" fill="#9E9E9E"/>
<path id="Vector_2" d="M18.1321 11.1807H16.1309V18.5852H18.1321V11.1807Z" fill="#86868B"/>
<path id="Vector_3" d="M9.57232 36.0385C4.76936 36.0385 0.989258 33.8593 0.989258 31.1021V11.1787H2.99049V31.1021C2.99049 32.4807 5.79221 34.0372 9.57232 34.0372V36.0385Z" fill="#86868B"/>
<path id="Vector_4" d="M9.57232 16.1172C4.74713 16.1172 0.989258 13.9604 0.989258 11.1809C0.989258 9.60212 2.21223 8.15679 4.32464 7.24512L5.12514 9.0907C3.79098 9.66883 2.99049 10.4471 2.99049 11.2031C2.99049 12.5817 5.79221 14.1382 9.57232 14.1382C13.3524 14.1382 16.1541 12.5817 16.1541 11.2031C16.1541 10.4693 15.3537 9.66883 14.0195 9.0907L14.82 7.24512C16.9324 8.15679 18.1554 9.60212 18.1554 11.1809C18.1331 13.9604 14.3753 16.1172 9.57232 16.1172Z" fill="#86868B"/>
<path id="Vector_5" d="M15.4004 4.28613V8.71108C15.4004 8.88897 15.3782 9.06685 15.3337 9.24474C14.9335 10.9791 12.5765 12.2021 9.57461 12.2021C6.79512 12.2021 4.59376 11.157 3.92669 9.64499C3.79327 9.33368 3.72656 9.02238 3.72656 8.68884V4.28613H5.72779V8.71108C5.72779 9.24474 7.19536 10.2231 9.57461 10.2231C11.9538 10.2231 13.4214 9.24474 13.4214 8.71108V4.28613H15.4004Z" fill="#86868B"/>
<path id="Vector_6" d="M14.8858 2.79788C13.9964 1.57491 11.9952 0.774414 9.54922 0.774414C7.4368 0.774414 5.65793 1.37478 4.63508 2.33093C4.03471 2.88683 3.70117 3.5539 3.70117 4.28769C3.70117 5.39948 4.45719 6.33339 5.7024 6.97823C6.72526 7.48966 8.03717 7.80096 9.54922 7.80096C11.039 7.80096 12.3732 7.48966 13.396 6.97823C14.6412 6.35563 15.3973 5.39948 15.3973 4.28769C15.3973 3.73179 15.2194 3.2426 14.8858 2.79788ZM9.57145 5.79973C7.19221 5.79973 5.72464 4.82135 5.72464 4.28769C5.72464 3.75403 7.19221 2.77565 9.57145 2.77565C11.9507 2.77565 13.4183 3.75403 13.4183 4.28769C13.396 4.82135 11.9507 5.79973 9.57145 5.79973Z" fill="#86868B"/>
<path id="Vector_7" d="M13.3997 4.28841C13.3997 4.82207 11.9543 5.80045 9.55287 5.80045C7.15139 5.80045 5.70605 4.82207 5.70605 4.28841C5.70605 3.75475 7.17362 2.77637 9.55287 2.77637C11.9321 2.77637 13.3997 3.75475 13.3997 4.28841Z" fill="#9E9E9E"/>
<path id="Vector_8" d="M19.203 17.5859C11.4649 17.5859 5.39453 20.9436 5.39453 25.2351C5.39453 29.5266 11.4649 32.8842 19.203 32.8842C26.9411 32.8842 33.0115 29.5266 33.0115 25.2351C33.0115 20.9436 26.9634 17.5859 19.203 17.5859ZM29.7873 27.7033C27.8306 29.5711 23.7836 30.883 19.203 30.883C14.6224 30.883 10.5755 29.5711 8.61874 27.681C7.84048 26.9473 7.39576 26.1023 7.39576 25.2351C7.39576 22.1888 12.7991 19.5872 19.203 19.5872C25.5847 19.5872 31.0103 22.1665 31.0103 25.2351C31.0103 26.1023 30.5656 26.9473 29.7873 27.7033Z" fill="#86868B"/>
<path id="Vector_9" d="M19.1974 41.0002C13.6162 41.0002 9.81383 38.9323 8.72427 35.3523L6.56738 28.2813L8.47967 27.7031L10.6366 34.7741C11.437 37.4647 14.5501 38.999 19.1751 38.999V41.0002H19.1974Z" fill="#86868B"/>
<path id="Vector_10" d="M19.2041 41V38.9987C23.8292 38.9987 26.9422 37.4645 27.7427 34.7739L29.8996 27.6807L31.8119 28.2588L29.655 35.3298C28.5877 38.932 24.7853 41 19.2041 41Z" fill="#86868B"/>
<path id="Vector_11" d="M29.7867 27.7028C27.83 29.5706 23.7831 30.8825 19.2025 30.8825C14.6219 30.8825 10.5749 29.5706 8.61816 27.6806C10.0413 25.7905 13.9993 24.1006 19.2025 24.1006C24.4279 24.1228 28.3859 25.7905 29.7867 27.7028Z" fill="#9E9E9E"/>
</g>
</svg>
