<svg width="343" height="201" fill="none" xmlns="http://www.w3.org/2000/svg"><path d="M0 0h343v201H0z"/><path d="M195.973 159.216c-35.094 6.992-81.02 17.392-96.797 1.587-15.778-15.806-1.332-57.952 20.879-87.12 22.281-28.961 52.187-45.018 82.933-46.023 30.606-1.078 62.055 12.895 75.012 34.936 12.738 22.103 7.125 52.347-7.844 69.158-14.972 16.81-39.234 20.396-74.183 27.462Z" fill="#EDEDED"/><path d="M174.309 144.939c6.234 0 11.691-1.31 16.371-3.93 4.675-2.619 8.32-6.275 10.929-10.967 2.614-4.692 3.918-10.166 3.918-16.422V88.284c0-6.256-1.304-11.73-3.918-16.422q-1.98-3.559-4.75-6.322-2.711-2.703-6.179-4.646-7.016-3.93-16.371-3.93c-6.239 0-11.692 1.31-16.371 3.93-4.676 2.62-8.321 6.276-10.934 10.968-2.609 4.692-3.914 10.166-3.914 16.422v25.336c0 6.256 1.305 11.73 3.914 16.422 2.613 4.692 6.258 8.348 10.934 10.967 4.679 2.62 10.132 3.93 16.371 3.93Zm-68.899-1.76h16.137v-13.137h7.484v-14.897h-7.484V94.031H105.41v21.114H87.055l26.539-56.42H95.356l-26.543 56.42v14.897h36.597v13.137Zm166.863 0h-16.136v-13.137h-36.598v-14.897l26.543-56.42h18.238l-26.539 56.42h18.356V94.031h16.136v21.114h7.485v14.897h-7.485v13.137Zm-97.964-13.372c-2.805 0-5.34-.665-7.602-1.994a14.89 14.89 0 0 1-5.379-5.396c-1.324-2.267-1.988-4.809-1.988-7.624v-27.8c0-2.815.664-5.356 1.988-7.624a14.894 14.894 0 0 1 5.379-5.396q.879-.515 1.809-.897 2.672-1.097 5.793-1.097t5.793 1.097q.929.382 1.808.897a14.894 14.894 0 0 1 5.379 5.396c1.324 2.268 1.984 4.81 1.984 7.624v27.8c0 2.815-.66 5.357-1.984 7.624a14.89 14.89 0 0 1-5.379 5.396c-2.262 1.329-4.797 1.994-7.601 1.994Z" fill="#F63" fill-rule="evenodd"/><path d="M174.309 144.939c6.234 0 11.691-1.31 16.371-3.93 4.675-2.619 8.32-6.275 10.929-10.967 2.614-4.692 3.918-10.166 3.918-16.422V88.284c0-6.256-1.304-11.73-3.918-16.422-2.609-4.692-6.254-8.348-10.929-10.968q-7.016-3.93-16.371-3.93-9.356 0-16.371 3.93c-4.676 2.62-8.321 6.276-10.934 10.968-2.609 4.692-3.914 10.166-3.914 16.422v25.336c0 6.256 1.305 11.73 3.914 16.422 2.613 4.692 6.258 8.348 10.934 10.967 4.679 2.62 10.132 3.93 16.371 3.93Zm-68.899-1.76h16.137v-13.137h7.484v-14.897h-7.484V94.031H105.41v21.114H87.055l26.539-56.42H95.356l-26.543 56.42v14.897h36.597v13.137Zm166.863 0h-16.136v-13.137h-36.598v-14.897l26.543-56.42h18.238l-26.539 56.42h18.356V94.031h16.136v21.114h7.485v14.897h-7.485v13.137Zm-97.964-13.372c-2.805 0-5.34-.665-7.602-1.994a14.89 14.89 0 0 1-5.379-5.396c-1.324-2.267-1.988-4.809-1.988-7.624v-27.8c0-2.815.664-5.356 1.988-7.624q1.008-1.722 2.371-3.082 1.332-1.329 3.008-2.314c2.262-1.33 4.797-1.994 7.602-1.994 2.804 0 5.339.665 7.601 1.994a14.894 14.894 0 0 1 5.379 5.396c1.324 2.268 1.984 4.81 1.984 7.624v27.8c0 2.815-.66 5.357-1.984 7.624a14.89 14.89 0 0 1-5.379 5.396c-2.262 1.329-4.797 1.994-7.601 1.994Z" fill="#F63" fill-rule="evenodd"/><path d="M169.02 146.825q10.136 0 17.835-4.312 3.836-2.15 6.836-5.142 3.063-3.054 5.25-6.984 4.297-7.718 4.297-17.88V87.17q0-10.162-4.297-17.88-2.187-3.93-5.25-6.984-3-2.992-6.836-5.142-7.699-4.312-17.835-4.312-10.141 0-17.836 4.312-3.84 2.15-6.84 5.142-3.063 3.054-5.25 6.984-4.297 7.718-4.297 17.88v25.337q0 10.162 4.297 17.88 2.187 3.93 5.25 6.984 3 2.992 6.84 5.142 7.695 4.312 17.836 4.312Zm16.367-6.929c-4.676 2.62-10.133 3.929-16.367 3.929-6.239 0-11.696-1.309-16.372-3.929q-3.468-1.942-6.179-4.644v-.002q-2.774-2.764-4.754-6.322c-2.61-4.691-3.918-10.165-3.918-16.421V87.17c0-6.256 1.308-11.73 3.918-16.422q1.98-3.558 4.754-6.322 2.711-2.702 6.179-4.645c4.676-2.62 10.133-3.93 16.372-3.93 6.234 0 11.691 1.31 16.367 3.93 4.679 2.62 8.324 6.276 10.933 10.967 2.614 4.692 3.918 10.166 3.918 16.422v25.337c0 6.256-1.304 11.73-3.918 16.421-2.609 4.692-6.254 8.348-10.933 10.968Zm63.804 7.34h22.137v-13.137h7.484v-20.897h-7.484V92.088h-22.137v21.114h-10.629l26.543-56.421H240.23l-27.636 58.75v18.568h36.597v13.137Zm0-16.137h3v13.137h16.137v-13.137h7.484v-14.897h-7.484V95.088h-16.137v21.114h-18.355l1.41-3 23.719-50.421 1.41-3h-18.238l-26.543 56.421v14.897h33.597ZM97.598 147.615h22.136v-13.137h7.485v-20.897h-7.485V92.467H97.598v21.114h-10.63l26.544-56.42H88.637L61 115.91v18.567h36.598v13.137Zm0-16.137h3v13.137h16.136v-13.137h7.485v-14.897h-7.485V95.467h-16.136v21.114H82.242l1.41-3 23.719-50.42 1.41-3H90.543L64 116.58v14.897h33.598Zm63.82-4.778c2.262 1.329 4.793 1.994 7.602 1.994 2.804 0 5.339-.665 7.597-1.994a14.836 14.836 0 0 0 5.379-5.396c1.324-2.268 1.988-4.809 1.988-7.624v-27.8c0-2.815-.664-5.357-1.988-7.624a14.831 14.831 0 0 0-5.379-5.396q-.875-.516-1.805-.898-2.671-1.096-5.792-1.096c-2.809 0-5.34.664-7.602 1.994q-1.676.985-3.008 2.313-1.363 1.361-2.371 3.083c-1.324 2.267-1.988 4.809-1.988 7.624v27.8c0 2.815.664 5.356 1.988 7.624a14.836 14.836 0 0 0 5.379 5.396Zm2.625-2.016q-.566-.253-1.105-.57-1.336-.787-2.403-1.847-1.097-1.093-1.906-2.476-.301-.517-.547-1.059-1.031-2.294-1.031-5.052v-27.8q0-2.758 1.031-5.052.246-.543.547-1.059.809-1.384 1.906-2.476 1.067-1.06 2.403-1.847.539-.317 1.105-.57 2.262-1.01 4.977-1.01 2.71 0 4.972 1.01.567.253 1.106.57 1.336.787 2.402 1.847 1.098 1.093 1.906 2.476.301.516.547 1.059 1.031 2.294 1.031 5.052v27.8q0 2.758-1.031 5.052-.246.542-.547 1.059-.808 1.383-1.906 2.476-1.066 1.06-2.402 1.847-.539.317-1.106.57-2.262 1.01-4.972 1.01-2.715 0-4.977-1.01Z" fill="#1D1D1F" fill-rule="evenodd"/><ellipse cx="321.438" cy="47.172" rx="6.3" ry="6.32" stroke="#1A1A1A" stroke-width="4" stroke-linejoin="round"/><path d="m220.82 160.14 17.942 5.712-5.726 17.988-17.942-5.71z"/><path d="m229.395 162.871-.602 1.907m7.418 9.706-1.906-.606m-14.293-4.55-1.907-.606m6.165 10.356-.602 1.907" stroke="#1A1A1A" stroke-width="4" stroke-linejoin="round" stroke-linecap="round"/><path d="m73.688 42.931 1.195 14.858-13.985-7.269 12.79-7.589Z" stroke="#1A1A1A" stroke-width="4" stroke-linejoin="round"/></svg>