<svg width="24" height="25" fill="none" xmlns="http://www.w3.org/2000/svg"><g fill-rule="evenodd" clip-rule="evenodd" fill="#000"><path d="M12 3.234A6.91 6.91 0 0 0 7.058 5.33 7.277 7.277 0 0 0 5 10.416c0 2.788 1.775 5.502 3.734 7.616A26.283 26.283 0 0 0 12 20.995a26.288 26.288 0 0 0 3.266-2.963C17.225 15.918 19 13.204 19 10.416a7.277 7.277 0 0 0-2.058-5.086A6.91 6.91 0 0 0 12 3.234Zm0 19c-.563.827-.564.826-.564.826l-.003-.002-.006-.004-.02-.014-.075-.052a25.552 25.552 0 0 1-1.214-.93 28.272 28.272 0 0 1-2.852-2.667C5.225 17.187 3 13.991 3 10.416c0-2.428.943-4.76 2.628-6.484A8.91 8.91 0 0 1 12 1.234a8.91 8.91 0 0 1 6.372 2.698A9.277 9.277 0 0 1 21 10.416c0 3.576-2.225 6.771-4.266 8.975a28.263 28.263 0 0 1-3.796 3.4c-.115.086-.206.151-.27.197l-.074.052-.021.014-.006.004-.002.002s-.002 0-.565-.826Zm0 0 .563.827a1 1 0 0 1-1.127 0l.564-.827Z"/><path d="M12 8.234a2 2 0 1 0 0 4 2 2 0 0 0 0-4Zm-4 2a4 4 0 1 1 8 0 4 4 0 0 1-8 0Z"/></g></svg>