<svg width="323" height="203" fill="none" xmlns="http://www.w3.org/2000/svg"><path d="M102.31 171.726 82.228 79.053a10 10 0 0 1 4.97-10.889l23.324-12.771a10 10 0 0 1 5.544-1.202l30.998 2.304a9.998 9.998 0 0 0 5.578-1.22l26.768-14.793a9.998 9.998 0 0 1 5.578-1.22l26.498 1.969a10 10 0 0 1 9.032 7.855l20.082 92.672c1.404 6.478-3.768 12.504-10.384 12.099l-20.8-1.274a10.012 10.012 0 0 0-5.333 1.166l-27.086 14.507a9.999 9.999 0 0 1-5.332 1.166l-31.17-1.909a10 10 0 0 0-5.299 1.148l-18.425 9.78c-5.854 3.107-13.057-.237-14.461-6.715Z" fill="#EDEDED"/><circle cx="244" cy="57.234" r="30" fill="#F63"/><path d="M172.664 50.711a5 5 0 0 1 1.907-3.928l36.333-28.613a5 5 0 0 1 6.187 0l36.333 28.613a5.01 5.01 0 0 1 1.907 3.933v48.718a9.357 9.357 0 0 1-2.691 6.576 9.121 9.121 0 0 1-6.494 2.724h-64.297a9.125 9.125 0 0 1-6.495-2.724 9.36 9.36 0 0 1-2.69-6.576V50.711Z" stroke="#1D1D1F" stroke-width="5" stroke-linecap="round" stroke-linejoin="round"/><path d="M198.5 108.734v-46.5h31v46.5" stroke="#1D1D1F" stroke-width="5" stroke-linecap="round" stroke-linejoin="round"/><path d="M127.375 167.984c6.835 0 12.375-5.54 12.375-12.375 0-6.834-5.54-12.375-12.375-12.375S115 148.775 115 155.609c0 6.835 5.54 12.375 12.375 12.375Z" fill="#F63"/><path d="M153 195.234h46.072c8.244 0 14.928-6.683 14.928-14.928 0-8.244-6.684-14.928-14.928-14.928h-13.744a7.828 7.828 0 1 1 0-15.656h1.922c5.385 0 9.75-4.366 9.75-9.75v-15.738" stroke="#1D1D1F" stroke-width="4" stroke-linejoin="round" stroke-dasharray="10 15"/><path d="M156.5 153.234c0 24.5-31.5 45.5-31.5 45.5s-31.5-21-31.5-45.5a31.498 31.498 0 0 1 31.5-31.5 31.5 31.5 0 0 1 31.5 31.5Z" stroke="#000" stroke-width="5" stroke-linecap="round" stroke-linejoin="round"/><path d="M125 163.734c5.799 0 10.5-4.701 10.5-10.5s-4.701-10.5-10.5-10.5-10.5 4.701-10.5 10.5 4.701 10.5 10.5 10.5Z" stroke="#000" stroke-width="5" stroke-linecap="round" stroke-linejoin="round"/><path d="M87.861 46.395c1.382-3.714 5.366-7.342 9.557-8.7 1.036-.335 3.095-.506 5.432-.45 3.283.079 4.095.248 6.364 1.327 1.808.859 3.18 1.895 4.503 3.4l1.902 2.163 2.033-.704c6.7-2.323 14.422 1.045 17.456 7.613.555 1.202 1.012 2.386 1.014 2.63.002.246.753.567 1.671.714 4.23.679 8.167 3.763 10.066 7.887.99 2.148 1.141 2.951 1.141 6.053 0 3.101-.151 3.904-1.141 6.053-1.324 2.875-4.107 5.696-6.894 6.988-1.868.865-1.884.865-31.777.865H79.28l-2.663-1.265c-3.7-1.758-6.337-4.353-8.141-8.014C67.03 70.02 67 69.868 67 65.37c0-4.162.1-4.807 1.073-6.889 1.303-2.79 4.78-6.541 7.375-7.958 2.729-1.49 6.19-2.316 9.125-2.18l2.52.117.768-2.065Z" fill="#F63"/><path d="M86.59 40.988c1.296-3.549 5.038-7.015 8.973-8.313.973-.32 2.907-.484 5.101-.43 3.083.075 3.846.237 5.976 1.267 1.698.821 2.986 1.811 4.228 3.249l1.786 2.068 1.91-.674c6.291-2.219 13.542.999 16.391 7.275.522 1.148.95 2.28.952 2.514.002.234.708.541 1.569.681 3.973.649 7.67 3.596 9.453 7.537.929 2.053 1.071 2.82 1.071 5.784 0 2.963-.142 3.73-1.071 5.784-1.243 2.747-3.857 5.443-6.474 6.677-1.754.827-1.769.827-29.839.827H78.531l-2.5-1.209c-3.476-1.68-5.95-4.16-7.645-7.658C67.028 63.563 67 63.418 67 59.119c0-3.977.094-4.593 1.008-6.582 1.224-2.666 4.488-6.25 6.925-7.604 2.562-1.424 5.812-2.214 8.569-2.084l2.366.112.721-1.973Z" stroke="#1D1D1F" stroke-width="5"/></svg>