<svg width="110" height="37" fill="none" xmlns="http://www.w3.org/2000/svg"><path d="M8.765 0c-.337 0-.67 0-1.006.002-.282.002-.561.007-.846.012a11.84 11.84 0 0 0-1.841.165 5.883 5.883 0 0 0-2.537 1.075 5.97 5.97 0 0 0-1.781 2.12 6.217 6.217 0 0 0-.576 1.775 12.283 12.283 0 0 0-.164 1.866c-.01.286-.01.573-.014.859V29.13c.005.289.005.569.014.86.007.625.062 1.248.164 1.865.1.619.296 1.217.576 1.776a5.786 5.786 0 0 0 1.082 1.505 5.76 5.76 0 0 0 1.488 1.099c.55.284 1.14.482 1.748.588.609.102 1.225.158 1.841.165.285.006.564.01.845.01.337.002.67.002 1.006.002h92.476c.331 0 .666 0 .996-.002.28 0 .567-.004.848-.01.616-.007 1.23-.063 1.838-.165a6.191 6.191 0 0 0 1.755-.588 5.778 5.778 0 0 0 1.486-1.099c.438-.44.804-.949 1.086-1.505.278-.56.47-1.158.569-1.776.103-.617.16-1.24.171-1.866.004-.29.004-.57.004-.86.007-.338.007-.675.007-1.02V8.893c0-.342 0-.68-.007-1.018 0-.287 0-.574-.004-.859a12.693 12.693 0 0 0-.171-1.866 6.22 6.22 0 0 0-.569-1.776 5.984 5.984 0 0 0-2.572-2.61 6.157 6.157 0 0 0-1.755-.584 11.83 11.83 0 0 0-1.838-.165 79.55 79.55 0 0 0-.848-.012c-.33-.002-.665-.002-.996-.002H8.765Z" fill="#1D1D1F"/><path d="M7.935 35.997c-.28 0-.551-.003-.828-.009a11.632 11.632 0 0 1-1.712-.15 5.394 5.394 0 0 1-1.517-.5 4.951 4.951 0 0 1-1.28-.93 4.867 4.867 0 0 1-.935-1.279 5.231 5.231 0 0 1-.497-1.516 11.348 11.348 0 0 1-.152-1.716c-.006-.192-.014-.835-.014-.835V7.925l.014-.818c.007-.575.058-1.147.151-1.714A5.104 5.104 0 0 1 5.39 1.16a11.54 11.54 0 0 1 1.718-.15L7.935 1h94.125l.836.012c.57.006 1.14.056 1.703.148.532.09 1.047.26 1.53.502a5.124 5.124 0 0 1 2.211 2.214c.24.476.405.984.491 1.509.095.57.148 1.148.159 1.726.003.26.003.538.003.815.007.343.007.669.007.999v19.15c0 .332 0 .656-.007.983 0 .298 0 .57-.004.85-.01.569-.063 1.136-.156 1.696a5.244 5.244 0 0 1-.495 1.529 4.996 4.996 0 0 1-.93 1.268 4.946 4.946 0 0 1-1.282.935 5.376 5.376 0 0 1-1.527.504c-.567.091-1.139.142-1.712.149-.269.006-.549.01-.823.01l-.992.001-93.137-.003Z" fill="#1D1D1F"/><path d="M22.168 18.199c.002 1.815 1.024 3.454 2.598 4.162a10.653 10.653 0 0 1-1.352 2.926c-.795 1.266-1.63 2.503-2.955 2.526-1.286.031-1.72-.806-3.195-.806-1.49 0-1.951.783-3.185.837-1.261.05-2.226-1.35-3.05-2.605-1.649-2.56-2.933-7.217-1.212-10.385.81-1.544 2.32-2.524 3.981-2.581 1.262-.027 2.435.907 3.21.907.762 0 2.21-1.117 3.705-.951a4.354 4.354 0 0 1 2.011.579 4.55 4.55 0 0 1 1.54 1.462 4.638 4.638 0 0 0-1.528 1.688 4.849 4.849 0 0 0-.568 2.24Zm-1.791-7.576c-.747 1.017-1.878 1.602-3.07 1.589a5.104 5.104 0 0 1 1.085-3.488A4.583 4.583 0 0 1 21.433 7a5.38 5.38 0 0 1-1.058 3.623l.002-.001Z" fill="#fff"/><g fill="#fff"><path d="M68.82 23.29c-1.51 0-2.617-.778-2.744-1.964h-1.758c.11 2.163 1.83 3.532 4.375 3.532 2.722 0 4.432-1.402 4.432-3.64 0-1.748-.979-2.733-3.333-3.314l-1.266-.323c-1.48-.381-2.084-.88-2.084-1.725 0-1.06.947-1.79 2.33-1.79 1.385 0 2.332.721 2.436 1.914h1.734c-.056-2.063-1.718-3.48-4.144-3.48-2.451 0-4.177 1.417-4.177 3.48 0 1.668.978 2.694 3.086 3.225l1.488.372c1.487.382 2.116.938 2.116 1.865 0 1.07-1.042 1.849-2.49 1.849Zm8.014-7.35v-2.064h-1.727v2.063H73.89v1.418h1.217v4.997c0 1.69.66 2.354 2.356 2.354.32.006.639-.021.954-.082v-1.41a5.12 5.12 0 0 1-.566.041c-.7 0-1.017-.347-1.017-1.093v-4.808h1.59V15.94h-1.59Zm13.507 0h-1.637l-.001 8.718h1.718v-5.171a1.873 1.873 0 0 1 .076-.768 1.83 1.83 0 0 1 .377-.665c.17-.19.377-.34.608-.439.23-.099.48-.145.73-.135a2.31 2.31 0 0 1 .772.11v-1.675a2.6 2.6 0 0 0-.589-.067 1.943 1.943 0 0 0-1.276.416 2.081 2.081 0 0 0-.737 1.159h-.04v-1.484Z"/><path fill-rule="evenodd" clip-rule="evenodd" d="M59.988 20.3c0 2.708-1.392 4.45-3.494 4.45a2.751 2.751 0 0 1-1.527-.37 2.895 2.895 0 0 1-1.106-1.156h-.04v4.318h-1.717V15.94h1.663v1.45h.03a3.026 3.026 0 0 1 1.128-1.153 2.874 2.874 0 0 1 1.538-.388c2.124 0 3.525 1.749 3.525 4.452Zm-3.978-2.927c1.336 0 2.212 1.161 2.212 2.927 0 1.78-.876 2.933-2.212 2.933-1.313 0-2.195-1.177-2.195-2.933 0-1.742.882-2.927 2.195-2.927ZM50.775 20.3c0 2.708-1.391 4.45-3.493 4.45a2.751 2.751 0 0 1-1.528-.37 2.895 2.895 0 0 1-1.105-1.156h-.04v4.318h-1.717V15.94h1.662v1.45h.032a3.026 3.026 0 0 1 1.127-1.153c.47-.272 1-.406 1.538-.388 2.124 0 3.524 1.749 3.524 4.452Zm-3.977-2.927c1.336 0 2.211 1.161 2.211 2.927 0 1.78-.875 2.933-2.212 2.933-1.312 0-2.195-1.177-2.195-2.933 0-1.742.883-2.927 2.196-2.927Zm-7.908 4.053h-4.376l-1.052 3.232H31.61L35.753 12.7h1.926l4.145 11.958h-1.885l-1.05-3.232Zm-.455-1.491h-3.469l.001-.001 1.71-5.245h.047l1.711 5.246Zm40.912.365c0-2.744 1.55-4.468 3.97-4.468 2.426 0 3.97 1.724 3.97 4.468 0 2.75-1.536 4.466-3.97 4.466-2.435 0-3.97-1.716-3.97-4.466Zm3.97-2.994c1.392 0 2.22 1.112 2.22 2.994 0 1.888-.829 2.99-2.22 2.99-1.392 0-2.22-1.102-2.22-2.99 0-1.874.827-2.994 2.22-2.994Zm17.588 4.792c-.231 1.582-1.711 2.668-3.605 2.668-2.434 0-3.945-1.699-3.945-4.425 0-2.736 1.519-4.51 3.874-4.51 2.315 0 3.771 1.658 3.771 4.302v.613h-5.911v.108a2.327 2.327 0 0 0 .591 1.764c.213.234.47.417.757.539.286.121.594.178.903.166.406.04.814-.058 1.162-.28a1.95 1.95 0 0 0 .771-.945h1.632Zm-1.624-2.603h-4.184a2.257 2.257 0 0 1 .623-1.57 2.056 2.056 0 0 1 1.509-.643c.277-.006.553.047.81.158.256.11.488.274.68.482.193.208.343.455.44.726.096.27.138.559.122.847Z"/></g></svg>