<svg width="400" height="201" fill="none" xmlns="http://www.w3.org/2000/svg"><defs><clipPath id="b"><path transform="translate(105 1)" fill="#fff" fill-opacity="0" d="M0 0h200v200H0z"/></clipPath><clipPath id="a"><path transform="translate(105 1)" fill="#fff" fill-opacity="0" d="M0 0h200v200H0z"/></clipPath><clipPath id="c"><path transform="translate(171 82)" fill="#fff" fill-opacity="0" d="M0 0h56v56H0z"/></clipPath></defs><path d="M0 0h400v200H0z"/><path d="M105 1h200v200H105z"/><g clip-path="url(#a)"><path d="M105 1h200v200H105z"/><g clip-path="url(#b)"><path d="M255.832 46.154c7.906 17.014 5 36.133 13.875 64.164s29.527 64.812 21.461 72.914c-8.066 7.939-44.695-12.801-70.672-23.657-25.976-10.856-41.144-11.666-63.734-19.767-22.59-7.94-52.598-23.171-53.731-39.536-1.129-16.365 26.785-33.702 49.375-50.877 22.59-17.013 39.852-33.54 58.086-34.35 18.235-.973 37.274 14.096 45.34 31.11Z" fill="#EDEDED"/></g></g><path d="M156.363 60h85.858v85.858h-85.858z"/><path d="m205.02 43.446 66.394 103.089c3.426 5.324-.394 12.332-6.726 12.332H131.902c-6.332 0-10.156-7.008-6.726-12.332L191.57 43.446c3.149-4.89 10.301-4.89 13.45 0Z" fill="#F44837"/><path d="m232 126 14.34 14.339m0-14.339L232 140.339" stroke="#FFF" stroke-width="4" stroke-linejoin="round" stroke-linecap="round"/><path d="m276.402 138.434-77.027-95.406c-3.652-4.527-10.766-3.763-13.375 1.437l-55 109.592c-2.84 5.659 1.711 12.219 8.008 11.542l132.023-14.185c6.297-.677 9.348-8.053 5.371-12.98Zm-80.918-92.265 77.028 95.406q.558.693.668 1.451.109.758-.231 1.581-.34.822-.953 1.281-.613.459-1.5.555l-132.023 14.185q-.887.095-1.582-.223-.696-.319-1.203-1.051-.508-.731-.563-1.495-.055-.764.344-1.56l55-109.591q.367-.732.957-1.14.59-.41 1.406-.497.813-.088 1.477.187.664.274 1.175.91Z" fill="#000" fill-rule="evenodd"/><path d="M171 82h56v56h-56z"/><g clip-path="url(#c)" fill="#FFF" fill-rule="evenodd"><path d="M183.133 85.267a2.335 2.335 0 0 1 1.867-.934h28c.734 0 1.426.346 1.867.934l7 9.333c.305.404.469.895.469 1.4v32.667a7 7 0 0 1-7 7h-32.668a6.998 6.998 0 0 1-4.949-2.051 6.998 6.998 0 0 1-2.051-4.949V96c0-.505.164-.996.465-1.4l7-9.333ZM186.168 89l-5.832 7.778v31.889a2.333 2.333 0 0 0 2.332 2.333h32.668a2.333 2.333 0 0 0 2.332-2.333v-31.89L211.836 89h-25.668Z"/><path d="M175.668 96A2.332 2.332 0 0 1 178 93.667h42A2.335 2.335 0 0 1 222.336 96 2.335 2.335 0 0 1 220 98.333h-42A2.332 2.332 0 0 1 175.668 96Zm13.996 7a2.336 2.336 0 0 1 2.336 2.333c0 1.857.734 3.637 2.051 4.95a6.998 6.998 0 0 0 11.949-4.95 2.332 2.332 0 1 1 4.664 0 11.665 11.665 0 1 1-23.332 0 2.332 2.332 0 0 1 2.332-2.333Z"/></g><path d="m85.027 110.116 18.411 4.125-14.051 14.232-4.36-18.357Z" stroke="#1D1D1F" stroke-width="3" stroke-linejoin="round"/><path d="m274.23 151 22.784 7.23-7.23 22.783-22.783-7.23z"/><path d="m285.668 154.629-.606 1.906m8.415 13.161-1.907-.605m-19.062-6.048-1.906-.605m8.414 13.161-.606 1.906" stroke="#1D1D1F" stroke-width="3" stroke-linejoin="round" stroke-linecap="round"/><circle cx="291" cy="50" r="12" stroke="#1D1D1F" stroke-width="3.68" stroke-linejoin="round"/><path d="M291 44v6.75l3 2.25" stroke="#1D1D1F" stroke-width="3.68" stroke-linejoin="round" stroke-linecap="round"/></svg>