<svg width="21" height="17" fill="none" xmlns="http://www.w3.org/2000/svg"><path fill-rule="evenodd" clip-rule="evenodd" d="M19.87 15.17v-1.53h-.341v.89a.661.661 0 0 0-.555-.25.892.892 0 0 0-.896.89c0 .491.401.89.896.89a.661.661 0 0 0 .555-.25v.213h.34v-.853Zm-11.14-.834h.627v.284H8.73v.819a.248.248 0 0 0 .065.206.252.252 0 0 0 .203.078.592.592 0 0 0 .323-.089l.107.303a1.007 1.007 0 0 1-.465.124c-.43 0-.574-.231-.574-.623v-.8h-.358v-.302h.358v-.516h.34v.516Zm-4.963.622v1.067H3.39v-.978c0-.284-.143-.444-.394-.444a.403.403 0 0 0-.321.12.397.397 0 0 0-.109.324v.978h-.34v-.978c0-.284-.144-.444-.394-.444a.402.402 0 0 0-.321.12.397.397 0 0 0-.11.324v.978h-.34v-1.707h.34v.213a.61.61 0 0 1 .52-.248.628.628 0 0 1 .573.302.708.708 0 0 1 .61-.303.628.628 0 0 1 .487.187c.128.13.192.309.175.49Zm8.773-.677a.538.538 0 0 0-.465.25v-.214h-.34v1.707h.34v-.96c0-.285.143-.463.376-.463.079.004.157.015.233.036l.107-.32a1.22 1.22 0 0 0-.25-.036Zm-5.518.002c.246-.012.49.05.699.177l-.18.267a1.298 1.298 0 0 0-.536-.142c-.197 0-.34.107-.34.213 0 .107.143.16.304.178l.179.018c.376.053.59.178.59.498s-.268.551-.77.551c-.26.004-.516-.07-.734-.213l.18-.267c.166.12.367.182.573.178.268 0 .412-.09.412-.214 0-.088-.126-.16-.323-.195l-.179-.018c-.376-.053-.573-.213-.573-.498 0-.338.269-.533.698-.533Zm5.918.889a.836.836 0 0 0 .246.645c.171.17.408.259.65.244a.9.9 0 0 0 .608-.196l-.179-.267a.72.72 0 0 1-.447.16.573.573 0 0 1-.53-.568c0-.298.23-.546.53-.57a.72.72 0 0 1 .447.16l.18-.266a.9.9 0 0 0-.61-.196.806.806 0 0 0-.65.216.793.793 0 0 0-.245.638Zm-3.266-.002c0-.533.34-.889.841-.889.484 0 .806.356.806.89v.142H10.05c.029.26.255.454.52.444a.86.86 0 0 0 .5-.178l.18.25a1.1 1.1 0 0 1-.699.23.845.845 0 0 1-.639-.25.832.832 0 0 1-.238-.639Zm.84-.568a.43.43 0 0 1 .449.427h-.932a.46.46 0 0 1 .484-.427Zm-4.637-.284v1.707h-.34v-.213a.661.661 0 0 1-.556.249.892.892 0 0 1-.895-.89c0-.49.4-.889.895-.889a.661.661 0 0 1 .556.25v-.214h.34Zm-1.39.852a.536.536 0 0 1 1.073.046.535.535 0 0 1-.536.523.52.52 0 0 1-.537-.569Zm12.767-.64a.538.538 0 0 1 .466-.249c.085.003.169.015.25.036l-.107.32a1.053 1.053 0 0 0-.232-.036c-.233 0-.377.178-.377.463v.96h-.34v-1.707h.34v.213Zm3.223 1.244a.109.109 0 0 1 .071.018c.018 0 .036.018.054.035.018.018.036.036.036.054 0 .007.003.014.006.023a.102.102 0 0 1 .012.048.106.106 0 0 1-.018.071.09.09 0 0 0-.018.027.093.093 0 0 1-.018.026c-.018.018-.036.036-.054.036a.055.055 0 0 0-.023.007.117.117 0 0 1-.048.01.109.109 0 0 1-.072-.017c-.009-.009-.018-.013-.027-.018a.093.093 0 0 1-.027-.018c-.018-.017-.036-.035-.036-.053 0-.007-.003-.015-.006-.023a.115.115 0 0 1-.012-.048.106.106 0 0 1 .018-.071.08.08 0 0 0 .018-.027.14.14 0 0 1 .018-.027c.018-.017.036-.035.054-.035a.138.138 0 0 0 .036-.01.148.148 0 0 1 .036-.008Zm.056.286a.067.067 0 0 1-.053.018.067.067 0 0 1-.054-.018l-.017-.017h.033v-.053h.018v.005h.005l.049.048h.049a.04.04 0 0 1-.03.017Zm.031-.02.003.003h-.005l.002-.003Zm-.045-.045.045.045a.04.04 0 0 0 .005-.015l.036-.036c0-.009.005-.018.009-.027a.05.05 0 0 0 .009-.026.066.066 0 0 0-.018-.054.04.04 0 0 0-.036-.035l-.036-.036a.063.063 0 0 1-.026-.009c-.01-.004-.018-.009-.027-.009a.067.067 0 0 0-.054.018.04.04 0 0 0-.036.036l-.036.035c0 .01-.004.018-.009.027a.063.063 0 0 0-.009.027.068.068 0 0 0 .018.053.04.04 0 0 0 .036.036l.016.016v.002h.003l-.003-.002v-.158h.09c.02-.002.04.005.053.018h.001-.09v.09l.005.004h.054Zm.042-.034v.034h-.042l-.005-.005a.062.062 0 0 0 .035-.018.22.22 0 0 0 .012-.011Zm0-.048a.027.027 0 0 1 .005.008.05.05 0 0 1 .001.016v.015a.027.027 0 0 1-.006.008v-.047Zm0 0v-.011h-.01a.23.23 0 0 1 .01.01Zm-4.168-.742v-.853h-.34v.213a.661.661 0 0 0-.556-.249.892.892 0 0 0-.895.89c0 .49.4.889.895.889a.661.661 0 0 0 .555-.25v.214h.34v-.854Zm-.818-.499a.536.536 0 0 0-.56.498c0 .32.198.587.538.569.292 0 .53-.233.536-.523a.535.535 0 0 0-.514-.544Zm3.455 0a.536.536 0 0 0-.56.498.52.52 0 0 0 .538.569c.292 0 .53-.233.536-.523a.535.535 0 0 0-.514-.544Z" fill="#1D1D1F"/><path fill="#FF5F00" d="M7.328 1.367h6.215v10.065H7.328z"/><path fill-rule="evenodd" clip-rule="evenodd" d="M7.98 6.402c0-1.962.904-3.816 2.453-5.033a6.485 6.485 0 0 0-7.644-.238A6.378 6.378 0 0 0 .293 8.309c.841 2.677 3.34 4.498 6.164 4.495a6.437 6.437 0 0 0 3.976-1.37A6.403 6.403 0 0 1 7.98 6.402Z" fill="#EB001B"/><path fill-rule="evenodd" clip-rule="evenodd" d="M20.25 10.153v.216h-.035v-.216h-.09v-.036h.215v.036h-.09Zm.427-.036v.252h-.036v-.198l-.071.162h-.054l-.072-.162v.199h-.053v-.253h.071l.072.18.072-.18h.071Zm.2-3.714a6.398 6.398 0 0 1-3.628 5.75 6.485 6.485 0 0 1-6.796-.718 6.4 6.4 0 0 0 2.454-5.032 6.4 6.4 0 0 0-2.454-5.033A6.485 6.485 0 0 1 17.25.652a6.398 6.398 0 0 1 3.628 5.75Z" fill="#F79E1B"/></svg>