<svg width="30" height="18" fill="none" xmlns="http://www.w3.org/2000/svg"><path fill="#fff" d="M.877 0H29.39v17.978H.877z"/><path fill="#F7B600" d="M1.346 15.063H28.91v2.454H1.346z"/><path fill="#1A1F71" d="M1.346.48H28.91v2.454H1.346z"/><path fill-rule="evenodd" clip-rule="evenodd" d="M19.665 10.17c0-1.066-.889-1.531-1.597-1.901-.472-.248-.864-.452-.857-.766 0-.249.233-.498.753-.569a3.369 3.369 0 0 1 1.737.303l.305-1.423a4.611 4.611 0 0 0-1.648-.302c-1.738 0-2.955.924-2.973 2.223-.018.978.877 1.511 1.54 1.831.663.32.913.551.913.836 0 .445-.555.658-1.056.658a3.624 3.624 0 0 1-1.81-.427l-.322 1.476c.62.247 1.284.368 1.952.356 1.845.018 3.045-.89 3.063-2.294Zm-7.29-4.533-2.847 6.74H7.665l-1.397-5.39c-.09-.338-.16-.444-.412-.587a7.096 7.096 0 0 0-1.737-.569l.036-.195h2.991a.817.817 0 0 1 .806.693l.734 3.895 1.827-4.588h1.863Zm13.512 6.74h-1.63l-.233-1.014h-2.257l-.358 1.013h-1.845l2.651-6.241a.8.8 0 0 1 .752-.498h1.505l1.415 6.74Zm-3.604-2.383.931-2.525.538 2.525h-1.469Zm-8.854 2.382 1.45-6.74h-1.754l-1.451 6.74h1.755Z" fill="#1A1F71"/></svg>