<svg width="105" height="121" fill="none" xmlns="http://www.w3.org/2000/svg"><path d="M13.625 42.25v61.25a8.75 8.75 0 0 0 8.75 8.75h61.25a8.75 8.75 0 0 0 8.75-8.75V42.25h-78.75Z" fill="#F4F4F4"/><path fill-rule="evenodd" clip-rule="evenodd" d="M53.5 18.5c-5.37 0-10.567 2.423-14.43 6.813-3.562 4.047-5.786 9.664-6.118 15.437H73.96c-.32-5.785-2.475-11.398-6.029-15.437-3.863-4.39-9.06-6.813-14.43-6.813Zm23.463 22.25c-.322-6.449-2.705-12.787-6.78-17.419C65.793 18.345 59.798 15.5 53.5 15.5c-6.299 0-12.294 2.845-16.682 7.831-4.068 4.623-6.537 10.958-6.87 17.419H13.625a1.5 1.5 0 0 0-1.5 1.5v61.25a10.25 10.25 0 0 0 10.25 10.25h61.25a10.25 10.25 0 0 0 10.25-10.25V42.25a1.5 1.5 0 0 0-1.5-1.5H76.963Zm13.912 3h-75.75v59.75a7.251 7.251 0 0 0 7.25 7.25h61.25a7.252 7.252 0 0 0 7.25-7.25V43.75Z" fill="#F4F4F4"/><path d="M63.5 97a1 1 0 0 1-1-1c0-2.104-.882-4.133-2.47-5.638C58.44 88.855 56.27 88 54 88c-2.271 0-4.44.855-6.03 2.362-1.588 1.505-2.47 3.534-2.47 5.638a1 1 0 1 1-2 0c0-2.67 1.12-5.22 3.095-7.09C48.568 87.041 51.232 86 54 86c2.768 0 5.432 1.041 7.405 2.91C63.38 90.78 64.5 93.33 64.5 96a1 1 0 0 1-1 1Zm2.742-30.966a1 1 0 0 1 1.224.707 5.16 5.16 0 0 0 .96 1.924C69.15 69.555 70.083 70 71 70c.917 0 1.85-.446 2.575-1.335a5.16 5.16 0 0 0 .96-1.924 1 1 0 1 1 1.931.518 7.157 7.157 0 0 1-1.34 2.668C74.073 71.22 72.596 72 71 72c-1.596 0-3.072-.78-4.125-2.073a7.157 7.157 0 0 1-1.34-2.668 1 1 0 0 1 .707-1.225Zm-36.001 0a1 1 0 0 1 1.225.707 5.16 5.16 0 0 0 .96 1.924C33.15 69.555 34.083 70 35 70c.917 0 1.85-.446 2.575-1.335a5.16 5.16 0 0 0 .96-1.924 1 1 0 1 1 1.931.518 7.157 7.157 0 0 1-1.34 2.668C38.073 71.22 36.596 72 35 72c-1.596 0-3.072-.78-4.125-2.073a7.157 7.157 0 0 1-1.34-2.668 1 1 0 0 1 .706-1.225Z" fill-rule="evenodd" clip-rule="evenodd" fill="#86868B"/></svg>