<svg width="34" height="41" fill="none" xmlns="http://www.w3.org/2000/svg"><path d="M13.4 6.957v1.734c0 .534-1.446 1.512-3.847 1.512-2.402 0-3.847-.978-3.847-1.512V6.957c1.023.511 2.335.823 3.847.823 1.512.022 2.846-.29 3.847-.823Z" fill="#9E9E9E"/><path d="M18.132 11.18h-2.001v7.405h2.001v-7.404Zm-8.56 24.858C4.77 36.038.99 33.86.99 31.102V11.18h2v19.923c0 1.379 2.802 2.935 6.582 2.935v2.002Z" fill="#86868B"/><path d="M9.572 16.117C4.747 16.117.99 13.96.99 11.181c0-1.579 1.223-3.024 3.336-3.936l.8 1.846c-1.334.578-2.135 1.356-2.135 2.112 0 1.379 2.802 2.935 6.582 2.935s6.582-1.556 6.582-2.935c0-.734-.8-1.534-2.134-2.112l.8-1.846c2.112.912 3.335 2.357 3.335 3.936-.022 2.78-3.78 4.936-8.583 4.936Z" fill="#86868B"/><path d="M15.4 4.286v4.425c0 .178-.022.356-.066.534-.4 1.734-2.758 2.957-5.76 2.957-2.779 0-4.98-1.045-5.647-2.557a2.379 2.379 0 0 1-.2-.956V4.286h2v4.425c0 .534 1.468 1.512 3.848 1.512 2.379 0 3.846-.978 3.846-1.512V4.286h1.98Z" fill="#86868B"/><path d="M14.886 2.798c-.89-1.223-2.89-2.024-5.337-2.024-2.112 0-3.891.6-4.914 1.557-.6.556-.934 1.223-.934 1.957 0 1.111.756 2.045 2.001 2.69 1.023.512 2.335.823 3.847.823 1.49 0 2.824-.311 3.847-.823 1.245-.622 2.001-1.579 2.001-2.69 0-.556-.178-1.045-.511-1.49ZM9.57 5.8c-2.379 0-3.846-.979-3.846-1.512 0-.534 1.467-1.512 3.846-1.512 2.38 0 3.847.978 3.847 1.512C13.395 4.821 11.95 5.8 9.57 5.8Z" fill="#86868B"/><path d="M13.4 4.288c0 .534-1.446 1.512-3.847 1.512-2.402 0-3.847-.978-3.847-1.512 0-.533 1.468-1.512 3.847-1.512 2.38 0 3.847.979 3.847 1.512Z" fill="#9E9E9E"/><path d="M19.203 17.586c-7.738 0-13.808 3.358-13.808 7.65 0 4.29 6.07 7.648 13.808 7.648 7.738 0 13.808-3.357 13.808-7.649 0-4.291-6.048-7.65-13.808-7.65Zm10.584 10.117c-1.956 1.868-6.003 3.18-10.584 3.18-4.58 0-8.627-1.312-10.584-3.202-.779-.734-1.223-1.579-1.223-2.446 0-3.046 5.403-5.648 11.807-5.648 6.382 0 11.807 2.58 11.807 5.648 0 .867-.444 1.712-1.223 2.468Z" fill="#86868B"/><path d="M19.197 41c-5.58 0-9.383-2.068-10.473-5.648l-2.157-7.07 1.913-.579 2.157 7.071c.8 2.69 3.913 4.225 8.538 4.225V41h.022Zm.007 0v-2.001c4.625 0 7.738-1.535 8.539-4.225L29.9 27.68l1.912.578-2.157 7.07C28.588 38.933 24.785 41 19.205 41Z" fill="#86868B"/><path d="M29.787 27.703c-1.957 1.868-6.004 3.18-10.584 3.18-4.581 0-8.628-1.312-10.585-3.202C10.041 25.79 14 24.1 19.203 24.1c5.225.022 9.183 1.69 10.584 3.602Z" fill="#9E9E9E"/></svg>