<svg width="45" height="28" fill="none" xmlns="http://www.w3.org/2000/svg"><path d="M17 7.813a4.812 4.812 0 1 0-9.625 0m30.25 0a4.812 4.812 0 1 0-9.625 0" fill="#9E9E9E"/><path fill-rule="evenodd" clip-rule="evenodd" d="M13.262 8.56c.64-4.486 4.494-7.935 9.157-7.935 4.559 0 8.346 3.298 9.11 7.638l-1.97.346a7.252 7.252 0 0 0-14.317.233l-1.98-.283Zm19.785-.212a7.875 7.875 0 0 1 9.89 11.712l-1.608-1.191a5.875 5.875 0 0 0-7.377-8.737l-.905-1.784ZM.875 15.375a7.875 7.875 0 0 1 11.757-6.853l-.987 1.74a5.875 5.875 0 0 0-7.556 8.69l-1.585 1.22a7.845 7.845 0 0 1-1.629-4.797Z" fill="#86868B"/><path fill-rule="evenodd" clip-rule="evenodd" d="M.875 26.184c0-11.078 8.98-20.059 20.06-20.059h3.13c11.08 0 20.06 8.98 20.06 20.06a1.19 1.19 0 0 1-1.19 1.19H2.064a1.19 1.19 0 0 1-1.19-1.19Zm2.018-.809h39.214c-.423-9.598-8.339-17.25-18.041-17.25h-3.132c-9.702 0-17.618 7.652-18.041 17.25Z" fill="#86868B"/><path d="M19.75 14A1.375 1.375 0 1 1 17 14a1.375 1.375 0 0 1 2.75 0Zm5.5 5.5a1.375 1.375 0 1 1-2.75 0 1.375 1.375 0 0 1 2.75 0Zm9.625-1.375a1.375 1.375 0 1 1-2.75 0 1.375 1.375 0 0 1 2.75 0ZM11.5 20.875a1.375 1.375 0 1 1-2.75 0 1.375 1.375 0 0 1 2.75 0Z" fill="#9E9E9E"/></svg>