<svg xmlns="http://www.w3.org/2000/svg" width="44" height="44" fill="none"><path fill-rule="evenodd" clip-rule="evenodd" d="M11.63 14.458a1 1 0 0 1 .745-.333h19.25a1 1 0 0 1 .994 1.11l-2.75 24.75a1 1 0 0 1-.994.89h-13.75a1 1 0 0 1-.994-.89l-2.75-24.75a1 1 0 0 1 .249-.777Zm1.862 1.667 2.528 22.75h11.96l2.528-22.75H13.492Z" fill="#86868B"/><path fill-rule="evenodd" clip-rule="evenodd" d="M8.625 8.25a1 1 0 0 1 1-1h24.75a1 1 0 0 1 1 1v6.875a1 1 0 0 1-1 1H9.625a1 1 0 0 1-1-1V8.25Zm2 1v4.875h22.75V9.25h-22.75Z" fill="#86868B"/><path d="M30.25 26.125a8.25 8.25 0 1 1-16.5 0 8.25 8.25 0 0 1 16.5 0Z" fill="#F63"/><path fill-rule="evenodd" clip-rule="evenodd" d="M11.405 1.133a1 1 0 0 1 1.213-.728l5.5 1.375a1 1 0 0 1 .651.523l2.75 5.5a1 1 0 1 1-1.788.894L17.186 3.61l-5.053-1.264a1 1 0 0 1-.728-1.212Z" fill="#86868B"/></svg>