<svg xmlns="http://www.w3.org/2000/svg" width="30" height="36" fill="none"><path fill-rule="evenodd" clip-rule="evenodd" d="M5.792 4.774C3.464 6.17 2.25 7.96 2.25 9.75c0 1.789 1.214 3.58 3.542 4.976C8.1 16.111 11.353 17 15 17c3.647 0 6.9-.889 9.208-2.274 2.328-1.397 3.542-3.187 3.542-4.976 0-1.789-1.214-3.58-3.542-4.976C21.9 3.389 18.647 2.5 15 2.5c-3.647 0-6.9.889-9.208 2.274Zm-1.03-1.715C7.433 1.458 11.054.5 15 .5c3.947 0 7.569.958 10.237 2.559 2.649 1.589 4.513 3.924 4.513 6.691s-1.864 5.102-4.513 6.691C22.57 18.042 18.947 19 15 19s-7.569-.958-10.237-2.559C2.114 14.852.25 12.517.25 9.75s1.864-5.102 4.513-6.691Z" fill="#86868B"/><path d="M23.25 9.75c0 2.278-3.694 4.125-8.25 4.125S6.75 12.028 6.75 9.75 10.444 5.625 15 5.625s8.25 1.847 8.25 4.125Z" fill="#F63"/><path fill-rule="evenodd" clip-rule="evenodd" d="M.25 9.75h2v16.5c0 1.789 1.214 3.58 3.542 4.976C8.1 32.611 11.353 33.5 15 33.5c3.647 0 6.9-.889 9.208-2.274 2.328-1.397 3.542-3.187 3.542-4.976V9.75h2v16.5c0 2.767-1.864 5.102-4.513 6.691C22.57 34.542 18.947 35.5 15 35.5s-7.569-.958-10.237-2.559C2.114 31.352.25 29.017.25 26.25V9.75Z" fill="#86868B"/></svg>