<svg xmlns="http://www.w3.org/2000/svg" width="33" height="41" fill="none"><path d="M12.9 6.957v1.734c0 .534-1.445 1.512-3.847 1.512-2.401 0-3.847-.978-3.847-1.512V6.957c1.023.511 2.335.823 3.847.823 1.512.022 2.846-.29 3.847-.823Z" fill="#F63"/><path d="M17.632 11.182H15.63v7.404h2v-7.404ZM9.072 36.04C4.27 36.04.49 33.86.49 31.102V11.18h2.002v19.923c0 1.379 2.801 2.935 6.581 2.935v2.001Z" fill="#86868B"/><path d="M9.072 16.118c-4.825 0-8.583-2.157-8.583-4.936 0-1.579 1.223-3.024 3.336-3.936l.8 1.846c-1.334.578-2.134 1.356-2.134 2.112 0 1.379 2.801 2.935 6.581 2.935 3.78 0 6.582-1.556 6.582-2.935 0-.734-.8-1.534-2.134-2.112l.8-1.846c2.113.912 3.335 2.357 3.335 3.936-.022 2.78-3.78 4.936-8.583 4.936Z" fill="#86868B"/><path d="M14.9 4.287v4.425c0 .178-.022.356-.066.534-.4 1.734-2.758 2.957-5.76 2.957-2.78 0-4.98-1.045-5.647-2.557a2.38 2.38 0 0 1-.2-.956V4.287h2v4.425c0 .534 1.468 1.512 3.847 1.512 2.38 0 3.847-.978 3.847-1.512V4.287h1.98Z" fill="#86868B"/><path d="M14.386 2.799C13.496 1.576 11.496.775 9.05.775c-2.112 0-3.89.6-4.914 1.557-.6.556-.934 1.223-.934 1.957 0 1.111.756 2.045 2.002 2.69 1.022.512 2.334.823 3.846.823 1.49 0 2.824-.311 3.847-.823 1.245-.622 2.002-1.579 2.002-2.69 0-.556-.178-1.045-.512-1.49ZM9.072 5.8c-2.38 0-3.847-.979-3.847-1.512 0-.534 1.467-1.512 3.847-1.512 2.379 0 3.847.978 3.847 1.512-.023.533-1.468 1.512-3.847 1.512Z" fill="#86868B"/><path d="M12.9 4.29c0 .533-1.445 1.511-3.847 1.511-2.401 0-3.847-.978-3.847-1.512 0-.533 1.468-1.512 3.847-1.512 2.38 0 3.847.979 3.847 1.512Z" fill="#F63"/><path d="M18.703 17.586c-7.738 0-13.809 3.358-13.809 7.65 0 4.29 6.07 7.648 13.809 7.648 7.738 0 13.808-3.357 13.808-7.649 0-4.291-6.048-7.65-13.808-7.65Zm10.584 10.117c-1.957 1.868-6.003 3.18-10.584 3.18-4.58 0-8.628-1.312-10.584-3.202-.779-.734-1.223-1.579-1.223-2.446 0-3.046 5.403-5.648 11.807-5.648 6.382 0 11.807 2.58 11.807 5.648 0 .867-.445 1.712-1.223 2.468Z" fill="#86868B"/><path d="M18.697 41.002c-5.58 0-9.383-2.068-10.473-5.648l-2.157-7.07 1.913-.579 2.157 7.071c.8 2.69 3.913 4.225 8.538 4.225v2.001h.022Zm.008-.002v-2c4.625 0 7.738-1.535 8.538-4.225l2.157-7.093 1.912.578-2.157 7.07c-1.067 3.603-4.87 5.67-10.45 5.67Z" fill="#86868B"/><path d="M29.287 27.704c-1.957 1.868-6.004 3.18-10.584 3.18-4.581 0-8.628-1.312-10.585-3.203 1.423-1.89 5.381-3.58 10.585-3.58 5.225.023 9.183 1.69 10.584 3.603Z" fill="#F63"/></svg>