<svg width="45" height="44" fill="none" xmlns="http://www.w3.org/2000/svg"><g fill-rule="evenodd" clip-rule="evenodd" fill="#D2D2D7"><path d="M22.5 41.8c10.935 0 19.8-8.865 19.8-19.8S33.435 2.2 22.5 2.2 2.7 11.065 2.7 22s8.865 19.8 19.8 19.8Zm0 2.2c12.15 0 22-9.85 22-22s-9.85-22-22-22S.5 9.85.5 22s9.85 22 22 22Z"/><path d="M22.5 34.1c6.683 0 12.1-5.417 12.1-12.1 0-6.682-5.417-12.1-12.1-12.1-6.682 0-12.1 5.418-12.1 12.1 0 6.683 5.418 12.1 12.1 12.1Zm0 2.2c7.898 0 14.3-6.402 14.3-14.3 0-7.898-6.402-14.3-14.3-14.3-7.898 0-14.3 6.402-14.3 14.3 0 7.898 6.402 14.3 14.3 14.3Z"/><path d="M22.5 27.5a5.5 5.5 0 1 0 0-11 5.5 5.5 0 0 0 0 11Zm0 2.2a7.7 7.7 0 1 0 0-15.4 7.7 7.7 0 0 0 0 15.4Z"/></g></svg>