<svg width="31" height="36" fill="none" xmlns="http://www.w3.org/2000/svg"><path fill-rule="evenodd" clip-rule="evenodd" d="M6.292 4.774C3.964 6.17 2.75 7.96 2.75 9.75c0 1.789 1.214 3.58 3.542 4.976C8.6 16.111 11.853 17 15.5 17c3.647 0 6.9-.889 9.208-2.274 2.328-1.397 3.542-3.187 3.542-4.976 0-1.789-1.214-3.58-3.542-4.976C22.4 3.389 19.147 2.5 15.5 2.5c-3.647 0-6.9.889-9.208 2.274Zm-1.03-1.715C7.933 1.458 11.554.5 15.5.5c3.947 0 7.569.958 10.237 2.559 2.649 1.589 4.513 3.924 4.513 6.691s-1.864 5.102-4.513 6.691C23.07 18.042 19.447 19 15.5 19s-7.569-.958-10.237-2.559C2.614 14.852.75 12.517.75 9.75s1.864-5.102 4.513-6.691Z" fill="#86868B"/><path d="M23.75 9.75c0 2.278-3.694 4.125-8.25 4.125S7.25 12.028 7.25 9.75s3.694-4.125 8.25-4.125 8.25 1.847 8.25 4.125Z" fill="#9E9E9E"/><path fill-rule="evenodd" clip-rule="evenodd" d="M.75 9.75h2v16.5c0 1.789 1.214 3.58 3.542 4.976C8.6 32.611 11.853 33.5 15.5 33.5c3.647 0 6.9-.889 9.208-2.274 2.328-1.397 3.542-3.187 3.542-4.976V9.75h2v16.5c0 2.767-1.864 5.102-4.513 6.691C23.07 34.542 19.447 35.5 15.5 35.5s-7.569-.958-10.237-2.559C2.614 31.352.75 29.017.75 26.25V9.75Z" fill="#86868B"/></svg>