<svg width="18.709" height="18.709" fill="none" xmlns="http://www.w3.org/2000/svg"><defs><clipPath id="a"><path fill="#fff" fill-opacity="0" d="M0 0h18.71v18.71H0z"/></clipPath></defs><path d="M0 0h18.71v18.71H0z"/><g clip-path="url(#a)" fill="#686870" fill-rule="evenodd"><path d="M1.559 4.678c0-.43.35-.78.779-.78H16.37a.78.78 0 0 1 0 1.559H2.338a.779.779 0 0 1-.78-.78Z"/><path d="M7.797 2.338a.78.78 0 0 0-.78.78v1.56a.78.78 0 0 1-1.56 0v-1.56a2.34 2.34 0 0 1 2.34-2.34h3.117a2.33 2.33 0 0 1 1.654.686 2.33 2.33 0 0 1 .686 1.652v1.56a.78.78 0 0 1-1.559 0v-1.56a.782.782 0 0 0-.781-.78H7.797Zm-3.899 1.56c.432 0 .78.348.78.78v10.914a.778.778 0 0 0 .779.78h7.797a.778.778 0 0 0 .78-.78V4.678a.779.779 0 1 1 1.558 0v10.914a2.339 2.339 0 0 1-2.338 2.338H5.457c-.62 0-1.215-.246-1.652-.686a2.332 2.332 0 0 1-.686-1.652V4.678c0-.432.35-.78.78-.78Z"/></g></svg>