<svg width="323" height="175" fill="none" xmlns="http://www.w3.org/2000/svg"><defs><clipPath id="a"><path transform="translate(83.998 10.998)" fill="#fff" fill-opacity="0" d="M0 0h154v154H0z"/></clipPath></defs><path d="M0 0h323v175H0z"/><path d="M233.404 30.848c24.676 16.74 49.004 36.246 53.729 59.488 4.724 23.24-10.326 50.217-34.828 64.881-24.502 14.664-58.629 17.154-92.231 16.74-33.603-.416-66.855-3.598-91.181-18.262-24.328-14.664-39.903-40.949-31.678-60.593 8.226-19.645 40.252-32.788 64.58-49.526 24.502-16.74 41.127-36.937 61.779-40.119 20.651-3.182 45.328 10.652 69.83 27.39Z" fill="#EDEDED"/><path d="M83.998 10.998h154v154h-154z"/><g clip-path="url(#a)"><path d="M186.676 36.207h12.834a12.833 12.833 0 0 1 12.832 12.834v89.832a12.832 12.832 0 0 1-12.832 12.834h-77a12.824 12.824 0 0 1-9.074-3.76 12.822 12.822 0 0 1-3.76-9.074V49.041c0-3.404 1.351-6.668 3.76-9.074a12.823 12.823 0 0 1 9.074-3.76h12.832" stroke="#1D1D1F" stroke-width="5" stroke-linejoin="round" stroke-linecap="round"/><path d="M145.752 28.828h38.5a6.417 6.417 0 0 1 6.418 6.416v12.834a6.417 6.417 0 0 1-6.418 6.416h-38.5a6.417 6.417 0 0 1-6.416-6.416V35.244a6.417 6.417 0 0 1 6.416-6.416Z" fill="#F63" fill-rule="evenodd"/><path d="M180.25 23.832a6.417 6.417 0 0 1 6.418 6.416v12.834a6.417 6.417 0 0 1-6.418 6.416h-38.5a6.417 6.417 0 0 1-6.416-6.416V30.248a6.417 6.417 0 0 1 6.416-6.416h38.5Z" stroke="#1D1D1F" stroke-width="5" stroke-linejoin="round"/><path d="M127.754 70h66.287v65.273h-66.287z"/><path d="M190.025 100.672h-61.867m61.867 30.984h-61.867M190.426 70h-62.672" stroke="#1D1D1F" stroke-width="5" stroke-linejoin="round" stroke-linecap="round"/></g><circle cx="278.002" cy="29" r="10" stroke="#1D1D1F" stroke-width="3" stroke-linejoin="round"/><path d="M76.07 19h0Zm7.815 15.066h0Zm-20.979-6.652h0Zm6.508 12.555h0Z" stroke="#1D1D1F" stroke-width="3" stroke-linejoin="round" stroke-linecap="round"/></svg>