<svg width="26" height="26" fill="none" xmlns="http://www.w3.org/2000/svg"><rect width="26" height="26" rx="6" fill="#9E9E9E"/><path d="M12.904 24.293v1.705l3.988.002.034-2.298c.018-1.264.033-3.402.033-4.75v-2.451h1.63c1.783 0 1.849-.01 1.995-.304.043-.085.151-.824.262-1.79.178-1.547.184-1.653.107-1.786a1.029 1.029 0 0 0-.214-.245c-.126-.098-.223-.104-1.988-.119l-1.855-.015.026-1.567c.026-1.684.051-1.868.308-2.27.137-.215.47-.444.769-.53.102-.028.709-.067 1.347-.084 1.656-.046 1.582.05 1.558-2.003-.015-1.31-.018-1.354-.13-1.516a.576.576 0 0 0-.3-.22c-.24-.069-2.364-.07-3.111 0-2.07.189-3.451 1.23-4.105 3.091-.266.76-.314 1.214-.341 3.246l-.025 1.851-1.233.017c-1.334.018-1.425.035-1.576.3-.073.129-.083.352-.083 1.814 0 1.831.01 1.896.299 2.051.12.064.379.079 1.409.079h1.262l-.033 3.043a575.573 575.573 0 0 0-.033 4.749Z" fill="#fff"/></svg>