<svg width="323" height="178" fill="none" xmlns="http://www.w3.org/2000/svg"><path d="M271.428 36.782c8.695 24.013-20.461 60.628-43.649 88.557-23.188 27.93-40.409 47.003-62.404 49.558-21.824 2.725-48.252-11.24-63.938-34.912-15.857-23.501-21.142-57.05-8.013-83.618 13.299-26.396 44.842-45.981 83.887-50.239 39.044-4.257 85.421 6.812 94.117 30.654Z" fill="#EDEDED"/><path d="M186.818 100.293a20.57 20.57 0 0 1 2.458-3.698c7.265-8.728 20.276-9.987 29.079-2.814a20.367 20.367 0 0 1 2.794 28.872c-2.117 2.544-11.133 12.012-27.272 28.649a3.264 3.264 0 0 1-4.207.407c-19.02-13.226-29.684-20.79-32.26-22.888a20.367 20.367 0 0 1-2.793-28.873c7.264-8.727 20.276-9.986 29.079-2.813 1.167.95 2.21 2.01 3.122 3.158Z" fill="#F63"/><path d="M182.818 95.293a20.56 20.56 0 0 1 2.458-3.698c7.265-8.728 20.276-9.987 29.079-2.814a20.367 20.367 0 0 1 2.794 28.872c-2.117 2.544-11.133 12.012-27.272 28.649a3.264 3.264 0 0 1-4.207.407c-19.02-13.226-29.684-20.79-32.26-22.888a20.367 20.367 0 0 1-2.793-28.873c7.264-8.727 20.276-9.986 29.079-2.813a20.61 20.61 0 0 1 3.122 3.158Z" stroke="#1D1D1F" stroke-width="4" stroke-linecap="round" stroke-linejoin="round"/><path d="M230.972 6.053c.331-.636.733-1.241 1.204-1.806 3.558-4.263 9.931-4.878 14.242-1.375a9.929 9.929 0 0 1 1.368 14.101c-1.037 1.242-5.452 5.866-13.357 13.992a1.602 1.602 0 0 1-2.06.199c-9.315-6.46-14.538-10.154-15.799-11.179a9.928 9.928 0 0 1-1.369-14.1c3.558-4.263 9.931-4.878 14.242-1.375a10.03 10.03 0 0 1 1.529 1.543Z" fill="#F63"/><path d="M229.011 11.611a10.12 10.12 0 0 1 1.204-1.806c3.558-4.262 9.931-4.877 14.242-1.374a9.927 9.927 0 0 1 1.368 14.1c-1.037 1.243-5.452 5.867-13.357 13.992a1.602 1.602 0 0 1-2.06.2c-9.315-6.46-14.538-10.154-15.799-11.18a9.928 9.928 0 0 1-1.369-14.1c3.558-4.262 9.931-4.877 14.242-1.374.572.464 1.083.982 1.529 1.542Z" stroke="#1D1D1F" stroke-width="4" stroke-linecap="round" stroke-linejoin="round"/><path d="M81.053 32.107a15.468 15.468 0 0 1 2.377-2.34c6.685-5.297 16.445-4.218 21.811 2.412a15.298 15.298 0 0 1-2.395 21.655c-1.949 1.544-10.036 7.115-24.464 16.859a2.452 2.452 0 0 1-3.155-.35C63.283 57.69 56.609 50.487 55.039 48.548a15.298 15.298 0 0 1 2.395-21.656c6.685-5.296 16.444-4.217 21.81 2.413a15.472 15.472 0 0 1 1.809 2.803Z" fill="#F63"/><path d="M86.881 29.814a15.477 15.477 0 0 1 2.377-2.34c6.686-5.297 16.445-4.218 21.811 2.412a15.298 15.298 0 0 1-2.395 21.655c-1.949 1.544-10.035 7.115-24.464 16.859a2.452 2.452 0 0 1-3.155-.35C69.11 55.398 62.437 48.195 60.867 46.255a15.298 15.298 0 0 1 2.395-21.656c6.685-5.296 16.444-4.217 21.81 2.413a15.474 15.474 0 0 1 1.809 2.803Z" stroke="#1D1D1F" stroke-width="4" stroke-linecap="round" stroke-linejoin="round"/></svg>