<svg width="24" height="24" fill="none" xmlns="http://www.w3.org/2000/svg"><path fill-rule="evenodd" clip-rule="evenodd" d="M11.799 5.4c.07.094.137.188.2.28.063-.092.13-.186.2-.28.886-1.182 2.407-2.4 4.8-2.4 2.394 0 4.078 1.223 5.049 2.866.945 1.6 1.222 3.594.938 5.298-.562 3.37-3.353 6.075-5.762 7.859a30.123 30.123 0 0 1-4.696 2.834l-.083.039-.023.01-.007.003-.003.002-.413-.911-.414.91h-.002l-.007-.004-.023-.01-.083-.04a27.722 27.722 0 0 1-1.378-.712 30.116 30.116 0 0 1-3.318-2.121c-2.41-1.784-5.2-4.488-5.761-7.859-.285-1.704-.008-3.697.937-5.298C2.921 4.223 4.605 3 7 3c2.393 0 3.913 1.218 4.8 2.4Zm.2 15.6-.413.91a1 1 0 0 0 .825.001L12 21Z" fill="#fff"/></svg>