<svg width="27" height="26" fill="none" xmlns="http://www.w3.org/2000/svg"><path d="M13.796 21.41c.002.353-.13.677-.35.919a1.278 1.278 0 0 1-1.835.063 1.342 1.342 0 0 1-.41-.898 41.768 41.768 0 0 1-.08-2.425c-.02-.286-.043-.564-.071-.835C6.617 17.7 3.735 14.638 2.576 9.3L2.25 7.795l1.501-.11c3.831-.28 6.577 1.204 8.22 4.297 1.622-5.74 5.564-8.732 11.776-8.732h1.126l.16 1.142c.064.46.113 1.216.08 2.174-.056 1.594-.335 3.193-.915 4.704-1.569 4.091-4.985 6.682-10.48 7.012-.004.238-.005.48-.004.725.054.764.081 1.566.082 2.404Z" fill="#84C502"/></svg>