<svg width="21" height="22" fill="none" xmlns="http://www.w3.org/2000/svg"><path d="M5.686 11.935v6.235a1.59 1.59 0 0 0 1.596 1.583h6.386a1.59 1.59 0 0 0 1.597-1.583V8.435H6.57a7.373 7.373 0 0 0-.884 3.5Z" fill="#FFF6DE"/><path fill-rule="evenodd" clip-rule="evenodd" d="M1.754 5.045a.875.875 0 0 1 1.198-.28l16.764 10.292a.86.86 0 0 1 .282 1.189.875.875 0 0 1-1.199.28L2.036 6.234a.86.86 0 0 1-.282-1.19Z" fill="#F63"/><path fill-rule="evenodd" clip-rule="evenodd" d="M6.413 2.334c0-.477.39-.863.871-.863h6.606c.481 0 .871.386.871.863a.867.867 0 0 1-.787.86l.029 2.208c0 .258.133.665.412 1.177.266.486.604.964.886 1.337.026.035.05.072.071.11a8.231 8.231 0 0 1 .988 3.909v6.234a2.457 2.457 0 0 1-2.468 2.447h-6.61a2.457 2.457 0 0 1-2.468-2.447v-6.235c0-1.37.343-2.71.988-3.908a.863.863 0 0 1 .071-.11c.282-.373.62-.85.886-1.337.28-.512.412-.919.412-1.177v-.011l.03-2.197a.867.867 0 0 1-.788-.86Zm2.529.864-.029 2.21c-.002.704-.312 1.425-.622 1.993-.31.57-.687 1.102-.983 1.496a6.515 6.515 0 0 0-.752 3.037v6.235c0 .397.325.72.726.72h6.61a.723.723 0 0 0 .726-.72v-6.235c0-1.063-.26-2.104-.752-3.037a12.692 12.692 0 0 1-.982-1.496c-.31-.568-.621-1.29-.623-1.993l-.029-2.21h-3.29Z" fill="#1D1D1F"/></svg>