<svg width="27" height="26" fill="none" xmlns="http://www.w3.org/2000/svg"><path d="M16.698 6.261a1.317 1.317 0 0 1 .131-.727 1.31 1.31 0 0 1 1.761-.59l1.589.798 1.982-2.988a1.309 1.309 0 0 1 1.82-.365c.603.404.766 1.222.364 1.829l-1.8 2.713 1.295.65a1.322 1.322 0 0 1 .22 2.22c.316 1.397.241 3.054-.229 4.756-1.087 3.935-3.997 7.29-8.038 8.644-4.416 1.48-8.141.855-11.065-1.104-1.08-.723-1.814-1.46-2.212-1.994-.686-.918.043-2.218 1.18-2.103 4.728.475 6.833-1.132 8.758-5.289.128-.275.254-.558.422-.94l.208-.474.208-.473c1.032-2.321 2.058-3.846 3.406-4.563Z" fill="#F63"/></svg>