<svg width="123" height="37" fill="none" xmlns="http://www.w3.org/2000/svg"><path d="M118.444 0H4.556C2.04 0 0 2.07 0 4.625v27.75C0 34.929 2.04 37 4.556 37h113.888c2.516 0 4.556-2.07 4.556-4.625V4.625C123 2.071 120.96 0 118.444 0Z" fill="#1D1D1F"/><path d="M62.086 16.852a3.84 3.84 0 0 0-2.155.67 3.928 3.928 0 0 0-1.426 1.771 3.996 3.996 0 0 0-.215 2.277 3.959 3.959 0 0 0 1.067 2.015c.544.55 1.236.924 1.99 1.074.753.15 1.533.07 2.241-.23a3.895 3.895 0 0 0 1.739-1.455c.425-.649.65-1.411.649-2.19a3.927 3.927 0 0 0-.281-1.518 3.88 3.88 0 0 0-.843-1.286 3.813 3.813 0 0 0-1.27-.85 3.766 3.766 0 0 0-1.496-.278Zm0 6.318a2.328 2.328 0 0 1-1.348-.319 2.374 2.374 0 0 1-.938-1.033 2.418 2.418 0 0 1 .4-2.654c.322-.35.74-.595 1.2-.702.46-.106.94-.07 1.379.105.44.175.816.48 1.083.875.266.395.409.863.41 1.341a2.31 2.31 0 0 1-.597 1.662 2.241 2.241 0 0 1-1.59.725Zm-8.492-6.318a3.841 3.841 0 0 0-2.155.67 3.93 3.93 0 0 0-1.425 1.771 3.997 3.997 0 0 0-.216 2.277 3.959 3.959 0 0 0 1.067 2.015c.544.55 1.236.924 1.99 1.074a3.83 3.83 0 0 0 2.242-.23 3.895 3.895 0 0 0 1.738-1.455 3.99 3.99 0 0 0 .65-2.19 3.929 3.929 0 0 0-.282-1.518 3.88 3.88 0 0 0-.843-1.286 3.814 3.814 0 0 0-1.27-.85 3.767 3.767 0 0 0-1.496-.278Zm0 6.318a2.33 2.33 0 0 1-1.348-.319 2.373 2.373 0 0 1-.937-1.033 2.42 2.42 0 0 1 .4-2.654 2.32 2.32 0 0 1 2.579-.597c.439.175.816.48 1.082.875.266.395.41.863.41 1.341a2.306 2.306 0 0 1-.597 1.662 2.242 2.242 0 0 1-1.59.725Zm-10.095-5.106v1.665h3.936a3.512 3.512 0 0 1-.911 2.1c-.395.408-.87.728-1.394.938a3.972 3.972 0 0 1-1.65.283 4.34 4.34 0 0 1-3.092-1.3 4.474 4.474 0 0 1-1.28-3.14c0-1.178.46-2.307 1.28-3.14a4.34 4.34 0 0 1 3.093-1.3 4.193 4.193 0 0 1 2.988 1.193l1.157-1.175a5.734 5.734 0 0 0-1.896-1.264 5.664 5.664 0 0 0-2.231-.42 5.941 5.941 0 0 0-2.376.396 6.012 6.012 0 0 0-2.033 1.308 6.117 6.117 0 0 0-1.367 2.012 6.194 6.194 0 0 0 0 4.789 6.117 6.117 0 0 0 1.367 2.012 6.012 6.012 0 0 0 2.033 1.308 5.941 5.941 0 0 0 2.376.395 5.457 5.457 0 0 0 2.28-.4 5.528 5.528 0 0 0 1.92-1.311A5.6 5.6 0 0 0 49.12 19.1a5.883 5.883 0 0 0-.082-1.036h-5.54Zm41.282 1.295a3.698 3.698 0 0 0-1.274-1.777 3.61 3.61 0 0 0-2.042-.73 3.596 3.596 0 0 0-1.45.302c-.457.2-.87.494-1.211.862a3.708 3.708 0 0 0-.774 1.28 3.75 3.75 0 0 0-.21 1.487 3.953 3.953 0 0 0 .746 2.35 3.855 3.855 0 0 0 1.983 1.43 3.799 3.799 0 0 0 2.43-.061 3.864 3.864 0 0 0 1.912-1.526l-1.322-.925a2.21 2.21 0 0 1-.81.798c-.334.19-.71.288-1.094.284a1.937 1.937 0 0 1-1.12-.302 1.98 1.98 0 0 1-.757-.891l5.185-2.174-.192-.407Zm-5.284 1.313a2.187 2.187 0 0 1 .54-1.581 2.097 2.097 0 0 1 1.492-.712c.292-.02.584.05.838.197.254.148.46.369.592.635l-3.462 1.461Zm-4.21 3.811h1.704V12.921h-1.704v11.562ZM72.5 17.731h-.063a2.68 2.68 0 0 0-.927-.664 2.643 2.643 0 0 0-1.114-.215 3.856 3.856 0 0 0-2.622 1.218 3.973 3.973 0 0 0-1.072 2.718c0 1.012.384 1.985 1.072 2.718a3.856 3.856 0 0 0 2.622 1.218c.386.008.77-.071 1.122-.231a2.63 2.63 0 0 0 .919-.694h.063v.564c0 1.508-.792 2.313-2.068 2.313a2.129 2.129 0 0 1-1.188-.396 2.178 2.178 0 0 1-.77-1.001l-1.477.62a3.69 3.69 0 0 0 1.361 1.707 3.605 3.605 0 0 0 2.074.624c1.996 0 3.645-1.194 3.645-4.098v-7.049H72.5v.648Zm-1.958 5.439a2.336 2.336 0 0 1-1.567-.748 2.406 2.406 0 0 1-.638-1.634c0-.607.228-1.192.638-1.634.41-.443.97-.71 1.567-.748a2.152 2.152 0 0 1 1.535.742 2.218 2.218 0 0 1 .542 1.635 2.232 2.232 0 0 1-.536 1.645 2.17 2.17 0 0 1-1.541.742Zm22.222-10.25H88.68v11.563h1.704V20.1h2.378a3.509 3.509 0 0 0 2.668-.956 3.6 3.6 0 0 0 .835-1.197 3.645 3.645 0 0 0-.835-4.07 3.536 3.536 0 0 0-1.236-.76 3.496 3.496 0 0 0-1.432-.195Zm0 5.55h-2.378v-3.94H92.8c.517 0 1.013.209 1.379.58.365.371.57.875.57 1.4 0 .525-.205 1.028-.57 1.4-.366.37-.862.58-1.379.58l-.036-.02Zm10.514-1.655a3.141 3.141 0 0 0-1.778.422 3.207 3.207 0 0 0-1.256 1.345l1.503.638c.152-.278.38-.505.657-.655.276-.15.589-.214.901-.187a1.618 1.618 0 0 1 1.219.357 1.673 1.673 0 0 1 .603 1.133v.11a3.76 3.76 0 0 0-1.776-.443c-1.622 0-3.28.925-3.28 2.608a2.691 2.691 0 0 0 .886 1.881 2.6 2.6 0 0 0 1.947.663c.428.024.854-.068 1.235-.266.381-.199.703-.496.934-.863h.054v.925h1.64v-4.449c0-2.026-1.512-3.2-3.453-3.2l-.036-.019Zm-.21 6.336c-.556 0-1.33-.286-1.33-.98 0-.925.966-1.24 1.822-1.24a2.987 2.987 0 0 1 1.549.389 2.103 2.103 0 0 1-.66 1.307c-.369.34-.846.533-1.344.543l-.037-.019Zm9.676-6.068-1.95 5.014h-.054l-2.023-5.014h-1.822l3.034 7.012-1.731 3.894h1.822l4.619-10.906h-1.895Zm-15.306 7.4h1.694V12.921h-1.694v11.562Z" fill="#fff"/><path d="M9.508 6.987a1.87 1.87 0 0 0-.392 1.34V28.77c-.027.47.123.934.42 1.295l.072.074 11.253-11.497v-.278L9.58 6.922l-.073.065Z" fill="#5BC9F4"/><path d="m24.596 22.45-3.754-3.81v-.278l3.754-3.811h.09l4.465 2.618c1.267.73 1.267 1.933 0 2.663l-4.455 2.572-.1.046Z" fill="url(#a)"/><path d="M24.701 22.404 20.856 18.5 9.504 30.016a1.462 1.462 0 0 0 1.895.055l13.302-7.667Z" fill="url(#b)"/><path d="M24.701 14.596 11.4 6.928a1.462 1.462 0 0 0-1.895.056L20.856 18.5l3.845-3.904Z" fill="url(#c)"/><path d="M118.444.74a3.8 3.8 0 0 1 2.706 1.138 3.914 3.914 0 0 1 1.121 2.747v27.75c0 1.03-.403 2.019-1.121 2.747a3.797 3.797 0 0 1-2.706 1.138H4.556a3.798 3.798 0 0 1-2.706-1.138 3.915 3.915 0 0 1-1.121-2.747V4.625c0-1.03.403-2.019 1.12-2.747A3.798 3.798 0 0 1 4.557.74h113.888Zm0-.74H4.556a4.521 4.521 0 0 0-3.222 1.355A4.661 4.661 0 0 0 0 4.625v27.75a4.66 4.66 0 0 0 1.334 3.27A4.521 4.521 0 0 0 4.556 37h113.888a4.523 4.523 0 0 0 3.222-1.355 4.662 4.662 0 0 0 1.334-3.27V4.625a4.66 4.66 0 0 0-1.334-3.27A4.523 4.523 0 0 0 118.444 0Z" fill="#1D1D1F"/><defs><linearGradient id="a" x1="28.322" y1="18.5" x2="6.291" y2="18.5" gradientUnits="userSpaceOnUse"><stop stop-color="#FEE000"/><stop offset=".42" stop-color="#FBBC0E"/><stop offset=".78" stop-color="#FAA418"/><stop offset="1" stop-color="#F99B1C"/></linearGradient><linearGradient id="b" x1="22.606" y1="20.618" x2="1.574" y2="41.334" gradientUnits="userSpaceOnUse"><stop stop-color="#EF4547"/><stop offset="1" stop-color="#C6186D"/></linearGradient><linearGradient id="c" x1="1.796" y1="-4.745" x2="18.971" y2="12.163" gradientUnits="userSpaceOnUse"><stop stop-color="#279E6F"/><stop offset=".04" stop-color="#2BA06F"/><stop offset=".46" stop-color="#53B26C"/><stop offset=".8" stop-color="#6BBD6A"/><stop offset="1" stop-color="#74C169"/></linearGradient></defs></svg>