<svg width="21" height="22" fill="none" xmlns="http://www.w3.org/2000/svg"><g fill-rule="evenodd" clip-rule="evenodd" fill="#686870"><path d="M9.959 2.172a.875.875 0 0 1 1.082 0l7 5.512c.211.166.334.42.334.688v8.662a2.46 2.46 0 0 1-.708 1.729 2.42 2.42 0 0 1-1.723.721H5.056a2.42 2.42 0 0 1-1.723-.721 2.46 2.46 0 0 1-.708-1.729V8.372c0-.268.123-.522.334-.688l7-5.512ZM4.375 8.797v8.237c0 .19.074.369.203.5.129.13.3.2.478.2h10.888a.67.67 0 0 0 .478-.2.71.71 0 0 0 .203-.5V8.797L10.5 3.973 4.375 8.797Z"/><path d="M7 10.734c0-.483.392-.875.875-.875h5.25c.483 0 .875.392.875.875v7.875a.875.875 0 0 1-1.75 0v-7h-3.5v7a.875.875 0 0 1-1.75 0v-7.875Z"/></g></svg>