<svg width="20" height="20" fill="none" xmlns="http://www.w3.org/2000/svg"><defs><clipPath id="a"><path fill="#fff" fill-opacity="0" d="M0 0h20v20H0z"/></clipPath></defs><path d="M0 0h20v20H0z"/><g clip-path="url(#a)" fill="#686870" fill-rule="evenodd"><path d="M10 2.5A7.498 7.498 0 0 0 2.5 10 7.501 7.501 0 1 0 10 2.5ZM.832 10C.832 4.937 4.938.833 10 .833c5.063 0 9.164 4.104 9.164 9.167S15.062 19.166 10 19.166C4.937 19.166.832 15.063.832 10Z"/><path d="M10 9.167c.46 0 .836.373.836.833v3.334a.835.835 0 0 1-1.668 0V10c0-.46.375-.833.832-.833Zm-.832-2.5c0-.46.375-.834.832-.834h.008c.46 0 .836.373.836.833 0 .46-.375.834-.836.834H10a.834.834 0 0 1-.832-.833Z"/></g></svg>