<svg width="24" height="24" fill="none" xmlns="http://www.w3.org/2000/svg"><defs><clipPath id="a"><path fill="#fff" fill-opacity="0" d="M0 0h24v24H0z"/></clipPath></defs><path d="M0 0h24v24H0z"/><g clip-path="url(#a)" fill="#F63" fill-rule="evenodd"><path d="M12 3a9.001 9.001 0 0 0 0 18 9.001 9.001 0 0 0 0-18ZM1 12C1 5.925 5.926 1 12 1s11 4.925 11 11-4.926 11-11 11S1 18.075 1 12Z"/><path d="M12 11c.55 0 1 .448 1 1v4a1.001 1.001 0 0 1-2 0v-4c0-.552.45-1 1-1Zm-1-3c0-.552.45-1 1-1h.012a1.001 1.001 0 0 1 0 2H12c-.55 0-1-.448-1-1Z"/></g></svg>