<svg width="26" height="26" fill="none" xmlns="http://www.w3.org/2000/svg"><rect width="26" height="26" rx="6" fill="#9E9E9E"/><path d="M9.807 13.057a3.22 3.22 0 1 1 6.44 0 3.22 3.22 0 0 1-6.44 0Zm-1.74 0a4.96 4.96 0 1 0 9.919 0 4.96 4.96 0 0 0-9.92 0Zm8.956-5.156a1.159 1.159 0 1 0 1.16-1.159 1.16 1.16 0 0 0-1.16 1.159ZM9.124 20.92c-.942-.043-1.454-.2-1.794-.332a3 3 0 0 1-1.11-.723 2.98 2.98 0 0 1-.723-1.11c-.133-.34-.29-.852-.333-1.794-.046-1.018-.056-1.324-.056-3.903 0-2.58.01-2.885.056-3.904.043-.941.201-1.452.333-1.793.175-.451.384-.773.722-1.111a2.98 2.98 0 0 1 1.111-.723c.34-.133.852-.29 1.794-.332 1.018-.047 1.324-.056 3.902-.056 2.579 0 2.885.01 3.904.056.942.043 1.453.2 1.794.332.45.175.772.385 1.11.723.339.337.547.66.723 1.11.133.34.29.853.332 1.794.047 1.02.056 1.324.056 3.904s-.009 2.884-.056 3.903c-.043.942-.2 1.454-.332 1.794a2.993 2.993 0 0 1-.723 1.11 3 3 0 0 1-1.11.723c-.34.132-.852.29-1.794.332-1.018.047-1.324.056-3.904.056s-2.884-.01-3.902-.056Zm-.08-17.463c-1.028.047-1.73.21-2.345.449A4.74 4.74 0 0 0 4.99 5.02a4.716 4.716 0 0 0-1.115 1.71c-.238.615-.401 1.317-.448 2.345-.048 1.03-.059 1.36-.059 3.982 0 2.624.011 2.953.059 3.983.047 1.028.21 1.73.448 2.344a4.722 4.722 0 0 0 1.114 1.711A4.746 4.746 0 0 0 6.7 22.21c.615.24 1.317.402 2.345.45 1.03.046 1.36.058 3.982.058 2.623 0 2.953-.011 3.983-.059 1.028-.047 1.73-.21 2.344-.449a4.75 4.75 0 0 0 1.711-1.114 4.732 4.732 0 0 0 1.114-1.71c.239-.615.403-1.317.449-2.345.047-1.03.058-1.36.058-3.982 0-2.624-.011-2.953-.058-3.983-.047-1.028-.21-1.73-.449-2.344a4.75 4.75 0 0 0-1.114-1.711 4.726 4.726 0 0 0-1.71-1.114c-.615-.24-1.317-.403-2.345-.45-1.03-.046-1.359-.058-3.982-.058-2.622 0-2.952.011-3.983.059" fill="#fff"/></svg>