<svg width="24" height="24" fill="none" xmlns="http://www.w3.org/2000/svg"><defs><clipPath id="a"><path fill="#fff" fill-opacity="0" d="M0 0h24v24H0z"/></clipPath></defs><path d="M0 0h24v24H0z"/><g clip-path="url(#a)" fill="#686870" fill-rule="evenodd"><path d="M12 3c-1.85 0-3.627.752-4.941 2.096A7.272 7.272 0 0 0 5 10.182c0 2.789 1.775 5.502 3.734 7.615A26.072 26.072 0 0 0 12 20.762c.174-.135.383-.297.62-.489a26.172 26.172 0 0 0 2.646-2.476C17.225 15.684 19 12.97 19 10.182c0-1.912-.742-3.74-2.059-5.086A6.912 6.912 0 0 0 12 3Zm0 19c-.563.826-.565.826-.565.826l-.001-.002-.006-.004-.022-.015-.074-.051a23.01 23.01 0 0 1-1.213-.93 28.526 28.526 0 0 1-2.853-2.668C5.225 16.953 3 13.758 3 10.182c0-2.428.943-4.762 2.629-6.485A8.907 8.907 0 0 1 12 1c2.395 0 4.686.973 6.371 2.697A9.275 9.275 0 0 1 21 10.182c0 3.576-2.225 6.771-4.266 8.974a28.53 28.53 0 0 1-2.853 2.668 23.01 23.01 0 0 1-1.213.93l-.074.05-.022.016-.006.004-.002.002s-.002 0-.564-.826Zm0 0 .563.826c-.34.233-.788.23-1.128 0L12 22Z"/><path d="M12 8a1.999 1.999 0 1 0 0 4 1.999 1.999 0 1 0 0-4Zm-4 2a4 4 0 1 1 8 0 4 4 0 0 1-8 0Z"/></g></svg>