<svg width="24" height="24" fill="none" xmlns="http://www.w3.org/2000/svg"><defs><clipPath id="a"><path fill="#fff" fill-opacity="0" d="M0 0h24v24H0z"/></clipPath></defs><path d="M0 0h24v24H0z"/><g clip-path="url(#a)" fill="#FFF" fill-rule="evenodd"><path d="M12 2a7.998 7.998 0 0 0-8 8c0 3.098 2.016 6.105 4.227 8.438A29.795 29.795 0 0 0 12 21.773a29.791 29.791 0 0 0 3.773-3.335C17.984 16.105 20 13.098 20 10a8.001 8.001 0 0 0-8-8Zm0 21-.555.831-.004-.001-.007-.005-.02-.015-.086-.057a24.22 24.22 0 0 1-1.355-1.018 31.074 31.074 0 0 1-3.2-2.922C4.484 17.395 2 13.902 2 10A10.003 10.003 0 0 1 12 0a9.999 9.999 0 0 1 10 10c0 3.902-2.484 7.395-4.773 9.813a31.078 31.078 0 0 1-3.2 2.922 26.702 26.702 0 0 1-1.355 1.018c-.035.025-.067.043-.086.057l-.02.015-.007.005-.004.001L12 23Zm0 0 .555.832a.999.999 0 0 1-1.11 0L12 23Z"/><path d="M12 8a2 2 0 1 0-.001 3.999A2 2 0 0 0 12 8Zm-4 2a4 4 0 1 1 8 0 4 4 0 0 1-8 0Z"/></g></svg>