<svg width="67" height="28" fill="none" xmlns="http://www.w3.org/2000/svg"><path fill-rule="evenodd" clip-rule="evenodd" d="M26.673 9.741c-.358-.837-.757-1.768-2.42-1.198v-4.52C24.254 1.689 20.309 0 15.5 0S6.746 1.689 6.746 4.023v19.954C6.746 26.311 10.692 28 15.5 28s8.754-1.689 8.754-4.023V11.935c1.483.194 1.803 1.357 1.526 2.56l1.526.24c.342-2.204-.41-3.67-3.052-3.785v-.92c1.015-.487 1.636.31 2.272 1.127.522.67 1.055 1.354 1.824 1.354 1.124 0 2.008-.563 2.65-1.69l-1.365-1.85c-.268 1.233-.91 1.85-1.928 1.85-.571 0-.794-.519-1.034-1.08Zm-8.84 5.272c-.778-.189-1.578-.383-2.365-.383-.8 0-1.609.198-2.392.39-2.046.502-3.922.962-5.036-2.257C6.68 8.835 9.784 9.7 12.614 10.49c1.098.306 2.155.6 2.894.6.71-.002 1.73-.278 2.796-.566 2.806-.76 5.934-1.607 4.592 2.239-1.12 3.207-3.015 2.747-5.062 2.25Zm-6.272-2.91a9.73 9.73 0 0 0-1.008-.408c-.045.569.2 1.098.75 1.613.479.45.93.502 1.414.114a2.88 2.88 0 0 0 .415-.594 15.909 15.909 0 0 1-.612-.274.643.643 0 1 1-.96-.452Zm-2.887.152c.207-.623.666-.786 1.248-.71-.098.801.22 1.556.941 2.233.208.195.418.338.63.43a4.5 4.5 0 0 1-1.133.22c1.632.306 2.803-.142 3.512-1.344.68.164 1.146.004 1.146-.909-.237.95-1.316.298-2.522-.43-1.653-1-3.544-2.142-3.822.51Zm9.801.286a9.73 9.73 0 0 1-.618.296c.117.222.256.421.417.598.484.389.935.336 1.414-.114.575-.54.817-1.094.742-1.693a6.669 6.669 0 0 0-1.07.452.644.644 0 0 1-.255 1.235.643.643 0 0 1-.63-.774Zm-2.348.13c.242.357.58.452.975.397.707 1.225 1.883 1.682 3.529 1.373a4.498 4.498 0 0 1-1.132-.22c.21-.092.42-.235.629-.43.732-.689 1.05-1.457.935-2.273.49-.011.926.186 1.254.75-.312-2.881-2.1-1.714-3.77-.625-.94.613-1.841 1.202-2.42 1.028Zm-.321-1.207c0 .449.24.805.642.885-.402.08-.883-.241-.643-.885Zm7.324-7.441c0 1.576-3.39 3.057-7.63 3.057S7.87 5.6 7.87 4.023c0-1.576 3.39-3.057 7.63-3.057s7.63 1.48 7.63 3.057Z" fill="#1D1D1F"/><ellipse cx="15.5" cy="4.023" rx="3.775" ry="1.609" fill="#F63"/><path d="M46.025 2.666c.317.12.497.295.541.523l.079-.061.127-.026.008.045-.023.092.424-.085.522.168.056.077-.127.025.009.044c.116.292.291.587.525.886.368.526.616 1.121.744 1.787l.118.608c.087-.018.26.413.517 1.293l.042.217c.006.03-.006.047-.035.053l.06.076c.026.134.011.363-.044.686.15.165.248.37.296.614l.017.089.083-.017c.058-.011.093-.214.105-.606l.043-.009-.06-.08-.025-.128c.116-.238.144-.935.085-2.091.05-.141.084-.417.104-.827.131-.596.264-.983.396-1.162l.044-.01a.351.351 0 0 0 .01-.18l.083-.018.002.226c.093-.019.17-.23.232-.632l-.008-.044.092.028-.009-.045c-.03.006-.047-.006-.052-.035.045-.01.097-.049.158-.12.005.027.02.038.047.033.134-.387.285-.597.454-.63l.044-.009.033.173-.3.512-.092-.028-.13.026.008.044.17-.034.018.089c-.167.203-.246.324-.239.361-.095.429-.206 1.382-.332 2.859l.009.044.04-.008c.112-.298.17-.686.174-1.163l.14-.66.047-.009c.005-.12.03-.185.076-.194l.043-.01a.35.35 0 0 0 .13.201l.01.055a.173.173 0 0 1 .051-.022l.009.044a7.577 7.577 0 0 0-.099.873l.044-.009c.066-.013.107-.26.123-.743.172-.035.277-.326.317-.875l.087-.017c.012.062-.008.26-.061.597.07-.014.124.035.16.148l-.002.226c.046.08.083.118.112.112l.024.806c.018.088.068.124.153.107l.008.04c.02 1.03-.015 2.223-.106 3.58-.095.503-.28 1.231-.553 2.183-.211.583-.331.878-.36.883l-.242.136c-.012-.064-.092-.093-.239-.086.014.07-.12.14-.398.214a.976.976 0 0 0-.46-.314c-.008-.04-.06-.075-.156-.103l-.04.008.018.088c-.244-.18-.37-.29-.377-.33-.574-.827-.9-1.438-.976-1.833-.11-.43-.23-.826-.361-1.19l.027-.093-.238-.764.043-.008-.06-.08-.151-.781-.123-.423-.175.035c.014.07-.015.224-.087.465l.087-.018c-.021.342-.024.553-.009.633.027-.005.043.007.048.037-.092.018-.11.232-.052.641l.085.21a.893.893 0 0 1-.103.38c.005.029.023.04.052.035.022.425.015.696-.02.815a.323.323 0 0 1 .065.12c-.085.185-.135.614-.15 1.289-.028.307-.057.463-.086.469l-.127.025c-.062.344-.16.53-.292.556-.064-.107-.118-.157-.16-.148l-.087.017-.206.083c-.025-.128-.17-.189-.434-.18l.001-.227c-.028-.145-.098-.206-.212-.183l-.05-.262c-.028-.142-.113-.199-.256-.17-.126-.655-.108-1.785.057-3.39-.006-.03-.023-.04-.053-.035v-.451l.095.027-.05-.262c.097-.02.13-.161.095-.425l-.059-.301c.066-.014.09-.123.069-.328l-.074-.169c.01-.09.03-.14.058-.145-.006-.03-.023-.042-.052-.036a2.921 2.921 0 0 1 .014-.63.326.326 0 0 1-.07-.124.319.319 0 0 1 .12-.065 2.093 2.093 0 0 1-.168-.419c.037-.007.077-.106.12-.295a.32.32 0 0 1-.068-.12l.043-.01-.06-.079c.03-.77-.002-1.619-.094-2.548a.717.717 0 0 1 .324-.153l.127-.025c.03-.006.047.006.052.036l.079-.062Zm5.373 2.364.026.133c-.055.01-.075.06-.058.145l-.044.009a.322.322 0 0 0-.068-.12c.087-.018.122-.07.105-.16l.04-.007Zm-.742-.182.017.088-.027.093.095.027.044-.008-.008-.045-.088.018.028-.093-.009-.045c-.006-.029-.023-.041-.052-.035Z" fill="#1D1D1F"/><path d="m53.264 2.081.236.049.01-.05.32.117-.01.044c-.093-.019-.146.004-.16.07l.107-.03.044.01-.01.048-.12.124c-.01.048.028.105.112.171l.096.02c.017-.086.077-.14.179-.163l.008-.044.189.038c-.01.05.163.251.52.602.28.348.541.851.782 1.51.233.977.327 1.579.282 1.804l-.049-.01c.057.544.095 1.183.114 1.92a.359.359 0 0 0-.078.137c.097.02.122.307.075.864l-.066.083-.06 1.29a2.865 2.865 0 0 0-.176.41l-.01.3.045.008.106-.03-.02.099-.066.084c.032.006.045.026.038.058-.032-.006-.051.007-.058.04l.095.019c.407-.587.701-1.06.883-1.42 0-.07.097-.183.29-.34l.72-1.614c-.032-.018-.048-.133-.048-.346.226-.487.37-.731.433-.731.236-.521.622-1.632 1.159-3.331l.434-1.027a.36.36 0 0 1-.05-.146c.12 0 .296-.147.528-.44h.197l.045.194h.05c.065 0 .097-.033.097-.1l.48.05h.097c0 .098.032.146.094.146h.05c0-.097.032-.146.098-.146h.05c.062.01.093.043.093.1l.099-.05h.044v.196h.099c.063 0 .094-.033.094-.1v-.045l-.045-.1.242-.05h.093l-.049.1v.145c.066 0 .099.065.099.195h.384c0 .034-.016.05-.049.05.015.164.064.246.148.246v.29c.017.35.113.594.286.737 0 .015.05.179.148.49l.094-.05h.049l.192.737c.088 0 .136.082.142.248l.001.043h.148c.003.185.098.544.286 1.077a2.42 2.42 0 0 0-.05.39l.1.05c0-.033.016-.05.049-.05 0 .068.095.28.286.637.993-.097 1.588-.145 1.784-.145v.1h-.098l.05.24-.962.296.044.1c0 .154-.143.251-.43.29v.05h.095v.1l-.094.146v.096c.256.827.465 1.562.626 2.204 0 .051.032.117.094.195v.05c0 .034-.016.05-.05.05l.435 1.273c-.03 0-.045.016-.045.05.137 0 .28.504.43 1.513-.108 0-.187.082-.238.245h-.29c0 .1-.08.15-.242.15-.113-.112-.403-.243-.868-.395 0-.051-.24-.148-.72-.29 0-.037-.097-.119-.29-.246v-.1l.335.05h.148c.062 0 .093-.032.093-.096 0-.103-.304-.903-.912-2.4 0-.2-.161-.705-.483-1.517-.617.197-1.291.344-2.022.44 0-.033-.016-.05-.049-.05 0 .098-.097.163-.29.196-.547.127-.82.308-.82.54-.202.655-.395 1.111-.577 1.369v.15c.096 0 .144.032.144.095v.05l-.094-.05h-.099c-.095.255-.143.418-.143.491l-.098-.05c0 .085-.097.184-.291.296 0 .06-.176.354-.528.881l-.098.046h-.094l-.192-.146h-.05c-.062.01-.093.043-.093.1.03.06.044.11.044.146l-.094.05c-.041-.034-.122-.05-.241-.05 0 .097-.064.145-.193.145l-.773-.536c-.199 0-.392-.236-.58-.709a8.944 8.944 0 0 1-.152.973l-.076.383c-.044.223-.097.328-.158.315l-.047.491-.057.285c-.172.534-.384.857-.634.97-.067.052-.186.092-.356.12l-.021.007c-.134.112-.039.082-.148.193a.81.81 0 0 1-.252.026.538.538 0 0 1-.301.027c-.146.174-.259.279-.338.314l-.477-.005a9.896 9.896 0 0 1-1.62.029c-.496-.245-1.085-.427-1.765-.546-.339-.263-.64-.395-.904-.395-.064-.148-.517-.463-1.358-.947-.281-.16-.45-.227-.507-.2-.212-.227-.36-.322-.441-.285l-.078-.18c.803.32 1.235.467 1.295.44l-.02-.046-.403-.197-.018-.042.045-.02c.008.02.264.121.767.305s.928.276 1.274.277c.28.054.46.063.54.027l.044-.02c.05-.022.065-.064.048-.125-1.183-.303-1.811-.54-1.886-.711l-.066.084c-.09.04-.18-.044-.27-.252l-.086.039.038.087-.046.02a1.534 1.534 0 0 0-.2-.337l.09-.04.02.045c1.538.557 2.596.85 3.172.881 0 0 1.622.362 2.375-.075 1.357-.788 1.009-6.13 1.009-6.13l.106-1.526a18.461 18.461 0 0 0-.302-3.455c-.104-.275-.522-1.354-.477-1.577.07-.152.132-.223.187-.212l.14.029c.013-.063.035-.09.068-.084ZM64.432 9.96c.194.75.339 1.127.434 1.127v-.05c0-.04-.016-.202-.049-.487l.05-.245c-.034 0-.05-.017-.05-.05l-.094.05h-.098c0-.23-.064-.345-.193-.345Zm-2.96-3.94c-.152.203-.313.562-.483 1.077-.072.451-.2.89-.385 1.318h-.05v.195c.165 0 .696-.13 1.593-.39v-.05c0-.07-.225-.772-.675-2.105V6.02Zm-1.456-2.364h-.192v.1h.098c-.483 1.04-.724 1.757-.724 2.154.068-.015.132-.097.192-.245a.419.419 0 0 1-.045-.196c.075 0 .22-.277.434-.831l-.049-.1v-.05c.176-.203.271-.48.286-.832ZM39.433 13.64c-.578-.033-.867-.163-.867-.39a.38.38 0 0 1-.242-.1c0 .033-.016.05-.05.05 0-.04-.127-.17-.384-.391 0-.14-.128-.287-.384-.441-.296-.176-.697-.877-1.204-2.105-.105-.15-.168-.165-.187-.046.03.248.044.533.044.854 0 .049-.015.073-.044.073l.044.1v.295c0 .064-.031.226-.094.486l.094-.045c.033.336.05.532.05.586h-.05l.05.096v.345l.049.245c-.066 0-.099.049-.099.146 0 .027.017.157.05.39l-.528.196c-.194 0-.29-.162-.29-.486h-.1c-.03.127-.044.24-.044.34h-.05c0-.205-.16-.336-.482-.39 0-.218-.08-.48-.242-.786a.346.346 0 0 1-.143.05v.05h.098v.05c0 .03-.016.045-.049.045l.05.1v.1c-.26-.236-.39-.677-.39-1.322.066-.673.099-1.155.099-1.446 0-.342-.033-.644-.099-.904 0-.03.016-.16.05-.391 0-.042-.017-.206-.05-.49l.05-.246a.485.485 0 0 1-.05-.246h.05a3.226 3.226 0 0 1-.144-.731h.05c-.397-2.058-.75-3.086-1.06-3.086l-.1-.341v-.05c.01-.067.043-.1.1-.1h.044l.099.05c0-.033.016-.05.049-.05l-.05-.095c.01-.067.04-.1.094-.1.063.033.112.05.148.05 0-.049.048-.097.143-.146.194.136.29.283.29.44.093 0 .238-.081.435-.244l.135-.005c0 .13.128.195.385.195v.1h-.099v.046c.173 0 .301.05.385.15l-.045-.1v-.05h.094c0 .057.097.204.29.44.576 1.44 2.236 3.856 3.041 6.855.069 0 .133.147.193.441.322-.354.61-1.448.867-3.28 0-.031-.016-.046-.049-.046.057-.785.137-1.177.242-1.177a.33.33 0 0 0 .049.145c-.066.13-.099.31-.099.54 0 .074.017.139.05.196-.033.38-.08.673-.143.882.032.227.08.34.143.34h.049c0-.13.031-.195.094-.195V8.6a.345.345 0 0 0 .148-.05c-.033-.07-.066-.217-.099-.44a.343.343 0 0 1 .143-.05l-.044-.246c.03 0 .044-.017.044-.05h-.094v-.096c.128 0 .193-.375.193-1.127.044-.22.092-.368.143-.44-.063 0-.094-.049-.094-.146v-.54h-.05v-.046c0-.033.017-.05.05-.05l-.05-.1c.075-.073.14-.285.193-.636l-.05-.096a.807.807 0 0 0 .1-.39l-.05-.1h.098v-.05h-.098V3.85a1.8 1.8 0 0 1 .675-.787c.29.055.434.12.434.196v.1c-.358.146-.647.423-.868.832l.05.1-.148 1.077h.098l-.098.145c0 .073.016.138.05.196l-.095.245.045.245-.045.096.045.295v.146a5.96 5.96 0 0 0-.094.54c0 .073.017.138.05.196-.066.164-.115.245-.148.245l.049.096c0 .164-.031.245-.094.245l.045.1-.094.146c.032.178.049.309.049.39-.033 0-.05.017-.05.05h.095c0-.327.08-.637.241-.931l-.05-.291v-.05c.132 0 .198-.13.198-.391h.045l-.045-.1a.945.945 0 0 0 .143-.44.485.485 0 0 1-.05-.246h.05l-.05-.096.1-.15v-.045a.371.371 0 0 0-.05-.195c.063-.23.11-.346.143-.346-.033-.042-.05-.124-.05-.245.034 0 .05-.015.05-.046l-.05-.2c.046-.148.11-.228.193-.24l-.044-.1a.42.42 0 0 0 .044-.196h.099c-.033.44-.05.765-.05.977v.346c-.095 0-.143.031-.143.095.096 0 .143.164.143.49h.05c.128-.25.192-.398.192-.44a.358.358 0 0 1-.05-.145l.05-.491a.358.358 0 0 1-.05-.146c.1 0 .148-.065.148-.195h.094v.045c-.128.673-.192 1.783-.192 3.332h-.05c0 .033.017.05.05.05l-.05.245v.095l.193-.095v.046c-.063.663-.207 1.675-.434 3.035 0 .391-.24.93-.72 1.619 0 .2-.29.313-.868.34Zm4.249-1.144h-.286c0-.064-.097-.13-.29-.196-.484-.52-.726-1.875-.726-4.063-.03 0-.044-.065-.044-.195 0-.033.015-.05.044-.05l-.044-.245v-.441c0-.03.015-.046.044-.046a.386.386 0 0 1-.044-.15l.044-1.172h.05c0-.034-.017-.05-.05-.05.042-.443.075-.703.099-.782 0-.034-.017-.05-.05-.05 0-.034.017-.082.05-.145.033-.824.05-1.477.05-1.96 0-.533-.065-1.219-.193-2.058.14-.26.285-.391.434-.391.185 0 .296.082.335.245.236.055.444.219.627.491a.56.56 0 0 0 .098.291l.094-.045h.049c.063.445.094.689.094.731h.098V2.12c.137 0 .218.227.242.682.045 0 .109.228.192.686.033 0 .05.017.05.05s-.017.05-.05.05l.143 1.027a2.561 2.561 0 0 0-.049.44v.537a.43.43 0 0 1-.045.2c.03.06.045.11.045.146-.116 1.205-.212 1.809-.286 1.809l.049.345v.881a.386.386 0 0 1-.05.196c.034.058.05.123.05.195v.05c0 .064-.033.096-.098.096 0-.033-.017-.05-.05-.05v.05l.099.145v.1l-.192 1.568-.242.39a.383.383 0 0 0-.29.147c0 .033.016.05.048.05l-.049.49v.096Z" fill="#1D1D1F"/><path fill-rule="evenodd" clip-rule="evenodd" d="m35.814 26.307-.926-.094-.09.047c-.377-.094-.654-.232-.831-.415-.4-.329-.6-.574-.6-.737 0-.028-.031-.152-.094-.373v-.042l.047-.095c-.04 0-.132-.122-.274-.368v-.137c0-.031.107-.124.321-.279l-.047-.23c.54-.4.91-.6 1.11-.6v.047c0 .123-.109.368-.326.736v.047c.066 0 .236.046.51.138l.785-.09v.047c.205-.032.405-.079.6-.142l.321.047c.446-.07 1-.348 1.663-.83.189-.157.373-.403.553-.737.154-.163.231-.317.231-.463-1.711-.368-2.634-.6-2.768-.693 0 .062-.032.094-.095.094-1.083-.26-1.713-.505-1.89-.737-.131 0-.363-.154-.694-.463-.08-.008-.249-.208-.506-.6-.074 0-.151-.106-.231-.32-.123 0-.185-.155-.185-.463 0-.514.153-.96.459-1.34a3.03 3.03 0 0 1 .647-.784.998.998 0 0 0 .279-.459c.471-.34.748-.51.831-.51.695.072 1.202.195 1.522.369.708.377 1.063.731 1.063 1.062v.369h-.095v.047l.047.094-.231.043c-.1 0-.33-.123-.69-.369-.532.217-.854.372-.969.463-.025.146-.225.33-.6.553 0 .05-.154.205-.462.462-.186.28-.28.448-.28.506.618.276 1.634.553 3.048.83 1.28.309 2.064.617 2.353.926.926.46 1.389.812 1.389 1.058h-.095c0-.08-.168-.233-.505-.459h-.095v.043c.14.377.356.624.647.741 0 .04.078.178.232.415-.063.01-.094.039-.094.09l.047.416c0 .234-.184.418-.553.553 0 .1-.139.253-.416.462 0 .154-.247.37-.741.647 0 .06-.2.244-.6.552-.092.037-.138.085-.138.142h-.047l-.09-.047c0 .222-.292.438-.878.646 0-.094-.032-.141-.095-.141-.1.14-.268.233-.505.278l-.279-.047h-.09a.361.361 0 0 0-.184.047l-.094-.047a.361.361 0 0 1-.185.047l-.09-.047-.047.094Zm8.914-.51h-.095c-.317 0-.532-.046-.647-.138l-.184.047c-.048 0-.14-.061-.274-.184l-.094.043c-.215-.049-.415-.233-.6-.553l-.095.047h-.09c-.646-.53-.968-.885-.968-1.062-.523-1.079-.785-2.31-.785-3.692-.023 0-.07-.445-.141-1.336h.047c-.063-.157-.094-.264-.094-.321.023-.186.054-.279.094-.279l-.279-1.336c.057 0 .105-.139.142-.416.123 0 .184-.03.184-.094v-.047h.047l.137.095c.066 0 .157-.093.275-.279a.337.337 0 0 0 .141-.047v.094l.232-.047c0 .094.014.141.043.141.042-.031.12-.047.23-.047 0 .072.094.117.28.137v.047l-.048.09c.063 0 .095.032.095.095h.043c.03 0 .155-.032.372-.095h.137v.326l-.094.137.142.094-.142.69c.012.063.043.094.094.094-.031.36-.047.621-.047.784v.047l.047.458h-.047l.047.094v.047c0 .494.046 1.386.138 2.673h-.047c.03.072.094.319.188.741l-.047.232c.06.1.09.19.09.273l-.043.095c.151 0 .227.154.227.462.052 0 .114.092.189.274.151 0 .52-.368 1.105-1.105.34-.573.68-1.559 1.016-2.955v-.647l-.047-.32h.047l-.047-.091a.37.37 0 0 1 .047-.188c-.091-1.205-.137-1.928-.137-2.168a1.39 1.39 0 0 1 .416-.368v-.137h.09v.09h.137c.157-.214.296-.321.416-.321l.047.09.094-.043h.09v.137h.047l.232-.047.278.184v.141h.184v-.094c.06.032.106.047.138.047a.332.332 0 0 1 .137-.047c.217.2.326.446.326.737-.032 0-.048.015-.048.047.06.011.09.043.09.094-.09.072-.137.178-.137.322h-.047l-.09-.279c-.063.011-.094.043-.094.094v.647c0 .291-.016.645-.047 1.062l.047.227c-.191 1.245-.376 2.076-.553 2.493-.032 0-.047.016-.047.047v.416l.047.458c-.123 0-.184.124-.184.372h-.047c0 .1.061.439.184 1.015h-.047l.047.09v.232c0 .068-.016.13-.047.184.031.06.047.106.047.137-.069 0-.146-.153-.232-.458h-.042c0 .028-.016.043-.047.043.06.325.137.65.231.972a.334.334 0 0 0-.047.137c-.049 0-.156-.323-.322-.968h-.047l-.047.09v.047h.094v.278h.09c0 .032-.015.047-.047.047l.047.09v.137l-.09-.042c0 .028-.015.043-.047.043-.094-.183-.203-.522-.326-1.016h-.09c-.042 0-.104.139-.184.416-.06 0-.214.17-.463.51l.047.09c-.082.102-.298.195-.647.278-.214.177-.321.3-.321.368Zm2.714.742h-.137c-.031-.225-.063-.364-.094-.415a.45.45 0 0 0 .047-.231h.094v.184l-.047.09c.06.031.106.047.137.047v.047l-.09.137c.06.011.09.043.09.094v.047Zm10.817.96-.184-.09a.36.36 0 0 1-.142.043l-.184-.043a.356.356 0 0 1-.137.043c0-.08-.109-.142-.326-.185a.992.992 0 0 0-.369-.458c-.182-.331-.321-.792-.415-1.383l.047-.095a.334.334 0 0 1-.047-.137h.047c-.054-.1-.116-.53-.184-1.293h.047c-.057-.186-.212-1.63-.463-4.335-.032 0-.077-.246-.137-.74a.34.34 0 0 1 .047-.138c0-.32-.186-.674-.557-1.062 0-.02-.077-.236-.232-.647.035-.137.143-.244.326-.32h.047v.09c.217-.06.34-.09.369-.09h.047v.277h.09l-.047.09v.047c.063 0 .094.016.094.048l.368-.232h.048v.047a.31.31 0 0 0-.047.137c.031 0 .047.016.047.048a.336.336 0 0 1 .137-.047c.268.017.546.262.831.736 0 .203.107.511.322.925.217 1.974.326 3.05.326 3.23h.047c.7-.094 1.223-.142 1.568-.142h.185c.277 0 .415-.168.415-.505h.047l-.047-.094v-.043c.154 0 .309-.924.463-2.771-.063 0-.094-.03-.094-.09v-.279c.166 0 .289-.045.368-.137h.095l.043.232c-.03 0-.043.014-.043.043l.09.047c0-.032.016-.047.047-.047l-.047-.09v-.047c.203 0 .326-.093.368-.279h.095c0 .034.016.081.047.141l.09-.046h.047c0 .102.016.18.047.23l.09-.047c.063.01.094.04.094.095v.043h-.094v.047h.142l.042-.09a.362.362 0 0 1-.042-.142h.09c.185.163.278.302.278.416h.137l.094-.047-.047-.09c.009-.063.04-.095.09-.095.229 0 .353.048.373.142v.09c0 .063-.047.094-.141.094.123.32.184.52.184.6-.151.61-.227 1.379-.227 2.304l.09.047c0-.031.016-.047.047-.047 0 .063.016.094.047.094l.184-.094v.047c0 .092-.122.153-.368.184v.279h.322l.6-.137c0 .028.015.043.047.043 0-.06.122-.106.368-.138v.048c0 .04-.2.147-.6.32 0 .123-.277.262-.831.416v.094l.231-.047c.032 0 .047.016.047.047a.334.334 0 0 1 .137-.047h.095v.047c-.372.046-.557.108-.557.184 0 .092-.016.138-.048.138l.048.094c-.06.26-.09.412-.09.458l.042.279c0 .282-.091.989-.274 2.12h-.094v-.09h-.043v.6h-.142l-.184-.138c0 .052-.077.19-.231.416 0 .328-.092.512-.274.552 0 .092-.155.137-.463.137h-.047c0-.09-.046-.137-.138-.137h-.047v-.368a.345.345 0 0 0-.047-.184c0-.032.016-.047.047-.047 0-.063-.015-.095-.047-.095.072-1.168.133-1.751.184-1.751l-.042-.095c.06-.211.09-.395.09-.552v-.368l.047-.232c-.075-.06-.136-.09-.185-.09-.454.092-.763.167-.926.227v.279c-.08 0-.187.17-.32.51l-.417.92a.336.336 0 0 1-.137.047v.369c0 .074-.077.212-.231.415 0 .183-.032.274-.094.274l.047.095c-.246.262-.369.417-.369.462v.232l.047.09c-.103 0-.164.06-.184.183Zm2.226-6.095c.146-.465.253-.712.321-.74a1.057 1.057 0 0 0-.137-.322l.09-.137h-.042c-.052 0-.115.107-.19.321l.048.232c-.014.122-.06.184-.137.184v.047l.047.09h-.094v.231c.011.063.043.094.094.094Zm1.148 3.79c.074 0 .12-.155.137-.463a.355.355 0 0 1-.043-.137h.09v-.184c0-.063-.03-.095-.09-.095l.043-.231v-.458c0-.032.016-.048.047-.048l-.047-.094c0-.031.016-.077.047-.137l-.09-.415c.029 0 .043-.016.043-.047h-.09v.325a.36.36 0 0 1-.047.184c0 .032.016.048.047.048l-.047.227v.094l.047.321h-.047l.047.094v.09c0 .063-.031.095-.094.095a.53.53 0 0 1 .094.278v.227l-.047.326Zm-.328.41c.06-.23.09-.37.09-.415 0-.031-.016-.047-.047-.047l.047-.232v-.505l-.047-.557h.047l-.047-.09v-.321c0-.031.016-.047.047-.047-.031-.04-.047-.149-.047-.326-.06.012-.09.043-.09.095v.32c0 .178-.016.287-.047.326.031.166.047.305.047.416v1.384h.047Zm-2.07-1.153c0-.1.107-.314.321-.642l.232-.463v-.094h-.047a2.087 2.087 0 0 0-.416.741c-.02 0-.082.077-.184.231v.227h.094Zm-1.067.741c.183-.2.522-.708 1.016-1.525 0-.028.016-.043.047-.043v.137h.09c0-.128.032-.282.094-.462h-.047v.047c-.031 0-.047-.016-.047-.047-.506.185-.797.278-.874.278-.209-.091-.332-.137-.369-.137v.137c0 .069.014.13.043.184 0 .032-.014.047-.043.047.029.14.059.602.09 1.384Zm7.286 1.988h-.274c0-.06-.093-.121-.279-.184-.463-.491-.694-1.767-.694-3.83-.029 0-.043-.06-.043-.183 0-.032.014-.047.043-.047l-.043-.232v-.415c0-.029.014-.043.043-.043a.359.359 0 0 1-.043-.141L64.207 21h.047c0-.032-.016-.047-.047-.047.04-.417.071-.663.094-.737 0-.032-.015-.047-.047-.047 0-.032.016-.078.047-.137a47 47 0 0 0 .047-1.846c0-.503-.061-1.15-.184-1.94.134-.246.273-.369.416-.369.177 0 .284.077.321.231.226.052.426.206.6.463 0 .083.032.174.095.274l.09-.043h.047c.06.42.09.65.09.69h.094v-.09c.131 0 .209.214.231.642.043 0 .105.216.185.647.031 0 .047.016.047.047 0 .032-.016.047-.047.047l.137.968a2.302 2.302 0 0 0-.047.416v.505a.401.401 0 0 1-.043.189.334.334 0 0 1 .043.137c-.112 1.136-.203 1.704-.275 1.704l.048.326v.83c0 .07-.016.13-.048.185a.361.361 0 0 1 .048.184v.047c0 .06-.032.09-.095.09 0-.031-.015-.047-.047-.047v.047l.094.137v.095l-.184 1.477-.231.368a.37.37 0 0 0-.279.138c0 .031.016.047.047.047l-.047.462v.09Zm-14.891-9.467c.427-.159.829-.292 1.204-.399h.041v.078c-.134.008-.201.035-.201.083-.241.014-.362.068-.362.16h-.12a.447.447 0 0 0-.279.12h-.283v-.042Zm4.585 6.095h.041c0-.058-.04-.138-.12-.243v-.119l.038-.082-.239-.402a8.138 8.138 0 0 0-1.528-1.204c-.56-.33-.84-.518-.843-.563-.221-.094-.81-.454-1.768-1.08-.524-.296-.885-.604-1.08-.925.011-.106.051-.16.118-.16 0-.179.82-.468 1.516-.754.402-.11.604-.203.604-.28.693-.23 1.081-.378 1.163-.443.403-.09.604-.156.604-.201.06 0 .113.094.16.283l-.04.078c0 .055.04.082.119.082v.041c-.08 0-.12.04-.12.12.028.134.109.308.243.521h.12l-.042-.082h.12c.117-.348.21-.521.283-.521v-.079c0-.131.04-.266.12-.402a.313.313 0 0 1-.042-.16c-.012-.092-.226-.266-.641-.522l-.682-.201h-.041a1.7 1.7 0 0 0-.6.123c-.754.159-1.236.319-1.448.48l-.082-.04h-.078c-.137.106-.31.173-.522.2l-1.406.642c-.579.298-.901.606-.966.924 0 .04.067.213.202.521l-.041.082c0 .023.053.142.16.358 0 .072.067.153.202.242 0 .077.12.238.361.481.301.181.528.355.683.522.268.047.402.114.402.201.527.288.822.476.884.563a21.94 21.94 0 0 1 2.088 1.323c.455.233.683.395.683.484-.276.221-1.093.395-2.45.522 0-.028-.014-.041-.041-.041a.314.314 0 0 1-.16.04h-1.567c-.427 0-.641.161-.641.482v.119c.102 0 .169.094.201.283l.239.16c.114.08.195.12.242.12.152.106.259.16.32.16 0 .136.256.23.765.283v.037l-.04.082c.218 0 .352.026.402.078h.12l.242-.037.078.037c.385-.032.72-.072 1.003-.119 0 .027.014.041.041.041a6.934 6.934 0 0 0 1.607-.402c.172-.04.32-.214.444-.522h.28l.082-.28v-.122c0-.063.33-.553.248-.73Z" fill="#1D1D1F"/></svg>