<svg width="220" height="48" fill="none" xmlns="http://www.w3.org/2000/svg"><path fill-rule="evenodd" clip-rule="evenodd" d="M45.603 16.7c-.613-1.436-1.295-3.031-4.137-2.055V6.897C41.466 2.895 34.72 0 26.5 0c-8.22 0-14.966 2.895-14.966 6.897v34.206C11.534 45.105 18.28 48 26.5 48c8.22 0 14.966-2.895 14.966-6.897V20.46c2.536.334 3.083 2.326 2.61 4.387l2.608.414c.585-3.78-.7-6.293-5.218-6.49v-1.576c1.736-.836 2.797.53 3.885 1.931.892 1.149 1.803 2.321 3.118 2.321 1.922 0 3.433-.965 4.531-2.896l-2.334-3.173c-.458 2.115-1.556 3.172-3.295 3.172-.977 0-1.358-.89-1.768-1.85ZM30.49 25.737c-1.33-.324-2.699-.657-4.045-.657-1.368 0-2.75.34-4.09.67-3.497.86-6.704 1.648-8.61-3.871-2.324-6.733 2.982-5.249 7.82-3.896 1.878.525 3.685 1.03 4.949 1.028 1.214-.002 2.957-.475 4.78-.97 4.796-1.303 10.144-2.754 7.85 3.838-1.913 5.499-5.154 4.71-8.654 3.858Zm-10.724-4.99c-.59-.27-1.173-.518-1.724-.698-.077.975.344 1.881 1.282 2.765.819.771 1.59.861 2.418.195.273-.3.509-.64.709-1.018a27.351 27.351 0 0 1-1.045-.47 1.1 1.1 0 0 1-1.084 1.28 1.104 1.104 0 0 1-.556-2.056Zm-4.937.262c.354-1.068 1.14-1.347 2.135-1.218-.168 1.374.376 2.667 1.609 3.828.355.334.714.58 1.075.737a7.673 7.673 0 0 1-1.936.377c2.791.526 4.793-.242 6.005-2.304 1.164.282 1.96.007 1.96-1.557-.406 1.628-2.252.51-4.313-.739-2.826-1.712-6.059-3.67-6.535.876Zm16.758.49c-.361.187-.716.361-1.057.508.2.38.438.722.712 1.024.828.667 1.6.577 2.418-.195.983-.925 1.397-1.875 1.268-2.902-.593.177-1.21.46-1.83.774a1.104 1.104 0 0 1-.435 2.117 1.1 1.1 0 0 1-1.076-1.326Zm-4.015.223c.414.61.99.774 1.667.68 1.209 2.1 3.22 2.884 6.033 2.354a7.669 7.669 0 0 1-1.936-.378c.361-.157.72-.402 1.076-.737 1.253-1.18 1.794-2.497 1.6-3.896.838-.02 1.582.32 2.143 1.287-.534-4.94-3.592-2.94-6.445-1.073-1.607 1.052-3.149 2.06-4.138 1.763Zm-.55-2.07c0 .77.412 1.38 1.099 1.518-.687.138-1.51-.414-1.099-1.517ZM39.544 6.898c0 2.702-5.795 5.24-13.044 5.24-7.25 0-13.044-2.538-13.044-5.24 0-2.703 5.795-5.242 13.044-5.242 7.25 0 13.044 2.54 13.044 5.242Z" fill="#1D1D1F"/><ellipse cx="26.5" cy="6.896" rx="6.453" ry="2.759" fill="#F63"/><path fill-rule="evenodd" clip-rule="evenodd" d="M80.866 32.004h-.63c0-.141-.214-.286-.64-.433-1.063-1.155-1.594-4.156-1.594-9.003-.066 0-.099-.144-.099-.433 0-.074.033-.11.099-.11l-.099-.544v-.978c0-.067.033-.1.099-.1a.857.857 0 0 1-.099-.332l.099-2.598h.108c0-.074-.036-.111-.108-.111.091-.98.164-1.557.216-1.733 0-.073-.036-.11-.108-.11 0-.074.036-.182.108-.322.072-1.826.108-3.273.108-4.34 0-1.182-.14-2.703-.423-4.562.308-.577.627-.866.955-.866.407 0 .653.181.738.544.519.12.977.483 1.378 1.088 0 .194.072.409.216.644l.207-.1h.109c.138.986.206 1.526.206 1.62h.217v-.211c.302 0 .478.503.531 1.51.099 0 .24.507.423 1.52.073 0 .109.038.109.112 0 .073-.036.11-.109.11l.315 2.276c-.072.39-.108.715-.108.977v1.188a.955.955 0 0 1-.099.444.79.79 0 0 1 .1.322c-.257 2.671-.467 4.008-.631 4.008l.108.765v1.953a.86.86 0 0 1-.108.433.862.862 0 0 1 .108.433v.11c0 .142-.072.213-.216.213 0-.074-.036-.111-.108-.111v.11l.216.323v.221l-.423 3.474-.531.866c-.237 0-.45.108-.64.323 0 .073.036.11.108.11l-.108 1.088v.212Zm7.282 3.837c3.384 1.234 5.71 1.885 6.98 1.952 0 0 3.568.803 5.224-.166 2.986-1.746 2.221-13.58 2.221-13.58l.232-3.384c.034-2.383-.188-4.935-.664-7.655l-.047-.126c-.286-.76-1.095-2.903-1.003-3.368.153-.337.291-.495.413-.47l.309.064c.027-.138.077-.2.147-.185l.521.107.022-.108.702.257-.019.099c-.207-.043-.323.008-.352.153l.234-.065.096.02-.021.109-.265.274c-.021.105.061.232.247.38l.212.043c.038-.191.168-.311.392-.36l.02-.1.415.086c-.022.111.358.557 1.143 1.334.618.771 1.192 1.885 1.722 3.343.511 2.167.718 3.5.62 4l-.107-.022c.125 1.204.208 2.62.249 4.252-.098.124-.155.225-.17.305.212.043.268.681.166 1.914l-.147.185-.13 2.859c-.239.499-.368.8-.389.906l-.02.664.096.02.234-.066-.043.218-.146.185c.07.015.099.058.085.13-.071-.014-.114.015-.128.087l.208.043c.896-1.3 1.544-2.349 1.943-3.145 0-.155.213-.406.64-.756l1.584-3.575c-.072-.04-.108-.295-.108-.765.499-1.08.817-1.62.955-1.62.518-1.156 1.368-3.616 2.549-7.382l.954-2.276c-.072-.141-.108-.248-.108-.322.263 0 .65-.326 1.162-.977h.433l.098.433h.108c.145 0 .217-.074.217-.222l1.053.111h.216c0 .215.069.323.207.323h.109c0-.216.072-.323.216-.323h.108c.138.02.207.094.207.222l.216-.111h.099v.433h.216c.138 0 .207-.074.207-.221V9.9l-.098-.222.531-.11h.207l-.108.22v.324c.144 0 .216.144.216.432h.847c0 .074-.037.111-.109.111.033.363.141.544.325.544v.644c.039.773.249 1.316.63 1.632 0 .033.108.396.325 1.087l.207-.11h.108l.423 1.63c.21 0 .315.215.315.645-.072 0-.108.037-.108.11l.216.112v-.111c-.072 0-.108-.037-.108-.111h.325c.006.41.216 1.205.63 2.387-.073.396-.109.684-.109.866l.217.11c0-.073.036-.11.108-.11 0 .148.21.617.63 1.41 2.185-.215 3.494-.323 3.927-.323v.222h-.217l.109.534-2.116.654.098.221c0 .343-.315.558-.945.645v.11h.207v.223l-.207.322v.211a93.008 93.008 0 0 1 1.378 4.884c0 .114.069.258.207.433v.11c0 .075-.036.111-.109.111l.956 2.82c-.066 0-.099.037-.099.11.302 0 .617 1.119.945 3.354-.236 0-.41.181-.522.544h-.64c0 .221-.177.332-.531.332-.249-.248-.886-.54-1.909-.876 0-.114-.529-.329-1.585-.644 0-.08-.213-.262-.64-.544v-.222l.738.111h.325c.138 0 .207-.07.207-.211 0-.229-.669-2.001-2.008-5.317 0-.443-.355-1.564-1.063-3.363a25.597 25.597 0 0 1-4.449.976c0-.074-.036-.11-.108-.11 0 .214-.213.358-.64.433-1.2.281-1.801.68-1.801 1.198-.446 1.45-.869 2.46-1.27 3.03v.333c.211 0 .316.07.316.212v.11l-.207-.11h-.217c-.209.564-.314.926-.314 1.087l-.217-.11c0 .188-.213.405-.64.654 0 .134-.387.785-1.161 1.953l-.217.101h-.206l-.424-.322h-.108c-.138.02-.206.094-.206.221a.8.8 0 0 1 .098.323l-.207.11c-.092-.073-.269-.11-.531-.11 0 .214-.142.322-.424.322l-1.702-1.188c-.436 0-.861-.523-1.275-1.57-.035.473-.147 1.191-.336 2.154l-.167.849c-.097.494-.213.727-.348.699l-.103 1.088-.124.632c-.38 1.182-.845 1.898-1.396 2.147-.146.116-.409.205-.784.267l-.024.009-.014.005-.007.002c-.158.133-.171.175-.186.224-.013.041-.028.088-.14.202-.081.037-.267.055-.554.058v.003c-.174.078-.395.097-.663.057-.322.386-.569.619-.744.697l-1.048-.012c-.954.114-2.142.136-3.564.064-1.093-.542-2.388-.945-3.886-1.21-.745-.581-1.408-.873-1.99-.876-.14-.325-1.136-1.025-2.987-2.098-.618-.352-.99-.5-1.116-.444-.467-.501-.79-.712-.97-.63l-.17-.397c1.766.709 2.716 1.033 2.848.973l-.044-.1-.887-.438-.04-.092.1-.045c.018.044.581.268 1.689.676 1.106.407 2.04.612 2.801.614.617.119 1.013.139 1.187.06l.1-.045c.108-.048.142-.14.105-.278-2.603-.67-3.986-1.195-4.15-1.575l-.146.186c-.198.09-.396-.096-.595-.557l-.189.085.084.193-.1.045a3.414 3.414 0 0 0-.44-.748l.199-.089.043.1Zm19.124-5.47.005-.007a.146.146 0 0 1-.013-.002.017.017 0 0 1 .005.005l.003.004ZM69.607 33.67c0 .503.637.792 1.91.866 1.273-.06 1.91-.313 1.91-.755 1.055-1.525 1.584-2.72 1.584-3.585.498-3.015.817-5.257.954-6.727v-.101l-.422.211v-.211l.108-.543c-.072 0-.108-.037-.108-.111h.108c0-3.43.14-5.891.423-7.382v-.1h-.207c0 .289-.108.433-.324.433 0 .074.035.18.108.322l-.108 1.088c0 .073.035.18.108.322 0 .094-.142.42-.424.977h-.108c0-.725-.105-1.088-.315-1.088 0-.141.105-.211.315-.211v-.766c0-.47.036-1.191.108-2.165h-.216a.933.933 0 0 1-.099.433l.099.221c-.184.027-.325.206-.423.534l.108.444c0 .067-.036.1-.108.1 0 .269.036.45.108.544-.072 0-.177.255-.315.765.072.12.108.265.108.433v.101l-.216.332.108.212h-.108c0 .241.036.423.108.543-.046.417-.151.742-.315.977l.099.222h-.099c0 .577-.144.866-.433.866v.11l.108.645a4.259 4.259 0 0 0-.531 2.064h-.207c0-.074.036-.11.108-.11 0-.182-.036-.47-.108-.866l.207-.322-.099-.222c.138 0 .207-.181.207-.544l-.108-.212c.072 0 .18-.18.325-.543a.864.864 0 0 1-.109-.433c0-.094.07-.494.207-1.198v-.323l-.098-.654.098-.212-.098-.544.206-.543a.864.864 0 0 1-.108-.433l.217-.322h-.217l.325-2.387-.108-.222c.485-.906 1.121-1.52 1.909-1.842v-.222c0-.168-.318-.312-.955-.433a3.977 3.977 0 0 0-1.486 1.742v.211h.217v.111h-.217l.108.222c0 .309-.072.598-.216.866l.108.212c-.118.778-.259 1.248-.423 1.409l.108.222c-.072 0-.108.037-.108.11v.101h.108v1.198c0 .215.07.323.207.323-.112.161-.217.486-.315.977 0 1.664-.141 2.497-.423 2.497v.211h.206c0 .074-.032.111-.098.111l.098.544c-.072 0-.177.037-.315.11.072.497.145.823.217.977-.138.074-.246.111-.325.111v1.078c-.137 0-.207.144-.207.433h-.108c-.138 0-.243-.252-.315-.755.138-.464.243-1.115.315-1.954a.864.864 0 0 1-.108-.433c0-.51.072-.91.216-1.198-.072-.135-.108-.242-.108-.323-.23 0-.407.87-.531 2.609.072 0 .108.033.108.1-.565 4.062-1.2 6.485-1.91 7.27-.13-.65-.272-.977-.423-.977-1.19-4.467-3.232-8.352-4.826-11.386-.778-1.48-1.449-2.757-1.864-3.802-.426-.524-.64-.85-.64-.977h-.206v.11l.098.223c-.184-.222-.465-.333-.846-.333v-.1h.216v-.222c-.564 0-.846-.145-.846-.433l-.298.01c-.433.363-.751.544-.955.544 0-.349-.213-.675-.64-.977-.21.108-.314.215-.314.322-.079 0-.187-.037-.325-.11-.118 0-.187.073-.206.221l.108.212c-.073 0-.108.037-.108.11l-.217-.11h-.098c-.125 0-.197.074-.217.22v.112l.217.755c.682 0 1.46 2.28 2.332 6.838h-.108c.072.698.177 1.238.315 1.621h-.108c0 .241.035.423.108.544l-.108.544c.072.63.108.993.108 1.087-.073.51-.108.8-.108.866.144.577.216 1.246.216 2.004 0 .644-.072 1.712-.216 3.202 0 1.43.285 2.407.856 2.93v-.221l-.109-.221c.073 0 .109-.034.109-.101v-.111h-.217v-.11c.072 0 .177-.038.315-.111.355.677.532 1.258.532 1.742.708.12 1.062.409 1.062.866h.109c0-.222.033-.474.098-.756h.217c0 .719.213 1.078.64 1.078l1.16-.433a14.204 14.204 0 0 1-.107-.866c0-.215.072-.322.216-.322l-.108-.544v-.765l-.108-.212h.108c0-.121-.036-.554-.108-1.299l-.207.1c.138-.577.207-.936.207-1.077v-.654l-.099-.222c.066 0 .099-.053.099-.16 0-.713-.033-1.344-.099-1.894.044-.264.182-.23.413.104 1.116 2.719 1.998 4.273 2.648 4.662.564.343.846.668.846.977.565.49.847.779.847.866.072 0 .108-.037.108-.11.177.147.354.221.531.221Zm27.757 1.115c-.028-.142-.203-.206-.526-.19.03.154-.263.311-.878.472a2.147 2.147 0 0 0-1.012-.695c-.017-.09-.13-.165-.342-.228l-.087.018.037.196c-.535-.399-.811-.643-.828-.732-1.264-1.833-1.98-3.187-2.147-4.061a30.007 30.007 0 0 0-.796-2.638l.06-.206-.524-1.692.096-.019-.134-.177-.332-1.73-.27-.937-.384.077c.03.155-.034.498-.192 1.03l.192-.038c-.048.756-.055 1.224-.02 1.402.058-.012.093.015.106.081-.204.04-.242.515-.116 1.422l.188.462c-.033.365-.109.645-.228.843.013.065.051.091.115.078.048.942.034 1.543-.043 1.806a.716.716 0 0 1 .142.267c-.187.409-.297 1.36-.33 2.855-.062.68-.126 1.026-.19 1.039l-.279.056c-.137.762-.351 1.173-.642 1.23-.142-.236-.259-.345-.352-.326l-.192.038-.453.184c-.055-.285-.374-.419-.956-.4l.004-.502c-.062-.32-.217-.456-.467-.406l-.112-.58c-.06-.315-.247-.44-.561-.377-.279-1.451-.237-3.954.124-7.51-.012-.066-.05-.092-.115-.079l-.001-1 .21.06-.111-.58c.215-.043.285-.357.209-.94l-.129-.67c.145-.029.196-.27.15-.724l-.162-.375c.022-.202.065-.31.128-.323-.012-.065-.05-.092-.114-.078a6.512 6.512 0 0 1 .03-1.396.723.723 0 0 1-.152-.275.732.732 0 0 1 .262-.145c-.095-.148-.218-.457-.368-.927.081-.016.17-.235.263-.655a.711.711 0 0 1-.15-.266l.096-.02-.134-.176c.065-1.705-.004-3.587-.206-5.646.203-.17.44-.283.714-.338l.279-.056c.064-.013.102.013.115.079l.173-.137c.697.267 1.094.654 1.19 1.16l.174-.138.279-.056.019.099-.052.204.933-.187 1.149.37.123.171-.28.056.02.098c.257.646.642 1.3 1.155 1.963.81 1.165 1.356 2.485 1.639 3.96l.258 1.347c.192-.04.572.916 1.139 2.864l.092.482c.013.065-.013.104-.077.117l.132.168c.057.298.025.804-.098 1.52.33.366.547.82.651 1.361l.038.196.183-.037c.128-.025.205-.473.23-1.343l.097-.019-.134-.177-.055-.285c.255-.527.318-2.071.188-4.633.11-.312.185-.923.228-1.833.29-1.318.58-2.177.873-2.575l.096-.019.037.197-.06.206.21.06.097-.02-.019-.098-.192.038.06-.206-.019-.098c-.012-.065-.05-.092-.114-.079a.782.782 0 0 0 .022-.402l.183-.037.005.499c.203-.042.373-.508.51-1.4l-.019-.098.202.062-.019-.099c-.064.013-.102-.013-.115-.078.1-.02.215-.108.348-.265.011.06.046.084.104.072.295-.856.628-1.321 1-1.396l.096-.02.073.385-.66 1.133-.202-.062-.288.058.019.098.375-.075.037.196c-.365.45-.54.717-.525.8-.21.95-.453 3.062-.73 6.335l.019.098.087-.017c.247-.661.375-1.52.383-2.579l.308-1.46.105-.021c.011-.268.067-.411.166-.43l.096-.02c.03.16.126.308.284.443l.024.121a.382.382 0 0 1 .112-.048l.02.098a16.94 16.94 0 0 0-.218 1.934l.096-.02c.145-.028.236-.578.272-1.647.378-.076.61-.722.696-1.937l.192-.04c.026.138-.018.58-.135 1.325.157-.032.274.077.352.327l-.002.502c.1.177.182.26.246.246l.053 1.787c.038.196.15.275.336.238l.017.089c.045 2.282-.032 4.925-.234 7.93-.208 1.116-.614 2.729-1.217 4.838-.464 1.292-.728 1.944-.792 1.957l-.53.301Zm.337-17.528-.052-.273c.033 0 .066.002.1.007l.048.246-.096.02Zm-.023-1.154.096-.02c-.037-.19.006-.296.128-.321l-.057-.295-.087.018c.038.196-.039.314-.23.352a.733.733 0 0 1 .15.266Zm-25.859 3.93h.109c0-.295-.036-.584-.109-.866l.109-.544v-.1h-.207c0 .195-.072.41-.217.644l.109.222c-.072 0-.109.036-.109.11v.212c.112.215.217.322.315.322Zm43.199-2.626c.151-.033.292-.215.423-.544a.927.927 0 0 1-.098-.433c.164 0 .482-.614.954-1.842l-.108-.222v-.111c.387-.45.597-1.064.63-1.843h-.423v.222h.216c-1.063 2.303-1.594 3.894-1.594 4.773Zm-19.112 11.01c0 .352-.063.695-.192 1.03-.11.023-.186-.027-.228-.149l-.092-.481.096-.02.417-1.88c-.012-.066-.062-.154-.15-.266.099-.02.21-.11.337-.272l.019.098-.129.323.038.196.183-.037-.055-.286.096-.019.11.57c-.178.771-.328 1.17-.45 1.194Zm22.098-5.028c.361 0 1.529-.288 3.504-.866v-.11c0-.155-.496-1.709-1.487-4.663v-.1c-.334.45-.688 1.245-1.062 2.387-.158 1-.44 1.973-.847 2.92h-.108v.432Zm9.487 5.377v.11c-.21 0-.528-.832-.955-2.497.282 0 .423.255.423.766h.217l.206-.111c0 .074.037.11.109.11l-.109.544c.073.631.109.99.109 1.078Zm-31.222-4.48c-.047-.244.043-.626.269-1.147.043-.12.044-.287.003-.5l-.036-.188-.096.02c-.081.016-.181.499-.3 1.45l-.288.057.073.383.096-.019.048-.035c-.002.209-.075.66-.217 1.35l.015.6.017.09.096-.02c.141-1.307.208-1.984.198-2.032l-.01-.06.028-.02c.011.059.046.083.104.071Zm53.049 10.79-2.135-.217-.207.108c-.87-.217-1.509-.536-1.917-.957-.923-.758-1.384-1.324-1.384-1.699 0-.066-.072-.352-.217-.86v-.098l.108-.217c-.092 0-.302-.283-.632-.85v-.316c0-.072.247-.286.741-.642l-.109-.533c1.246-.921 2.099-1.382 2.56-1.382v.108c0 .283-.25.85-.751 1.699v.108c.151 0 .543.106 1.176.317l1.808-.208v.109a8.804 8.804 0 0 0 1.384-.326l.741.108c1.027-.164 2.306-.803 3.834-1.915.435-.362.86-.929 1.275-1.699.356-.375.533-.73.533-1.066-3.946-.85-6.074-1.383-6.383-1.6 0 .144-.073.217-.218.217-2.496-.6-3.949-1.165-4.358-1.699-.303 0-.836-.355-1.601-1.066-.184-.02-.573-.481-1.166-1.383-.171 0-.349-.247-.533-.74-.284 0-.425-.356-.425-1.067 0-1.185.352-2.216 1.057-3.091a7.042 7.042 0 0 1 1.492-1.807c.336-.336.55-.689.643-1.057 1.086-.784 1.726-1.175 1.917-1.175 1.601.164 2.77.447 3.508.848 1.634.87 2.451 1.686 2.451 2.45v.85h-.218v.108l.109.217-.534.1c-.23 0-.761-.284-1.591-.85-1.225.5-1.969.856-2.233 1.067-.059.335-.521.76-1.384 1.273 0 .119-.355.474-1.067 1.067-.428.645-.642 1.034-.642 1.165 1.423.639 3.765 1.277 7.026 1.916 2.952.711 4.76 1.422 5.425 2.133 2.135 1.06 3.202 1.873 3.202 2.44h-.217c0-.185-.389-.537-1.166-1.057h-.218v.098c.323.87.82 1.44 1.492 1.71 0 .091.178.41.534.957-.145.02-.218.089-.218.207l.109.958c0 .54-.425.965-1.274 1.275 0 .23-.32.585-.959 1.066 0 .356-.57.853-1.709 1.491 0 .138-.462.563-1.384 1.274-.211.086-.317.195-.317.326h-.108l-.208-.108c0 .513-.675 1.01-2.025 1.49 0-.217-.073-.325-.218-.325-.23.322-.619.536-1.166.642l-.642-.11h-.208a.836.836 0 0 0-.425.11l-.217-.11a.83.83 0 0 1-.425.11l-.208-.11-.108.218Zm20.545-1.175h-.218c-.731 0-1.228-.105-1.492-.316l-.425.109c-.112 0-.323-.142-.632-.425l-.218.099c-.494-.112-.955-.537-1.383-1.275l-.217.11h-.208c-1.489-1.225-2.234-2.041-2.234-2.45-1.205-2.488-1.808-5.326-1.808-8.512-.053 0-.161-1.028-.326-3.081h.108c-.144-.363-.217-.61-.217-.741.053-.428.125-.643.217-.643l-.642-3.08c.132 0 .241-.32.326-.959.284 0 .425-.072.425-.217v-.108h.109l.316.217c.152 0 .363-.214.633-.642.079 0 .187-.037.326-.109v.218l.533-.11c0 .218.033.327.099.327.099-.073.277-.109.534-.109 0 .164.214.27.642.316v.109l-.108.207c.145 0 .217.072.217.217h.099c.072 0 .359-.072.86-.217h.316v.75l-.217.316.325.218-.325 1.59c.026.145.098.217.217.217-.073.83-.109 1.432-.109 1.807v.11l.109 1.056h-.109l.109.217v.109c0 1.139.105 3.193.316 6.162h-.109c.073.165.218.734.435 1.709l-.109.533c.139.23.208.441.208.632l-.099.217c.349 0 .524.356.524 1.067.118 0 .263.21.435.632.349 0 1.199-.85 2.549-2.548.784-1.323 1.565-3.595 2.342-6.814v-1.492l-.108-.74h.108l-.108-.208c0-.164.036-.309.108-.434-.21-2.778-.316-4.444-.316-4.997.257-.343.577-.626.959-.85v-.316h.207v.208h.316c.363-.494.682-.741.959-.741l.109.208.217-.1h.208v.317h.108l.534-.109.642.425v.326h.425v-.217c.139.072.244.108.317.108.138-.072.243-.108.316-.108.5.46.75 1.027.75 1.698-.072 0-.108.036-.108.108.138.027.207.1.207.218-.21.165-.316.411-.316.74h-.108l-.208-.641c-.145.026-.217.098-.217.217v1.491c0 .672-.037 1.488-.109 2.45l.109.523c-.442 2.87-.866 4.787-1.275 5.748-.073 0-.109.036-.109.108v.958l.109 1.057c-.284 0-.425.287-.425.86h-.109c0 .23.142 1.01.425 2.34h-.109l.109.207v.533c0 .158-.036.3-.109.425.073.138.109.244.109.316-.158 0-.336-.352-.534-1.057h-.099c0 .066-.036.099-.108.099.138.75.316 1.498.534 2.242-.073.138-.109.244-.109.316-.112 0-.359-.745-.741-2.232h-.109l-.109.207v.109h.218v.642h.207c0 .072-.036.108-.108.108l.108.207v.317l-.207-.099c0 .066-.036.099-.109.099-.217-.422-.468-1.202-.751-2.34h-.207c-.099 0-.241.319-.425.957-.139 0-.495.392-1.068 1.175l.109.208c-.191.237-.688.45-1.492.642-.494.408-.741.691-.741.85Zm6.275 1.709h-.316c-.073-.52-.146-.84-.218-.958.072-.119.109-.296.109-.533h.217v.424l-.108.207c.138.073.243.109.316.109v.108l-.208.317c.138.026.208.099.208.217v.109Zm24.942 2.21-.425-.206a.828.828 0 0 1-.326.099l-.425-.1a.82.82 0 0 1-.316.1c0-.184-.25-.326-.751-.425-.158-.415-.442-.767-.85-1.057-.422-.764-.741-1.827-.958-3.19l.108-.217c-.072-.139-.108-.244-.108-.316h.108c-.125-.23-.267-1.224-.425-2.983h.109c-.132-.427-.487-3.759-1.067-9.994-.073 0-.178-.569-.317-1.708 0-.072.037-.178.109-.316 0-.737-.428-1.554-1.284-2.45 0-.046-.178-.543-.534-1.491.079-.316.329-.562.751-.74h.109v.207c.5-.138.783-.207.849-.207h.109v.642h.208l-.109.207v.108c.145 0 .217.037.217.11l.85-.534h.109v.109c-.072.131-.109.236-.109.316.073 0 .109.036.109.108.138-.072.244-.108.316-.108.619.04 1.258.605 1.917 1.698 0 .468.247 1.179.742 2.133.5 4.55.751 7.032.751 7.447h.108c1.614-.218 2.82-.326 3.617-.326h.425c.639 0 .959-.389.959-1.166h.108l-.108-.217v-.098c.355 0 .711-2.13 1.067-6.39-.145 0-.218-.07-.218-.208v-.642c.383 0 .666-.105.85-.316h.218l.099.534c-.067 0-.099.033-.099.098l.207.109c0-.072.037-.109.109-.109l-.109-.207v-.109c.468 0 .751-.213.85-.641h.218c0 .079.036.187.108.325l.208-.108h.108c0 .237.036.415.109.533l.208-.109c.145.02.217.093.217.218v.098h-.217v.109h.326l.098-.207a.84.84 0 0 1-.098-.326h.207c.429.375.643.694.643.958h.316l.217-.11-.108-.206c.019-.145.089-.218.207-.218.527 0 .814.109.86.326v.208c0 .145-.109.217-.326.217.283.738.425 1.198.425 1.383-.35 1.409-.524 3.18-.524 5.313l.207.109c0-.073.036-.109.109-.109 0 .145.036.217.109.217l.425-.217v.109c0 .21-.284.352-.85.424v.642h.741l1.384-.316c0 .066.036.099.108.099 0-.138.284-.244.85-.316v.108c0 .093-.461.34-1.383.741 0 .283-.639.602-1.917.958v.217l.533-.108c.073 0 .109.036.109.108.138-.072.244-.108.316-.108h.217v.108c-.856.105-1.284.247-1.284.425 0 .21-.037.316-.109.316l.109.217c-.139.6-.208.952-.208 1.057l.099.642c0 .652-.211 2.281-.632 4.888h-.218v-.207h-.098v1.382h-.327l-.425-.316c0 .119-.177.438-.533.959 0 .757-.211 1.181-.633 1.274 0 .21-.355.316-1.067.316h-.109c0-.21-.105-.316-.316-.316h-.109v-.85a.803.803 0 0 0-.108-.425c0-.072.036-.108.108-.108 0-.145-.036-.218-.108-.218.164-2.693.306-4.038.425-4.038l-.099-.218c.138-.487.207-.912.207-1.274v-.849l.109-.533c-.171-.139-.313-.208-.425-.208-1.048.211-1.759.385-2.135.524v.641c-.184 0-.431.392-.741 1.176l-.958 2.123c-.139.072-.244.108-.316.108v.85c0 .171-.178.49-.534.958 0 .421-.072.632-.217.632l.108.217c-.567.606-.85.961-.85 1.067v.533l.109.208c-.237 0-.379.14-.425.424Zm5.109-14.04c.336-1.072.583-1.642.741-1.708a2.414 2.414 0 0 0-.316-.74l.208-.316h-.099c-.119 0-.264.247-.435.74l.109.534c-.033.283-.139.424-.316.424v.109l.108.208h-.217v.533c.026.145.099.217.217.217Zm2.659 8.721c.171 0 .276-.356.316-1.067a.819.819 0 0 1-.099-.316h.207v-.424c0-.145-.069-.217-.207-.217l.099-.534v-1.056c0-.073.036-.11.108-.11l-.108-.216c0-.073.036-.178.108-.316l-.207-.958c.066 0 .099-.037.099-.109h-.208v.751a.83.83 0 0 1-.108.424c0 .073.036.109.108.109l-.108.523v.217l.108.741h-.108l.108.218v.207c0 .145-.072.218-.217.218.145.23.217.444.217.641v.524l-.108.75Zm-.742.958c.139-.533.208-.852.208-.958 0-.072-.037-.108-.109-.108l.109-.534v-1.165l-.109-1.284h.109l-.109-.208v-.74c0-.072.036-.109.109-.109-.073-.092-.109-.342-.109-.75-.138.026-.207.099-.207.217v.74c0 .41-.037.66-.109.751.072.382.109.701.109.959v3.19h.108Zm-4.792-2.666c0-.23.247-.725.741-1.482l.533-1.066v-.218h-.108c-.409.455-.728 1.024-.959 1.71-.046 0-.188.177-.425.533v.523h.218Zm-2.451 1.708c.422-.461 1.202-1.633 2.342-3.516 0-.066.036-.098.109-.098v.315h.207c0-.296.073-.651.217-1.066h-.108v.109c-.073 0-.109-.037-.109-.109-1.166.428-1.838.642-2.016.642-.481-.21-.764-.316-.85-.316v.316c0 .158.033.3.099.424 0 .073-.033.11-.099.11.066.322.135 1.385.208 3.19Zm16.803 4.593h-.633c0-.138-.214-.28-.642-.424-1.068-1.133-1.601-4.076-1.601-8.83-.066 0-.099-.14-.099-.424 0-.072.033-.109.099-.109l-.099-.532v-.959c0-.065.033-.098.099-.098a.827.827 0 0 1-.099-.326l.099-2.548h.109c0-.073-.036-.109-.109-.109.092-.961.165-1.527.217-1.699 0-.072-.036-.108-.108-.108 0-.073.036-.178.108-.316.073-1.79.109-3.21.109-4.257 0-1.159-.142-2.65-.425-4.473.31-.567.629-.85.959-.85.408 0 .655.178.741.533.52.12.982.475 1.383 1.067 0 .19.073.402.218.632l.207-.099h.109c.138.968.208 1.499.208 1.59h.217v-.207c.303 0 .481.493.534 1.481.099 0 .24.497.425 1.491.072 0 .108.037.108.11 0 .072-.036.108-.108.108l.316 2.232a5.266 5.266 0 0 0-.109.958v1.165c0 .165-.033.31-.099.435a.761.761 0 0 1 .099.316c-.257 2.62-.467 3.93-.632 3.93l.108.75v1.916c0 .158-.036.3-.108.425a.837.837 0 0 1 .108.425v.108c0 .14-.072.208-.217.208 0-.072-.036-.109-.109-.109v.109l.218.316v.217l-.425 3.408-.534.849c-.237 0-.451.105-.642.316 0 .072.036.108.108.108l-.108 1.067v.207Zm-34.343-21.83a37.256 37.256 0 0 1 2.778-.92h.094v.18c-.309.018-.464.08-.464.19-.556.034-.834.157-.834.37h-.275c-.207 0-.421.09-.645.274h-.654v-.095Zm10.581 14.051h.095c0-.132-.092-.318-.275-.559v-.274l.086-.19-.551-.927a18.756 18.756 0 0 0-3.525-2.776c-1.289-.762-1.937-1.194-1.943-1.297-.51-.218-1.868-1.048-4.075-2.492-1.209-.682-2.041-1.392-2.494-2.131.029-.246.121-.37.275-.37 0-.412 1.889-1.08 3.495-1.738.928-.252 1.392-.467 1.392-.645 1.6-.533 2.494-.873 2.683-1.022.929-.207 1.393-.361 1.393-.464.137 0 .261.218.369.653l-.094.18c0 .127.091.189.275.189v.095c-.184 0-.275.092-.275.275.063.309.249.71.559 1.203h.275l-.095-.19h.276c.269-.801.487-1.202.653-1.202v-.181c0-.303.091-.613.275-.928a.722.722 0 0 1-.095-.369c-.028-.212-.521-.613-1.479-1.203l-1.573-.464h-.094c-.424 0-.886.094-1.384.284-1.738.366-2.849.735-3.337 1.108l-.189-.094h-.18c-.316.246-.717.4-1.204.464l-3.241 1.477c-1.336.688-2.078 1.398-2.227 2.131 0 .092.154.493.464 1.203l-.095.19c0 .051.124.326.37.824 0 .166.155.352.465.559 0 .177.277.547.833 1.108.694.418 1.218.82 1.574 1.203.619.108.929.263.929.464 1.215.665 1.894 1.097 2.037 1.298a50.52 50.52 0 0 1 4.815 3.05c1.049.538 1.574.91 1.574 1.117-.637.51-2.52.91-5.649 1.203 0-.063-.032-.095-.095-.095a.726.726 0 0 1-.37.095h-3.611c-.986 0-1.479.369-1.479 1.108v.275c.235 0 .39.218.465.653l.55.37c.264.182.45.274.559.274.349.247.596.37.739.37 0 .315.588.533 1.763.653v.086l-.095.188c.504 0 .814.06.929.181h.275l.559-.086.18.086a28.983 28.983 0 0 0 2.313-.275c0 .063.032.094.095.094a15.99 15.99 0 0 0 3.705-.928c.396-.09.737-.492 1.023-1.202h.645l.189-.645v-.283c0-.143.763-1.274.573-1.681Z" fill="#1D1D1F"/></svg>