<svg width="24" height="24" fill="none" xmlns="http://www.w3.org/2000/svg"><defs><clipPath id="a"><path fill="#fff" fill-opacity="0" d="M0 0h24v24H0z"/></clipPath></defs><path d="M0 0h24v24H0z"/><g clip-path="url(#a)" fill="#FFF" fill-rule="evenodd"><path d="M5.2 1.4A1 1 0 0 1 6 1h12a1 1 0 0 1 .8.4l3 4a1 1 0 0 1 .2.6v14a3 3 0 0 1-3 3H5a2.997 2.997 0 0 1-3-3V6a1 1 0 0 1 .2-.6l3-4ZM6.5 3 4 6.333V20a1 1 0 0 0 1 1h14a1 1 0 0 0 1-1V6.333L17.5 3h-11Z"/><path d="M2 6c0-.552.45-1 1-1h18a1.001 1.001 0 0 1 0 2H3c-.55 0-1-.448-1-1Zm6 3c.55 0 1 .448 1 1a3 3 0 0 0 6 0 1.001 1.001 0 0 1 2 0 5.001 5.001 0 0 1-10 0c0-.552.45-1 1-1Z"/></g></svg>