<svg width="24" height="24" fill="none" xmlns="http://www.w3.org/2000/svg"><defs><clipPath id="a"><path fill="#fff" fill-opacity="0" d="M0 0h24v24H0z"/></clipPath></defs><path d="M0 0h24v24H0z"/><g clip-path="url(#a)" fill="#00CC2D" fill-rule="evenodd"><path d="M1.875 4c.482 0 .875.393.875.875V9.25h4.375a.876.876 0 0 1 0 1.75h-5.25A.876.876 0 0 1 1 10.125v-5.25C1 4.393 1.393 4 1.875 4ZM16 13.875c0-.482.393-.875.875-.875h5.25c.482 0 .875.393.875.875v5.25a.876.876 0 0 1-1.75 0V14.75h-4.375a.876.876 0 0 1-.875-.875Z"/><path d="M9.459 3.354a9.325 9.325 0 0 1 4.568-.131 9.216 9.216 0 0 1 4.069 2.05A8.994 8.994 0 0 1 20.646 9a.895.895 0 0 1-.558 1.148.922.922 0 0 1-1.17-.548 7.191 7.191 0 0 0-2.041-2.98 7.364 7.364 0 0 0-3.254-1.641 7.453 7.453 0 0 0-3.656.105A7.367 7.367 0 0 0 6.818 6.91c-.005.008-.013.014-.021.022l-4.252 3.923a.932.932 0 0 1-1.297-.039.89.89 0 0 1 .041-1.273l4.242-3.914A9.216 9.216 0 0 1 9.46 3.354Zm13.293 9.83a.89.89 0 0 1-.041 1.273l-4.242 3.914a9.192 9.192 0 0 1-3.928 2.274 9.3 9.3 0 0 1-8.637-1.918A8.995 8.995 0 0 1 3.354 15a.895.895 0 0 1 .558-1.148.922.922 0 0 1 1.17.548 7.19 7.19 0 0 0 2.041 2.98 7.364 7.364 0 0 0 3.254 1.642 7.454 7.454 0 0 0 3.656-.106 7.366 7.366 0 0 0 3.149-1.826l.011-.014a.035.035 0 0 0 .01-.008l4.252-3.924a.932.932 0 0 1 1.297.04Z"/></g></svg>