<svg width="24" height="24" fill="none" xmlns="http://www.w3.org/2000/svg"><path fill-rule="evenodd" clip-rule="evenodd" d="M21.401 12.22a.753.753 0 0 0 .753-.752c0-5.404-4.22-9.622-9.623-9.622a.753.753 0 0 0 0 1.505c4.572 0 8.117 3.545 8.117 8.117 0 .416.337.753.753.753ZM9.871 9.518a2.258 2.258 0 0 0 0-3.193l-2.13-2.13a2.258 2.258 0 0 0-3.193 0L2.507 6.237a2.258 2.258 0 0 0-.66 1.687c.128 3.186 1.752 6.32 4.83 9.399 3.078 3.078 6.213 4.702 9.4 4.83a2.258 2.258 0 0 0 1.686-.66l2.041-2.041a2.258 2.258 0 0 0 0-3.193l-2.128-2.13a2.258 2.258 0 0 0-3.194 0l-1.147 1.148a.25.25 0 0 1-.332.021l-.897-.698A15.432 15.432 0 0 1 9.4 11.893l-.698-.897a.25.25 0 0 1 .02-.332L9.87 9.517ZM3.57 7.3l2.042-2.04a.753.753 0 0 1 1.064 0l2.129 2.128a.753.753 0 0 1 0 1.064L7.658 9.6a1.756 1.756 0 0 0-.144 2.32l.698.897a16.937 16.937 0 0 0 2.97 2.97l.897.698c.7.544 1.694.482 2.32-.144l1.148-1.148a.753.753 0 0 1 1.064 0l2.129 2.129a.753.753 0 0 1 0 1.064l-2.041 2.042a.753.753 0 0 1-.563.22c-2.768-.111-5.564-1.56-8.394-4.39-2.83-2.83-4.28-5.627-4.39-8.395a.753.753 0 0 1 .22-.563Zm15.39 4.523a.753.753 0 1 1-1.506 0c0-2.633-2.646-5.279-5.279-5.279a.753.753 0 1 1 0-1.505c3.464 0 6.784 3.32 6.784 6.784Z" fill="#F63"/></svg>