<svg width="20" height="16" fill="none" xmlns="http://www.w3.org/2000/svg"><path fill-rule="evenodd" clip-rule="evenodd" d="M19.645.169c.28.225.398.574.341 1.016-.088.692-3.116 14.117-3.232 14.332-.139.255-.501.487-.757.483-.39-.006-.773-.236-3-1.803l-2.311-1.626-.554.48c-.305.264-.797.716-1.093 1.005-.706.69-1.039.921-1.328.921-.23 0-.232-.003-.203-.29.017-.16.093-1.167.17-2.237.078-1.07.166-1.967.196-1.993l4.285-3.69c2.328-2.004 4.232-3.693 4.232-3.754 0-.078-.058-.106-.198-.097-.122.008-2.236 1.236-5.487 3.186A3204.112 3204.112 0 0 1 5.34 9.32c-.043.023-.786-.168-1.65-.426l-2.414-.719C.781 8.027.346 7.853.218 7.75c-.399-.32-.242-.725.402-1.036.153-.074 1.747-.674 3.542-1.334C9.364 3.47 17.483.48 18.148.232c.772-.288 1.194-.306 1.497-.063Z" fill="#039BE5"/></svg>