<svg width="26" height="26" fill="none" xmlns="http://www.w3.org/2000/svg"><defs><clipPath id="a"><path fill="#fff" fill-opacity="0" d="M0 0h26v26H0z"/></clipPath></defs><path d="M0 0h26v26H0z"/><g clip-path="url(#a)" fill="#F44837" fill-rule="evenodd"><path d="M13 3.25A9.749 9.749 0 0 0 3.25 13 9.749 9.749 0 0 0 13 22.75c5.383 0 9.75-4.365 9.75-9.75S18.383 3.25 13 3.25ZM1.082 13C1.082 6.418 6.418 1.083 13 1.083c6.582 0 11.914 5.335 11.914 11.917 0 6.581-5.332 11.916-11.914 11.916S1.082 19.581 1.082 13Z"/><path d="M13 7.583c.602 0 1.086.485 1.086 1.083V13a1.084 1.084 0 0 1-2.168 0V8.666c0-.598.484-1.083 1.082-1.083Zm-1.082 9.75c0-.598.484-1.083 1.082-1.083h.012a1.083 1.083 0 0 1 0 2.167H13a1.083 1.083 0 0 1-1.082-1.084Z"/></g></svg>