<svg width="220" height="48" viewBox="0 0 220 48" fill="none" xmlns="http://www.w3.org/2000/svg">
<path fill-rule="evenodd" clip-rule="evenodd" d="M45.603 16.6997C44.9897 15.2637 44.3084 13.6686 41.4663 14.6453V6.89655C41.4663 2.89523 34.7196 0 26.5 0C18.2804 0 11.5337 2.89523 11.5337 6.89655V41.1034C11.5337 45.1048 18.2804 48 26.5 48C34.7196 48 41.4663 45.1048 41.4663 41.1034V20.4599C44.0016 20.7935 44.5486 22.7863 44.0751 24.8474L46.6839 25.2612C47.2692 21.4816 45.9834 18.9679 41.4663 18.7711V17.1948C43.202 16.3589 44.2631 17.7252 45.3512 19.1262C46.2435 20.275 47.1538 21.4471 48.4689 21.4471C50.3912 21.4471 51.9016 20.4816 53 18.5505L50.6658 15.3781C50.2081 17.4931 49.1097 18.5505 47.3705 18.5505C46.3935 18.5505 46.0135 17.6607 45.603 16.6997ZM30.4898 25.737C29.1593 25.4131 27.7914 25.0801 26.4449 25.0801C25.0768 25.0801 23.6947 25.42 22.3551 25.7494C18.8577 26.6094 15.651 27.398 13.7452 21.879C11.4206 15.1465 16.7273 16.6302 21.5659 17.9829C23.4433 18.5078 25.2503 19.013 26.5136 19.0109C27.7277 19.0088 29.4709 18.5356 31.2936 18.0407L31.2936 18.0407C36.0905 16.7385 41.4385 15.2867 39.1449 21.879C37.2314 27.378 33.9897 26.5889 30.4898 25.737ZM19.7657 20.7469C19.1763 20.4767 18.5928 20.2286 18.0421 20.049C17.9652 21.0237 18.3857 21.9303 19.3238 22.8138C20.1427 23.585 20.9144 23.675 21.7419 23.0086C22.0146 22.7081 22.2508 22.369 22.4506 21.9914C22.114 21.8503 21.7635 21.6901 21.4056 21.5219C21.4149 21.5796 21.4197 21.6387 21.4197 21.699C21.4197 22.3085 20.9279 22.8025 20.3213 22.8025C19.7146 22.8025 19.2228 22.3085 19.2228 21.699C19.2228 21.2932 19.4409 20.9386 19.7657 20.7469ZM14.829 21.0094C15.1835 19.9412 15.969 19.6619 16.9637 19.7909C16.796 21.1648 17.34 22.458 18.5726 23.6188C18.9278 23.9533 19.287 24.1983 19.6478 24.3556C19.0714 24.5544 18.4263 24.6804 17.7124 24.7335C20.5032 25.2592 22.5046 24.4911 23.7166 22.4292C24.8807 22.7109 25.6762 22.4358 25.6762 20.8715C25.2709 22.4999 23.4253 21.3818 21.3644 20.1332C18.5375 18.4205 15.3055 16.4624 14.829 21.0094ZM31.5868 21.4993C31.2255 21.6858 30.8714 21.8604 30.5297 22.0068C30.7303 22.3874 30.9678 22.7288 31.2422 23.0312C32.0698 23.6977 32.8414 23.6076 33.6603 22.8364C34.6425 21.9114 35.0573 20.9611 34.928 19.9339C34.3352 20.111 33.7171 20.3947 33.0984 20.7084C33.4884 20.8778 33.7613 21.2677 33.7613 21.7217C33.7613 22.3311 33.2695 22.8251 32.6629 22.8251C32.0562 22.8251 31.5644 22.3311 31.5644 21.7217C31.5644 21.6455 31.5721 21.5712 31.5868 21.4993ZM27.5716 21.7217C27.9864 22.3328 28.5627 22.4964 29.2389 22.4028C30.448 24.5015 32.4589 25.286 35.2717 24.7562C34.5579 24.7031 33.9128 24.5771 33.3364 24.3782C33.6971 24.2209 34.0564 23.976 34.4116 23.6414C35.6646 22.4614 36.206 21.1444 36.0115 19.745C36.8499 19.7257 37.5936 20.0648 38.1551 21.032C37.6211 16.0912 34.5635 18.0921 31.7105 19.959C30.1033 21.0107 28.5611 22.0199 27.5716 21.7217ZM27.0224 19.6527C27.0224 20.4218 27.4343 21.032 28.1208 21.17C27.4343 21.3079 26.6104 20.7562 27.0224 19.6527ZM39.5441 6.89655C39.5441 9.59882 33.7492 12.1379 26.5 12.1379C19.2509 12.1379 13.456 9.59882 13.456 6.89655C13.456 4.19428 19.2509 1.65517 26.5 1.65517C33.7492 1.65517 39.5441 4.19428 39.5441 6.89655Z" fill="#1D1D1F"/>
<ellipse cx="26.5002" cy="6.89632" rx="6.45337" ry="2.75862" fill="#FF6633"/>
<path fill-rule="evenodd" clip-rule="evenodd" d="M80.8658 32.0036H80.2357C80.2357 31.8626 80.0224 31.7182 79.5962 31.5706C78.5331 30.4157 78.0016 27.415 78.0016 22.568C77.9359 22.568 77.9034 22.424 77.9034 22.135C77.9034 22.0613 77.9359 22.0242 78.0016 22.0242L77.9034 21.4808V20.5035C77.9034 20.4363 77.9359 20.4031 78.0016 20.4031C77.9359 20.2621 77.9034 20.1513 77.9034 20.0705L78.0016 17.4727H78.1099C78.1099 17.3989 78.0741 17.3618 78.0016 17.3618C78.0933 16.3819 78.1658 15.8045 78.2183 15.6294C78.2183 15.5557 78.182 15.519 78.1099 15.519C78.1099 15.4448 78.1462 15.3374 78.2183 15.1969C78.2904 13.3711 78.3262 11.9243 78.3262 10.8566C78.3262 9.67512 78.1854 8.15446 77.9034 6.2951C78.2115 5.71765 78.5297 5.42871 78.8578 5.42871C79.2647 5.42871 79.5109 5.61028 79.5962 5.97255C80.1145 6.09389 80.5735 6.45616 80.9741 7.06067C80.9741 7.2549 81.0462 7.46964 81.1904 7.7049L81.3973 7.60408H81.5057C81.6435 8.59093 81.7121 9.13128 81.7121 9.22512H81.9289V9.01387C82.2305 9.01387 82.4075 9.51712 82.46 10.5245C82.5585 10.5245 82.6997 11.0312 82.8832 12.0447C82.9557 12.0447 82.9915 12.0818 82.9915 12.1556C82.9915 12.2293 82.9557 12.2664 82.8832 12.2664L83.1984 14.5422C83.1263 14.932 83.0901 15.2571 83.0901 15.519V16.7071C83.0901 16.8751 83.0572 17.0231 82.9915 17.1505C83.0572 17.2845 83.0901 17.3919 83.0901 17.4727C82.8341 20.1443 82.6242 21.4808 82.46 21.4808L82.5683 22.2459V24.1991C82.5683 24.3601 82.5325 24.5046 82.46 24.6321C82.5325 24.76 82.5683 24.904 82.5683 25.0655V25.1759C82.5683 25.3173 82.4962 25.3876 82.352 25.3876C82.352 25.3138 82.3158 25.2767 82.2437 25.2767V25.3876L82.46 25.7097V25.9314L82.0372 29.4053L81.5057 30.2713C81.2693 30.2713 81.056 30.3786 80.8658 30.5938C80.8658 30.6671 80.9016 30.7042 80.9741 30.7042L80.8658 31.7924V32.0036ZM88.1483 35.8409C91.5321 37.0752 93.8587 37.7264 95.1275 37.7932C95.1275 37.7932 98.6956 38.5955 100.352 37.6269C103.338 35.8811 102.573 24.0462 102.573 24.0462L102.805 20.6631C102.839 18.2804 102.617 15.7284 102.141 13.0079L102.094 12.8817C101.808 12.1226 100.999 9.97875 101.091 9.51436C101.244 9.17653 101.382 9.0194 101.504 9.04472L101.813 9.10801C101.84 8.97008 101.89 8.9081 101.96 8.92251L102.481 9.03031L102.503 8.92163L103.205 9.17871L103.186 9.27779C102.979 9.23502 102.863 9.28608 102.834 9.43143L103.068 9.3664L103.164 9.38604L103.143 9.49472L102.878 9.76926C102.857 9.87445 102.939 10.0006 103.125 10.1485L103.337 10.1922C103.375 10.001 103.505 9.88099 103.729 9.83124L103.749 9.73259L104.164 9.8177C104.142 9.92944 104.522 10.3746 105.307 11.152C105.925 11.9232 106.499 13.0371 107.029 14.4953C107.54 16.6615 107.747 17.995 107.649 18.4952L107.542 18.4729C107.667 19.6767 107.75 21.0939 107.791 22.7254C107.693 22.8494 107.636 22.9502 107.621 23.0296C107.833 23.0729 107.889 23.711 107.787 24.9436L107.64 25.1286L107.51 27.9879C107.271 28.4868 107.142 28.7889 107.121 28.894L107.101 29.5579L107.197 29.5776L107.431 29.5125L107.388 29.7299L107.242 29.9154C107.312 29.9298 107.341 29.9734 107.327 30.0459C107.256 30.0315 107.213 30.0599 107.199 30.1323L107.407 30.1755C108.303 28.8747 108.951 27.8261 109.35 27.0296C109.35 26.8751 109.563 26.6237 109.99 26.2745L111.574 22.6994C111.502 22.6597 111.466 22.4043 111.466 21.9342C111.965 20.8535 112.283 20.3132 112.421 20.3132C112.939 19.1583 113.789 16.6979 114.97 12.9321L115.924 10.6563C115.852 10.5149 115.816 10.4075 115.816 10.3338C116.079 10.3338 116.466 10.0082 116.978 9.35694H117.411L117.509 9.78992H117.617C117.762 9.78992 117.834 9.71615 117.834 9.56819L118.887 9.67905H119.103C119.103 9.89423 119.172 10.0016 119.31 10.0016H119.419C119.419 9.78642 119.491 9.67905 119.635 9.67905H119.743C119.881 9.69913 119.95 9.77289 119.95 9.90078L120.166 9.78992H120.265V10.2229H120.481C120.619 10.2229 120.688 10.1491 120.688 10.0016V9.90078L120.59 9.67905L121.121 9.56819H121.328L121.22 9.78992V10.1125C121.364 10.1125 121.436 10.2565 121.436 10.5454H122.283C122.283 10.6192 122.246 10.6563 122.174 10.6563C122.207 11.0186 122.315 11.1997 122.499 11.1997V11.8439C122.538 12.6165 122.748 13.1599 123.129 13.4755C123.129 13.5091 123.237 13.8718 123.454 14.5631L123.661 14.4523H123.769L124.192 16.0834C124.402 16.0834 124.507 16.2981 124.507 16.728C124.435 16.728 124.399 16.7651 124.399 16.8389L124.615 16.9498V16.8389C124.543 16.8389 124.507 16.8022 124.507 16.728H124.832C124.838 17.1374 125.048 17.9331 125.462 19.1151C125.389 19.511 125.353 19.7995 125.353 19.9806L125.57 20.0915C125.57 20.0177 125.606 19.9806 125.678 19.9806C125.678 20.1286 125.888 20.5982 126.308 21.3904C128.493 21.1757 129.802 21.0683 130.235 21.0683V21.29H130.018L130.127 21.8238L128.011 22.4781L128.109 22.6994C128.109 23.042 127.794 23.2568 127.164 23.344V23.4549H127.371V23.6766L127.164 23.9987V24.21C127.729 26.0427 128.188 27.6708 128.542 29.0941C128.542 29.2085 128.611 29.3525 128.749 29.5271V29.6379C128.749 29.7117 128.713 29.7484 128.64 29.7484L129.596 32.5684C129.53 32.5684 129.497 32.6051 129.497 32.6788C129.799 32.6788 130.114 33.7966 130.442 36.0322C130.206 36.0322 130.032 36.2134 129.92 36.5756H129.28C129.28 36.7973 129.103 36.9082 128.749 36.9082C128.5 36.6599 127.863 36.3679 126.84 36.0322C126.84 35.9183 126.311 35.7031 125.255 35.388C125.255 35.3072 125.042 35.1257 124.615 34.8441V34.6224L125.353 34.7333H125.678C125.816 34.7333 125.885 34.663 125.885 34.5216C125.885 34.2933 125.216 32.5208 123.877 29.205C123.877 28.7615 123.522 27.6407 122.814 25.8415C121.456 26.278 119.973 26.6036 118.365 26.8183C118.365 26.7441 118.329 26.7075 118.257 26.7075C118.257 26.9222 118.044 27.0663 117.617 27.1405C116.417 27.4224 115.816 27.8218 115.816 28.3386C115.37 29.789 114.947 30.7989 114.546 31.3698V31.702C114.757 31.702 114.862 31.7727 114.862 31.9137V32.0246L114.655 31.9137H114.438C114.229 32.4776 114.124 32.8399 114.124 33.0009L113.907 32.8905C113.907 33.0786 113.694 33.2964 113.267 33.5448C113.267 33.6792 112.88 34.3304 112.106 35.4984L111.889 35.5992H111.683L111.259 35.2771H111.151C111.013 35.2972 110.945 35.371 110.945 35.4984C111.01 35.6324 111.043 35.7398 111.043 35.8205L110.836 35.9314C110.744 35.8576 110.567 35.8205 110.305 35.8205C110.305 36.0353 110.163 36.1426 109.881 36.1426L108.179 34.955C107.743 34.955 107.318 34.4316 106.904 33.3851C106.869 33.8582 106.757 34.5762 106.568 35.5393L106.401 36.3878C106.304 36.8819 106.188 37.1145 106.053 37.087L105.95 38.1747L105.826 38.8067C105.446 39.9887 104.981 40.7045 104.43 40.9537C104.284 41.0702 104.021 41.1588 103.646 41.2213C103.637 41.2238 103.63 41.2267 103.622 41.2297L103.608 41.2348L103.601 41.2374C103.443 41.3698 103.43 41.4121 103.415 41.4605C103.402 41.5025 103.387 41.5491 103.275 41.6634C103.194 41.6996 103.008 41.7184 102.721 41.721V41.7236C102.547 41.8022 102.326 41.8214 102.058 41.7808C101.736 42.1671 101.489 42.3997 101.314 42.4779L100.266 42.4661C99.3116 42.5804 98.1235 42.6018 96.702 42.5302C95.6087 41.9877 94.3135 41.5848 92.8161 41.3199C92.0713 40.7385 91.4084 40.4465 90.8265 40.4443C90.6865 40.1187 89.6904 39.4195 87.8386 38.3462C87.2208 37.9936 86.8488 37.8452 86.7226 37.9023C86.2563 37.4008 85.9329 37.1905 85.7525 37.2716L85.5823 36.8753C87.3492 37.5837 88.2989 37.908 88.4307 37.8482L88.3872 37.7474L87.5003 37.3101L87.4606 37.218L87.56 37.1734C87.5783 37.2167 88.141 37.4414 89.2485 37.8491C90.3551 38.2563 91.2893 38.461 92.0504 38.4632C92.6673 38.5819 93.0631 38.6016 93.2372 38.523L93.3362 38.4785C93.4445 38.43 93.4795 38.3371 93.442 38.2C90.8388 37.5305 89.4558 37.0054 89.2916 36.6248L89.1461 36.8112C88.9481 36.9006 88.7498 36.7147 88.5514 36.2538L88.3624 36.3389L88.4456 36.5323L88.3462 36.5772C88.2302 36.307 88.0834 36.0574 87.9064 35.8291L88.1048 35.7401L88.1483 35.8409ZM107.272 30.3706L107.277 30.364C107.273 30.3635 107.268 30.3628 107.264 30.3619C107.266 30.3634 107.268 30.365 107.269 30.3669L107.272 30.3706ZM69.6073 33.67C69.6073 34.1733 70.2438 34.4618 71.5168 34.5356C72.7898 34.4753 73.4263 34.2235 73.4263 33.7809C74.4825 32.2563 75.0107 31.0617 75.0107 30.1957C75.5094 27.181 75.8276 24.9393 75.9654 23.4689V23.368L75.5426 23.5793V23.368L75.6506 22.8246C75.5785 22.8246 75.5426 22.7875 75.5426 22.7138H75.6506C75.6506 19.2831 75.7918 16.8228 76.0738 15.3322V15.2314H75.8673C75.8673 15.5208 75.7589 15.6648 75.5426 15.6648C75.5426 15.7386 75.5785 15.8459 75.6506 15.9869L75.5426 17.0746C75.5426 17.1484 75.5785 17.2557 75.6506 17.3967C75.6506 17.4906 75.5094 17.8162 75.2274 18.3735H75.119C75.119 17.6486 75.0141 17.2858 74.8042 17.2858C74.8042 17.1449 74.9091 17.0746 75.119 17.0746V16.309C75.119 15.8394 75.1553 15.1179 75.2274 14.1441H75.0107C75.0107 14.3052 74.9782 14.4492 74.9125 14.5771L75.0107 14.7984C74.8272 14.8255 74.686 15.0035 74.5875 15.3322L74.6958 15.7757C74.6958 15.8429 74.66 15.876 74.5875 15.876C74.5875 16.1445 74.6237 16.3256 74.6958 16.4199C74.6237 16.4199 74.5188 16.6748 74.381 17.1855C74.4531 17.3059 74.4894 17.4504 74.4894 17.618V17.7193L74.2726 18.051L74.381 18.2627H74.2726C74.2726 18.5045 74.3089 18.686 74.381 18.8065C74.3349 19.2229 74.23 19.5481 74.0662 19.7833L74.1647 20.0046H74.0662C74.0662 20.5821 73.9216 20.8706 73.6327 20.8706V20.9814L73.7411 21.6261C73.387 22.2773 73.2096 22.9652 73.2096 23.6902H73.0031C73.0031 23.6164 73.0389 23.5793 73.1114 23.5793C73.1114 23.3982 73.0752 23.1097 73.0031 22.7138L73.2096 22.3917L73.1114 22.1699C73.2492 22.1699 73.3179 21.9888 73.3179 21.6261L73.2096 21.4144C73.2821 21.4144 73.3904 21.2333 73.5346 20.8706C73.4625 20.7431 73.4263 20.5987 73.4263 20.4376C73.4263 20.3438 73.4954 19.9444 73.6327 19.2395V18.9174L73.5346 18.2627L73.6327 18.051L73.5346 17.5071L73.7411 16.9637C73.669 16.8363 73.6327 16.6918 73.6327 16.5308L73.8495 16.2086H73.6327L73.9578 13.822L73.8495 13.6003C74.3349 12.6942 74.9714 12.0801 75.7589 11.7575V11.5362C75.7589 11.3682 75.4407 11.2242 74.8042 11.1028C74.1481 11.5258 73.6528 12.1067 73.3179 12.8452V13.0565H73.5346V13.1673H73.3179L73.4263 13.389C73.4263 13.6976 73.3542 13.9866 73.2096 14.255L73.3179 14.4667C73.1997 15.2453 73.059 15.715 72.8947 15.876L73.0031 16.0978C72.931 16.0978 72.8947 16.1349 72.8947 16.2086V16.309H73.0031V17.5071C73.0031 17.7223 73.0722 17.8297 73.2096 17.8297C73.0982 17.9912 72.9933 18.3164 72.8947 18.8065C72.8947 20.4712 72.7535 21.304 72.4715 21.304V21.5152H72.6784C72.6784 21.5894 72.6456 21.6261 72.5799 21.6261L72.6784 22.1699C72.6059 22.1699 72.501 22.2066 72.3632 22.2808C72.4353 22.7775 72.5078 23.1031 72.5799 23.2572C72.4421 23.3314 72.3337 23.368 72.2548 23.368V24.4457C72.1175 24.4457 72.0483 24.5902 72.0483 24.8787H71.94C71.8022 24.8787 71.6973 24.6268 71.6252 24.1236C71.763 23.66 71.8679 23.0093 71.94 22.1699C71.8679 22.0425 71.8316 21.898 71.8316 21.737C71.8316 21.2267 71.9042 20.8274 72.0483 20.5389C71.9763 20.4044 71.94 20.297 71.94 20.2163C71.7105 20.2163 71.5334 21.0858 71.4089 22.8246C71.481 22.8246 71.5168 22.8578 71.5168 22.925C70.9524 26.9868 70.3163 29.4101 69.6073 30.1957C69.4764 29.5441 69.3352 29.2185 69.1842 29.2185C67.9931 24.7506 65.9522 20.8665 64.3577 17.8318C63.5805 16.3525 62.9093 15.0751 62.4942 14.0302C62.068 13.506 61.8547 13.1804 61.8547 13.053H61.6478V13.1638L61.7464 13.3856C61.5625 13.1638 61.2805 13.053 60.9 13.053V12.9526H61.1163V12.7308C60.5519 12.7308 60.2699 12.5864 60.2699 12.2979L59.9721 12.3083C59.5391 12.6706 59.2209 12.8518 59.0174 12.8518C59.0174 12.503 58.8045 12.177 58.3779 11.8754C58.1676 11.9827 58.0627 12.0901 58.0627 12.1975C57.9842 12.1975 57.8758 12.1604 57.738 12.0866C57.6199 12.0866 57.5512 12.1604 57.5315 12.3083L57.6395 12.52C57.5674 12.52 57.5315 12.5567 57.5315 12.6305L57.3148 12.52H57.2167C57.0917 12.52 57.0196 12.5938 57 12.7409V12.8518L57.2167 13.6073C57.8988 13.6073 58.6761 15.8861 59.5489 20.445H59.4406C59.5131 21.1429 59.6176 21.6833 59.7558 22.0661H59.6475C59.6475 22.3074 59.6833 22.4886 59.7558 22.6099L59.6475 23.1537C59.7196 23.7844 59.7558 24.1471 59.7558 24.241C59.6833 24.7512 59.6475 25.0402 59.6475 25.1069C59.7917 25.6844 59.8642 26.3526 59.8642 27.1108C59.8642 27.7554 59.7917 28.823 59.6475 30.3132C59.6475 31.7435 59.9329 32.7199 60.5037 33.2436V33.0219L60.3953 32.8006C60.4678 32.8006 60.5037 32.767 60.5037 32.6998V32.5889H60.2874V32.4785C60.3595 32.4785 60.4644 32.4414 60.6022 32.3676C60.9567 33.0455 61.1338 33.6264 61.1338 34.1096C61.8423 34.2305 62.1964 34.519 62.1964 34.976H62.3048C62.3048 34.7542 62.3376 34.5024 62.4033 34.2204H62.62C62.62 34.9389 62.8329 35.2981 63.2595 35.2981L64.4207 34.8651C64.3486 34.3479 64.3128 34.0594 64.3128 33.9991C64.3128 33.784 64.3849 33.6766 64.5291 33.6766L64.4207 33.1327V32.3676L64.3128 32.1564H64.4207C64.4207 32.035 64.3849 31.6021 64.3128 30.857L64.1059 30.9578C64.2437 30.3804 64.3128 30.0212 64.3128 29.8802V29.2259L64.2142 29.0042C64.2799 29.0042 64.3128 28.9505 64.3128 28.8431C64.3128 28.1312 64.2799 27.5005 64.2142 26.9497C64.2578 26.6861 64.3956 26.7206 64.6272 27.0536C65.7428 29.7728 66.6254 31.3266 67.2751 31.716C67.8391 32.0586 68.1215 32.3838 68.1215 32.6928C68.6855 33.1829 68.9679 33.4715 68.9679 33.5592C69.04 33.5592 69.0758 33.5221 69.0758 33.4483C69.2533 33.5958 69.4303 33.67 69.6073 33.67ZM97.3635 34.7852C97.3362 34.6425 97.1608 34.5788 96.8379 34.5945C96.8673 34.749 96.5747 34.9061 95.9599 35.0672C95.6707 34.7237 95.3337 34.4919 94.948 34.3719C94.931 34.2828 94.8171 34.2069 94.6059 34.1441L94.5189 34.1619L94.5564 34.3579C94.021 33.959 93.745 33.7154 93.728 33.6264C92.4644 31.7928 91.7485 30.4393 91.5809 29.565C91.3377 28.6135 91.0724 27.7345 90.7848 26.9275L90.8446 26.721L90.3207 25.0293L90.4167 25.01L90.2832 24.8333L89.9508 23.1027L89.6804 22.166L89.2969 22.2433C89.3267 22.3978 89.2627 22.7408 89.1053 23.2729L89.2969 23.2345C89.2491 23.9913 89.2422 24.4588 89.2768 24.6373C89.3348 24.6255 89.3702 24.6521 89.3826 24.7181C89.1791 24.7586 89.1407 25.2326 89.2666 26.1396L89.4547 26.6023C89.4223 26.9667 89.3463 27.2474 89.2273 27.4447C89.2397 27.5097 89.2781 27.5363 89.3421 27.5232C89.3899 28.4647 89.3758 29.0662 89.2994 29.3289C89.3805 29.4363 89.4274 29.5253 89.4415 29.5965C89.2542 30.005 89.1441 30.9565 89.1113 32.451C89.0486 33.131 88.985 33.4771 88.921 33.4898L88.6424 33.5457C88.5051 34.3082 88.2909 34.7189 88.0004 34.7769C87.8584 34.5399 87.741 34.4308 87.648 34.4496L87.4561 34.488L87.0026 34.6722C86.9476 34.3867 86.6293 34.2532 86.0474 34.2711L86.0508 33.7704C85.989 33.4492 85.8337 33.3139 85.5837 33.3641L85.472 32.7844C85.4118 32.4689 85.2245 32.3432 84.911 32.4065C84.6324 30.9556 84.6738 28.4525 85.0351 24.897C85.0227 24.8311 84.9843 24.8053 84.9204 24.818L84.9186 23.8181L85.1294 23.8778L85.018 23.2978C85.2326 23.2546 85.3026 22.9412 85.2267 22.3572L85.0982 21.6885C85.2433 21.6593 85.2936 21.4175 85.2488 20.9635L85.0863 20.5886C85.1076 20.387 85.1507 20.2796 85.2143 20.2661C85.2019 20.201 85.1635 20.1744 85.0995 20.1875C85.062 19.6454 85.0722 19.1801 85.1307 18.7917C85.0428 18.6799 84.992 18.5883 84.9779 18.5171C85.0889 18.4329 85.1759 18.3844 85.2399 18.3718C85.1452 18.2243 85.0223 17.9152 84.8721 17.4452C84.9532 17.4286 85.0411 17.2103 85.1354 16.79C85.0475 16.6783 84.9976 16.5897 84.9848 16.5238L85.0808 16.5046L84.9472 16.3278C85.0121 14.6229 84.9434 12.7405 84.7412 10.6816C84.9438 10.5114 85.1819 10.3988 85.4549 10.3438L85.7339 10.2875C85.7979 10.2748 85.8363 10.301 85.8486 10.3665L86.0218 10.2299C86.7189 10.4974 87.1161 10.8837 87.2129 11.3891L87.3857 11.2525L87.6647 11.1962L87.6839 11.2949L87.6323 11.4991L88.5652 11.3119L89.7136 11.6829L89.8369 11.8531L89.5579 11.909L89.5767 12.0067C89.8335 12.6532 90.2187 13.3074 90.7324 13.9704C91.5416 15.1349 92.0877 16.4548 92.3705 17.9296L92.629 19.2766C92.821 19.2377 93.2007 20.1927 93.7676 22.1411L93.8602 22.623C93.873 22.688 93.847 22.7273 93.783 22.74L93.9152 22.9084C93.972 23.2057 93.94 23.7124 93.8175 24.4282C94.1473 24.7944 94.3644 25.2479 94.4681 25.7891L94.5061 25.9851L94.6887 25.9485C94.8166 25.9227 94.8939 25.4749 94.9199 24.6054L95.0159 24.5862L94.8823 24.409L94.8273 24.1236C95.0824 23.5968 95.1451 22.053 95.0154 19.4913C95.1242 19.1793 95.2002 18.5682 95.2428 17.6582C95.5329 16.3396 95.8238 15.4815 96.1156 15.0834L96.2116 15.0642L96.2492 15.2606L96.1894 15.4666L96.3998 15.5264L96.4957 15.5072L96.477 15.409L96.285 15.4474L96.3452 15.2414L96.3264 15.1428C96.3136 15.0777 96.2756 15.0511 96.2116 15.0642C96.2539 14.9381 96.2611 14.8041 96.2338 14.6618L96.4168 14.6247L96.4219 15.1236C96.6254 15.0825 96.7952 14.6164 96.9322 13.7243L96.913 13.626L97.1152 13.6876L97.0964 13.5894C97.0324 13.6025 96.994 13.5759 96.9812 13.5108C97.0802 13.4907 97.1962 13.403 97.3289 13.2463C97.3404 13.3057 97.3754 13.3297 97.4334 13.3179C97.7278 12.462 98.0609 11.9967 98.4329 11.9221L98.5289 11.9029L98.6023 12.2865L97.9419 13.4196L97.7397 13.3581L97.4522 13.4161L97.471 13.5143L97.8459 13.4388L97.8835 13.6352C97.5175 14.0852 97.3421 14.3523 97.3583 14.4353C97.1484 15.3855 96.9049 17.4971 96.628 20.7697L96.6468 20.868L96.7338 20.8505C96.9812 20.1897 97.1088 19.3303 97.1173 18.2723L97.4253 16.8118L97.5296 16.7907C97.5415 16.5234 97.5968 16.38 97.6963 16.3601L97.7918 16.3405C97.8226 16.5011 97.9177 16.649 98.0764 16.7839L98.0996 16.9054C98.1428 16.8798 98.1804 16.8638 98.2124 16.8572L98.2316 16.9554C98.1365 17.4683 98.0644 18.113 98.014 18.8886L98.11 18.8694C98.2555 18.8406 98.3459 18.291 98.3822 17.2217C98.7597 17.1457 98.9918 16.4998 99.0784 15.2846L99.2704 15.2458C99.2964 15.3828 99.2516 15.8241 99.1351 16.57C99.2921 16.5382 99.4094 16.6473 99.4875 16.8974L99.4845 17.3985C99.5848 17.5757 99.6671 17.6582 99.7311 17.6451L99.784 19.4315C99.822 19.6275 99.9337 19.7069 100.12 19.6698L100.137 19.7589C100.182 22.0407 100.105 24.6836 99.903 27.6887C99.6948 28.8052 99.2891 30.4179 98.6863 32.5274C98.2222 33.8189 97.9581 34.471 97.8941 34.4841L97.3635 34.7852ZM97.7009 17.2566L97.6485 16.9837C97.6817 16.9837 97.7153 16.9862 97.7494 16.9914L97.7969 17.2374L97.7009 17.2566ZM97.6777 16.103L97.7737 16.0838C97.737 15.8939 97.7801 15.7866 97.9021 15.7617L97.8453 15.4675L97.7583 15.485C97.7963 15.6809 97.7191 15.7988 97.5271 15.8372C97.615 15.9494 97.6653 16.038 97.6777 16.103ZM71.8193 20.033H71.9276C71.9276 19.7379 71.8918 19.449 71.8193 19.167L71.9276 18.6232V18.5228H71.7211C71.7211 18.7175 71.6486 18.9322 71.5044 19.167L71.6128 19.3888C71.5407 19.3888 71.5044 19.4254 71.5044 19.4996V19.7109C71.6162 19.9256 71.7211 20.033 71.8193 20.033ZM115.018 17.4072C115.169 17.3736 115.31 17.1924 115.441 16.8633C115.375 16.7359 115.343 16.5914 115.343 16.4304C115.507 16.4304 115.825 15.8158 116.297 14.5876L116.189 14.3659V14.255C116.576 13.8054 116.786 13.1913 116.819 12.4122H116.396V12.634H116.612C115.549 14.9368 115.018 16.5277 115.018 17.4072ZM95.906 28.4176C95.9069 28.7694 95.8429 29.1124 95.7145 29.4472C95.604 29.4695 95.528 29.4197 95.4862 29.2984L95.3941 28.8169L95.4901 28.7977L95.9073 26.9165C95.8949 26.8515 95.8446 26.7629 95.7567 26.6507C95.8557 26.6307 95.9679 26.5403 96.0937 26.3793L96.1129 26.477L95.9845 26.7996L96.022 26.9956L96.2051 26.9589L96.1505 26.673L96.2464 26.6542L96.3556 27.2247C96.1778 27.9955 96.0276 28.3931 95.906 28.4176ZM118.004 23.3894C118.365 23.3894 119.533 23.1009 121.508 22.5235V22.4131C121.508 22.2581 121.012 20.7043 120.021 17.7502V17.6499C119.687 18.0994 119.333 18.8947 118.959 20.0365C118.801 21.0364 118.519 22.0098 118.112 22.9565H118.004V23.3894ZM127.491 28.7659V28.8767C127.281 28.8767 126.963 28.044 126.536 26.3793C126.818 26.3793 126.959 26.6342 126.959 27.1448H127.176L127.382 27.034C127.382 27.1077 127.419 27.1448 127.491 27.1448L127.382 27.6882C127.455 28.3194 127.491 28.6786 127.491 28.7659ZM96.269 24.2864C96.2225 24.0424 96.3117 23.66 96.5378 23.1393C96.5809 23.0193 96.5822 22.8521 96.5412 22.6383L96.5054 22.451L96.4094 22.4702C96.3279 22.4868 96.2277 22.97 96.1082 23.9202L95.8207 23.9782L95.8941 24.3615L95.9901 24.3423L96.0384 24.307C96.0358 24.5159 95.9634 24.9662 95.8207 25.6578L95.836 26.2566L95.8531 26.3461L95.9491 26.3264C96.0903 25.0201 96.1569 24.3427 96.1475 24.2951L96.1361 24.2358L96.165 24.2148C96.176 24.2737 96.211 24.2977 96.269 24.2864Z" fill="#1D1D1F"/>
<path fill-rule="evenodd" clip-rule="evenodd" d="M149.318 35.0762L147.183 34.8587L146.976 34.9675C146.106 34.7504 145.467 34.4311 145.059 34.0099C144.136 33.2523 143.675 32.6864 143.675 32.311C143.675 32.2455 143.603 31.9591 143.458 31.4519V31.3534L143.566 31.136C143.474 31.136 143.264 30.853 142.934 30.2867V29.9704C142.934 29.898 143.181 29.684 143.675 29.3283L143.566 28.7954C144.812 27.8738 145.665 27.4127 146.126 27.4127V27.5215C146.126 27.8044 145.876 28.3707 145.375 29.22V29.3283C145.526 29.3283 145.918 29.434 146.551 29.6446L148.359 29.437V29.5457C148.834 29.4734 149.295 29.3647 149.743 29.22L150.484 29.3283C151.511 29.1643 152.79 28.5253 154.318 27.4127C154.753 27.0506 155.178 26.4843 155.593 25.7142C155.949 25.3388 156.126 24.9831 156.126 24.6475C152.18 23.7982 150.052 23.2649 149.743 23.0479C149.743 23.1921 149.67 23.2649 149.525 23.2649C147.029 22.6656 145.576 22.0997 145.167 21.5664C144.864 21.5664 144.331 21.2111 143.566 20.4997C143.382 20.48 142.993 20.0189 142.4 19.117C142.229 19.117 142.051 18.8705 141.867 18.3761C141.583 18.3761 141.442 18.0208 141.442 17.3098C141.442 16.1249 141.794 15.0942 142.499 14.2188C142.927 13.4945 143.425 12.8923 143.991 12.4116C144.327 12.076 144.541 11.7233 144.634 11.3547C145.72 10.5714 146.36 10.1797 146.551 10.1797C148.152 10.3441 149.321 10.627 150.059 11.0285C151.693 11.8979 152.51 12.7142 152.51 13.4778V14.3275H152.292V14.4358L152.401 14.6533L151.867 14.7522C151.637 14.7522 151.106 14.4692 150.276 13.9025C149.051 14.4029 148.307 14.7586 148.043 14.9696C147.984 15.3052 147.522 15.7298 146.659 16.2431C146.659 16.3617 146.304 16.7174 145.592 17.3098C145.164 17.9549 144.95 18.3435 144.95 18.4754C146.373 19.1136 148.715 19.7523 151.976 20.3914C154.928 21.1024 156.736 21.8134 157.401 22.5244C159.536 23.5842 160.603 24.3975 160.603 24.9634H160.386C160.386 24.7789 159.997 24.4271 159.22 23.9065H159.002V24.0054C159.325 24.8748 159.822 25.4441 160.494 25.7142C160.494 25.8062 160.672 26.1256 161.028 26.6718C160.883 26.6919 160.81 26.7608 160.81 26.8794L160.919 27.8374C160.919 28.3776 160.494 28.8018 159.645 29.1117C159.645 29.342 159.325 29.6973 158.686 30.178C158.686 30.5337 158.116 31.0307 156.977 31.6693C156.977 31.8071 156.515 32.2322 155.593 32.9432C155.382 33.0288 155.276 33.1375 155.276 33.269H155.168L154.96 33.1607C154.96 33.6739 154.285 34.1713 152.935 34.6516C152.935 34.4345 152.862 34.3258 152.717 34.3258C152.487 34.6481 152.098 34.8622 151.551 34.9675L150.909 34.8587H150.701C150.543 34.8587 150.402 34.8951 150.276 34.9675L150.059 34.8587C149.934 34.9315 149.792 34.9675 149.634 34.9675L149.426 34.8587L149.318 35.0762ZM169.863 33.9012H169.645C168.914 33.9012 168.417 33.7959 168.153 33.5853L167.728 33.694C167.616 33.694 167.405 33.5523 167.096 33.269L166.878 33.3678C166.384 33.2557 165.923 32.8311 165.495 32.0935L165.278 32.2022H165.07C163.581 30.978 162.836 30.1617 162.836 29.7533C161.631 27.2646 161.028 24.4271 161.028 21.2406C160.975 21.2406 160.867 20.2133 160.702 18.1595H160.81C160.666 17.7969 160.593 17.5504 160.593 17.4185C160.646 16.9905 160.718 16.7764 160.81 16.7764L160.168 13.6953C160.3 13.6953 160.409 13.376 160.494 12.7373C160.778 12.7373 160.919 12.665 160.919 12.5203V12.4116H161.028L161.344 12.629C161.496 12.629 161.707 12.415 161.977 11.9869C162.056 11.9869 162.164 11.9505 162.303 11.8782V12.0957L162.836 11.9869C162.836 12.2044 162.869 12.3127 162.935 12.3127C163.034 12.2403 163.212 12.2044 163.469 12.2044C163.469 12.3683 163.683 12.4736 164.111 12.5203V12.629L164.003 12.8362C164.148 12.8362 164.22 12.9085 164.22 13.0532H164.319C164.391 13.0532 164.678 12.9809 165.179 12.8362H165.495V13.5866L165.278 13.9025L165.603 14.1199L165.278 15.7102C165.304 15.8548 165.376 15.9272 165.495 15.9272C165.422 16.7567 165.386 17.3594 165.386 17.7344V17.8431L165.495 18.8996H165.386L165.495 19.117V19.2258C165.495 20.3648 165.6 22.4191 165.811 25.388H165.702C165.775 25.5528 165.92 26.1222 166.137 27.0968L166.028 27.6302C166.167 27.8605 166.236 28.0711 166.236 28.262L166.137 28.4794C166.486 28.4794 166.661 28.8347 166.661 29.5457C166.779 29.5457 166.924 29.7563 167.096 30.178C167.445 30.178 168.295 29.3283 169.645 27.6302C170.429 26.3066 171.21 24.035 171.987 20.816V19.3242L171.879 18.5837H171.987L171.879 18.3761C171.879 18.2121 171.915 18.067 171.987 17.942C171.777 15.1635 171.671 13.498 171.671 12.9449C171.928 12.6025 172.248 12.3191 172.63 12.0957V11.7793H172.837V11.9869H173.153C173.516 11.493 173.835 11.246 174.112 11.246L174.221 11.4536L174.438 11.3547H174.646V11.6706H174.754L175.288 11.5623L175.93 11.9869V12.3127H176.355V12.0957C176.494 12.168 176.599 12.2044 176.672 12.2044C176.81 12.1316 176.915 12.0957 176.988 12.0957C177.488 12.5562 177.738 13.1226 177.738 13.7938C177.666 13.7938 177.63 13.8301 177.63 13.9025C177.768 13.929 177.837 14.0014 177.837 14.1199C177.627 14.2847 177.521 14.5313 177.521 14.8609H177.413L177.205 14.2188C177.06 14.2449 176.988 14.3173 176.988 14.4358V15.9272C176.988 16.5988 176.951 17.4151 176.879 18.3761L176.988 18.8996C176.546 21.7701 176.122 23.6865 175.713 24.6475C175.64 24.6475 175.604 24.6839 175.604 24.7562V25.7142L175.713 26.7711C175.429 26.7711 175.288 27.0575 175.288 27.6302H175.179C175.179 27.8605 175.321 28.6404 175.604 29.9704H175.495L175.604 30.178V30.7113C175.604 30.8693 175.568 31.011 175.495 31.136C175.568 31.2742 175.604 31.3795 175.604 31.4519C175.446 31.4519 175.268 31.0996 175.07 30.3954H174.971C174.971 30.4609 174.935 30.4939 174.863 30.4939C175.001 31.2447 175.179 31.9916 175.397 32.7356C175.324 32.8743 175.288 32.9796 175.288 33.0519C175.176 33.0519 174.929 32.3075 174.547 30.8201H174.438L174.329 31.0272V31.136H174.547V31.7776H174.754C174.754 31.8504 174.718 31.8863 174.646 31.8863L174.754 32.0935V32.4098L174.547 32.311C174.547 32.3769 174.511 32.4098 174.438 32.4098C174.221 31.9882 173.97 31.2083 173.687 30.0692H173.48C173.381 30.0692 173.239 30.3886 173.055 31.0272C172.916 31.0272 172.56 31.4189 171.987 32.2022L172.096 32.4098C171.905 32.6466 171.408 32.8606 170.604 33.0519C170.11 33.4603 169.863 33.7432 169.863 33.9012ZM176.138 35.6096H175.822C175.749 35.0895 175.676 34.7701 175.604 34.6516C175.676 34.5334 175.713 34.3558 175.713 34.1186H175.93V34.5428L175.822 34.7504C175.96 34.8228 176.065 34.8587 176.138 34.8587V34.9675L175.93 35.2838C176.068 35.3099 176.138 35.3827 176.138 35.5008V35.6096ZM201.08 37.8209L200.655 37.6137C200.517 37.6796 200.408 37.7126 200.329 37.7126L199.904 37.6137C199.766 37.6796 199.661 37.7126 199.588 37.7126C199.588 37.5285 199.338 37.3868 198.837 37.288C198.679 36.8727 198.395 36.5209 197.987 36.2311C197.565 35.4674 197.246 34.4042 197.029 33.0412L197.137 32.8238C197.065 32.6855 197.029 32.5802 197.029 32.5079H197.137C197.012 32.2776 196.87 31.2836 196.712 29.5252H196.821C196.689 29.0976 196.334 25.766 195.754 19.5314C195.681 19.5314 195.576 18.9621 195.437 17.823C195.437 17.7507 195.474 17.645 195.546 17.5067C195.546 16.7696 195.118 15.9529 194.262 15.0578C194.262 15.0111 194.084 14.5142 193.728 13.566C193.807 13.2501 194.057 13.0036 194.479 12.8259H194.588V13.0331C195.088 12.8948 195.371 12.8259 195.437 12.8259H195.546V13.4676H195.754L195.645 13.6748V13.7835C195.79 13.7835 195.862 13.8199 195.862 13.8922L196.712 13.3588H196.821V13.4676C196.749 13.599 196.712 13.7043 196.712 13.7835C196.785 13.7835 196.821 13.8199 196.821 13.8922C196.959 13.8199 197.065 13.7835 197.137 13.7835C197.756 13.8233 198.395 14.3892 199.054 15.4824C199.054 15.9499 199.301 16.6609 199.796 17.6154C200.296 22.1648 200.547 24.6471 200.547 25.0619H200.655C202.269 24.8444 203.475 24.7357 204.272 24.7357H204.697C205.336 24.7357 205.656 24.3474 205.656 23.5705H205.764L205.656 23.3531V23.2546C206.011 23.2546 206.367 21.1242 206.723 16.8646C206.578 16.8646 206.505 16.7957 206.505 16.6574V16.0154C206.888 16.0154 207.171 15.9101 207.355 15.6995H207.573L207.672 16.2328C207.605 16.2328 207.573 16.2658 207.573 16.3313L207.78 16.44C207.78 16.3676 207.817 16.3313 207.889 16.3313L207.78 16.1241V16.0154C208.248 16.0154 208.531 15.8018 208.63 15.3737H208.848C208.848 15.4525 208.884 15.5612 208.956 15.6995L209.164 15.5912H209.272C209.272 15.8279 209.308 16.0055 209.381 16.1241L209.589 16.0154C209.734 16.0355 209.806 16.1078 209.806 16.2328V16.3313H209.589V16.44H209.915L210.013 16.2328C209.948 16.0941 209.915 15.9862 209.915 15.9071H210.122C210.551 16.282 210.765 16.6014 210.765 16.8646H211.081L211.298 16.7559L211.19 16.5487C211.209 16.404 211.279 16.3313 211.397 16.3313C211.924 16.3313 212.211 16.44 212.257 16.6574V16.8646C212.257 17.0097 212.148 17.0821 211.931 17.0821C212.214 17.8196 212.356 18.2802 212.356 18.4647C212.006 19.8738 211.832 21.6447 211.832 23.7781L212.039 23.8869C212.039 23.8141 212.075 23.7781 212.148 23.7781C212.148 23.9228 212.184 23.9947 212.257 23.9947L212.682 23.7781V23.8869C212.682 24.0975 212.398 24.2387 211.832 24.3111V24.9531H212.573L213.957 24.6368C213.957 24.7032 213.993 24.7357 214.065 24.7357C214.065 24.5978 214.349 24.4925 214.915 24.4198V24.5285C214.915 24.6205 214.454 24.8675 213.532 25.269C213.532 25.552 212.893 25.8713 211.615 26.227V26.444L212.148 26.3358C212.221 26.3358 212.257 26.3717 212.257 26.444C212.395 26.3717 212.501 26.3358 212.573 26.3358H212.79V26.444C211.934 26.5494 211.506 26.691 211.506 26.8687C211.506 27.0797 211.469 27.185 211.397 27.185L211.506 27.402C211.367 28.0013 211.298 28.3536 211.298 28.4589L211.397 29.101C211.397 29.7529 211.186 31.3821 210.765 33.9894H210.547V33.7822H210.449V35.1644H210.122L209.697 34.8485C209.697 34.967 209.52 35.2864 209.164 35.8065C209.164 36.5637 208.953 36.9883 208.531 37.0808C208.531 37.2914 208.176 37.3967 207.464 37.3967H207.355C207.355 37.1861 207.25 37.0808 207.039 37.0808H206.93V36.2311C206.93 36.0667 206.894 35.925 206.822 35.8065C206.822 35.7341 206.858 35.6977 206.93 35.6977C206.93 35.5531 206.894 35.4803 206.822 35.4803C206.986 32.7874 207.128 31.4416 207.247 31.4416L207.148 31.2241C207.286 30.7366 207.355 30.3124 207.355 29.9502V29.101L207.464 28.5676C207.293 28.4294 207.151 28.3604 207.039 28.3604C205.991 28.5711 205.28 28.7453 204.904 28.8835V29.5252C204.72 29.5252 204.473 29.9169 204.163 30.7006L203.205 32.8238C203.066 32.8961 202.961 32.9325 202.889 32.9325V33.7822C202.889 33.953 202.711 34.2723 202.355 34.7397C202.355 35.161 202.283 35.372 202.138 35.372L202.246 35.589C201.679 36.1947 201.396 36.5504 201.396 36.6561V37.1891L201.505 37.3967C201.268 37.3967 201.126 37.5379 201.08 37.8209ZM206.189 23.7807C206.525 22.708 206.772 22.1382 206.93 22.0723C206.858 21.7894 206.753 21.5424 206.614 21.3318L206.822 21.0159H206.723C206.604 21.0159 206.459 21.2629 206.288 21.7564L206.397 22.2898C206.364 22.5727 206.258 22.7144 206.081 22.7144V22.8227L206.189 23.0307H205.972V23.5637C205.998 23.7088 206.071 23.7807 206.189 23.7807ZM208.848 32.5014C209.019 32.5014 209.124 32.1453 209.164 31.4343C209.098 31.2965 209.065 31.1912 209.065 31.1184H209.272V30.6942C209.272 30.5491 209.203 30.4768 209.065 30.4768L209.164 29.9434V28.8865C209.164 28.8142 209.2 28.7778 209.272 28.7778L209.164 28.5608C209.164 28.4884 209.2 28.3827 209.272 28.2449L209.065 27.2869C209.131 27.2869 209.164 27.2505 209.164 27.1782H208.956V27.929C208.956 28.0869 208.92 28.2282 208.848 28.3532C208.848 28.4259 208.884 28.4619 208.956 28.4619L208.848 28.9854V29.2024L208.956 29.9434H208.848L208.956 30.1608V30.368C208.956 30.5127 208.884 30.5855 208.739 30.5855C208.884 30.8158 208.956 31.0298 208.956 31.2271V31.7506L208.848 32.5014ZM208.106 33.4594C208.245 32.9261 208.314 32.6068 208.314 32.5014C208.314 32.4291 208.277 32.3927 208.205 32.3927L208.314 31.8594V30.6942L208.205 29.41H208.314L208.205 29.2024V28.4619C208.205 28.3896 208.241 28.3532 208.314 28.3532C208.241 28.2611 208.205 28.0107 208.205 27.6028C208.067 27.6293 207.998 27.7017 207.998 27.8202V28.5608C207.998 28.9691 207.961 29.2196 207.889 29.3112C207.961 29.6934 207.998 30.0123 207.998 30.2696V33.4594H208.106ZM203.314 30.7927C203.314 30.5624 203.561 30.0684 204.055 29.3112L204.588 28.2449V28.0274H204.48C204.071 28.482 203.752 29.0513 203.521 29.7362C203.475 29.7362 203.333 29.9139 203.096 30.2696V30.7927H203.314ZM200.863 32.5014C201.285 32.04 202.065 30.8684 203.205 28.9854C203.205 28.9195 203.241 28.8865 203.314 28.8865V29.2024H203.521C203.521 28.9062 203.594 28.5509 203.738 28.1361H203.63V28.2449C203.557 28.2449 203.521 28.2085 203.521 28.1361C202.355 28.5638 201.683 28.7778 201.505 28.7778C201.024 28.5672 200.741 28.4619 200.655 28.4619V28.7778C200.655 28.9358 200.688 29.0774 200.754 29.2024C200.754 29.2748 200.721 29.3112 200.655 29.3112C200.721 29.6339 200.79 30.6972 200.863 32.5014ZM217.666 37.0945H217.033C217.033 36.9562 216.819 36.8145 216.391 36.6698C215.323 35.5372 214.79 32.5943 214.79 27.8408C214.724 27.8408 214.691 27.6995 214.691 27.4162C214.691 27.3438 214.724 27.3074 214.79 27.3074L214.691 26.7745V25.8161C214.691 25.7506 214.724 25.7176 214.79 25.7176C214.724 25.5794 214.691 25.4707 214.691 25.3915L214.79 22.8437H214.899C214.899 22.7713 214.863 22.735 214.79 22.735C214.882 21.774 214.955 21.2077 215.007 21.0364C215.007 20.9637 214.971 20.9277 214.899 20.9277C214.899 20.8554 214.935 20.7496 215.007 20.6118C215.08 18.8213 215.116 17.4023 215.116 16.3552C215.116 15.1965 214.974 13.7051 214.691 11.8816C215.001 11.3153 215.32 11.0319 215.65 11.0319C216.058 11.0319 216.305 11.21 216.391 11.5653C216.911 11.6843 217.373 12.0396 217.774 12.6324C217.774 12.8229 217.847 13.0335 217.992 13.2642L218.199 13.1654H218.308C218.446 14.1332 218.516 14.6636 218.516 14.7556H218.733V14.548C219.036 14.548 219.214 15.0415 219.267 16.0295C219.366 16.0295 219.507 16.5265 219.692 17.5204C219.764 17.5204 219.8 17.5568 219.8 17.6291C219.8 17.7015 219.764 17.7378 219.692 17.7378L220.008 19.9697C219.935 20.352 219.899 20.6709 219.899 20.9277V22.0929C219.899 22.2577 219.866 22.4028 219.8 22.5278C219.866 22.6592 219.899 22.7645 219.899 22.8437C219.642 25.4638 219.432 26.7745 219.267 26.7745L219.375 27.5249V29.4404C219.375 29.5984 219.339 29.7401 219.267 29.8651C219.339 29.9905 219.375 30.1317 219.375 30.2901V30.3984C219.375 30.5371 219.303 30.606 219.158 30.606C219.158 30.5337 219.122 30.4973 219.049 30.4973V30.606L219.267 30.9219V31.1394L218.842 34.5467L218.308 35.3955C218.071 35.3955 217.857 35.5008 217.666 35.7119C217.666 35.7842 217.702 35.8202 217.774 35.8202L217.666 36.8873V37.0945ZM183.323 15.2633C184.309 14.8968 185.235 14.5904 186.101 14.3442H186.195V14.524C185.886 14.5416 185.731 14.6045 185.731 14.7136C185.175 14.7479 184.897 14.8712 184.897 15.0831H184.622C184.415 15.0831 184.201 15.1747 183.977 15.3579H183.323V15.2633ZM193.904 29.315H193.999C193.999 29.1832 193.907 28.997 193.724 28.7564V28.4816L193.81 28.2924L193.259 27.3648C192.239 26.3332 191.064 25.4082 189.734 24.5893C188.445 23.8274 187.797 23.3946 187.791 23.2919C187.281 23.074 185.923 22.2436 183.716 20.8001C182.507 20.1183 181.675 19.4081 181.222 18.6689C181.251 18.4227 181.343 18.2995 181.497 18.2995C181.497 17.8872 183.386 17.2195 184.992 16.5607C185.92 16.3086 186.384 16.0937 186.384 15.916C187.984 15.3835 188.878 15.0428 189.067 14.8939C189.996 14.6875 190.46 14.533 190.46 14.4298C190.597 14.4298 190.721 14.6477 190.829 15.0831L190.735 15.2633C190.735 15.3895 190.826 15.452 191.01 15.452V15.5466C190.826 15.5466 190.735 15.6387 190.735 15.8219C190.798 16.1309 190.984 16.532 191.294 17.0247H191.569L191.474 16.8359H191.75C192.019 16.0338 192.237 15.6327 192.403 15.6327V15.452C192.403 15.1485 192.494 14.8395 192.678 14.524C192.615 14.4157 192.583 14.292 192.583 14.155C192.555 13.9431 192.062 13.5421 191.104 12.9522L189.531 12.4882H189.437C189.013 12.4882 188.551 12.5824 188.053 12.7716C186.315 13.138 185.204 13.5074 184.716 13.8802L184.527 13.7856H184.347C184.031 14.0318 183.63 14.1863 183.143 14.2496L179.902 15.7273C178.566 16.4147 177.824 17.1253 177.675 17.8581C177.675 17.9497 177.829 18.3508 178.139 19.061L178.044 19.2502C178.044 19.302 178.168 19.5768 178.414 20.075C178.414 20.2411 178.569 20.4273 178.879 20.6336C178.879 20.8113 179.156 21.1807 179.712 21.7419C180.406 22.1601 180.93 22.5612 181.286 22.9447C181.905 23.0534 182.215 23.2084 182.215 23.4087C183.43 24.0735 184.109 24.5058 184.252 24.7066C185.817 25.5712 187.422 26.5879 189.067 27.7569C190.116 28.295 190.641 28.6674 190.641 28.8737C190.004 29.3831 188.121 29.7846 184.992 30.0765C184.992 30.0136 184.96 29.9819 184.897 29.9819C184.788 30.0448 184.665 30.0765 184.527 30.0765H180.916C179.93 30.0765 179.437 30.4459 179.437 31.1848V31.46C179.672 31.46 179.827 31.6779 179.902 32.1128L180.452 32.4826C180.716 32.6654 180.902 32.7574 181.011 32.7574C181.36 33.0036 181.607 33.1264 181.75 33.1264C181.75 33.4419 182.338 33.6598 183.513 33.78V33.8657L183.418 34.0544C183.922 34.0544 184.232 34.1148 184.347 34.2351H184.622L185.181 34.149L185.361 34.2351C186.25 34.1606 187.02 34.0694 187.674 33.9603C187.674 34.0232 187.706 34.0544 187.769 34.0544C188.99 33.9059 190.225 33.5964 191.474 33.1264C191.87 33.0352 192.211 32.6341 192.497 31.924H193.142L193.331 31.2794V30.996C193.331 30.8526 194.094 29.7217 193.904 29.315Z" fill="#1D1D1F"/>
</svg>
