<?xml version="1.0" encoding="utf-8"?>
<svg id="svg2" viewBox="0 0 500 670" xmlns="http://www.w3.org/2000/svg">
  <desc>Source: openclipart.org/detail/209545</desc>
  <defs/>
  <ellipse style="stroke: rgb(0, 0, 0); paint-order: fill; fill-rule: nonzero; fill: rgb(255, 255, 255);" cx="239.56" cy="331.798" rx="142.198" ry="52.523"/>
  <path fill-rule="evenodd" clip-rule="evenodd" d="M 173.235 324.852 C 172.622 323.416 171.941 321.821 169.099 322.798 L 169.099 315.049 C 169.099 311.048 162.352 308.153 154.132 308.153 C 145.913 308.153 139.166 311.048 139.166 315.049 L 139.166 349.256 C 139.166 353.258 145.913 356.153 154.132 356.153 C 162.352 356.153 169.099 353.258 169.099 349.256 L 169.099 328.613 C 171.634 328.946 172.181 330.939 171.707 333 L 174.316 333.414 C 174.901 329.634 173.616 327.121 169.099 326.924 L 169.099 325.348 C 170.834 324.512 171.895 325.878 172.983 327.279 C 173.876 328.428 174.786 329.6 176.101 329.6 C 178.023 329.6 179.534 328.634 180.632 326.703 L 178.298 323.531 C 177.84 325.646 176.742 326.703 175.003 326.703 C 174.026 326.703 173.646 325.813 173.235 324.852 Z M 158.122 333.89 C 156.792 333.566 155.424 333.233 154.077 333.233 C 152.709 333.233 151.327 333.573 149.987 333.902 C 146.49 334.762 143.283 335.551 141.377 330.032 C 139.053 323.299 144.36 324.783 149.198 326.136 C 151.076 326.661 152.883 327.166 154.146 327.164 C 155.36 327.162 157.103 326.688 158.926 326.193 C 163.723 324.891 169.071 323.439 166.777 330.032 C 164.864 335.531 161.622 334.742 158.122 333.89 Z M 147.398 328.9 C 146.809 328.629 146.225 328.381 145.674 328.202 C 145.597 329.176 146.018 330.083 146.956 330.967 C 147.775 331.738 148.547 331.828 149.374 331.161 C 149.647 330.861 149.883 330.522 150.083 330.144 C 149.746 330.003 149.396 329.843 149.038 329.675 C 149.047 329.732 149.052 329.791 149.052 329.852 C 149.052 330.461 148.56 330.955 147.954 330.955 C 147.347 330.955 146.855 330.461 146.855 329.852 C 146.855 329.446 147.073 329.091 147.398 328.9 Z M 142.461 329.162 C 142.816 328.094 143.601 327.815 144.596 327.944 C 144.428 329.318 144.972 330.611 146.205 331.772 C 146.56 332.106 146.919 332.351 147.28 332.508 C 146.704 332.707 146.059 332.833 145.345 332.886 C 148.135 333.412 150.137 332.644 151.349 330.582 C 152.513 330.864 153.308 330.589 153.308 329.024 C 152.903 330.653 151.058 329.535 148.997 328.286 C 146.17 326.573 142.938 324.615 142.461 329.162 Z M 159.219 329.652 C 158.858 329.839 158.504 330.013 158.162 330.16 C 158.363 330.54 158.6 330.882 158.874 331.184 C 159.702 331.85 160.474 331.76 161.293 330.989 C 162.275 330.064 162.69 329.114 162.56 328.087 C 161.967 328.264 161.349 328.547 160.731 328.861 C 161.121 329.031 161.394 329.42 161.394 329.874 C 161.394 330.484 160.902 330.978 160.295 330.978 C 159.688 330.978 159.197 330.484 159.197 329.874 C 159.197 329.798 159.204 329.724 159.219 329.652 Z M 155.204 329.874 C 155.619 330.486 156.195 330.649 156.871 330.556 C 158.08 332.654 160.091 333.439 162.904 332.909 C 162.19 332.856 161.545 332.73 160.969 332.531 C 161.329 332.374 161.689 332.129 162.044 331.794 C 163.297 330.614 163.838 329.297 163.644 327.898 C 164.482 327.878 165.226 328.218 165.787 329.185 C 165.253 324.244 162.196 326.245 159.343 328.112 C 157.736 329.163 156.193 330.173 155.204 329.874 Z M 154.655 327.805 C 154.655 328.575 155.067 329.185 155.753 329.323 C 155.067 329.461 154.243 328.909 154.655 327.805 Z M 167.176 315.049 C 167.176 317.752 161.381 320.291 154.132 320.291 C 146.883 320.291 141.088 317.752 141.088 315.049 C 141.088 312.347 146.883 309.808 154.132 309.808 C 161.381 309.808 167.176 312.347 167.176 315.049 Z" fill="#1D1D1F"/>
  <ellipse cx="154.132" cy="315.049" rx="6.453" ry="2.759" fill="#FF6633"/>
  <path fill-rule="evenodd" clip-rule="evenodd" d="M 208.498 340.156 L 207.868 340.156 C 207.868 340.015 207.655 339.871 207.228 339.723 C 206.165 338.568 205.634 335.568 205.634 330.721 C 205.568 330.721 205.536 330.577 205.536 330.288 C 205.536 330.214 205.568 330.177 205.634 330.177 L 205.536 329.634 L 205.536 328.656 C 205.536 328.589 205.568 328.556 205.634 328.556 C 205.568 328.415 205.536 328.304 205.536 328.223 L 205.634 325.625 L 205.742 325.625 C 205.742 325.552 205.706 325.515 205.634 325.515 C 205.726 324.535 205.798 323.957 205.851 323.782 C 205.851 323.708 205.814 323.672 205.742 323.672 C 205.742 323.598 205.778 323.49 205.851 323.35 C 205.923 321.524 205.958 320.077 205.958 319.009 C 205.958 317.828 205.818 316.307 205.536 314.448 C 205.844 313.87 206.162 313.581 206.49 313.581 C 206.897 313.581 207.143 313.763 207.228 314.125 C 207.747 314.247 208.206 314.609 208.606 315.213 C 208.606 315.408 208.678 315.622 208.823 315.858 L 209.03 315.757 L 209.138 315.757 C 209.276 316.744 209.344 317.284 209.344 317.378 L 209.561 317.378 L 209.561 317.167 C 209.863 317.167 210.04 317.67 210.092 318.677 C 210.191 318.677 210.332 319.184 210.515 320.197 C 210.588 320.197 210.624 320.235 210.624 320.308 C 210.624 320.382 210.588 320.419 210.515 320.419 L 210.831 322.695 C 210.759 323.085 210.722 323.41 210.722 323.672 L 210.722 324.86 C 210.722 325.028 210.689 325.176 210.624 325.303 C 210.689 325.437 210.722 325.545 210.722 325.625 C 210.466 328.297 210.256 329.634 210.092 329.634 L 210.201 330.399 L 210.201 332.352 C 210.201 332.513 210.165 332.657 210.092 332.785 C 210.165 332.913 210.201 333.057 210.201 333.218 L 210.201 333.329 C 210.201 333.47 210.128 333.54 209.984 333.54 C 209.984 333.467 209.948 333.429 209.876 333.429 L 209.876 333.54 L 210.092 333.862 L 210.092 334.084 L 209.669 337.558 L 209.138 338.424 C 208.902 338.424 208.688 338.531 208.498 338.747 C 208.498 338.82 208.534 338.857 208.606 338.857 L 208.498 339.945 L 208.498 340.156 Z M 215.781 343.994 C 219.164 345.228 221.491 345.879 222.76 345.946 C 222.76 345.946 226.328 346.748 227.984 345.78 C 230.97 344.034 230.205 332.199 230.205 332.199 L 230.437 328.816 C 230.471 326.433 230.249 323.881 229.773 321.161 L 229.726 321.034 C 229.44 320.275 228.631 318.132 228.723 317.667 C 228.876 317.329 229.014 317.172 229.136 317.197 L 229.445 317.261 C 229.472 317.123 229.522 317.061 229.592 317.075 L 230.113 317.183 L 230.135 317.074 L 230.837 317.331 L 230.818 317.431 C 230.611 317.388 230.495 317.439 230.466 317.584 L 230.7 317.519 L 230.796 317.539 L 230.775 317.647 L 230.51 317.922 C 230.489 318.027 230.571 318.153 230.757 318.301 L 230.969 318.345 C 231.007 318.154 231.137 318.034 231.361 317.984 L 231.381 317.885 L 231.796 317.97 C 231.774 318.082 232.154 318.527 232.939 319.305 C 233.557 320.076 234.131 321.19 234.661 322.648 C 235.172 324.814 235.379 326.148 235.281 326.648 L 235.174 326.626 C 235.299 327.829 235.382 329.247 235.423 330.878 C 235.325 331.002 235.268 331.103 235.253 331.182 C 235.465 331.226 235.521 331.864 235.419 333.096 L 235.272 333.281 L 235.142 336.141 C 234.903 336.64 234.774 336.942 234.753 337.047 L 234.733 337.711 L 234.829 337.73 L 235.063 337.665 L 235.02 337.883 L 234.874 338.068 C 234.944 338.083 234.973 338.126 234.959 338.199 C 234.888 338.184 234.845 338.213 234.831 338.285 L 235.039 338.328 C 235.935 337.027 236.583 335.979 236.982 335.182 C 236.982 335.028 237.195 334.776 237.622 334.427 L 239.206 330.852 C 239.134 330.812 239.098 330.557 239.098 330.087 C 239.597 329.006 239.915 328.466 240.053 328.466 C 240.571 327.311 241.421 324.851 242.602 321.085 L 243.556 318.809 C 243.484 318.668 243.448 318.56 243.448 318.487 C 243.711 318.487 244.098 318.161 244.61 317.51 L 245.043 317.51 L 245.141 317.943 L 245.249 317.943 C 245.394 317.943 245.466 317.869 245.466 317.721 L 246.519 317.832 L 246.735 317.832 C 246.735 318.047 246.804 318.154 246.942 318.154 L 247.051 318.154 C 247.051 317.939 247.123 317.832 247.267 317.832 L 247.375 317.832 C 247.513 317.852 247.582 317.926 247.582 318.054 L 247.798 317.943 L 247.897 317.943 L 247.897 318.376 L 248.113 318.376 C 248.251 318.376 248.32 318.302 248.32 318.154 L 248.32 318.054 L 248.222 317.832 L 248.753 317.721 L 248.96 317.721 L 248.852 317.943 L 248.852 318.265 C 248.996 318.265 249.068 318.409 249.068 318.698 L 249.915 318.698 C 249.915 318.772 249.878 318.809 249.806 318.809 C 249.839 319.171 249.947 319.352 250.131 319.352 L 250.131 319.997 C 250.17 320.769 250.38 321.313 250.761 321.628 C 250.761 321.662 250.869 322.025 251.086 322.716 L 251.293 322.605 L 251.401 322.605 L 251.824 324.236 C 252.034 324.236 252.139 324.451 252.139 324.881 C 252.067 324.881 252.031 324.918 252.031 324.992 L 252.247 325.103 L 252.247 324.992 C 252.175 324.992 252.139 324.955 252.139 324.881 L 252.464 324.881 C 252.47 325.29 252.68 326.086 253.094 327.268 C 253.021 327.664 252.985 327.952 252.985 328.133 L 253.202 328.244 C 253.202 328.17 253.238 328.133 253.31 328.133 C 253.31 328.281 253.52 328.751 253.94 329.543 C 256.125 329.328 257.434 329.221 257.867 329.221 L 257.867 329.443 L 257.65 329.443 L 257.759 329.977 L 255.643 330.631 L 255.741 330.852 C 255.741 331.195 255.426 331.41 254.796 331.497 L 254.796 331.608 L 255.003 331.608 L 255.003 331.829 L 254.796 332.151 L 254.796 332.363 C 255.361 334.195 255.82 335.824 256.174 337.247 C 256.174 337.361 256.243 337.505 256.381 337.68 L 256.381 337.791 C 256.381 337.864 256.345 337.901 256.272 337.901 L 257.228 340.721 C 257.162 340.721 257.129 340.758 257.129 340.832 C 257.431 340.832 257.746 341.949 258.074 344.185 C 257.838 344.185 257.664 344.366 257.552 344.728 L 256.912 344.728 C 256.912 344.95 256.735 345.061 256.381 345.061 C 256.132 344.813 255.495 344.521 254.472 344.185 C 254.472 344.071 253.943 343.856 252.887 343.541 C 252.887 343.46 252.674 343.278 252.247 342.997 L 252.247 342.775 L 252.985 342.886 L 253.31 342.886 C 253.448 342.886 253.517 342.816 253.517 342.674 C 253.517 342.446 252.848 340.674 251.509 337.358 C 251.509 336.914 251.154 335.793 250.446 333.994 C 249.088 334.431 247.605 334.756 245.997 334.971 C 245.997 334.897 245.961 334.86 245.889 334.86 C 245.889 335.075 245.676 335.219 245.249 335.293 C 244.049 335.575 243.448 335.975 243.448 336.491 C 243.002 337.942 242.579 338.952 242.178 339.523 L 242.178 339.855 C 242.389 339.855 242.494 339.925 242.494 340.066 L 242.494 340.177 L 242.287 340.066 L 242.07 340.066 C 241.861 340.63 241.756 340.993 241.756 341.154 L 241.539 341.043 C 241.539 341.231 241.326 341.449 240.899 341.698 C 240.899 341.832 240.512 342.483 239.738 343.651 L 239.521 343.752 L 239.315 343.752 L 238.891 343.43 L 238.783 343.43 C 238.645 343.45 238.577 343.524 238.577 343.651 C 238.642 343.785 238.675 343.893 238.675 343.973 L 238.468 344.084 C 238.376 344.01 238.199 343.973 237.937 343.973 C 237.937 344.188 237.795 344.295 237.513 344.295 L 235.811 343.108 C 235.375 343.108 234.95 342.584 234.536 341.538 C 234.501 342.011 234.389 342.729 234.2 343.692 L 234.033 344.541 C 233.936 345.035 233.82 345.267 233.685 345.24 L 233.582 346.327 L 233.458 346.959 C 233.078 348.141 232.613 348.857 232.062 349.106 C 231.916 349.223 231.653 349.312 231.278 349.374 C 231.269 349.377 231.262 349.379 231.254 349.382 L 231.24 349.388 L 231.233 349.39 C 231.075 349.523 231.062 349.565 231.047 349.613 C 231.034 349.655 231.019 349.702 230.907 349.816 C 230.826 349.852 230.64 349.871 230.353 349.874 L 230.353 349.876 C 230.179 349.955 229.958 349.974 229.69 349.934 C 229.368 350.32 229.121 350.552 228.946 350.631 L 227.898 350.619 C 226.944 350.733 225.756 350.755 224.334 350.683 C 223.241 350.14 221.946 349.738 220.448 349.473 C 219.704 348.891 219.041 348.599 218.459 348.597 C 218.319 348.271 217.323 347.572 215.471 346.499 C 214.853 346.146 214.481 345.998 214.355 346.055 C 213.889 345.554 213.565 345.343 213.385 345.424 L 213.215 345.028 C 214.981 345.736 215.931 346.061 216.063 346.001 L 216.019 345.9 L 215.133 345.463 L 215.093 345.371 L 215.192 345.326 C 215.211 345.369 215.773 345.594 216.881 346.002 C 217.987 346.409 218.922 346.614 219.683 346.616 C 220.3 346.735 220.695 346.754 220.869 346.676 L 220.968 346.631 C 221.077 346.583 221.112 346.49 221.074 346.353 C 218.471 345.683 217.088 345.158 216.924 344.778 L 216.778 344.964 C 216.58 345.053 216.382 344.867 216.184 344.407 L 215.995 344.492 L 216.078 344.685 L 215.978 344.73 C 215.862 344.46 215.716 344.21 215.539 343.982 L 215.737 343.893 L 215.781 343.994 Z M 234.904 338.523 L 234.909 338.517 C 234.905 338.516 234.9 338.516 234.896 338.515 C 234.898 338.516 234.9 338.518 234.901 338.52 L 234.904 338.523 Z M 197.24 341.823 C 197.24 342.326 197.876 342.615 199.149 342.688 C 200.422 342.628 201.059 342.376 201.059 341.934 C 202.115 340.409 202.643 339.214 202.643 338.348 C 203.142 335.334 203.46 333.092 203.598 331.622 L 203.598 331.521 L 203.175 331.732 L 203.175 331.521 L 203.283 330.977 C 203.211 330.977 203.175 330.94 203.175 330.867 L 203.283 330.867 C 203.283 327.436 203.424 324.976 203.706 323.485 L 203.706 323.384 L 203.5 323.384 C 203.5 323.674 203.391 323.818 203.175 323.818 C 203.175 323.891 203.211 323.999 203.283 324.14 L 203.175 325.227 C 203.175 325.301 203.211 325.408 203.283 325.549 C 203.283 325.643 203.142 325.969 202.86 326.526 L 202.751 326.526 C 202.751 325.801 202.646 325.439 202.436 325.439 C 202.436 325.298 202.541 325.227 202.751 325.227 L 202.751 324.462 C 202.751 323.992 202.788 323.271 202.86 322.297 L 202.643 322.297 C 202.643 322.458 202.61 322.602 202.545 322.73 L 202.643 322.951 C 202.459 322.978 202.318 323.156 202.22 323.485 L 202.328 323.928 C 202.328 323.996 202.292 324.029 202.22 324.029 C 202.22 324.297 202.256 324.478 202.328 324.573 C 202.256 324.573 202.151 324.828 202.013 325.338 C 202.085 325.459 202.122 325.603 202.122 325.771 L 202.122 325.872 L 201.905 326.204 L 202.013 326.415 L 201.905 326.415 C 201.905 326.657 201.941 326.839 202.013 326.959 C 201.967 327.376 201.862 327.701 201.698 327.936 L 201.797 328.157 L 201.698 328.157 C 201.698 328.735 201.554 329.023 201.265 329.023 L 201.265 329.134 L 201.373 329.779 C 201.019 330.43 200.842 331.118 200.842 331.843 L 200.635 331.843 C 200.635 331.769 200.671 331.732 200.744 331.732 C 200.744 331.551 200.707 331.262 200.635 330.867 L 200.842 330.544 L 200.744 330.323 C 200.881 330.323 200.95 330.142 200.95 329.779 L 200.842 329.567 C 200.914 329.567 201.023 329.386 201.167 329.023 C 201.095 328.896 201.059 328.751 201.059 328.59 C 201.059 328.497 201.128 328.097 201.265 327.392 L 201.265 327.07 L 201.167 326.415 L 201.265 326.204 L 201.167 325.66 L 201.373 325.116 C 201.301 324.989 201.265 324.845 201.265 324.684 L 201.482 324.361 L 201.265 324.361 L 201.59 321.975 L 201.482 321.753 C 201.967 320.847 202.604 320.233 203.391 319.91 L 203.391 319.689 C 203.391 319.521 203.073 319.377 202.436 319.256 C 201.78 319.679 201.285 320.259 200.95 320.998 L 200.95 321.209 L 201.167 321.209 L 201.167 321.32 L 200.95 321.32 L 201.059 321.542 C 201.059 321.85 200.986 322.139 200.842 322.408 L 200.95 322.619 C 200.832 323.398 200.691 323.868 200.527 324.029 L 200.635 324.251 C 200.563 324.251 200.527 324.288 200.527 324.361 L 200.527 324.462 L 200.635 324.462 L 200.635 325.66 C 200.635 325.875 200.704 325.982 200.842 325.982 C 200.73 326.144 200.626 326.469 200.527 326.959 C 200.527 328.624 200.386 329.457 200.104 329.457 L 200.104 329.668 L 200.311 329.668 C 200.311 329.742 200.278 329.779 200.212 329.779 L 200.311 330.323 C 200.238 330.323 200.133 330.359 199.995 330.434 C 200.068 330.93 200.14 331.256 200.212 331.41 C 200.074 331.484 199.966 331.521 199.887 331.521 L 199.887 332.598 C 199.75 332.598 199.681 332.743 199.681 333.031 L 199.572 333.031 C 199.434 333.031 199.33 332.78 199.257 332.276 C 199.395 331.813 199.5 331.162 199.572 330.323 C 199.5 330.195 199.464 330.051 199.464 329.89 C 199.464 329.379 199.536 328.98 199.681 328.692 C 199.609 328.557 199.572 328.45 199.572 328.369 C 199.343 328.369 199.166 329.239 199.041 330.977 C 199.113 330.977 199.149 331.011 199.149 331.078 C 198.585 335.14 197.949 337.563 197.24 338.348 C 197.109 337.697 196.967 337.371 196.816 337.371 C 195.625 332.903 193.584 329.019 191.99 325.985 C 191.213 324.505 190.542 323.228 190.126 322.183 C 189.7 321.659 189.487 321.333 189.487 321.206 L 189.28 321.206 L 189.28 321.317 L 189.379 321.538 C 189.195 321.317 188.913 321.206 188.532 321.206 L 188.532 321.105 L 188.749 321.105 L 188.749 320.884 C 188.184 320.884 187.902 320.739 187.902 320.451 L 187.604 320.461 C 187.171 320.823 186.853 321.005 186.65 321.005 C 186.65 320.656 186.437 320.33 186.01 320.028 C 185.8 320.135 185.695 320.243 185.695 320.35 C 185.616 320.35 185.508 320.313 185.37 320.239 C 185.252 320.239 185.183 320.313 185.164 320.461 L 185.272 320.673 C 185.2 320.673 185.164 320.709 185.164 320.783 L 184.947 320.673 L 184.849 320.673 C 184.724 320.673 184.652 320.747 184.632 320.894 L 184.632 321.005 L 184.849 321.76 C 185.531 321.76 186.308 324.039 187.181 328.598 L 187.073 328.598 C 187.145 329.296 187.25 329.836 187.388 330.219 L 187.28 330.219 C 187.28 330.46 187.316 330.641 187.388 330.763 L 187.28 331.306 C 187.352 331.937 187.388 332.3 187.388 332.394 C 187.316 332.904 187.28 333.193 187.28 333.26 C 187.424 333.837 187.496 334.505 187.496 335.264 C 187.496 335.908 187.424 336.976 187.28 338.466 C 187.28 339.896 187.565 340.873 188.136 341.396 L 188.136 341.175 L 188.028 340.953 C 188.1 340.953 188.136 340.92 188.136 340.853 L 188.136 340.742 L 187.92 340.742 L 187.92 340.631 C 187.992 340.631 188.097 340.594 188.234 340.52 C 188.589 341.198 188.766 341.779 188.766 342.262 C 189.475 342.383 189.829 342.672 189.829 343.129 L 189.937 343.129 C 189.937 342.907 189.97 342.655 190.036 342.373 L 190.252 342.373 C 190.252 343.092 190.465 343.451 190.892 343.451 L 192.053 343.018 C 191.981 342.501 191.945 342.212 191.945 342.152 C 191.945 341.937 192.017 341.829 192.161 341.829 L 192.053 341.285 L 192.053 340.52 L 191.945 340.309 L 192.053 340.309 C 192.053 340.188 192.017 339.755 191.945 339.01 L 191.738 339.111 C 191.876 338.533 191.945 338.174 191.945 338.033 L 191.945 337.379 L 191.846 337.157 C 191.912 337.157 191.945 337.103 191.945 336.996 C 191.945 336.284 191.912 335.653 191.846 335.102 C 191.89 334.839 192.028 334.873 192.259 335.206 C 193.375 337.926 194.258 339.479 194.907 339.869 C 195.471 340.211 195.754 340.537 195.754 340.846 C 196.318 341.336 196.6 341.624 196.6 341.712 C 196.672 341.712 196.708 341.675 196.708 341.601 C 196.886 341.749 197.063 341.823 197.24 341.823 Z M 224.996 342.938 C 224.968 342.795 224.793 342.732 224.47 342.747 C 224.5 342.902 224.207 343.059 223.592 343.22 C 223.303 342.876 222.966 342.645 222.58 342.525 C 222.563 342.436 222.449 342.36 222.238 342.297 L 222.151 342.315 L 222.189 342.511 C 221.653 342.112 221.377 341.868 221.36 341.779 C 220.097 339.946 219.381 338.592 219.213 337.718 C 218.97 336.766 218.705 335.887 218.417 335.08 L 218.477 334.874 L 217.953 333.182 L 218.049 333.163 L 217.915 332.986 L 217.583 331.255 L 217.313 330.319 L 216.929 330.396 C 216.959 330.551 216.895 330.894 216.738 331.426 L 216.929 331.387 C 216.881 332.144 216.874 332.612 216.909 332.79 C 216.967 332.778 217.002 332.805 217.015 332.871 C 216.811 332.911 216.773 333.385 216.899 334.292 L 217.087 334.755 C 217.055 335.119 216.979 335.4 216.86 335.597 C 216.872 335.662 216.91 335.689 216.974 335.676 C 217.022 336.617 217.008 337.219 216.932 337.482 C 217.013 337.589 217.06 337.678 217.074 337.749 C 216.886 338.158 216.776 339.109 216.744 340.604 C 216.681 341.284 216.617 341.63 216.553 341.643 L 216.275 341.698 C 216.137 342.461 215.923 342.872 215.633 342.93 C 215.491 342.693 215.373 342.584 215.28 342.602 L 215.088 342.641 L 214.635 342.825 C 214.58 342.539 214.262 342.406 213.68 342.424 L 213.683 341.923 C 213.621 341.602 213.466 341.467 213.216 341.517 L 213.104 340.937 C 213.044 340.622 212.857 340.496 212.543 340.559 C 212.265 339.108 212.306 336.605 212.667 333.05 C 212.655 332.984 212.617 332.958 212.553 332.971 L 212.551 331.971 L 212.762 332.031 L 212.65 331.451 C 212.865 331.407 212.935 331.094 212.859 330.51 L 212.73 329.841 C 212.876 329.812 212.926 329.57 212.881 329.116 L 212.719 328.741 C 212.74 328.54 212.783 328.432 212.847 328.419 C 212.834 328.354 212.796 328.327 212.732 328.34 C 212.694 327.798 212.704 327.333 212.763 326.944 C 212.675 326.833 212.624 326.741 212.61 326.67 C 212.721 326.586 212.808 326.537 212.872 326.525 C 212.777 326.377 212.655 326.068 212.504 325.598 C 212.585 325.581 212.673 325.363 212.768 324.943 C 212.68 324.831 212.63 324.742 212.617 324.677 L 212.713 324.657 L 212.579 324.481 C 212.644 322.776 212.576 320.893 212.373 318.834 C 212.576 318.664 212.814 318.552 213.087 318.497 L 213.366 318.44 C 213.43 318.428 213.469 318.454 213.481 318.519 L 213.654 318.383 C 214.351 318.65 214.748 319.036 214.845 319.542 L 215.018 319.405 L 215.297 319.349 L 215.316 319.448 L 215.265 319.652 L 216.197 319.465 L 217.346 319.836 L 217.469 320.006 L 217.19 320.062 L 217.209 320.159 C 217.466 320.806 217.851 321.46 218.365 322.123 C 219.174 323.288 219.72 324.608 220.003 326.082 L 220.261 327.429 C 220.453 327.39 220.833 328.345 221.4 330.294 L 221.492 330.776 C 221.505 330.841 221.479 330.88 221.415 330.893 L 221.547 331.061 C 221.604 331.358 221.572 331.865 221.45 332.581 C 221.78 332.947 221.997 333.401 222.1 333.942 L 222.138 334.138 L 222.321 334.101 C 222.449 334.075 222.526 333.628 222.552 332.758 L 222.648 332.739 L 222.515 332.562 L 222.46 332.276 C 222.715 331.75 222.777 330.206 222.648 327.644 C 222.756 327.332 222.832 326.721 222.875 325.811 C 223.165 324.492 223.456 323.634 223.748 323.236 L 223.844 323.217 L 223.881 323.413 L 223.822 323.619 L 224.032 323.679 L 224.128 323.66 L 224.109 323.562 L 223.917 323.6 L 223.977 323.394 L 223.959 323.296 C 223.946 323.23 223.908 323.204 223.844 323.217 C 223.886 323.091 223.893 322.957 223.866 322.815 L 224.049 322.777 L 224.054 323.276 C 224.258 323.235 224.427 322.769 224.564 321.877 L 224.545 321.779 L 224.747 321.84 L 224.729 321.742 C 224.665 321.755 224.626 321.729 224.613 321.664 C 224.712 321.643 224.828 321.556 224.961 321.399 C 224.973 321.458 225.008 321.482 225.066 321.471 C 225.36 320.615 225.693 320.149 226.065 320.075 L 226.161 320.056 L 226.235 320.439 L 225.574 321.572 L 225.372 321.511 L 225.084 321.569 L 225.103 321.667 L 225.478 321.592 L 225.516 321.788 C 225.15 322.238 224.974 322.505 224.991 322.588 C 224.781 323.538 224.537 325.65 224.26 328.922 L 224.279 329.021 L 224.366 329.003 C 224.613 328.342 224.741 327.483 224.75 326.425 L 225.058 324.965 L 225.162 324.943 C 225.174 324.676 225.229 324.533 225.329 324.513 L 225.424 324.493 C 225.455 324.654 225.55 324.802 225.709 324.937 L 225.732 325.058 C 225.775 325.033 225.813 325.017 225.845 325.01 L 225.864 325.108 C 225.769 325.621 225.697 326.266 225.646 327.041 L 225.742 327.022 C 225.888 326.993 225.978 326.444 226.014 325.374 C 226.392 325.298 226.624 324.653 226.711 323.437 L 226.903 323.399 C 226.929 323.536 226.884 323.977 226.767 324.723 C 226.924 324.691 227.042 324.8 227.12 325.05 L 227.117 325.551 C 227.217 325.728 227.299 325.811 227.363 325.798 L 227.416 327.584 C 227.454 327.78 227.566 327.86 227.752 327.823 L 227.769 327.912 C 227.814 330.193 227.737 332.836 227.535 335.841 C 227.327 336.958 226.921 338.571 226.319 340.68 C 225.854 341.972 225.59 342.624 225.526 342.637 L 224.996 342.938 Z M 225.333 325.409 L 225.281 325.136 C 225.314 325.136 225.348 325.139 225.382 325.144 L 225.429 325.39 L 225.333 325.409 Z M 225.31 324.256 L 225.406 324.237 C 225.369 324.047 225.412 323.939 225.534 323.914 L 225.478 323.62 L 225.391 323.638 C 225.429 323.834 225.351 323.952 225.159 323.99 C 225.247 324.102 225.298 324.191 225.31 324.256 Z M 199.452 328.186 L 199.56 328.186 C 199.56 327.891 199.524 327.602 199.452 327.32 L 199.56 326.776 L 199.56 326.676 L 199.353 326.676 C 199.353 326.87 199.281 327.085 199.137 327.32 L 199.245 327.542 C 199.173 327.542 199.137 327.578 199.137 327.652 L 199.137 327.864 C 199.248 328.078 199.353 328.186 199.452 328.186 Z M 242.65 325.56 C 242.801 325.526 242.942 325.345 243.073 325.016 C 243.007 324.889 242.975 324.744 242.975 324.583 C 243.139 324.583 243.457 323.969 243.929 322.74 L 243.821 322.519 L 243.821 322.408 C 244.208 321.958 244.418 321.344 244.451 320.565 L 244.028 320.565 L 244.028 320.787 L 244.244 320.787 C 243.181 323.09 242.65 324.68 242.65 325.56 Z M 223.538 336.57 C 223.539 336.922 223.475 337.265 223.347 337.6 C 223.236 337.622 223.16 337.572 223.118 337.451 L 223.026 336.97 L 223.122 336.95 L 223.54 335.069 C 223.527 335.004 223.477 334.916 223.389 334.803 C 223.488 334.783 223.6 334.693 223.726 334.532 L 223.745 334.63 L 223.617 334.952 L 223.654 335.148 L 223.837 335.112 L 223.783 334.826 L 223.879 334.807 L 223.988 335.377 C 223.81 336.148 223.66 336.546 223.538 336.57 Z M 245.636 331.542 C 245.997 331.542 247.165 331.254 249.14 330.676 L 249.14 330.566 C 249.14 330.411 248.644 328.857 247.653 325.903 L 247.653 325.803 C 247.319 326.252 246.965 327.047 246.591 328.189 C 246.433 329.189 246.151 330.163 245.744 331.109 L 245.636 331.109 L 245.636 331.542 Z M 255.123 336.919 L 255.123 337.029 C 254.913 337.029 254.595 336.197 254.168 334.532 C 254.45 334.532 254.591 334.787 254.591 335.298 L 254.808 335.298 L 255.014 335.187 C 255.014 335.26 255.051 335.298 255.123 335.298 L 255.014 335.841 C 255.087 336.472 255.123 336.831 255.123 336.919 Z M 223.901 332.439 C 223.855 332.195 223.944 331.813 224.17 331.292 C 224.213 331.172 224.214 331.005 224.173 330.791 L 224.138 330.604 L 224.042 330.623 C 223.96 330.64 223.86 331.123 223.74 332.073 L 223.453 332.131 L 223.526 332.514 L 223.622 332.495 L 223.671 332.46 C 223.668 332.669 223.596 333.119 223.453 333.811 L 223.468 334.409 L 223.485 334.499 L 223.581 334.479 C 223.723 333.173 223.789 332.495 223.78 332.448 L 223.768 332.389 L 223.797 332.368 C 223.808 332.426 223.843 332.45 223.901 332.439 Z" fill="#1D1D1F"/>
  <path fill-rule="evenodd" clip-rule="evenodd" d="M 276.95 343.229 L 274.815 343.011 L 274.608 343.12 C 273.738 342.903 273.099 342.584 272.691 342.163 C 271.768 341.405 271.307 340.839 271.307 340.464 C 271.307 340.398 271.235 340.112 271.09 339.605 L 271.09 339.506 L 271.198 339.289 C 271.106 339.289 270.896 339.006 270.566 338.439 L 270.566 338.123 C 270.566 338.051 270.813 337.837 271.307 337.481 L 271.198 336.948 C 272.444 336.027 273.297 335.565 273.758 335.565 L 273.758 335.674 C 273.758 335.957 273.508 336.523 273.007 337.373 L 273.007 337.481 C 273.158 337.481 273.55 337.587 274.183 337.797 L 275.991 337.59 L 275.991 337.698 C 276.466 337.626 276.927 337.517 277.375 337.373 L 278.116 337.481 C 279.143 337.317 280.422 336.678 281.95 335.565 C 282.385 335.203 282.81 334.637 283.225 333.867 C 283.581 333.492 283.758 333.136 283.758 332.8 C 279.812 331.951 277.684 331.418 277.375 331.201 C 277.375 331.345 277.302 331.418 277.157 331.418 C 274.661 330.818 273.208 330.252 272.799 329.719 C 272.496 329.719 271.963 329.364 271.198 328.652 C 271.014 328.633 270.625 328.172 270.032 327.27 C 269.861 327.27 269.683 327.023 269.499 326.529 C 269.215 326.529 269.074 326.174 269.074 325.463 C 269.074 324.278 269.426 323.247 270.131 322.372 C 270.559 321.647 271.057 321.045 271.623 320.564 C 271.959 320.229 272.173 319.876 272.266 319.507 C 273.352 318.724 273.992 318.332 274.183 318.332 C 275.784 318.497 276.953 318.78 277.691 319.181 C 279.325 320.051 280.142 320.867 280.142 321.631 L 280.142 322.48 L 279.924 322.48 L 279.924 322.589 L 280.033 322.806 L 279.499 322.905 C 279.269 322.905 278.738 322.622 277.908 322.055 C 276.683 322.556 275.939 322.911 275.675 323.122 C 275.616 323.458 275.154 323.883 274.291 324.396 C 274.291 324.514 273.936 324.87 273.224 325.463 C 272.796 326.108 272.582 326.496 272.582 326.628 C 274.005 327.266 276.347 327.905 279.608 328.544 C 282.56 329.255 284.368 329.966 285.033 330.677 C 287.168 331.737 288.235 332.55 288.235 333.116 L 288.018 333.116 C 288.018 332.932 287.629 332.58 286.852 332.059 L 286.634 332.059 L 286.634 332.158 C 286.957 333.028 287.454 333.597 288.126 333.867 C 288.126 333.959 288.304 334.278 288.66 334.825 C 288.515 334.845 288.442 334.914 288.442 335.032 L 288.551 335.99 C 288.551 336.53 288.126 336.955 287.277 337.264 C 287.277 337.495 286.957 337.85 286.318 338.331 C 286.318 338.686 285.748 339.183 284.609 339.822 C 284.609 339.96 284.147 340.385 283.225 341.096 C 283.014 341.182 282.908 341.29 282.908 341.422 L 282.8 341.422 L 282.592 341.313 C 282.592 341.827 281.917 342.324 280.567 342.804 C 280.567 342.587 280.494 342.479 280.349 342.479 C 280.119 342.801 279.73 343.015 279.183 343.12 L 278.541 343.011 L 278.333 343.011 C 278.175 343.011 278.034 343.048 277.908 343.12 L 277.691 343.011 C 277.566 343.084 277.424 343.12 277.266 343.12 L 277.058 343.011 L 276.95 343.229 Z M 297.495 342.054 L 297.277 342.054 C 296.546 342.054 296.049 341.949 295.785 341.738 L 295.36 341.847 C 295.248 341.847 295.037 341.705 294.728 341.422 L 294.51 341.521 C 294.016 341.408 293.555 340.984 293.127 340.246 L 292.91 340.355 L 292.702 340.355 C 291.213 339.131 290.468 338.314 290.468 337.906 C 289.263 335.417 288.66 332.58 288.66 329.393 C 288.607 329.393 288.499 328.366 288.334 326.312 L 288.442 326.312 C 288.298 325.95 288.225 325.703 288.225 325.571 C 288.278 325.143 288.35 324.929 288.442 324.929 L 287.8 321.848 C 287.932 321.848 288.041 321.529 288.126 320.89 C 288.41 320.89 288.551 320.818 288.551 320.673 L 288.551 320.564 L 288.66 320.564 L 288.976 320.782 C 289.128 320.782 289.339 320.568 289.609 320.14 C 289.688 320.14 289.796 320.103 289.935 320.031 L 289.935 320.248 L 290.468 320.14 C 290.468 320.357 290.501 320.465 290.567 320.465 C 290.666 320.393 290.844 320.357 291.101 320.357 C 291.101 320.521 291.315 320.626 291.743 320.673 L 291.743 320.782 L 291.635 320.989 C 291.78 320.989 291.852 321.061 291.852 321.206 L 291.951 321.206 C 292.023 321.206 292.31 321.134 292.811 320.989 L 293.127 320.989 L 293.127 321.739 L 292.91 322.055 L 293.235 322.273 L 292.91 323.863 C 292.936 324.008 293.008 324.08 293.127 324.08 C 293.054 324.909 293.018 325.512 293.018 325.887 L 293.018 325.996 L 293.127 327.052 L 293.018 327.052 L 293.127 327.27 L 293.127 327.379 C 293.127 328.518 293.232 330.572 293.443 333.541 L 293.334 333.541 C 293.407 333.706 293.552 334.275 293.769 335.25 L 293.66 335.783 C 293.799 336.013 293.868 336.224 293.868 336.415 L 293.769 336.632 C 294.118 336.632 294.293 336.987 294.293 337.698 C 294.411 337.698 294.556 337.909 294.728 338.331 C 295.077 338.331 295.927 337.481 297.277 335.783 C 298.061 334.459 298.842 332.188 299.619 328.969 L 299.619 327.477 L 299.511 326.736 L 299.619 326.736 L 299.511 326.529 C 299.511 326.365 299.547 326.22 299.619 326.095 C 299.409 323.316 299.303 321.651 299.303 321.098 C 299.56 320.755 299.88 320.472 300.262 320.248 L 300.262 319.932 L 300.469 319.932 L 300.469 320.14 L 300.785 320.14 C 301.148 319.646 301.467 319.399 301.744 319.399 L 301.853 319.606 L 302.07 319.507 L 302.278 319.507 L 302.278 319.823 L 302.386 319.823 L 302.92 319.715 L 303.562 320.14 L 303.562 320.465 L 303.987 320.465 L 303.987 320.248 C 304.126 320.321 304.231 320.357 304.304 320.357 C 304.442 320.284 304.547 320.248 304.62 320.248 C 305.12 320.709 305.37 321.275 305.37 321.947 C 305.298 321.947 305.262 321.983 305.262 322.055 C 305.4 322.082 305.469 322.154 305.469 322.273 C 305.259 322.437 305.153 322.684 305.153 323.014 L 305.045 323.014 L 304.837 322.372 C 304.692 322.398 304.62 322.47 304.62 322.589 L 304.62 324.08 C 304.62 324.752 304.583 325.568 304.511 326.529 L 304.62 327.052 C 304.178 329.923 303.754 331.839 303.345 332.8 C 303.272 332.8 303.236 332.837 303.236 332.909 L 303.236 333.867 L 303.345 334.924 C 303.061 334.924 302.92 335.21 302.92 335.783 L 302.811 335.783 C 302.811 336.013 302.953 336.793 303.236 338.123 L 303.127 338.123 L 303.236 338.331 L 303.236 338.864 C 303.236 339.022 303.2 339.164 303.127 339.289 C 303.2 339.427 303.236 339.532 303.236 339.605 C 303.078 339.605 302.9 339.252 302.702 338.548 L 302.603 338.548 C 302.603 338.614 302.567 338.647 302.495 338.647 C 302.633 339.397 302.811 340.144 303.029 340.888 C 302.956 341.027 302.92 341.132 302.92 341.205 C 302.808 341.205 302.561 340.46 302.179 338.973 L 302.07 338.973 L 301.961 339.18 L 301.961 339.289 L 302.179 339.289 L 302.179 339.93 L 302.386 339.93 C 302.386 340.003 302.35 340.039 302.278 340.039 L 302.386 340.246 L 302.386 340.563 L 302.179 340.464 C 302.179 340.53 302.143 340.563 302.07 340.563 C 301.853 340.141 301.602 339.361 301.319 338.222 L 301.112 338.222 C 301.013 338.222 300.871 338.541 300.687 339.18 C 300.548 339.18 300.192 339.572 299.619 340.355 L 299.728 340.563 C 299.537 340.799 299.04 341.013 298.236 341.205 C 297.742 341.613 297.495 341.896 297.495 342.054 Z M 303.77 343.762 L 303.454 343.762 C 303.381 343.242 303.308 342.923 303.236 342.804 C 303.308 342.686 303.345 342.509 303.345 342.271 L 303.562 342.271 L 303.562 342.696 L 303.454 342.903 C 303.592 342.976 303.697 343.011 303.77 343.011 L 303.77 343.12 L 303.562 343.437 C 303.7 343.463 303.77 343.535 303.77 343.654 L 303.77 343.762 Z M 328.712 345.974 L 328.287 345.766 C 328.149 345.832 328.04 345.865 327.961 345.865 L 327.536 345.766 C 327.398 345.832 327.293 345.865 327.22 345.865 C 327.22 345.681 326.97 345.54 326.469 345.441 C 326.311 345.025 326.027 344.674 325.619 344.384 C 325.197 343.62 324.878 342.557 324.661 341.194 L 324.769 340.977 C 324.697 340.838 324.661 340.733 324.661 340.661 L 324.769 340.661 C 324.644 340.43 324.502 339.436 324.344 337.678 L 324.453 337.678 C 324.321 337.25 323.966 333.919 323.386 327.684 C 323.313 327.684 323.208 327.115 323.069 325.976 C 323.069 325.903 323.106 325.798 323.178 325.659 C 323.178 324.922 322.75 324.106 321.894 323.211 C 321.894 323.164 321.716 322.667 321.36 321.719 C 321.439 321.403 321.689 321.156 322.111 320.979 L 322.22 320.979 L 322.22 321.186 C 322.72 321.048 323.003 320.979 323.069 320.979 L 323.178 320.979 L 323.178 321.62 L 323.386 321.62 L 323.277 321.828 L 323.277 321.936 C 323.422 321.936 323.494 321.973 323.494 322.045 L 324.344 321.512 L 324.453 321.512 L 324.453 321.62 C 324.381 321.752 324.344 321.857 324.344 321.936 C 324.417 321.936 324.453 321.973 324.453 322.045 C 324.591 321.973 324.697 321.936 324.769 321.936 C 325.388 321.976 326.027 322.542 326.686 323.635 C 326.686 324.103 326.933 324.814 327.428 325.768 C 327.928 330.318 328.179 332.8 328.179 333.215 L 328.287 333.215 C 329.901 332.997 331.107 332.888 331.904 332.888 L 332.329 332.888 C 332.968 332.888 333.288 332.5 333.288 331.723 L 333.396 331.723 L 333.288 331.506 L 333.288 331.407 C 333.643 331.407 333.999 329.277 334.355 325.017 C 334.21 325.017 334.137 324.948 334.137 324.81 L 334.137 324.168 C 334.52 324.168 334.803 324.063 334.987 323.852 L 335.205 323.852 L 335.304 324.386 C 335.237 324.386 335.205 324.419 335.205 324.484 L 335.412 324.593 C 335.412 324.52 335.449 324.484 335.521 324.484 L 335.412 324.277 L 335.412 324.168 C 335.88 324.168 336.163 323.955 336.262 323.526 L 336.48 323.526 C 336.48 323.605 336.516 323.714 336.588 323.852 L 336.796 323.744 L 336.904 323.744 C 336.904 323.981 336.94 324.158 337.013 324.277 L 337.221 324.168 C 337.366 324.188 337.438 324.261 337.438 324.386 L 337.438 324.484 L 337.221 324.484 L 337.221 324.593 L 337.547 324.593 L 337.645 324.386 C 337.58 324.247 337.547 324.139 337.547 324.06 L 337.754 324.06 C 338.183 324.435 338.397 324.754 338.397 325.017 L 338.713 325.017 L 338.93 324.909 L 338.822 324.701 C 338.841 324.557 338.911 324.484 339.029 324.484 C 339.556 324.484 339.843 324.593 339.889 324.81 L 339.889 325.017 C 339.889 325.162 339.78 325.235 339.563 325.235 C 339.846 325.972 339.988 326.433 339.988 326.617 C 339.638 328.027 339.464 329.797 339.464 331.931 L 339.671 332.04 C 339.671 331.967 339.707 331.931 339.78 331.931 C 339.78 332.076 339.816 332.147 339.889 332.147 L 340.314 331.931 L 340.314 332.04 C 340.314 332.25 340.03 332.391 339.464 332.464 L 339.464 333.106 L 340.205 333.106 L 341.589 332.79 C 341.589 332.856 341.625 332.888 341.697 332.888 C 341.697 332.751 341.981 332.645 342.547 332.573 L 342.547 332.681 C 342.547 332.773 342.086 333.02 341.164 333.422 C 341.164 333.705 340.525 334.024 339.247 334.38 L 339.247 334.597 L 339.78 334.489 C 339.853 334.489 339.889 334.524 339.889 334.597 C 340.027 334.524 340.133 334.489 340.205 334.489 L 340.422 334.489 L 340.422 334.597 C 339.566 334.702 339.138 334.844 339.138 335.021 C 339.138 335.232 339.101 335.338 339.029 335.338 L 339.138 335.555 C 338.999 336.154 338.93 336.506 338.93 336.612 L 339.029 337.254 C 339.029 337.906 338.818 339.535 338.397 342.142 L 338.179 342.142 L 338.179 341.935 L 338.081 341.935 L 338.081 343.317 L 337.754 343.317 L 337.329 343.001 C 337.329 343.12 337.152 343.439 336.796 343.959 C 336.796 344.716 336.585 345.141 336.163 345.234 C 336.163 345.444 335.808 345.549 335.096 345.549 L 334.987 345.549 C 334.987 345.339 334.882 345.234 334.671 345.234 L 334.562 345.234 L 334.562 344.384 C 334.562 344.219 334.526 344.078 334.454 343.959 C 334.454 343.887 334.49 343.85 334.562 343.85 C 334.562 343.706 334.526 343.633 334.454 343.633 C 334.618 340.94 334.76 339.594 334.879 339.594 L 334.78 339.377 C 334.918 338.889 334.987 338.465 334.987 338.103 L 334.987 337.254 L 335.096 336.72 C 334.925 336.582 334.783 336.513 334.671 336.513 C 333.623 336.724 332.912 336.898 332.536 337.036 L 332.536 337.678 C 332.352 337.678 332.105 338.07 331.795 338.853 L 330.837 340.977 C 330.698 341.049 330.593 341.085 330.521 341.085 L 330.521 341.935 C 330.521 342.106 330.343 342.425 329.987 342.892 C 329.987 343.314 329.915 343.525 329.77 343.525 L 329.878 343.742 C 329.311 344.347 329.028 344.703 329.028 344.809 L 329.028 345.342 L 329.137 345.549 C 328.9 345.549 328.758 345.691 328.712 345.974 Z M 333.821 331.933 C 334.157 330.861 334.404 330.291 334.562 330.225 C 334.49 329.942 334.385 329.695 334.246 329.485 L 334.454 329.169 L 334.355 329.169 C 334.236 329.169 334.091 329.416 333.92 329.909 L 334.029 330.443 C 333.996 330.725 333.89 330.867 333.713 330.867 L 333.713 330.975 L 333.821 331.183 L 333.604 331.183 L 333.604 331.716 C 333.63 331.862 333.703 331.933 333.821 331.933 Z M 336.48 340.654 C 336.651 340.654 336.756 340.298 336.796 339.587 C 336.73 339.449 336.697 339.344 336.697 339.271 L 336.904 339.271 L 336.904 338.847 C 336.904 338.702 336.835 338.63 336.697 338.63 L 336.796 338.096 L 336.796 337.039 C 336.796 336.967 336.832 336.931 336.904 336.931 L 336.796 336.714 C 336.796 336.641 336.832 336.535 336.904 336.398 L 336.697 335.44 C 336.763 335.44 336.796 335.403 336.796 335.331 L 336.588 335.331 L 336.588 336.082 C 336.588 336.24 336.552 336.381 336.48 336.506 C 336.48 336.579 336.516 336.615 336.588 336.615 L 336.48 337.138 L 336.48 337.355 L 336.588 338.096 L 336.48 338.096 L 336.588 338.314 L 336.588 338.521 C 336.588 338.665 336.516 338.738 336.371 338.738 C 336.516 338.969 336.588 339.183 336.588 339.38 L 336.588 339.903 L 336.48 340.654 Z M 335.738 341.612 C 335.877 341.079 335.946 340.76 335.946 340.654 C 335.946 340.582 335.909 340.545 335.837 340.545 L 335.946 340.012 L 335.946 338.847 L 335.837 337.563 L 335.946 337.563 L 335.837 337.355 L 335.837 336.615 C 335.837 336.542 335.873 336.506 335.946 336.506 C 335.873 336.414 335.837 336.163 335.837 335.756 C 335.699 335.782 335.63 335.854 335.63 335.973 L 335.63 336.714 C 335.63 337.122 335.593 337.372 335.521 337.464 C 335.593 337.846 335.63 338.165 335.63 338.422 L 335.63 341.612 L 335.738 341.612 Z M 330.946 338.945 C 330.946 338.715 331.193 338.221 331.687 337.464 L 332.22 336.398 L 332.22 336.18 L 332.112 336.18 C 331.703 336.635 331.384 337.204 331.153 337.889 C 331.107 337.889 330.965 338.067 330.728 338.422 L 330.728 338.945 L 330.946 338.945 Z M 328.495 340.654 C 328.917 340.193 329.697 339.021 330.837 337.138 C 330.837 337.072 330.873 337.039 330.946 337.039 L 330.946 337.355 L 331.153 337.355 C 331.153 337.059 331.226 336.704 331.37 336.289 L 331.262 336.289 L 331.262 336.398 C 331.189 336.398 331.153 336.361 331.153 336.289 C 329.987 336.717 329.315 336.931 329.137 336.931 C 328.656 336.72 328.373 336.615 328.287 336.615 L 328.287 336.931 C 328.287 337.089 328.32 337.23 328.386 337.355 C 328.386 337.428 328.353 337.464 328.287 337.464 C 328.353 337.787 328.422 338.85 328.495 340.654 Z M 345.298 345.247 L 344.665 345.247 C 344.665 345.109 344.451 344.967 344.023 344.823 C 342.955 343.69 342.422 340.747 342.422 335.994 C 342.356 335.994 342.323 335.852 342.323 335.569 C 342.323 335.497 342.356 335.46 342.422 335.46 L 342.323 334.927 L 342.323 333.969 C 342.323 333.903 342.356 333.87 342.422 333.87 C 342.356 333.732 342.323 333.623 342.323 333.544 L 342.422 330.996 L 342.531 330.996 C 342.531 330.924 342.495 330.888 342.422 330.888 C 342.514 329.927 342.587 329.36 342.639 329.189 C 342.639 329.116 342.603 329.08 342.531 329.08 C 342.531 329.008 342.567 328.902 342.639 328.765 C 342.712 326.974 342.748 325.555 342.748 324.508 C 342.748 323.349 342.606 321.858 342.323 320.034 C 342.633 319.468 342.952 319.185 343.282 319.185 C 343.69 319.185 343.937 319.363 344.023 319.718 C 344.543 319.837 345.005 320.192 345.406 320.785 C 345.406 320.976 345.479 321.186 345.624 321.417 L 345.831 321.318 L 345.94 321.318 C 346.078 322.286 346.148 322.816 346.148 322.908 L 346.365 322.908 L 346.365 322.701 C 346.668 322.701 346.846 323.194 346.899 324.182 C 346.998 324.182 347.139 324.679 347.324 325.673 C 347.396 325.673 347.432 325.71 347.432 325.782 C 347.432 325.854 347.396 325.891 347.324 325.891 L 347.64 328.122 C 347.567 328.505 347.531 328.824 347.531 329.08 L 347.531 330.246 C 347.531 330.41 347.498 330.556 347.432 330.681 C 347.498 330.812 347.531 330.917 347.531 330.996 C 347.274 333.617 347.064 334.927 346.899 334.927 L 347.007 335.678 L 347.007 337.593 C 347.007 337.751 346.971 337.893 346.899 338.018 C 346.971 338.143 347.007 338.284 347.007 338.443 L 347.007 338.551 C 347.007 338.69 346.935 338.759 346.79 338.759 C 346.79 338.686 346.754 338.65 346.681 338.65 L 346.681 338.759 L 346.899 339.075 L 346.899 339.292 L 346.474 342.699 L 345.94 343.548 C 345.703 343.548 345.489 343.654 345.298 343.865 C 345.298 343.937 345.334 343.973 345.406 343.973 L 345.298 345.04 L 345.298 345.247 Z M 310.955 323.416 C 311.941 323.05 312.867 322.743 313.733 322.497 L 313.827 322.497 L 313.827 322.677 C 313.518 322.694 313.363 322.757 313.363 322.866 C 312.807 322.901 312.529 323.024 312.529 323.236 L 312.254 323.236 C 312.047 323.236 311.833 323.327 311.609 323.511 L 310.955 323.511 L 310.955 323.416 Z M 321.536 337.468 L 321.631 337.468 C 321.631 337.336 321.539 337.15 321.356 336.909 L 321.356 336.634 L 321.442 336.445 L 320.891 335.518 C 319.871 334.486 318.696 333.561 317.366 332.742 C 316.077 331.98 315.429 331.547 315.423 331.445 C 314.913 331.227 313.555 330.396 311.348 328.953 C 310.139 328.271 309.307 327.561 308.854 326.822 C 308.883 326.575 308.975 326.452 309.129 326.452 C 309.129 326.04 311.018 325.372 312.624 324.713 C 313.552 324.461 314.016 324.246 314.016 324.069 C 315.616 323.536 316.51 323.196 316.699 323.047 C 317.628 322.84 318.092 322.686 318.092 322.583 C 318.229 322.583 318.353 322.8 318.461 323.236 L 318.367 323.416 C 318.367 323.542 318.458 323.605 318.642 323.605 L 318.642 323.699 C 318.458 323.699 318.367 323.791 318.367 323.975 C 318.43 324.284 318.616 324.685 318.926 325.177 L 319.201 325.177 L 319.106 324.989 L 319.382 324.989 C 319.651 324.187 319.869 323.785 320.035 323.785 L 320.035 323.605 C 320.035 323.301 320.126 322.992 320.31 322.677 C 320.247 322.568 320.215 322.445 320.215 322.308 C 320.187 322.096 319.694 321.695 318.736 321.105 L 317.163 320.641 L 317.069 320.641 C 316.645 320.641 316.183 320.735 315.685 320.924 C 313.947 321.291 312.836 321.66 312.348 322.033 L 312.159 321.938 L 311.979 321.938 C 311.663 322.185 311.262 322.339 310.775 322.402 L 307.534 323.88 C 306.198 324.567 305.456 325.278 305.307 326.011 C 305.307 326.102 305.461 326.504 305.771 327.214 L 305.676 327.403 C 305.676 327.455 305.8 327.73 306.046 328.228 C 306.046 328.394 306.201 328.58 306.511 328.786 C 306.511 328.964 306.788 329.333 307.344 329.895 C 308.038 330.313 308.562 330.714 308.918 331.097 C 309.537 331.206 309.847 331.361 309.847 331.561 C 311.062 332.226 311.741 332.659 311.884 332.859 C 313.449 333.724 315.054 334.741 316.699 335.91 C 317.748 336.448 318.273 336.82 318.273 337.026 C 317.636 337.536 315.753 337.937 312.624 338.229 C 312.624 338.166 312.592 338.135 312.529 338.135 C 312.42 338.198 312.297 338.229 312.159 338.229 L 308.548 338.229 C 307.562 338.229 307.069 338.599 307.069 339.338 L 307.069 339.613 C 307.304 339.613 307.459 339.831 307.534 340.266 L 308.084 340.635 C 308.348 340.818 308.534 340.91 308.643 340.91 C 308.992 341.156 309.239 341.279 309.382 341.279 C 309.382 341.595 309.97 341.813 311.145 341.933 L 311.145 342.018 L 311.05 342.207 C 311.554 342.207 311.864 342.268 311.979 342.388 L 312.254 342.388 L 312.813 342.302 L 312.993 342.388 C 313.882 342.313 314.652 342.222 315.306 342.113 C 315.306 342.176 315.338 342.207 315.401 342.207 C 316.622 342.059 317.857 341.749 319.106 341.279 C 319.502 341.188 319.843 340.787 320.129 340.077 L 320.774 340.077 L 320.963 339.432 L 320.963 339.149 C 320.963 339.005 321.726 337.874 321.536 337.468 Z" fill="#1D1D1F"/>
</svg>