<?xml version="1.0" encoding="utf-8"?>
<svg id="svg2" viewBox="67.88 289.532 405.962 154.201" xmlns="http://www.w3.org/2000/svg">
  <desc>Source: openclipart.org/detail/209545</desc>
  <defs/>
  <path d="M 448.284 315.25 L 448.284 418.265 L 93.094 418.265 L 93.094 315.25 L 448.284 315.25" style="stroke-miterlimit: 1; stroke-linejoin: round; stroke-linecap: round; paint-order: fill; fill-rule: nonzero; stroke-width: 50px; fill: rgb(255, 255, 255); stroke: rgb(146, 146, 146);"/>
  <path fill-rule="evenodd" clip-rule="evenodd" d="M 160.193 355.263 C 159.237 352.854 158.177 350.178 153.755 351.817 L 153.755 338.818 C 153.755 332.105 143.256 327.247 130.464 327.247 C 117.672 327.247 107.172 332.105 107.172 338.818 L 107.172 396.204 C 107.172 402.916 117.672 407.773 130.464 407.773 C 143.256 407.773 153.755 402.916 153.755 396.204 L 153.755 361.571 C 157.7 362.132 158.551 365.475 157.815 368.933 L 161.873 369.627 C 162.786 363.286 160.785 359.068 153.755 358.738 L 153.755 356.094 C 156.456 354.691 158.107 356.985 159.8 359.335 C 161.188 361.261 162.605 363.227 164.652 363.227 C 167.644 363.227 169.994 361.608 171.705 358.369 L 168.07 353.045 C 167.359 356.594 165.649 358.369 162.943 358.369 C 161.422 358.369 160.831 356.876 160.193 355.263 Z M 136.672 370.424 C 134.603 369.88 132.474 369.322 130.376 369.322 C 128.249 369.322 126.098 369.892 124.014 370.446 C 118.57 371.889 113.58 373.211 110.614 363.952 C 106.996 352.658 115.255 355.148 122.785 357.416 C 125.707 358.296 128.52 359.144 130.484 359.14 C 132.375 359.137 135.087 358.343 137.923 357.513 C 145.388 355.329 153.712 352.893 150.142 363.952 C 147.164 373.177 142.118 371.853 136.672 370.424 Z M 119.982 362.053 C 119.066 361.6 118.157 361.184 117.302 360.882 C 117.181 362.517 117.836 364.039 119.294 365.52 C 120.569 366.814 121.771 366.965 123.058 365.847 C 123.483 365.342 123.85 364.774 124.162 364.141 C 123.638 363.905 123.092 363.635 122.535 363.353 C 122.548 363.45 122.557 363.549 122.557 363.65 C 122.557 364.673 121.791 365.502 120.848 365.502 C 119.904 365.502 119.139 364.673 119.139 363.65 C 119.139 362.97 119.477 362.375 119.982 362.053 Z M 112.302 362.494 C 112.853 360.702 114.075 360.232 115.622 360.449 C 115.362 362.754 116.209 364.923 118.126 366.871 C 118.68 367.433 119.24 367.844 119.799 368.107 C 118.902 368.441 117.899 368.652 116.788 368.741 C 121.131 369.624 124.246 368.334 126.131 364.876 C 127.943 365.348 129.182 364.886 129.182 362.262 C 128.55 364.994 125.679 363.118 122.472 361.024 C 118.072 358.151 113.042 354.866 112.302 362.494 Z M 138.379 363.316 C 137.817 363.628 137.267 363.922 136.735 364.166 C 137.047 364.806 137.415 365.378 137.844 365.886 C 139.131 367.003 140.332 366.852 141.607 365.559 C 143.135 364.007 143.781 362.412 143.58 360.689 C 142.658 360.986 141.696 361.462 140.733 361.989 C 141.339 362.272 141.765 362.927 141.765 363.688 C 141.765 364.71 140.998 365.539 140.053 365.539 C 139.11 365.539 138.345 364.71 138.345 363.688 C 138.345 363.561 138.357 363.437 138.379 363.316 Z M 132.131 363.688 C 132.777 364.713 133.673 364.988 134.726 364.831 C 136.608 368.352 139.736 369.667 144.113 368.78 C 143.003 368.689 141.999 368.478 141.102 368.146 C 141.664 367.881 142.224 367.47 142.776 366.909 C 144.726 364.93 145.57 362.72 145.265 360.372 C 146.57 360.34 147.727 360.909 148.602 362.531 C 147.771 354.243 143.012 357.599 138.573 360.731 C 136.071 362.496 133.671 364.188 132.131 363.688 Z M 131.277 360.217 C 131.277 361.507 131.918 362.531 132.985 362.762 C 131.918 362.994 130.635 362.069 131.277 360.217 Z M 150.764 338.818 C 150.764 343.351 141.745 347.61 130.464 347.61 C 119.181 347.61 110.164 343.351 110.164 338.818 C 110.164 334.285 119.181 330.025 130.464 330.025 C 141.745 330.025 150.764 334.285 150.764 338.818 Z" fill="#1D1D1F" style=""/>
  <ellipse cx="130.464" cy="338.818" rx="10.042" ry="4.629" fill="#FF6633" style=""/>
  <path fill-rule="evenodd" clip-rule="evenodd" d="M 215.069 380.938 L 214.089 380.938 C 214.089 380.701 213.757 380.46 213.094 380.211 C 211.44 378.274 210.612 373.239 210.612 365.108 C 210.509 365.108 210.459 364.866 210.459 364.381 C 210.459 364.259 210.509 364.197 210.612 364.197 L 210.459 363.284 L 210.459 361.645 C 210.459 361.533 210.509 361.476 210.612 361.476 C 210.509 361.239 210.459 361.054 210.459 360.919 L 210.612 356.56 L 210.78 356.56 C 210.78 356.436 210.726 356.374 210.612 356.374 C 210.755 354.73 210.868 353.762 210.951 353.468 C 210.951 353.344 210.894 353.282 210.78 353.282 C 210.78 353.158 210.838 352.978 210.951 352.742 C 211.061 349.679 211.118 347.253 211.118 345.461 C 211.118 343.48 210.898 340.928 210.459 337.808 C 210.939 336.84 211.434 336.355 211.944 336.355 C 212.577 336.355 212.96 336.66 213.094 337.267 C 213.9 337.47 214.614 338.079 215.239 339.093 C 215.239 339.418 215.351 339.779 215.575 340.173 L 215.897 340.004 L 216.064 340.004 C 216.28 341.659 216.388 342.567 216.388 342.725 L 216.723 342.725 L 216.723 342.369 C 217.194 342.369 217.469 343.215 217.551 344.904 C 217.704 344.904 217.923 345.755 218.21 347.454 C 218.322 347.454 218.378 347.516 218.378 347.64 C 218.378 347.764 218.322 347.826 218.21 347.826 L 218.699 351.645 C 218.587 352.297 218.531 352.843 218.531 353.282 L 218.531 355.275 C 218.531 355.557 218.481 355.805 218.378 356.02 C 218.481 356.245 218.531 356.424 218.531 356.56 C 218.134 361.043 217.806 363.284 217.551 363.284 L 217.72 364.567 L 217.72 367.844 C 217.72 368.114 217.663 368.357 217.551 368.57 C 217.663 368.785 217.72 369.027 217.72 369.298 L 217.72 369.483 C 217.72 369.721 217.608 369.839 217.383 369.839 C 217.383 369.714 217.325 369.652 217.214 369.652 L 217.214 369.839 L 217.551 370.379 L 217.551 370.751 L 216.893 376.579 L 216.064 378.032 C 215.698 378.032 215.367 378.212 215.069 378.572 C 215.069 378.695 215.126 378.758 215.239 378.758 L 215.069 380.584 L 215.069 380.938 Z M 226.403 387.375 C 231.67 389.447 235.289 390.539 237.265 390.651 C 237.265 390.651 242.817 391.997 245.396 390.371 C 250.042 387.442 248.852 367.589 248.852 367.589 L 249.213 361.912 C 249.266 357.916 248.921 353.634 248.179 349.07 L 248.106 348.858 C 247.662 347.585 246.403 343.988 246.545 343.21 C 246.784 342.643 246.999 342.379 247.188 342.421 L 247.67 342.527 C 247.711 342.295 247.789 342.191 247.898 342.216 L 248.708 342.398 L 248.743 342.215 L 249.837 342.646 L 249.805 342.812 C 249.484 342.74 249.303 342.825 249.258 343.07 L 249.622 342.961 L 249.772 342.993 L 249.739 343.176 L 249.326 343.637 C 249.294 343.814 249.421 344.025 249.711 344.273 L 250.041 344.347 C 250.1 344.025 250.302 343.824 250.651 343.741 L 250.682 343.575 L 251.329 343.718 C 251.293 343.906 251.886 344.652 253.107 345.956 C 254.069 347.251 254.962 349.118 255.787 351.566 C 256.582 355.2 256.905 357.436 256.752 358.276 L 256.585 358.238 C 256.779 360.258 256.909 362.635 256.973 365.373 C 256.82 365.581 256.732 365.75 256.708 365.883 C 257.038 365.955 257.125 367.025 256.966 369.094 L 256.737 369.404 L 256.536 374.2 C 256.163 375.037 255.963 375.544 255.93 375.72 L 255.898 376.834 L 256.048 376.868 L 256.412 376.759 L 256.346 377.123 L 256.118 377.435 C 256.227 377.458 256.272 377.532 256.25 377.653 C 256.139 377.629 256.073 377.676 256.051 377.799 L 256.376 377.871 C 257.769 375.688 258.777 373.929 259.399 372.593 C 259.399 372.333 259.731 371.912 260.395 371.327 L 262.86 365.329 C 262.747 365.262 262.692 364.834 262.692 364.046 C 263.468 362.232 263.963 361.326 264.178 361.326 C 264.984 359.389 266.306 355.26 268.146 348.942 L 269.629 345.125 C 269.517 344.887 269.461 344.708 269.461 344.584 C 269.871 344.584 270.473 344.038 271.269 342.945 L 271.943 342.945 L 272.096 343.671 L 272.264 343.671 C 272.489 343.671 272.602 343.548 272.602 343.3 L 274.241 343.485 L 274.577 343.485 C 274.577 343.847 274.685 344.027 274.898 344.027 L 275.068 344.027 C 275.068 343.666 275.18 343.485 275.405 343.485 L 275.573 343.485 C 275.787 343.52 275.894 343.642 275.894 343.857 L 276.23 343.671 L 276.385 343.671 L 276.385 344.397 L 276.721 344.397 C 276.937 344.397 277.043 344.273 277.043 344.027 L 277.043 343.857 L 276.891 343.485 L 277.717 343.3 L 278.04 343.3 L 277.872 343.671 L 277.872 344.213 C 278.095 344.213 278.207 344.454 278.207 344.939 L 279.526 344.939 C 279.526 345.063 279.468 345.125 279.355 345.125 C 279.407 345.733 279.576 346.036 279.862 346.036 L 279.862 347.117 C 279.923 348.414 280.249 349.325 280.842 349.855 C 280.842 349.91 281.01 350.519 281.348 351.678 L 281.67 351.494 L 281.837 351.494 L 282.496 354.23 C 282.823 354.23 282.988 354.589 282.988 355.31 C 282.875 355.31 282.818 355.372 282.818 355.497 L 283.155 355.683 L 283.155 355.497 C 283.042 355.497 282.988 355.436 282.988 355.31 L 283.493 355.31 C 283.501 355.998 283.828 357.332 284.472 359.315 C 284.359 359.979 284.303 360.464 284.303 360.768 L 284.641 360.954 C 284.641 360.83 284.697 360.768 284.809 360.768 C 284.809 361.016 285.135 361.804 285.79 363.133 C 289.19 362.772 291.227 362.593 291.9 362.593 L 291.9 362.964 L 291.563 362.964 L 291.733 363.859 L 288.44 364.957 L 288.593 365.329 C 288.593 365.903 288.101 366.263 287.122 366.409 L 287.122 366.596 L 287.443 366.596 L 287.443 366.968 L 287.122 367.508 L 287.122 367.862 C 288 370.937 288.715 373.669 289.265 376.056 C 289.265 376.249 289.374 376.49 289.588 376.782 L 289.588 376.968 C 289.588 377.093 289.532 377.155 289.419 377.155 L 290.907 381.886 C 290.804 381.886 290.752 381.946 290.752 382.07 C 291.222 382.07 291.712 383.946 292.223 387.697 C 291.855 387.697 291.584 388 291.411 388.608 L 290.415 388.608 C 290.415 388.98 290.138 389.166 289.588 389.166 C 289.2 388.749 288.209 388.259 286.618 387.697 C 286.618 387.506 285.794 387.143 284.151 386.615 C 284.151 386.481 283.82 386.175 283.155 385.702 L 283.155 385.331 L 284.303 385.518 L 284.809 385.518 C 285.024 385.518 285.131 385.398 285.131 385.162 C 285.131 384.779 284.091 381.805 282.006 376.242 C 282.006 375.499 281.454 373.618 280.352 370.6 C 278.239 371.332 275.93 371.878 273.428 372.239 C 273.428 372.113 273.372 372.053 273.259 372.053 C 273.259 372.414 272.928 372.655 272.264 372.779 C 270.396 373.252 269.461 373.922 269.461 374.789 C 268.768 377.222 268.109 378.916 267.485 379.874 L 267.485 380.431 C 267.813 380.431 267.977 380.55 267.977 380.787 L 267.977 380.973 L 267.654 380.787 L 267.317 380.787 C 266.991 381.733 266.828 382.34 266.828 382.61 L 266.49 382.426 C 266.49 382.741 266.159 383.107 265.495 383.523 C 265.495 383.749 264.893 384.841 263.688 386.801 L 263.35 386.97 L 263.03 386.97 L 262.37 386.429 L 262.201 386.429 C 261.987 386.464 261.882 386.586 261.882 386.801 C 261.982 387.026 262.033 387.205 262.033 387.341 L 261.711 387.527 C 261.568 387.403 261.293 387.341 260.885 387.341 C 260.885 387.702 260.664 387.881 260.225 387.881 L 257.576 385.888 C 256.897 385.888 256.236 385.011 255.592 383.254 C 255.537 384.05 255.363 385.254 255.07 386.87 L 254.809 388.292 C 254.659 389.121 254.478 389.512 254.268 389.465 L 254.107 391.29 L 253.914 392.351 C 253.324 394.333 252.599 395.535 251.743 395.952 C 251.515 396.149 251.105 396.296 250.521 396.402 C 250.508 396.405 250.497 396.41 250.485 396.415 L 250.463 396.424 L 250.452 396.429 C 250.206 396.65 250.186 396.721 250.162 396.803 C 250.142 396.873 250.119 396.951 249.944 397.144 C 249.818 397.204 249.529 397.236 249.083 397.239 L 249.083 397.244 C 248.812 397.377 248.468 397.409 248.051 397.34 C 247.549 397.987 247.165 398.378 246.892 398.509 L 245.262 398.489 C 243.775 398.682 241.927 398.717 239.715 398.598 C 238.013 397.687 235.998 397.011 233.668 396.566 C 232.508 395.592 231.476 395.102 230.571 395.098 C 230.353 394.552 228.804 393.379 225.921 391.579 C 224.959 390.987 224.38 390.738 224.184 390.834 C 223.459 389.992 222.955 389.639 222.675 389.775 L 222.41 389.111 C 225.16 390.299 226.637 390.842 226.842 390.743 L 226.775 390.574 L 225.395 389.839 L 225.332 389.685 L 225.488 389.611 C 225.515 389.683 226.393 390.061 228.116 390.743 C 229.838 391.428 231.291 391.77 232.476 391.775 C 233.436 391.973 234.053 392.007 234.323 391.874 L 234.477 391.8 C 234.645 391.718 234.7 391.562 234.642 391.332 C 230.59 390.21 228.437 389.329 228.182 388.69 L 227.957 389.004 C 227.648 389.153 227.339 388.841 227.03 388.068 L 226.737 388.21 L 226.866 388.536 L 226.712 388.611 C 226.531 388.156 226.302 387.739 226.027 387.355 L 226.335 387.205 L 226.403 387.375 Z M 256.164 378.198 L 256.172 378.186 C 256.166 378.186 256.159 378.185 256.152 378.183 C 256.155 378.186 256.159 378.188 256.16 378.191 L 256.164 378.198 Z M 197.549 383.733 C 197.549 384.578 198.539 385.061 200.52 385.185 C 202.5 385.085 203.491 384.662 203.491 383.919 C 205.135 381.362 205.957 379.357 205.957 377.905 C 206.735 372.846 207.228 369.087 207.444 366.619 L 207.444 366.45 L 206.785 366.805 L 206.785 366.45 L 206.953 365.539 C 206.841 365.539 206.785 365.477 206.785 365.353 L 206.953 365.353 C 206.953 359.597 207.173 355.47 207.612 352.97 L 207.612 352.801 L 207.291 352.801 C 207.291 353.285 207.122 353.527 206.785 353.527 C 206.785 353.651 206.841 353.831 206.953 354.067 L 206.785 355.892 C 206.785 356.017 206.841 356.196 206.953 356.433 C 206.953 356.59 206.735 357.137 206.295 358.072 L 206.126 358.072 C 206.126 356.855 205.964 356.246 205.637 356.246 C 205.637 356.01 205.801 355.892 206.126 355.892 L 206.126 354.607 C 206.126 353.821 206.183 352.609 206.295 350.975 L 205.957 350.975 C 205.957 351.247 205.908 351.489 205.805 351.702 L 205.957 352.074 C 205.674 352.119 205.453 352.418 205.299 352.97 L 205.466 353.713 C 205.466 353.826 205.412 353.881 205.299 353.881 C 205.299 354.332 205.355 354.636 205.466 354.794 C 205.355 354.794 205.192 355.221 204.978 356.079 C 205.09 356.28 205.147 356.523 205.147 356.803 L 205.147 356.974 L 204.809 357.53 L 204.978 357.885 L 204.809 357.885 C 204.809 358.291 204.864 358.595 204.978 358.798 C 204.905 359.496 204.744 360.041 204.488 360.437 L 204.642 360.808 L 204.488 360.808 C 204.488 361.776 204.262 362.261 203.813 362.261 L 203.813 362.447 L 203.983 363.527 C 203.432 364.621 203.155 365.775 203.155 366.992 L 202.835 366.992 C 202.835 366.867 202.888 366.805 203.002 366.805 C 203.002 366.502 202.946 366.017 202.835 365.353 L 203.155 364.812 L 203.002 364.44 C 203.216 364.44 203.323 364.136 203.323 363.527 L 203.155 363.173 C 203.269 363.173 203.437 362.87 203.66 362.261 C 203.548 362.046 203.491 361.804 203.491 361.534 C 203.491 361.377 203.6 360.707 203.813 359.524 L 203.813 358.984 L 203.66 357.885 L 203.813 357.53 L 203.66 356.617 L 203.983 355.706 C 203.871 355.493 203.813 355.25 203.813 354.98 L 204.15 354.44 L 203.813 354.44 L 204.318 350.435 L 204.15 350.064 C 204.905 348.544 205.896 347.513 207.122 346.972 L 207.122 346.602 C 207.122 346.32 206.626 346.078 205.637 345.874 C 204.616 346.583 203.844 347.558 203.323 348.798 L 203.323 349.152 L 203.66 349.152 L 203.66 349.338 L 203.323 349.338 L 203.491 349.709 C 203.491 350.227 203.381 350.712 203.155 351.162 L 203.323 351.517 C 203.139 352.824 202.922 353.611 202.664 353.881 L 202.835 354.253 C 202.722 354.253 202.664 354.315 202.664 354.44 L 202.664 354.607 L 202.835 354.607 L 202.835 356.617 C 202.835 356.98 202.941 357.159 203.155 357.159 C 202.982 357.431 202.819 357.976 202.664 358.798 C 202.664 361.591 202.446 362.987 202.007 362.987 L 202.007 363.343 L 202.328 363.343 C 202.328 363.467 202.277 363.527 202.175 363.527 L 202.328 364.44 C 202.214 364.44 202.053 364.502 201.838 364.626 C 201.95 365.46 202.062 366.005 202.175 366.265 C 201.962 366.389 201.791 366.45 201.668 366.45 L 201.668 368.258 C 201.455 368.258 201.348 368.501 201.348 368.985 L 201.18 368.985 C 200.964 368.985 200.802 368.562 200.689 367.718 C 200.905 366.94 201.066 365.849 201.18 364.44 C 201.066 364.227 201.009 363.984 201.009 363.714 C 201.009 362.858 201.123 362.189 201.348 361.704 C 201.236 361.479 201.18 361.298 201.18 361.164 C 200.821 361.164 200.546 362.621 200.353 365.539 C 200.464 365.539 200.52 365.594 200.52 365.707 C 199.643 372.521 198.652 376.586 197.549 377.905 C 197.346 376.811 197.125 376.265 196.891 376.265 C 195.037 368.77 191.86 362.254 189.378 357.162 C 188.17 354.681 187.125 352.537 186.48 350.786 C 185.817 349.905 185.483 349.36 185.483 349.145 L 185.161 349.145 L 185.161 349.331 L 185.315 349.704 C 185.03 349.331 184.59 349.145 183.999 349.145 L 183.999 348.977 L 184.334 348.977 L 184.334 348.605 C 183.455 348.605 183.017 348.363 183.017 347.878 L 182.555 347.897 C 181.88 348.504 181.385 348.808 181.069 348.808 C 181.069 348.222 180.738 347.675 180.073 347.17 C 179.745 347.35 179.582 347.529 179.582 347.711 C 179.461 347.711 179.292 347.649 179.078 347.524 C 178.893 347.524 178.788 347.649 178.755 347.897 L 178.924 348.251 C 178.812 348.251 178.755 348.313 178.755 348.437 L 178.419 348.251 L 178.266 348.251 C 178.071 348.251 177.96 348.375 177.93 348.622 L 177.93 348.808 L 178.266 350.076 C 179.327 350.076 180.538 353.898 181.894 361.546 L 181.727 361.546 C 181.84 362.717 182.003 363.625 182.217 364.265 L 182.049 364.265 C 182.049 364.671 182.105 364.975 182.217 365.178 L 182.049 366.091 C 182.161 367.149 182.217 367.757 182.217 367.914 C 182.105 368.772 182.049 369.256 182.049 369.367 C 182.274 370.337 182.388 371.457 182.388 372.729 C 182.388 373.811 182.274 375.601 182.049 378.102 C 182.049 380.501 182.492 382.139 183.381 383.018 L 183.381 382.645 L 183.212 382.275 C 183.325 382.275 183.381 382.218 183.381 382.105 L 183.381 381.919 L 183.044 381.919 L 183.044 381.735 C 183.157 381.735 183.32 381.672 183.536 381.548 C 184.086 382.686 184.362 383.66 184.362 384.471 C 185.465 384.674 186.016 385.157 186.016 385.924 L 186.183 385.924 C 186.183 385.553 186.235 385.13 186.338 384.657 L 186.675 384.657 C 186.675 385.861 187.006 386.464 187.67 386.464 L 189.477 385.737 C 189.365 384.87 189.308 384.387 189.308 384.285 C 189.308 383.924 189.421 383.744 189.647 383.744 L 189.477 382.832 L 189.477 381.548 L 189.308 381.194 L 189.477 381.194 C 189.477 380.99 189.421 380.263 189.308 379.013 L 188.987 379.183 C 189.202 378.215 189.308 377.613 189.308 377.376 L 189.308 376.277 L 189.157 375.906 C 189.258 375.906 189.308 375.816 189.308 375.635 C 189.308 374.442 189.258 373.383 189.157 372.459 C 189.222 372.016 189.438 372.075 189.8 372.633 C 191.534 377.195 192.908 379.802 193.92 380.455 C 194.797 381.03 195.237 381.575 195.237 382.094 C 196.114 382.916 196.553 383.4 196.553 383.548 C 196.666 383.548 196.721 383.484 196.721 383.362 C 196.998 383.608 197.273 383.733 197.549 383.733 Z M 240.743 385.605 C 240.702 385.365 240.427 385.258 239.924 385.284 C 239.973 385.543 239.517 385.806 238.559 386.078 C 238.109 385.501 237.584 385.112 236.985 384.91 C 236.959 384.761 236.781 384.633 236.452 384.528 L 236.317 384.558 L 236.376 384.887 C 235.544 384.217 235.114 383.81 235.087 383.66 C 233.12 380.584 232.005 378.314 231.745 376.846 C 231.365 375.251 230.954 373.776 230.505 372.422 L 230.599 372.075 L 229.783 369.238 L 229.932 369.204 L 229.726 368.909 L 229.207 366.005 L 228.788 364.433 L 228.19 364.564 C 228.236 364.822 228.137 365.398 227.892 366.29 L 228.19 366.227 C 228.117 367.497 228.105 368.28 228.159 368.58 C 228.249 368.56 228.305 368.604 228.324 368.714 C 228.007 368.783 227.947 369.578 228.143 371.1 L 228.436 371.877 C 228.387 372.487 228.267 372.959 228.083 373.289 C 228.101 373.398 228.162 373.444 228.261 373.422 C 228.334 375.001 228.313 376.01 228.194 376.45 C 228.321 376.631 228.394 376.781 228.416 376.9 C 228.124 377.584 227.953 379.181 227.902 381.688 C 227.804 382.828 227.706 383.409 227.606 383.431 L 227.172 383.525 C 226.958 384.805 226.625 385.492 226.173 385.59 C 225.952 385.192 225.769 385.009 225.625 385.041 L 225.326 385.105 L 224.619 385.415 C 224.535 384.935 224.04 384.712 223.134 384.741 L 223.139 383.902 C 223.044 383.364 222.8 383.135 222.411 383.219 L 222.239 382.248 C 222.143 381.718 221.853 381.508 221.366 381.614 C 220.932 379.18 220.995 374.98 221.558 369.015 C 221.538 368.904 221.479 368.862 221.38 368.882 L 221.377 367.205 L 221.705 367.305 L 221.533 366.332 C 221.865 366.26 221.975 365.735 221.856 364.755 L 221.656 363.633 C 221.882 363.584 221.959 363.178 221.89 362.417 L 221.638 361.788 C 221.671 361.449 221.738 361.269 221.837 361.246 C 221.816 361.137 221.758 361.093 221.658 361.115 C 221.601 360.206 221.615 359.424 221.706 358.773 C 221.569 358.585 221.492 358.432 221.468 358.312 C 221.64 358.171 221.776 358.09 221.877 358.068 C 221.729 357.822 221.538 357.303 221.305 356.515 C 221.431 356.486 221.568 356.121 221.714 355.414 C 221.578 355.228 221.499 355.079 221.479 354.968 L 221.628 354.936 L 221.422 354.639 C 221.523 351.779 221.415 348.622 221.102 345.167 C 221.415 344.882 221.786 344.693 222.21 344.6 L 222.644 344.506 C 222.745 344.485 222.805 344.528 222.824 344.639 L 223.094 344.409 C 224.178 344.859 224.797 345.506 224.947 346.353 L 225.216 346.125 L 225.65 346.031 L 225.68 346.196 L 225.6 346.538 L 227.052 346.224 L 228.838 346.847 L 229.031 347.132 L 228.596 347.226 L 228.625 347.39 C 229.025 348.476 229.625 349.573 230.424 350.685 C 231.684 352.638 232.533 354.852 232.975 357.327 L 233.377 359.587 C 233.676 359.521 234.266 361.123 235.147 364.391 L 235.293 365.2 C 235.313 365.309 235.273 365.376 235.172 365.396 L 235.378 365.68 C 235.466 366.178 235.417 367.028 235.226 368.23 C 235.739 368.844 236.077 369.604 236.239 370.511 L 236.297 370.84 L 236.581 370.78 C 236.78 370.736 236.9 369.984 236.94 368.527 L 237.09 368.495 L 236.883 368.196 L 236.797 367.718 C 237.194 366.834 237.293 364.244 237.09 359.947 C 237.26 359.424 237.378 358.399 237.443 356.872 C 237.895 354.659 238.347 353.22 238.802 352.552 L 238.952 352.52 L 239.011 352.849 L 238.917 353.195 L 239.244 353.295 L 239.393 353.264 L 239.365 353.098 L 239.067 353.163 L 239.16 352.817 L 239.13 352.651 C 239.11 352.542 239.05 352.497 238.952 352.52 C 239.017 352.307 239.029 352.083 238.986 351.844 L 239.271 351.782 L 239.277 352.619 C 239.595 352.551 239.861 351.769 240.074 350.272 L 240.044 350.106 L 240.358 350.21 L 240.329 350.046 C 240.23 350.068 240.169 350.022 240.149 349.913 C 240.304 349.88 240.484 349.732 240.69 349.47 C 240.709 349.569 240.763 349.61 240.853 349.59 C 241.311 348.154 241.828 347.373 242.408 347.248 L 242.557 347.216 L 242.672 347.86 L 241.643 349.761 L 241.329 349.657 L 240.882 349.754 L 240.911 349.92 L 241.494 349.793 L 241.553 350.123 C 240.984 350.878 240.711 351.326 240.736 351.465 C 240.41 353.059 240.03 356.6 239.6 362.091 L 239.629 362.256 L 239.763 362.227 C 240.149 361.118 240.347 359.677 240.362 357.902 L 240.84 355.451 L 241.001 355.416 C 241.021 354.968 241.107 354.726 241.263 354.693 L 241.41 354.661 C 241.458 354.929 241.607 355.178 241.854 355.404 L 241.889 355.609 C 241.956 355.565 242.016 355.538 242.066 355.528 L 242.095 355.693 C 241.947 356.553 241.836 357.634 241.757 358.936 L 241.907 358.904 C 242.132 358.855 242.272 357.932 242.329 356.139 C 242.917 356.012 243.278 354.928 243.414 352.889 L 243.713 352.824 C 243.752 353.054 243.681 353.794 243.501 355.045 C 243.746 354.993 243.929 355.176 244.049 355.595 L 244.045 356.436 C 244.201 356.733 244.331 356.872 244.43 356.849 L 244.511 359.847 C 244.57 360.175 244.744 360.308 245.035 360.246 L 245.061 360.395 C 245.13 364.223 245.011 368.657 244.696 373.699 C 244.372 375.573 243.742 378.277 242.803 381.817 C 242.081 383.983 241.67 385.076 241.57 385.098 L 240.743 385.605 Z M 241.268 356.198 L 241.188 355.74 C 241.239 355.74 241.292 355.745 241.344 355.753 L 241.419 356.166 L 241.268 356.198 Z M 241.234 354.262 L 241.382 354.23 C 241.326 353.911 241.393 353.732 241.583 353.69 L 241.494 353.196 L 241.358 353.225 C 241.419 353.554 241.298 353.752 240.999 353.817 C 241.136 354.005 241.214 354.153 241.234 354.262 Z M 200.991 360.855 L 201.16 360.855 C 201.16 360.36 201.103 359.875 200.991 359.402 L 201.16 358.491 L 201.16 358.322 L 200.839 358.322 C 200.839 358.649 200.726 359.009 200.501 359.402 L 200.669 359.774 C 200.558 359.774 200.501 359.837 200.501 359.961 L 200.501 360.315 C 200.676 360.675 200.839 360.855 200.991 360.855 Z M 268.22 356.451 C 268.454 356.394 268.674 356.09 268.879 355.538 C 268.775 355.324 268.725 355.082 268.725 354.812 C 268.981 354.812 269.475 353.78 270.211 351.72 L 270.042 351.348 L 270.042 351.162 C 270.645 350.408 270.972 349.378 271.022 348.071 L 270.363 348.071 L 270.363 348.442 L 270.7 348.442 C 269.046 352.306 268.22 354.975 268.22 356.451 Z M 238.476 374.922 C 238.476 375.512 238.377 376.088 238.178 376.65 C 238.007 376.687 237.888 376.603 237.823 376.4 L 237.68 375.591 L 237.829 375.559 L 238.477 372.404 C 238.458 372.295 238.38 372.145 238.243 371.957 C 238.397 371.924 238.571 371.773 238.768 371.503 L 238.797 371.665 L 238.598 372.207 L 238.657 372.536 L 238.942 372.474 L 238.857 371.994 L 239.005 371.964 L 239.175 372.92 C 238.899 374.214 238.666 374.88 238.476 374.922 Z M 272.866 366.487 C 273.428 366.487 275.246 366.002 278.319 365.034 L 278.319 364.848 C 278.319 364.588 277.547 361.982 276.005 357.026 L 276.005 356.857 C 275.486 357.612 274.934 358.946 274.352 360.862 C 274.106 362.539 273.668 364.171 273.034 365.76 L 272.866 365.76 L 272.866 366.487 Z M 287.63 375.506 L 287.63 375.692 C 287.304 375.692 286.808 374.294 286.144 371.503 C 286.582 371.503 286.803 371.931 286.803 372.786 L 287.139 372.786 L 287.462 372.6 C 287.462 372.724 287.519 372.786 287.63 372.786 L 287.462 373.699 C 287.573 374.757 287.63 375.36 287.63 375.506 Z M 239.042 367.991 C 238.969 367.582 239.107 366.94 239.459 366.067 C 239.526 365.866 239.529 365.584 239.464 365.227 L 239.408 364.911 L 239.259 364.945 C 239.132 364.972 238.976 365.782 238.791 367.377 L 238.343 367.475 L 238.458 368.117 L 238.608 368.085 L 238.682 368.025 C 238.677 368.376 238.565 369.132 238.343 370.291 L 238.368 371.296 L 238.395 371.446 L 238.543 371.414 C 238.763 369.221 238.866 368.085 238.852 368.005 L 238.834 367.906 L 238.879 367.871 C 238.897 367.97 238.952 368.01 239.042 367.991 Z" fill="#1D1D1F" style=""/>
  <path fill-rule="evenodd" clip-rule="evenodd" d="M 321.597 386.093 L 318.276 385.727 L 317.954 385.91 C 316.6 385.546 315.605 385.009 314.971 384.303 C 313.534 383.033 312.817 382.083 312.817 381.453 C 312.817 381.344 312.705 380.862 312.478 380.012 L 312.478 379.847 L 312.646 379.481 C 312.504 379.481 312.177 379.007 311.663 378.057 L 311.663 377.527 C 311.663 377.405 312.047 377.046 312.817 376.45 L 312.646 375.556 C 314.586 374.009 315.914 373.236 316.631 373.236 L 316.631 373.419 C 316.631 373.893 316.242 374.843 315.462 376.267 L 315.462 376.45 C 315.697 376.45 316.307 376.626 317.292 376.98 L 320.105 376.631 L 320.105 376.814 C 320.846 376.693 321.563 376.51 322.26 376.267 L 323.413 376.45 C 325.011 376.175 327.001 375.103 329.38 373.236 C 330.056 372.628 330.718 371.679 331.363 370.387 C 331.917 369.756 332.193 369.159 332.193 368.597 C 326.053 367.173 322.74 366.277 322.26 365.913 C 322.26 366.154 322.146 366.277 321.921 366.277 C 318.036 365.272 315.775 364.322 315.139 363.428 C 314.667 363.428 313.837 362.831 312.646 361.638 C 312.361 361.605 311.755 360.831 310.833 359.318 C 310.567 359.318 310.29 358.905 310.003 358.075 C 309.561 358.075 309.342 357.479 309.342 356.287 C 309.342 354.299 309.889 352.571 310.986 351.101 C 311.653 349.887 312.428 348.877 313.308 348.07 C 313.832 347.506 314.164 346.915 314.309 346.296 C 315.999 344.983 316.995 344.325 317.292 344.325 C 319.784 344.6 321.604 345.075 322.752 345.75 C 325.295 347.207 326.566 348.578 326.566 349.858 L 326.566 351.284 L 326.226 351.284 L 326.226 351.465 L 326.397 351.831 L 325.565 351.997 C 325.207 351.997 324.381 351.522 323.088 350.571 C 321.182 351.41 320.025 352.007 319.614 352.361 C 319.523 352.925 318.803 353.636 317.46 354.497 C 317.46 354.696 316.908 355.294 315.8 356.287 C 315.135 357.369 314.8 358.021 314.8 358.243 C 317.016 359.313 320.66 360.385 325.735 361.457 C 330.329 362.65 333.142 363.843 334.178 365.035 C 337.5 366.814 339.16 368.178 339.16 369.127 L 338.823 369.127 C 338.823 368.817 338.217 368.226 337.008 367.354 L 336.668 367.354 L 336.668 367.52 C 337.172 368.978 337.945 369.932 338.991 370.387 C 338.991 370.541 339.269 371.077 339.822 371.993 C 339.597 372.026 339.483 372.142 339.483 372.342 L 339.651 373.949 C 339.651 374.855 338.991 375.566 337.669 376.086 C 337.669 376.472 337.172 377.069 336.177 377.874 C 336.177 378.472 335.29 379.305 333.518 380.377 C 333.518 380.607 332.799 381.322 331.363 382.515 C 331.036 382.657 330.871 382.84 330.871 383.06 L 330.702 383.06 L 330.379 382.879 C 330.379 383.739 329.327 384.575 327.227 385.38 C 327.227 385.016 327.114 384.833 326.888 384.833 C 326.529 385.373 325.925 385.734 325.074 385.91 L 324.074 385.727 L 323.751 385.727 C 323.505 385.727 323.285 385.788 323.088 385.91 L 322.752 385.727 C 322.556 385.85 322.337 385.91 322.091 385.91 L 321.767 385.727 L 321.597 386.093 Z M 353.571 384.122 L 353.232 384.122 C 352.094 384.122 351.321 383.944 350.91 383.592 L 350.249 383.773 C 350.074 383.773 349.745 383.536 349.265 383.06 L 348.926 383.226 C 348.157 383.038 347.44 382.325 346.774 381.089 L 346.436 381.272 L 346.112 381.272 C 343.795 379.216 342.637 377.847 342.637 377.163 C 340.761 372.987 339.822 368.226 339.822 362.881 C 339.74 362.881 339.572 361.158 339.315 357.713 L 339.483 357.713 C 339.258 357.104 339.145 356.691 339.145 356.47 C 339.228 355.752 339.34 355.392 339.483 355.392 L 338.483 350.224 C 338.688 350.224 338.859 349.687 338.991 348.617 C 339.433 348.617 339.651 348.494 339.651 348.253 L 339.651 348.07 L 339.822 348.07 L 340.314 348.434 C 340.551 348.434 340.879 348.075 341.298 347.357 C 341.422 347.357 341.59 347.296 341.806 347.175 L 341.806 347.54 L 342.637 347.357 C 342.637 347.722 342.687 347.904 342.789 347.904 C 342.944 347.783 343.22 347.722 343.62 347.722 C 343.62 347.998 343.953 348.174 344.62 348.253 L 344.62 348.434 L 344.452 348.783 C 344.677 348.783 344.789 348.903 344.789 349.147 L 344.944 349.147 C 345.055 349.147 345.501 349.024 346.282 348.783 L 346.774 348.783 L 346.774 350.041 L 346.436 350.571 L 346.942 350.935 L 346.436 353.604 C 346.476 353.846 346.588 353.968 346.774 353.968 C 346.66 355.359 346.603 356.371 346.603 357 L 346.603 357.181 L 346.774 358.954 L 346.603 358.954 L 346.774 359.318 L 346.774 359.501 C 346.774 361.412 346.938 364.858 347.265 369.839 L 347.096 369.839 C 347.21 370.115 347.435 371.072 347.773 372.706 L 347.603 373.601 C 347.819 373.987 347.927 374.34 347.927 374.66 L 347.773 375.026 C 348.316 375.026 348.589 375.621 348.589 376.814 C 348.772 376.814 348.997 377.168 349.265 377.874 C 349.808 377.874 351.131 376.45 353.232 373.601 C 354.453 371.38 355.668 367.569 356.877 362.168 L 356.877 359.667 L 356.709 358.424 L 356.877 358.424 L 356.709 358.075 C 356.709 357.8 356.764 357.557 356.877 357.347 C 356.55 352.686 356.386 349.892 356.386 348.964 C 356.784 348.39 357.283 347.914 357.878 347.54 L 357.878 347.009 L 358.2 347.009 L 358.2 347.357 L 358.691 347.357 C 359.257 346.528 359.753 346.114 360.183 346.114 L 360.353 346.462 L 360.692 346.296 L 361.015 346.296 L 361.015 346.827 L 361.183 346.827 L 362.014 346.645 L 363.014 347.357 L 363.014 347.904 L 363.675 347.904 L 363.675 347.54 C 363.891 347.66 364.054 347.722 364.167 347.722 C 364.382 347.6 364.547 347.54 364.661 347.54 C 365.437 348.313 365.826 349.262 365.826 350.388 C 365.714 350.388 365.658 350.449 365.658 350.571 C 365.873 350.615 365.981 350.737 365.981 350.935 C 365.654 351.212 365.489 351.626 365.489 352.178 L 365.321 352.178 L 364.997 351.101 C 364.771 351.145 364.661 351.267 364.661 351.465 L 364.661 353.968 C 364.661 355.094 364.602 356.463 364.49 358.075 L 364.661 358.954 C 363.973 363.769 363.313 366.985 362.675 368.597 C 362.561 368.597 362.506 368.657 362.506 368.78 L 362.506 370.387 L 362.675 372.159 C 362.233 372.159 362.014 372.64 362.014 373.601 L 361.844 373.601 C 361.844 373.987 362.065 375.296 362.506 377.527 L 362.335 377.527 L 362.506 377.874 L 362.506 378.77 C 362.506 379.035 362.449 379.272 362.335 379.481 C 362.449 379.715 362.506 379.891 362.506 380.012 C 362.26 380.012 361.983 379.421 361.674 378.24 L 361.521 378.24 C 361.521 378.349 361.465 378.404 361.352 378.404 C 361.568 379.664 361.844 380.918 362.184 382.166 C 362.07 382.399 362.014 382.575 362.014 382.696 C 361.84 382.696 361.455 381.448 360.861 378.951 L 360.692 378.951 L 360.521 379.3 L 360.521 379.481 L 360.861 379.481 L 360.861 380.559 L 361.183 380.559 C 361.183 380.681 361.126 380.741 361.015 380.741 L 361.183 381.089 L 361.183 381.619 L 360.861 381.453 C 360.861 381.563 360.805 381.619 360.692 381.619 C 360.353 380.912 359.963 379.604 359.523 377.693 L 359.201 377.693 C 359.046 377.693 358.825 378.228 358.539 379.3 C 358.323 379.3 357.768 379.956 356.877 381.272 L 357.047 381.619 C 356.75 382.016 355.976 382.375 354.724 382.696 C 353.956 383.382 353.571 383.857 353.571 384.122 Z M 363.337 386.987 L 362.845 386.987 C 362.731 386.115 362.617 385.578 362.506 385.38 C 362.617 385.182 362.675 384.883 362.675 384.486 L 363.014 384.486 L 363.014 385.197 L 362.845 385.546 C 363.06 385.667 363.223 385.727 363.337 385.727 L 363.337 385.91 L 363.014 386.44 C 363.228 386.484 363.337 386.606 363.337 386.804 L 363.337 386.987 Z M 402.152 390.696 L 401.491 390.349 C 401.275 390.46 401.106 390.515 400.984 390.515 L 400.323 390.349 C 400.108 390.46 399.943 390.515 399.831 390.515 C 399.831 390.207 399.442 389.968 398.662 389.802 C 398.416 389.106 397.974 388.515 397.339 388.029 C 396.682 386.749 396.186 384.966 395.849 382.679 L 396.016 382.313 C 395.904 382.082 395.849 381.906 395.849 381.783 L 396.016 381.783 C 395.822 381.397 395.6 379.73 395.354 376.781 L 395.524 376.781 C 395.319 376.062 394.766 370.473 393.863 360.014 C 393.749 360.014 393.587 359.058 393.371 357.147 C 393.371 357.026 393.428 356.849 393.54 356.617 C 393.54 355.381 392.874 354.01 391.541 352.509 C 391.541 352.43 391.265 351.598 390.711 350.006 C 390.834 349.476 391.223 349.063 391.88 348.764 L 392.049 348.764 L 392.049 349.111 C 392.827 348.88 393.268 348.764 393.371 348.764 L 393.54 348.764 L 393.54 349.841 L 393.863 349.841 L 393.695 350.189 L 393.695 350.371 C 393.92 350.371 394.032 350.432 394.032 350.554 L 395.354 349.658 L 395.524 349.658 L 395.524 349.841 C 395.412 350.061 395.354 350.239 395.354 350.371 C 395.468 350.371 395.524 350.432 395.524 350.554 C 395.739 350.432 395.904 350.371 396.016 350.371 C 396.98 350.438 397.974 351.388 399 353.222 C 399 354.005 399.384 355.198 400.155 356.8 C 400.933 364.432 401.324 368.595 401.324 369.292 L 401.491 369.292 C 404.002 368.928 405.879 368.745 407.12 368.745 L 407.781 368.745 C 408.775 368.745 409.274 368.094 409.274 366.79 L 409.442 366.79 L 409.274 366.425 L 409.274 366.26 C 409.827 366.26 410.38 362.687 410.935 355.54 C 410.709 355.54 410.595 355.424 410.595 355.193 L 410.595 354.116 C 411.192 354.116 411.631 353.938 411.917 353.586 L 412.257 353.586 L 412.411 354.48 C 412.307 354.48 412.257 354.535 412.257 354.646 L 412.579 354.827 C 412.579 354.706 412.638 354.646 412.749 354.646 L 412.579 354.297 L 412.579 354.116 C 413.307 354.116 413.748 353.757 413.902 353.039 L 414.241 353.039 C 414.241 353.171 414.297 353.354 414.409 353.586 L 414.733 353.405 L 414.9 353.405 C 414.9 353.8 414.957 354.099 415.071 354.297 L 415.395 354.116 C 415.621 354.149 415.732 354.27 415.732 354.48 L 415.732 354.646 L 415.395 354.646 L 415.395 354.827 L 415.902 354.827 L 416.055 354.48 C 415.953 354.247 415.902 354.067 415.902 353.933 L 416.224 353.933 C 416.891 354.562 417.224 355.099 417.224 355.54 L 417.716 355.54 L 418.054 355.357 L 417.887 355.01 C 417.916 354.767 418.025 354.646 418.208 354.646 C 419.028 354.646 419.475 354.827 419.546 355.193 L 419.546 355.54 C 419.546 355.783 419.378 355.904 419.039 355.904 C 419.48 357.142 419.701 357.916 419.701 358.224 C 419.156 360.588 418.885 363.559 418.885 367.138 L 419.207 367.32 C 419.207 367.198 419.264 367.138 419.378 367.138 C 419.378 367.381 419.433 367.502 419.546 367.502 L 420.209 367.138 L 420.209 367.32 C 420.209 367.674 419.766 367.911 418.885 368.032 L 418.885 369.109 L 420.038 369.109 L 422.192 368.579 C 422.192 368.691 422.249 368.745 422.361 368.745 C 422.361 368.513 422.803 368.337 423.683 368.215 L 423.683 368.397 C 423.683 368.552 422.966 368.966 421.531 369.639 C 421.531 370.114 420.537 370.65 418.547 371.246 L 418.547 371.61 L 419.378 371.429 C 419.49 371.429 419.546 371.489 419.546 371.61 C 419.761 371.489 419.926 371.429 420.038 371.429 L 420.376 371.429 L 420.376 371.61 C 419.043 371.788 418.378 372.024 418.378 372.323 C 418.378 372.677 418.32 372.853 418.208 372.853 L 418.378 373.217 C 418.162 374.224 418.054 374.814 418.054 374.99 L 418.208 376.068 C 418.208 377.161 417.879 379.894 417.224 384.269 L 416.886 384.269 L 416.886 383.922 L 416.732 383.922 L 416.732 386.241 L 416.224 386.241 L 415.563 385.711 C 415.563 385.908 415.286 386.445 414.733 387.318 C 414.733 388.588 414.405 389.301 413.748 389.455 C 413.748 389.809 413.196 389.985 412.087 389.985 L 411.917 389.985 C 411.917 389.631 411.754 389.455 411.426 389.455 L 411.257 389.455 L 411.257 388.029 C 411.257 387.754 411.2 387.516 411.089 387.318 C 411.089 387.195 411.144 387.135 411.257 387.135 C 411.257 386.892 411.2 386.771 411.089 386.771 C 411.343 382.253 411.565 379.995 411.75 379.995 L 411.595 379.629 C 411.811 378.812 411.917 378.101 411.917 377.494 L 411.917 376.068 L 412.087 375.173 C 411.821 374.942 411.601 374.826 411.426 374.826 C 409.795 375.178 408.689 375.472 408.103 375.703 L 408.103 376.781 C 407.817 376.781 407.433 377.436 406.95 378.752 L 405.46 382.313 C 405.243 382.434 405.08 382.496 404.968 382.496 L 404.968 383.922 C 404.968 384.207 404.69 384.744 404.137 385.528 C 404.137 386.234 404.024 386.588 403.798 386.588 L 403.967 386.952 C 403.084 387.969 402.644 388.566 402.644 388.742 L 402.644 389.636 L 402.815 389.985 C 402.445 389.985 402.224 390.222 402.152 390.696 Z M 410.103 367.143 C 410.626 365.342 411.011 364.388 411.257 364.277 C 411.144 363.802 410.981 363.388 410.765 363.034 L 411.089 362.504 L 410.935 362.504 C 410.749 362.504 410.524 362.918 410.258 363.747 L 410.426 364.641 C 410.376 365.116 410.21 365.354 409.935 365.354 L 409.935 365.535 L 410.103 365.884 L 409.766 365.884 L 409.766 366.779 C 409.806 367.022 409.919 367.143 410.103 367.143 Z M 414.241 381.773 C 414.507 381.773 414.67 381.176 414.733 379.983 C 414.631 379.752 414.579 379.575 414.579 379.453 L 414.9 379.453 L 414.9 378.742 C 414.9 378.497 414.794 378.376 414.579 378.376 L 414.733 377.482 L 414.733 375.709 C 414.733 375.588 414.79 375.526 414.9 375.526 L 414.733 375.162 C 414.733 375.041 414.79 374.863 414.9 374.631 L 414.579 373.024 C 414.682 373.024 414.733 372.964 414.733 372.843 L 414.409 372.843 L 414.409 374.101 C 414.409 374.366 414.354 374.605 414.241 374.814 C 414.241 374.935 414.297 374.996 414.409 374.996 L 414.241 375.875 L 414.241 376.239 L 414.409 377.482 L 414.241 377.482 L 414.409 377.846 L 414.409 378.193 C 414.409 378.436 414.297 378.559 414.072 378.559 C 414.297 378.945 414.409 379.304 414.409 379.634 L 414.409 380.513 L 414.241 381.773 Z M 413.086 383.38 C 413.303 382.484 413.409 381.949 413.409 381.773 C 413.409 381.651 413.352 381.59 413.241 381.59 L 413.409 380.696 L 413.409 378.742 L 413.241 376.586 L 413.409 376.586 L 413.241 376.239 L 413.241 374.996 C 413.241 374.875 413.298 374.814 413.409 374.814 C 413.298 374.658 413.241 374.239 413.241 373.554 C 413.027 373.6 412.918 373.721 412.918 373.92 L 412.918 375.162 C 412.918 375.846 412.86 376.267 412.749 376.421 C 412.86 377.062 412.918 377.598 412.918 378.029 L 412.918 383.38 L 413.086 383.38 Z M 405.629 378.906 C 405.629 378.52 406.014 377.691 406.781 376.421 L 407.612 374.631 L 407.612 374.267 L 407.443 374.267 C 406.808 375.029 406.31 375.985 405.951 377.134 C 405.879 377.134 405.659 377.431 405.289 378.029 L 405.289 378.906 L 405.629 378.906 Z M 401.815 381.773 C 402.472 380.998 403.686 379.034 405.46 375.875 C 405.46 375.764 405.515 375.709 405.629 375.709 L 405.629 376.239 L 405.951 376.239 C 405.951 375.742 406.064 375.145 406.289 374.449 L 406.121 374.449 L 406.121 374.631 C 406.007 374.631 405.951 374.571 405.951 374.449 C 404.137 375.167 403.091 375.526 402.815 375.526 C 402.065 375.173 401.626 374.996 401.491 374.996 L 401.491 375.526 C 401.491 375.791 401.542 376.029 401.646 376.239 C 401.646 376.359 401.593 376.421 401.491 376.421 C 401.593 376.962 401.701 378.747 401.815 381.773 Z M 427.965 389.478 L 426.979 389.478 C 426.979 389.247 426.646 389.009 425.98 388.765 C 424.318 386.866 423.488 381.929 423.488 373.954 C 423.385 373.954 423.335 373.717 423.335 373.242 C 423.335 373.12 423.385 373.06 423.488 373.06 L 423.335 372.165 L 423.335 370.557 C 423.335 370.447 423.385 370.392 423.488 370.392 C 423.385 370.161 423.335 369.978 423.335 369.845 L 423.488 365.571 L 423.658 365.571 C 423.658 365.45 423.602 365.388 423.488 365.388 C 423.631 363.776 423.745 362.826 423.826 362.539 C 423.826 362.417 423.77 362.356 423.658 362.356 C 423.658 362.236 423.714 362.058 423.826 361.826 C 423.94 358.823 423.996 356.443 423.996 354.686 C 423.996 352.742 423.774 350.239 423.335 347.181 C 423.817 346.231 424.314 345.755 424.827 345.755 C 425.462 345.755 425.847 346.053 425.98 346.65 C 426.79 346.85 427.509 347.446 428.132 348.44 C 428.132 348.759 428.246 349.113 428.472 349.501 L 428.793 349.335 L 428.963 349.335 C 429.178 350.959 429.287 351.848 429.287 352.002 L 429.624 352.002 L 429.624 351.653 C 430.096 351.653 430.374 352.482 430.455 354.139 C 430.61 354.139 430.829 354.973 431.117 356.641 C 431.229 356.641 431.286 356.701 431.286 356.822 C 431.286 356.944 431.229 357.005 431.117 357.005 L 431.61 360.749 C 431.496 361.39 431.439 361.925 431.439 362.356 L 431.439 364.311 C 431.439 364.588 431.388 364.831 431.286 365.041 C 431.388 365.262 431.439 365.438 431.439 365.571 C 431.04 369.966 430.713 372.165 430.455 372.165 L 430.624 373.424 L 430.624 376.638 C 430.624 376.903 430.567 377.14 430.455 377.349 C 430.567 377.561 430.624 377.797 430.624 378.062 L 430.624 378.245 C 430.624 378.477 430.512 378.592 430.286 378.592 C 430.286 378.472 430.231 378.411 430.117 378.411 L 430.117 378.592 L 430.455 379.122 L 430.455 379.488 L 429.795 385.204 L 428.963 386.628 C 428.595 386.628 428.261 386.804 427.965 387.158 C 427.965 387.281 428.02 387.341 428.132 387.341 L 427.965 389.131 L 427.965 389.478 Z M 374.518 352.854 C 376.053 352.239 377.494 351.725 378.842 351.313 L 378.988 351.313 L 378.988 351.613 C 378.507 351.643 378.267 351.749 378.267 351.932 C 377.401 351.989 376.968 352.197 376.968 352.551 L 376.539 352.551 C 376.218 352.551 375.885 352.705 375.536 353.012 L 374.518 353.012 L 374.518 352.854 Z M 390.984 376.427 L 391.132 376.427 C 391.132 376.207 390.99 375.893 390.705 375.49 L 390.705 375.029 L 390.839 374.712 L 389.98 373.155 C 388.394 371.426 386.565 369.874 384.495 368.5 C 382.49 367.221 381.482 366.495 381.471 366.322 C 380.679 365.956 378.565 364.564 375.13 362.142 C 373.249 360.999 371.953 359.806 371.249 358.567 C 371.294 358.154 371.437 357.948 371.676 357.948 C 371.676 357.256 374.616 356.136 377.115 355.03 C 378.56 354.607 379.282 354.247 379.282 353.948 C 381.772 353.056 383.163 352.483 383.458 352.234 C 384.903 351.888 385.625 351.628 385.625 351.455 C 385.839 351.455 386.031 351.821 386.199 352.551 L 386.054 352.854 C 386.054 353.066 386.194 353.17 386.481 353.17 L 386.481 353.329 C 386.194 353.329 386.054 353.483 386.054 353.79 C 386.151 354.309 386.441 354.981 386.923 355.809 L 387.351 355.809 L 387.203 355.491 L 387.633 355.491 C 388.051 354.146 388.391 353.473 388.649 353.473 L 388.649 353.17 C 388.649 352.661 388.791 352.143 389.077 351.613 C 388.98 351.432 388.929 351.224 388.929 350.994 C 388.885 350.638 388.119 349.965 386.628 348.977 L 384.179 348.199 L 384.034 348.199 C 383.373 348.199 382.655 348.357 381.88 348.674 C 379.175 349.288 377.446 349.908 376.686 350.534 L 376.392 350.375 L 376.112 350.375 C 375.62 350.787 374.996 351.047 374.239 351.153 L 369.194 353.633 C 367.116 354.785 365.96 355.978 365.728 357.206 C 365.728 357.36 365.969 358.033 366.452 359.224 L 366.303 359.543 C 366.303 359.628 366.497 360.09 366.878 360.925 C 366.878 361.204 367.12 361.517 367.603 361.863 C 367.603 362.162 368.034 362.781 368.898 363.722 C 369.979 364.423 370.794 365.098 371.348 365.74 C 372.311 365.923 372.794 366.183 372.794 366.518 C 374.685 367.634 375.742 368.359 375.964 368.696 C 378.399 370.147 380.897 371.852 383.458 373.813 C 385.089 374.715 385.907 375.341 385.907 375.687 C 384.915 376.541 381.986 377.215 377.115 377.705 C 377.115 377.599 377.066 377.546 376.968 377.546 C 376.799 377.651 376.607 377.705 376.392 377.705 L 370.773 377.705 C 369.238 377.705 368.471 378.324 368.471 379.564 L 368.471 380.025 C 368.837 380.025 369.078 380.391 369.194 381.121 L 370.049 381.741 C 370.461 382.048 370.75 382.203 370.92 382.203 C 371.463 382.615 371.848 382.822 372.069 382.822 C 372.069 383.35 372.985 383.716 374.814 383.917 L 374.814 384.061 L 374.666 384.378 C 375.451 384.378 375.933 384.479 376.112 384.68 L 376.539 384.68 L 377.41 384.536 L 377.689 384.68 C 379.074 384.556 380.271 384.404 381.289 384.221 C 381.289 384.326 381.34 384.378 381.438 384.378 C 383.338 384.129 385.259 383.61 387.203 382.822 C 387.82 382.669 388.35 381.995 388.796 380.803 L 389.799 380.803 L 390.093 379.723 L 390.093 379.247 C 390.093 379.007 391.281 377.109 390.984 376.427 Z" fill="#1D1D1F" style=""/>
</svg>