<?xml version="1.0" encoding="utf-8"?>
<svg id="svg2" viewBox="74.951 289.532 355.052 154.201" xmlns="http://www.w3.org/2000/svg">
  <desc>Source: openclipart.org/detail/209545</desc>
  <defs/>
  <path d="M 403.031 315.25 L 403.031 418.265 L 101.579 418.265 L 101.579 315.25 L 403.031 315.25" style="stroke-miterlimit: 1; stroke-linejoin: round; stroke-linecap: round; paint-order: fill; fill-rule: nonzero; stroke-width: 50px; stroke: rgb(255, 255, 255); fill: rgb(255, 255, 255);"/>
  <path fill-rule="evenodd" clip-rule="evenodd" d="M 157.012 353.849 C 156.165 351.44 155.225 348.764 151.304 350.403 L 151.304 337.404 C 151.304 330.691 141.994 325.833 130.653 325.833 C 119.31 325.833 110 330.691 110 337.404 L 110 394.79 C 110 401.502 119.31 406.359 130.653 406.359 C 141.994 406.359 151.304 401.502 151.304 394.79 L 151.304 360.157 C 154.802 360.718 155.556 364.061 154.904 367.519 L 158.502 368.213 C 159.311 361.872 157.537 357.654 151.304 357.324 L 151.304 354.68 C 153.699 353.277 155.163 355.571 156.664 357.921 C 157.895 359.847 159.151 361.813 160.966 361.813 C 163.619 361.813 165.703 360.194 167.219 356.955 L 163.997 351.631 C 163.366 355.18 161.85 356.955 159.45 356.955 C 158.102 356.955 157.578 355.462 157.012 353.849 Z M 136.157 369.01 C 134.322 368.466 132.434 367.908 130.575 367.908 C 128.688 367.908 126.781 368.478 124.933 369.032 C 120.106 370.475 115.682 371.797 113.052 362.538 C 109.844 351.244 117.167 353.734 123.843 356.002 C 126.434 356.882 128.928 357.73 130.67 357.726 C 132.346 357.723 134.751 356.929 137.266 356.099 C 143.885 353.915 151.265 351.479 148.1 362.538 C 145.46 371.763 140.986 370.439 136.157 369.01 Z M 121.359 360.639 C 120.546 360.186 119.74 359.77 118.982 359.468 C 118.875 361.103 119.455 362.625 120.749 364.106 C 121.879 365.4 122.945 365.551 124.086 364.433 C 124.462 363.928 124.788 363.36 125.064 362.727 C 124.6 362.491 124.116 362.221 123.622 361.939 C 123.634 362.036 123.641 362.135 123.641 362.236 C 123.641 363.259 122.962 364.088 122.126 364.088 C 121.289 364.088 120.61 363.259 120.61 362.236 C 120.61 361.556 120.911 360.961 121.359 360.639 Z M 114.548 361.08 C 115.037 359.288 116.121 358.818 117.493 359.035 C 117.262 361.34 118.013 363.509 119.713 365.457 C 120.203 366.019 120.7 366.43 121.196 366.693 C 120.401 367.027 119.511 367.238 118.526 367.327 C 122.377 368.21 125.139 366.92 126.811 363.462 C 128.417 363.934 129.516 363.472 129.516 360.848 C 128.955 363.58 126.409 361.704 123.566 359.61 C 119.665 356.737 115.205 353.452 114.548 361.08 Z M 137.671 361.902 C 137.172 362.214 136.684 362.508 136.212 362.752 C 136.489 363.392 136.816 363.964 137.196 364.472 C 138.337 365.589 139.402 365.438 140.532 364.145 C 141.887 362.593 142.46 360.998 142.282 359.275 C 141.464 359.572 140.611 360.048 139.757 360.575 C 140.295 360.858 140.672 361.513 140.672 362.274 C 140.672 363.296 139.993 364.125 139.155 364.125 C 138.319 364.125 137.64 363.296 137.64 362.274 C 137.64 362.147 137.651 362.023 137.671 361.902 Z M 132.13 362.274 C 132.703 363.299 133.498 363.574 134.431 363.417 C 136.1 366.938 138.874 368.253 142.755 367.366 C 141.77 367.275 140.88 367.064 140.085 366.732 C 140.583 366.467 141.079 366.056 141.569 365.495 C 143.298 363.516 144.046 361.306 143.776 358.958 C 144.933 358.926 145.959 359.495 146.735 361.117 C 145.998 352.829 141.778 356.185 137.842 359.317 C 135.624 361.082 133.496 362.774 132.13 362.274 Z M 131.373 358.803 C 131.373 360.093 131.941 361.117 132.888 361.348 C 131.941 361.58 130.804 360.655 131.373 358.803 Z M 148.652 337.404 C 148.652 341.937 140.655 346.196 130.653 346.196 C 120.648 346.196 112.653 341.937 112.653 337.404 C 112.653 332.871 120.648 328.611 130.653 328.611 C 140.655 328.611 148.652 332.871 148.652 337.404 Z" fill="#1D1D1F" style=""/>
  <ellipse cx="130.653" cy="337.404" rx="8.904" ry="4.629" fill="#FF6633" style=""/>
  <path fill-rule="evenodd" clip-rule="evenodd" d="M 205.669 379.524 L 204.8 379.524 C 204.8 379.287 204.506 379.046 203.918 378.797 C 202.451 376.86 201.717 371.825 201.717 363.694 C 201.626 363.694 201.582 363.452 201.582 362.967 C 201.582 362.845 201.626 362.783 201.717 362.783 L 201.582 361.87 L 201.582 360.231 C 201.582 360.119 201.626 360.062 201.717 360.062 C 201.626 359.825 201.582 359.64 201.582 359.505 L 201.717 355.146 L 201.866 355.146 C 201.866 355.022 201.818 354.96 201.717 354.96 C 201.844 353.316 201.944 352.348 202.017 352.054 C 202.017 351.93 201.967 351.868 201.866 351.868 C 201.866 351.744 201.917 351.564 202.017 351.328 C 202.116 348.265 202.166 345.839 202.166 344.047 C 202.166 342.066 201.971 339.514 201.582 336.394 C 202.007 335.426 202.446 334.941 202.898 334.941 C 203.46 334.941 203.799 335.246 203.918 335.853 C 204.633 336.056 205.266 336.665 205.82 337.679 C 205.82 338.004 205.919 338.365 206.118 338.759 L 206.403 338.59 L 206.552 338.59 C 206.743 340.245 206.838 341.153 206.838 341.311 L 207.136 341.311 L 207.136 340.955 C 207.553 340.955 207.797 341.801 207.87 343.49 C 208.005 343.49 208.2 344.341 208.454 346.04 C 208.553 346.04 208.603 346.102 208.603 346.226 C 208.603 346.35 208.553 346.412 208.454 346.412 L 208.888 350.231 C 208.789 350.883 208.739 351.429 208.739 351.868 L 208.739 353.861 C 208.739 354.143 208.694 354.391 208.603 354.606 C 208.694 354.831 208.739 355.01 208.739 355.146 C 208.386 359.629 208.096 361.87 207.87 361.87 L 208.019 363.153 L 208.019 366.43 C 208.019 366.7 207.969 366.943 207.87 367.156 C 207.969 367.371 208.019 367.613 208.019 367.884 L 208.019 368.069 C 208.019 368.307 207.92 368.425 207.721 368.425 C 207.721 368.3 207.67 368.238 207.571 368.238 L 207.571 368.425 L 207.87 368.965 L 207.87 369.337 L 207.286 375.165 L 206.552 376.618 C 206.227 376.618 205.933 376.798 205.669 377.158 C 205.669 377.281 205.719 377.344 205.82 377.344 L 205.669 379.17 L 205.669 379.524 Z M 215.719 385.961 C 220.388 388.033 223.598 389.125 225.349 389.237 C 225.349 389.237 230.272 390.583 232.559 388.957 C 236.679 386.028 235.623 366.175 235.623 366.175 L 235.944 360.498 C 235.99 356.502 235.684 352.22 235.027 347.656 L 234.962 347.444 C 234.568 346.171 233.452 342.574 233.578 341.796 C 233.79 341.229 233.98 340.965 234.148 341.007 L 234.575 341.113 C 234.612 340.881 234.681 340.777 234.778 340.802 L 235.496 340.984 L 235.527 340.801 L 236.496 341.232 L 236.469 341.398 C 236.184 341.326 236.024 341.411 235.984 341.656 L 236.306 341.547 L 236.439 341.579 L 236.41 341.762 L 236.044 342.223 C 236.015 342.4 236.128 342.611 236.385 342.859 L 236.678 342.933 C 236.73 342.611 236.909 342.41 237.219 342.327 L 237.246 342.161 L 237.819 342.304 C 237.788 342.492 238.313 343.238 239.396 344.542 C 240.249 345.837 241.041 347.704 241.772 350.152 C 242.477 353.786 242.763 356.022 242.628 356.862 L 242.48 356.824 C 242.652 358.844 242.767 361.221 242.824 363.959 C 242.688 364.167 242.61 364.336 242.589 364.469 C 242.882 364.541 242.959 365.611 242.818 367.68 L 242.615 367.99 L 242.436 372.786 C 242.106 373.623 241.928 374.13 241.899 374.306 L 241.871 375.42 L 242.004 375.454 L 242.327 375.345 L 242.268 375.709 L 242.066 376.021 C 242.163 376.044 242.203 376.118 242.183 376.239 C 242.085 376.215 242.026 376.262 242.007 376.385 L 242.294 376.457 C 243.53 374.274 244.424 372.515 244.975 371.179 C 244.975 370.919 245.269 370.498 245.858 369.913 L 248.044 363.915 C 247.944 363.848 247.895 363.42 247.895 362.632 C 248.583 360.818 249.022 359.912 249.212 359.912 C 249.927 357.975 251.1 353.846 252.73 347.528 L 254.046 343.711 C 253.947 343.473 253.897 343.294 253.897 343.17 C 254.26 343.17 254.794 342.624 255.5 341.531 L 256.098 341.531 L 256.233 342.257 L 256.382 342.257 C 256.582 342.257 256.682 342.134 256.682 341.886 L 258.135 342.071 L 258.433 342.071 C 258.433 342.433 258.528 342.613 258.718 342.613 L 258.869 342.613 C 258.869 342.252 258.968 342.071 259.167 342.071 L 259.316 342.071 C 259.506 342.106 259.601 342.228 259.601 342.443 L 259.899 342.257 L 260.036 342.257 L 260.036 342.983 L 260.334 342.983 C 260.525 342.983 260.62 342.859 260.62 342.613 L 260.62 342.443 L 260.485 342.071 L 261.217 341.886 L 261.503 341.886 L 261.354 342.257 L 261.354 342.799 C 261.553 342.799 261.652 343.04 261.652 343.525 L 262.821 343.525 C 262.821 343.649 262.77 343.711 262.67 343.711 C 262.716 344.319 262.865 344.622 263.119 344.622 L 263.119 345.703 C 263.173 347 263.462 347.911 263.988 348.441 C 263.988 348.496 264.137 349.105 264.437 350.264 L 264.722 350.08 L 264.871 350.08 L 265.455 352.816 C 265.745 352.816 265.89 353.175 265.89 353.896 C 265.79 353.896 265.74 353.958 265.74 354.083 L 266.039 354.269 L 266.039 354.083 C 265.939 354.083 265.89 354.022 265.89 353.896 L 266.338 353.896 C 266.346 354.584 266.636 355.918 267.207 357.901 C 267.107 358.565 267.057 359.05 267.057 359.354 L 267.356 359.54 C 267.356 359.416 267.406 359.354 267.505 359.354 C 267.505 359.602 267.795 360.39 268.375 361.719 C 271.39 361.358 273.196 361.179 273.793 361.179 L 273.793 361.55 L 273.494 361.55 L 273.644 362.445 L 270.725 363.543 L 270.86 363.915 C 270.86 364.489 270.425 364.849 269.556 364.995 L 269.556 365.182 L 269.841 365.182 L 269.841 365.554 L 269.556 366.094 L 269.556 366.448 C 270.335 369.523 270.969 372.255 271.457 374.642 C 271.457 374.835 271.553 375.076 271.743 375.368 L 271.743 375.554 C 271.743 375.679 271.693 375.741 271.593 375.741 L 272.912 380.472 C 272.821 380.472 272.775 380.532 272.775 380.656 C 273.192 380.656 273.626 382.532 274.079 386.283 C 273.753 386.283 273.513 386.586 273.359 387.194 L 272.476 387.194 C 272.476 387.566 272.231 387.752 271.743 387.752 C 271.399 387.335 270.52 386.845 269.109 386.283 C 269.109 386.092 268.379 385.729 266.922 385.201 C 266.922 385.067 266.628 384.761 266.039 384.288 L 266.039 383.917 L 267.057 384.104 L 267.505 384.104 C 267.696 384.104 267.791 383.984 267.791 383.748 C 267.791 383.365 266.868 380.391 265.02 374.828 C 265.02 374.085 264.53 372.204 263.553 369.186 C 261.68 369.918 259.633 370.464 257.414 370.825 C 257.414 370.699 257.365 370.639 257.265 370.639 C 257.265 371 256.971 371.241 256.382 371.365 C 254.726 371.838 253.897 372.508 253.897 373.375 C 253.282 375.808 252.698 377.502 252.145 378.46 L 252.145 379.017 C 252.436 379.017 252.581 379.136 252.581 379.373 L 252.581 379.559 L 252.295 379.373 L 251.996 379.373 C 251.707 380.319 251.562 380.926 251.562 381.196 L 251.263 381.012 C 251.263 381.327 250.969 381.693 250.38 382.109 C 250.38 382.335 249.846 383.427 248.778 385.387 L 248.478 385.556 L 248.194 385.556 L 247.609 385.015 L 247.46 385.015 C 247.27 385.05 247.176 385.172 247.176 385.387 C 247.265 385.612 247.311 385.791 247.311 385.927 L 247.025 386.113 C 246.898 385.989 246.654 385.927 246.293 385.927 C 246.293 386.288 246.097 386.467 245.708 386.467 L 243.359 384.474 C 242.757 384.474 242.171 383.597 241.6 381.84 C 241.551 382.636 241.397 383.84 241.136 385.456 L 240.906 386.878 C 240.772 387.707 240.612 388.098 240.425 388.051 L 240.283 389.876 L 240.112 390.937 C 239.588 392.919 238.946 394.121 238.186 394.538 C 237.984 394.735 237.621 394.882 237.104 394.988 C 237.092 394.991 237.082 394.996 237.071 395.001 L 237.052 395.01 L 237.042 395.015 C 236.824 395.236 236.806 395.307 236.785 395.389 C 236.767 395.459 236.747 395.537 236.592 395.73 C 236.48 395.79 236.224 395.822 235.828 395.825 L 235.828 395.83 C 235.588 395.963 235.283 395.995 234.913 395.926 C 234.468 396.573 234.128 396.964 233.886 397.095 L 232.44 397.075 C 231.122 397.268 229.483 397.303 227.522 397.184 C 226.013 396.273 224.226 395.597 222.16 395.152 C 221.132 394.178 220.217 393.688 219.414 393.684 C 219.221 393.138 217.847 391.965 215.291 390.165 C 214.438 389.573 213.925 389.324 213.751 389.42 C 213.108 388.578 212.661 388.225 212.413 388.361 L 212.178 387.697 C 214.616 388.885 215.926 389.428 216.108 389.329 L 216.049 389.16 L 214.825 388.425 L 214.769 388.271 L 214.907 388.197 C 214.932 388.269 215.709 388.647 217.237 389.329 C 218.764 390.014 220.053 390.356 221.103 390.361 C 221.954 390.559 222.501 390.593 222.741 390.46 L 222.878 390.386 C 223.027 390.304 223.075 390.148 223.024 389.918 C 219.431 388.796 217.522 387.915 217.296 387.276 L 217.096 387.59 C 216.823 387.739 216.548 387.427 216.275 386.654 L 216.014 386.796 L 216.129 387.122 L 215.992 387.197 C 215.832 386.742 215.629 386.325 215.385 385.941 L 215.658 385.791 L 215.719 385.961 Z M 242.107 376.784 L 242.114 376.772 C 242.109 376.772 242.102 376.771 242.096 376.769 C 242.099 376.772 242.102 376.774 242.103 376.777 L 242.107 376.784 Z M 190.135 382.319 C 190.135 383.164 191.012 383.647 192.769 383.771 C 194.525 383.671 195.404 383.248 195.404 382.505 C 196.861 379.948 197.59 377.943 197.59 376.491 C 198.279 371.432 198.717 367.673 198.908 365.205 L 198.908 365.036 L 198.324 365.391 L 198.324 365.036 L 198.473 364.125 C 198.374 364.125 198.324 364.063 198.324 363.939 L 198.473 363.939 C 198.473 358.183 198.668 354.056 199.057 351.556 L 199.057 351.387 L 198.773 351.387 C 198.773 351.871 198.622 352.113 198.324 352.113 C 198.324 352.237 198.374 352.417 198.473 352.653 L 198.324 354.478 C 198.324 354.603 198.374 354.782 198.473 355.019 C 198.473 355.176 198.279 355.723 197.889 356.658 L 197.74 356.658 C 197.74 355.441 197.596 354.832 197.306 354.832 C 197.306 354.596 197.451 354.478 197.74 354.478 L 197.74 353.193 C 197.74 352.407 197.79 351.195 197.889 349.561 L 197.59 349.561 C 197.59 349.833 197.546 350.075 197.455 350.288 L 197.59 350.66 C 197.338 350.705 197.143 351.004 197.006 351.556 L 197.155 352.299 C 197.155 352.412 197.107 352.467 197.006 352.467 C 197.006 352.918 197.056 353.222 197.155 353.38 C 197.056 353.38 196.911 353.807 196.722 354.665 C 196.821 354.866 196.871 355.109 196.871 355.389 L 196.871 355.56 L 196.572 356.116 L 196.722 356.471 L 196.572 356.471 C 196.572 356.877 196.621 357.181 196.722 357.384 C 196.657 358.082 196.514 358.627 196.287 359.023 L 196.423 359.394 L 196.287 359.394 C 196.287 360.362 196.087 360.847 195.689 360.847 L 195.689 361.033 L 195.839 362.113 C 195.351 363.207 195.105 364.361 195.105 365.578 L 194.821 365.578 C 194.821 365.453 194.869 365.391 194.97 365.391 C 194.97 365.088 194.92 364.603 194.821 363.939 L 195.105 363.398 L 194.97 363.026 C 195.16 363.026 195.254 362.722 195.254 362.113 L 195.105 361.759 C 195.206 361.759 195.355 361.456 195.553 360.847 C 195.454 360.632 195.404 360.39 195.404 360.12 C 195.404 359.963 195.5 359.293 195.689 358.11 L 195.689 357.57 L 195.553 356.471 L 195.689 356.116 L 195.553 355.203 L 195.839 354.292 C 195.74 354.079 195.689 353.836 195.689 353.566 L 195.988 353.026 L 195.689 353.026 L 196.137 349.021 L 195.988 348.65 C 196.657 347.13 197.536 346.099 198.622 345.558 L 198.622 345.188 C 198.622 344.906 198.183 344.664 197.306 344.46 C 196.401 345.169 195.716 346.144 195.254 347.384 L 195.254 347.738 L 195.553 347.738 L 195.553 347.924 L 195.254 347.924 L 195.404 348.295 C 195.404 348.813 195.305 349.298 195.105 349.748 L 195.254 350.103 C 195.091 351.41 194.898 352.197 194.67 352.467 L 194.821 352.839 C 194.721 352.839 194.67 352.901 194.67 353.026 L 194.67 353.193 L 194.821 353.193 L 194.821 355.203 C 194.821 355.566 194.916 355.745 195.105 355.745 C 194.952 356.017 194.807 356.562 194.67 357.384 C 194.67 360.177 194.476 361.573 194.087 361.573 L 194.087 361.929 L 194.372 361.929 C 194.372 362.053 194.327 362.113 194.236 362.113 L 194.372 363.026 C 194.271 363.026 194.128 363.088 193.938 363.212 C 194.037 364.046 194.136 364.591 194.236 364.851 C 194.047 364.975 193.896 365.036 193.787 365.036 L 193.787 366.844 C 193.598 366.844 193.503 367.087 193.503 367.571 L 193.354 367.571 C 193.163 367.571 193.019 367.148 192.919 366.304 C 193.11 365.526 193.253 364.435 193.354 363.026 C 193.253 362.813 193.203 362.57 193.203 362.3 C 193.203 361.444 193.304 360.775 193.503 360.29 C 193.404 360.065 193.354 359.884 193.354 359.75 C 193.036 359.75 192.792 361.207 192.62 364.125 C 192.72 364.125 192.769 364.18 192.769 364.293 C 191.991 371.107 191.113 375.172 190.135 376.491 C 189.954 375.397 189.759 374.851 189.551 374.851 C 187.907 367.356 185.091 360.84 182.89 355.748 C 181.818 353.267 180.892 351.123 180.32 349.372 C 179.732 348.491 179.436 347.946 179.436 347.731 L 179.151 347.731 L 179.151 347.917 L 179.287 348.29 C 179.034 347.917 178.644 347.731 178.12 347.731 L 178.12 347.563 L 178.418 347.563 L 178.418 347.191 C 177.638 347.191 177.249 346.949 177.249 346.464 L 176.84 346.483 C 176.242 347.09 175.802 347.394 175.522 347.394 C 175.522 346.808 175.228 346.261 174.639 345.756 C 174.349 345.936 174.204 346.115 174.204 346.297 C 174.096 346.297 173.946 346.235 173.757 346.11 C 173.593 346.11 173.499 346.235 173.471 346.483 L 173.62 346.837 C 173.521 346.837 173.471 346.899 173.471 347.023 L 173.172 346.837 L 173.037 346.837 C 172.864 346.837 172.765 346.961 172.739 347.208 L 172.739 347.394 L 173.037 348.662 C 173.978 348.662 175.051 352.484 176.254 360.132 L 176.105 360.132 C 176.206 361.303 176.35 362.211 176.54 362.851 L 176.391 362.851 C 176.391 363.257 176.441 363.561 176.54 363.764 L 176.391 364.677 C 176.49 365.735 176.54 366.343 176.54 366.5 C 176.441 367.358 176.391 367.842 176.391 367.953 C 176.59 368.923 176.691 370.043 176.691 371.315 C 176.691 372.397 176.59 374.187 176.391 376.688 C 176.391 379.087 176.784 380.725 177.572 381.604 L 177.572 381.231 L 177.423 380.861 C 177.523 380.861 177.572 380.804 177.572 380.691 L 177.572 380.505 L 177.274 380.505 L 177.274 380.321 C 177.374 380.321 177.518 380.258 177.709 380.134 C 178.197 381.272 178.442 382.246 178.442 383.057 C 179.42 383.26 179.908 383.743 179.908 384.51 L 180.057 384.51 C 180.057 384.139 180.103 383.716 180.194 383.243 L 180.493 383.243 C 180.493 384.447 180.786 385.05 181.375 385.05 L 182.977 384.323 C 182.878 383.456 182.828 382.973 182.828 382.871 C 182.828 382.51 182.928 382.33 183.128 382.33 L 182.977 381.418 L 182.977 380.134 L 182.828 379.78 L 182.977 379.78 C 182.977 379.576 182.928 378.849 182.828 377.599 L 182.543 377.769 C 182.733 376.801 182.828 376.199 182.828 375.962 L 182.828 374.863 L 182.693 374.492 C 182.783 374.492 182.828 374.402 182.828 374.221 C 182.828 373.028 182.783 371.969 182.693 371.045 C 182.752 370.602 182.943 370.661 183.263 371.219 C 184.801 375.781 186.02 378.388 186.917 379.041 C 187.695 379.616 188.084 380.161 188.084 380.68 C 188.862 381.502 189.251 381.986 189.251 382.134 C 189.352 382.134 189.401 382.07 189.401 381.948 C 189.646 382.194 189.89 382.319 190.135 382.319 Z M 228.434 384.191 C 228.397 383.951 228.154 383.844 227.708 383.87 C 227.75 384.129 227.346 384.392 226.497 384.664 C 226.098 384.087 225.633 383.698 225.102 383.496 C 225.078 383.347 224.921 383.219 224.629 383.114 L 224.509 383.144 L 224.561 383.473 C 223.823 382.803 223.442 382.396 223.418 382.246 C 221.674 379.17 220.686 376.9 220.455 375.432 C 220.119 373.837 219.754 372.362 219.356 371.008 L 219.439 370.661 L 218.716 367.824 L 218.848 367.79 L 218.665 367.495 L 218.205 364.591 L 217.833 363.019 L 217.303 363.15 C 217.344 363.408 217.256 363.984 217.039 364.876 L 217.303 364.813 C 217.238 366.083 217.228 366.866 217.275 367.166 C 217.355 367.146 217.405 367.19 217.422 367.3 C 217.141 367.369 217.088 368.164 217.261 369.686 L 217.521 370.463 C 217.477 371.073 217.372 371.545 217.208 371.875 C 217.224 371.984 217.278 372.03 217.366 372.008 C 217.431 373.587 217.412 374.596 217.307 375.036 C 217.419 375.217 217.484 375.367 217.503 375.486 C 217.245 376.17 217.093 377.767 217.048 380.274 C 216.961 381.414 216.874 381.995 216.785 382.017 L 216.4 382.111 C 216.211 383.391 215.915 384.078 215.515 384.176 C 215.319 383.778 215.157 383.595 215.029 383.627 L 214.764 383.691 L 214.137 384.001 C 214.062 383.521 213.623 383.298 212.82 383.327 L 212.824 382.488 C 212.74 381.95 212.524 381.721 212.179 381.805 L 212.026 380.834 C 211.942 380.304 211.684 380.094 211.252 380.2 C 210.867 377.766 210.924 373.566 211.423 367.601 C 211.405 367.49 211.353 367.448 211.265 367.468 L 211.262 365.791 L 211.553 365.891 L 211.4 364.918 C 211.695 364.846 211.792 364.321 211.687 363.341 L 211.51 362.219 C 211.71 362.17 211.779 361.764 211.717 361.003 L 211.494 360.374 C 211.523 360.035 211.582 359.855 211.67 359.832 C 211.652 359.723 211.6 359.679 211.512 359.701 C 211.461 358.792 211.474 358.01 211.554 357.359 C 211.433 357.171 211.364 357.018 211.343 356.898 C 211.496 356.757 211.616 356.676 211.705 356.654 C 211.575 356.408 211.405 355.889 211.198 355.101 C 211.31 355.072 211.432 354.707 211.561 354 C 211.44 353.814 211.371 353.665 211.353 353.554 L 211.485 353.522 L 211.302 353.225 C 211.392 350.365 211.296 347.208 211.018 343.753 C 211.296 343.468 211.625 343.279 212.001 343.186 L 212.386 343.092 C 212.475 343.071 212.529 343.114 212.545 343.225 L 212.784 342.995 C 213.746 343.445 214.295 344.092 214.427 344.939 L 214.666 344.711 L 215.051 344.617 L 215.077 344.782 L 215.007 345.124 L 216.294 344.81 L 217.878 345.433 L 218.048 345.718 L 217.663 345.812 L 217.689 345.976 C 218.044 347.062 218.575 348.159 219.284 349.271 C 220.401 351.224 221.154 353.438 221.545 355.913 L 221.902 358.173 C 222.167 358.107 222.69 359.709 223.472 362.977 L 223.601 363.786 C 223.619 363.895 223.583 363.962 223.494 363.982 L 223.677 364.266 C 223.755 364.764 223.711 365.614 223.541 366.816 C 223.997 367.43 224.296 368.19 224.44 369.097 L 224.492 369.426 L 224.743 369.366 C 224.92 369.322 225.026 368.57 225.062 367.113 L 225.194 367.081 L 225.011 366.782 L 224.935 366.304 C 225.287 365.42 225.374 362.83 225.194 358.533 C 225.345 358.01 225.45 356.985 225.508 355.458 C 225.908 353.245 226.309 351.806 226.712 351.138 L 226.845 351.106 L 226.897 351.435 L 226.814 351.781 L 227.104 351.881 L 227.237 351.85 L 227.212 351.684 L 226.947 351.749 L 227.03 351.403 L 227.003 351.237 C 226.985 351.128 226.933 351.083 226.845 351.106 C 226.903 350.893 226.914 350.669 226.875 350.43 L 227.128 350.368 L 227.134 351.205 C 227.416 351.137 227.651 350.355 227.84 348.858 L 227.813 348.692 L 228.092 348.796 L 228.066 348.632 C 227.978 348.654 227.925 348.608 227.907 348.499 C 228.044 348.466 228.204 348.318 228.386 348.056 C 228.403 348.155 228.451 348.196 228.531 348.176 C 228.937 346.74 229.396 345.959 229.909 345.834 L 230.042 345.802 L 230.144 346.446 L 229.232 348.347 L 228.953 348.243 L 228.557 348.34 L 228.583 348.506 L 229.099 348.379 L 229.152 348.709 C 228.647 349.464 228.405 349.912 228.427 350.051 C 228.138 351.645 227.801 355.186 227.42 360.677 L 227.445 360.842 L 227.565 360.813 C 227.907 359.704 228.082 358.263 228.095 356.488 L 228.52 354.037 L 228.663 354.002 C 228.68 353.554 228.756 353.312 228.894 353.279 L 229.025 353.247 C 229.068 353.515 229.199 353.764 229.418 353.99 L 229.45 354.195 C 229.509 354.151 229.562 354.124 229.606 354.114 L 229.632 354.279 C 229.501 355.139 229.402 356.22 229.333 357.522 L 229.465 357.49 C 229.665 357.441 229.789 356.518 229.84 354.725 C 230.361 354.598 230.681 353.514 230.801 351.475 L 231.066 351.41 C 231.102 351.64 231.039 352.38 230.879 353.631 C 231.096 353.579 231.258 353.762 231.365 354.181 L 231.361 355.022 C 231.499 355.319 231.614 355.458 231.702 355.435 L 231.775 358.433 C 231.827 358.761 231.981 358.894 232.239 358.832 L 232.262 358.981 C 232.324 362.809 232.218 367.243 231.939 372.285 C 231.651 374.159 231.092 376.863 230.26 380.403 C 229.62 382.569 229.255 383.662 229.167 383.684 L 228.434 384.191 Z M 228.899 354.784 L 228.828 354.326 C 228.873 354.326 228.92 354.331 228.967 354.339 L 229.032 354.752 L 228.899 354.784 Z M 228.868 352.848 L 229 352.816 C 228.95 352.497 229.01 352.318 229.178 352.276 L 229.099 351.782 L 228.979 351.811 C 229.032 352.14 228.926 352.338 228.661 352.403 C 228.782 352.591 228.851 352.739 228.868 352.848 Z M 193.187 359.441 L 193.336 359.441 C 193.336 358.946 193.286 358.461 193.187 357.988 L 193.336 357.077 L 193.336 356.908 L 193.052 356.908 C 193.052 357.235 192.951 357.595 192.752 357.988 L 192.901 358.36 C 192.802 358.36 192.752 358.423 192.752 358.547 L 192.752 358.901 C 192.907 359.261 193.052 359.441 193.187 359.441 Z M 252.796 355.037 C 253.004 354.98 253.199 354.676 253.38 354.124 C 253.289 353.91 253.244 353.668 253.244 353.398 C 253.471 353.398 253.909 352.366 254.561 350.306 L 254.412 349.934 L 254.412 349.748 C 254.946 348.994 255.236 347.964 255.281 346.657 L 254.697 346.657 L 254.697 347.028 L 254.995 347.028 C 253.529 350.892 252.796 353.561 252.796 355.037 Z M 226.424 373.508 C 226.424 374.098 226.336 374.674 226.159 375.236 C 226.007 375.273 225.902 375.189 225.844 374.986 L 225.717 374.177 L 225.85 374.145 L 226.425 370.99 C 226.407 370.881 226.338 370.731 226.217 370.543 C 226.353 370.51 226.508 370.359 226.682 370.089 L 226.708 370.251 L 226.531 370.793 L 226.584 371.122 L 226.836 371.06 L 226.761 370.58 L 226.893 370.55 L 227.043 371.506 C 226.798 372.8 226.591 373.466 226.424 373.508 Z M 256.916 365.073 C 257.414 365.073 259.026 364.588 261.751 363.62 L 261.751 363.434 C 261.751 363.174 261.067 360.568 259.699 355.612 L 259.699 355.443 C 259.239 356.198 258.75 357.532 258.234 359.448 C 258.016 361.125 257.627 362.757 257.065 364.346 L 256.916 364.346 L 256.916 365.073 Z M 270.007 374.092 L 270.007 374.278 C 269.717 374.278 269.278 372.88 268.689 370.089 C 269.078 370.089 269.273 370.517 269.273 371.372 L 269.572 371.372 L 269.857 371.186 C 269.857 371.31 269.908 371.372 270.007 371.372 L 269.857 372.285 C 269.957 373.343 270.007 373.946 270.007 374.092 Z M 226.925 366.577 C 226.86 366.168 226.983 365.526 227.295 364.653 C 227.354 364.452 227.357 364.17 227.3 363.813 L 227.25 363.497 L 227.118 363.531 C 227.005 363.558 226.867 364.368 226.703 365.963 L 226.305 366.061 L 226.407 366.703 L 226.54 366.671 L 226.606 366.611 C 226.602 366.962 226.502 367.718 226.305 368.877 L 226.327 369.882 L 226.351 370.032 L 226.483 370 C 226.678 367.807 226.769 366.671 226.756 366.591 L 226.741 366.492 L 226.781 366.457 C 226.796 366.556 226.845 366.596 226.925 366.577 Z" fill="#1D1D1F" style=""/>
  <path fill-rule="evenodd" clip-rule="evenodd" d="M 300.125 384.679 L 297.179 384.313 L 296.894 384.496 C 295.693 384.132 294.812 383.595 294.249 382.889 C 292.975 381.619 292.339 380.669 292.339 380.039 C 292.339 379.93 292.24 379.448 292.039 378.598 L 292.039 378.433 L 292.188 378.067 C 292.062 378.067 291.772 377.593 291.316 376.643 L 291.316 376.113 C 291.316 375.991 291.657 375.632 292.339 375.036 L 292.188 374.142 C 293.908 372.595 295.085 371.822 295.721 371.822 L 295.721 372.005 C 295.721 372.479 295.376 373.429 294.685 374.853 L 294.685 375.036 C 294.893 375.036 295.434 375.212 296.307 375.566 L 298.802 375.217 L 298.802 375.4 C 299.458 375.279 300.094 375.096 300.712 374.853 L 301.734 375.036 C 303.152 374.761 304.916 373.689 307.025 371.822 C 307.625 371.214 308.212 370.265 308.784 368.973 C 309.275 368.342 309.52 367.745 309.52 367.183 C 304.075 365.759 301.138 364.863 300.712 364.499 C 300.712 364.74 300.611 364.863 300.411 364.863 C 296.967 363.858 294.962 362.908 294.398 362.014 C 293.98 362.014 293.244 361.417 292.188 360.224 C 291.935 360.191 291.398 359.417 290.58 357.904 C 290.344 357.904 290.098 357.491 289.844 356.661 C 289.452 356.661 289.258 356.065 289.258 354.873 C 289.258 352.885 289.743 351.157 290.716 349.687 C 291.307 348.473 291.994 347.463 292.775 346.656 C 293.239 346.092 293.534 345.501 293.662 344.882 C 295.161 343.569 296.044 342.911 296.307 342.911 C 298.517 343.186 300.13 343.661 301.148 344.336 C 303.403 345.793 304.53 347.164 304.53 348.444 L 304.53 349.87 L 304.229 349.87 L 304.229 350.051 L 304.38 350.417 L 303.643 350.583 C 303.325 350.583 302.593 350.108 301.447 349.157 C 299.757 349.996 298.73 350.593 298.366 350.947 C 298.285 351.511 297.647 352.222 296.456 353.083 C 296.456 353.282 295.967 353.88 294.984 354.873 C 294.394 355.955 294.098 356.607 294.098 356.829 C 296.062 357.899 299.293 358.971 303.793 360.043 C 307.867 361.236 310.361 362.429 311.279 363.621 C 314.225 365.4 315.697 366.764 315.697 367.713 L 315.398 367.713 C 315.398 367.403 314.861 366.812 313.789 365.94 L 313.488 365.94 L 313.488 366.106 C 313.934 367.564 314.62 368.518 315.547 368.973 C 315.547 369.127 315.793 369.663 316.284 370.579 C 316.084 370.612 315.983 370.728 315.983 370.928 L 316.133 372.535 C 316.133 373.441 315.547 374.152 314.375 374.672 C 314.375 375.058 313.934 375.655 313.052 376.46 C 313.052 377.058 312.266 377.891 310.694 378.963 C 310.694 379.193 310.056 379.908 308.784 381.101 C 308.493 381.243 308.347 381.426 308.347 381.646 L 308.198 381.646 L 307.911 381.465 C 307.911 382.325 306.979 383.161 305.116 383.966 C 305.116 383.602 305.016 383.419 304.816 383.419 C 304.498 383.959 303.962 384.32 303.207 384.496 L 302.321 384.313 L 302.034 384.313 C 301.816 384.313 301.621 384.374 301.447 384.496 L 301.148 384.313 C 300.975 384.436 300.78 384.496 300.562 384.496 L 300.275 384.313 L 300.125 384.679 Z M 328.475 382.708 L 328.174 382.708 C 327.165 382.708 326.48 382.53 326.115 382.178 L 325.529 382.359 C 325.374 382.359 325.083 382.122 324.657 381.646 L 324.356 381.812 C 323.674 381.624 323.038 380.911 322.448 379.675 L 322.148 379.858 L 321.861 379.858 C 319.807 377.802 318.779 376.433 318.779 375.749 C 317.116 371.573 316.284 366.812 316.284 361.467 C 316.211 361.467 316.062 359.744 315.834 356.299 L 315.983 356.299 C 315.784 355.69 315.684 355.277 315.684 355.056 C 315.757 354.338 315.856 353.978 315.983 353.978 L 315.097 348.81 C 315.279 348.81 315.43 348.273 315.547 347.203 C 315.939 347.203 316.133 347.08 316.133 346.839 L 316.133 346.656 L 316.284 346.656 L 316.72 347.02 C 316.93 347.02 317.221 346.661 317.593 345.943 C 317.702 345.943 317.851 345.882 318.043 345.761 L 318.043 346.126 L 318.779 345.943 C 318.779 346.308 318.824 346.49 318.915 346.49 C 319.052 346.369 319.297 346.308 319.652 346.308 C 319.652 346.584 319.947 346.76 320.538 346.839 L 320.538 347.02 L 320.389 347.369 C 320.589 347.369 320.688 347.489 320.688 347.733 L 320.825 347.733 C 320.924 347.733 321.32 347.61 322.012 347.369 L 322.448 347.369 L 322.448 348.627 L 322.148 349.157 L 322.597 349.521 L 322.148 352.19 C 322.184 352.432 322.283 352.554 322.448 352.554 C 322.347 353.945 322.297 354.957 322.297 355.586 L 322.297 355.767 L 322.448 357.54 L 322.297 357.54 L 322.448 357.904 L 322.448 358.087 C 322.448 359.998 322.593 363.444 322.884 368.425 L 322.733 368.425 C 322.834 368.701 323.034 369.658 323.334 371.292 L 323.183 372.187 C 323.375 372.573 323.47 372.926 323.47 373.246 L 323.334 373.612 C 323.815 373.612 324.057 374.207 324.057 375.4 C 324.219 375.4 324.419 375.754 324.657 376.46 C 325.138 376.46 326.311 375.036 328.174 372.187 C 329.256 369.966 330.334 366.155 331.406 360.754 L 331.406 358.253 L 331.257 357.01 L 331.406 357.01 L 331.257 356.661 C 331.257 356.386 331.306 356.143 331.406 355.933 C 331.116 351.272 330.97 348.478 330.97 347.55 C 331.324 346.976 331.766 346.5 332.293 346.126 L 332.293 345.595 L 332.579 345.595 L 332.579 345.943 L 333.015 345.943 C 333.516 345.114 333.956 344.7 334.338 344.7 L 334.488 345.048 L 334.788 344.882 L 335.075 344.882 L 335.075 345.413 L 335.224 345.413 L 335.961 345.231 L 336.847 345.943 L 336.847 346.49 L 337.433 346.49 L 337.433 346.126 C 337.625 346.246 337.77 346.308 337.87 346.308 C 338.061 346.186 338.206 346.126 338.307 346.126 C 338.996 346.899 339.341 347.848 339.341 348.974 C 339.242 348.974 339.192 349.035 339.192 349.157 C 339.383 349.201 339.478 349.323 339.478 349.521 C 339.188 349.798 339.042 350.212 339.042 350.764 L 338.893 350.764 L 338.606 349.687 C 338.406 349.731 338.307 349.853 338.307 350.051 L 338.307 352.554 C 338.307 353.68 338.255 355.049 338.156 356.661 L 338.307 357.54 C 337.697 362.355 337.112 365.571 336.547 367.183 C 336.446 367.183 336.397 367.243 336.397 367.366 L 336.397 368.973 L 336.547 370.745 C 336.155 370.745 335.961 371.226 335.961 372.187 L 335.81 372.187 C 335.81 372.573 336.006 373.882 336.397 376.113 L 336.246 376.113 L 336.397 376.46 L 336.397 377.356 C 336.397 377.621 336.347 377.858 336.246 378.067 C 336.347 378.301 336.397 378.477 336.397 378.598 C 336.179 378.598 335.933 378.007 335.66 376.826 L 335.523 376.826 C 335.523 376.935 335.474 376.99 335.374 376.99 C 335.565 378.25 335.81 379.504 336.111 380.752 C 336.01 380.985 335.961 381.161 335.961 381.282 C 335.806 381.282 335.465 380.034 334.938 377.537 L 334.788 377.537 L 334.637 377.886 L 334.637 378.067 L 334.938 378.067 L 334.938 379.145 L 335.224 379.145 C 335.224 379.267 335.174 379.327 335.075 379.327 L 335.224 379.675 L 335.224 380.205 L 334.938 380.039 C 334.938 380.149 334.889 380.205 334.788 380.205 C 334.488 379.498 334.142 378.19 333.752 376.279 L 333.466 376.279 C 333.329 376.279 333.133 376.814 332.879 377.886 C 332.688 377.886 332.196 378.542 331.406 379.858 L 331.556 380.205 C 331.293 380.602 330.607 380.961 329.497 381.282 C 328.816 381.968 328.475 382.443 328.475 382.708 Z M 337.134 385.573 L 336.698 385.573 C 336.597 384.701 336.496 384.164 336.397 383.966 C 336.496 383.768 336.547 383.469 336.547 383.072 L 336.847 383.072 L 336.847 383.783 L 336.698 384.132 C 336.888 384.253 337.033 384.313 337.134 384.313 L 337.134 384.496 L 336.847 385.026 C 337.037 385.07 337.134 385.192 337.134 385.39 L 337.134 385.573 Z M 371.55 389.282 L 370.964 388.935 C 370.773 389.046 370.623 389.101 370.514 389.101 L 369.928 388.935 C 369.737 389.046 369.592 389.101 369.492 389.101 C 369.492 388.793 369.147 388.554 368.455 388.388 C 368.237 387.692 367.845 387.101 367.282 386.615 C 366.7 385.335 366.26 383.552 365.961 381.265 L 366.11 380.899 C 366.01 380.668 365.961 380.492 365.961 380.369 L 366.11 380.369 C 365.937 379.983 365.741 378.316 365.523 375.367 L 365.673 375.367 C 365.491 374.648 365.001 369.059 364.201 358.6 C 364.1 358.6 363.956 357.644 363.764 355.733 C 363.764 355.612 363.815 355.435 363.914 355.203 C 363.914 353.967 363.324 352.596 362.142 351.095 C 362.142 351.016 361.897 350.184 361.406 348.592 C 361.515 348.062 361.86 347.649 362.442 347.35 L 362.592 347.35 L 362.592 347.697 C 363.282 347.466 363.673 347.35 363.764 347.35 L 363.914 347.35 L 363.914 348.427 L 364.201 348.427 L 364.051 348.775 L 364.051 348.957 C 364.251 348.957 364.35 349.018 364.35 349.14 L 365.523 348.244 L 365.673 348.244 L 365.673 348.427 C 365.574 348.647 365.523 348.825 365.523 348.957 C 365.624 348.957 365.673 349.018 365.673 349.14 C 365.864 349.018 366.01 348.957 366.11 348.957 C 366.964 349.024 367.845 349.974 368.755 351.808 C 368.755 352.591 369.096 353.784 369.779 355.386 C 370.469 363.018 370.815 367.181 370.815 367.878 L 370.964 367.878 C 373.191 367.514 374.855 367.331 375.955 367.331 L 376.541 367.331 C 377.423 367.331 377.865 366.68 377.865 365.376 L 378.014 365.376 L 377.865 365.011 L 377.865 364.846 C 378.355 364.846 378.846 361.273 379.337 354.126 C 379.137 354.126 379.036 354.01 379.036 353.779 L 379.036 352.702 C 379.565 352.702 379.955 352.524 380.209 352.172 L 380.51 352.172 L 380.646 353.066 C 380.554 353.066 380.51 353.121 380.51 353.232 L 380.795 353.413 C 380.795 353.292 380.847 353.232 380.946 353.232 L 380.795 352.883 L 380.795 352.702 C 381.441 352.702 381.832 352.343 381.968 351.625 L 382.269 351.625 C 382.269 351.757 382.319 351.94 382.418 352.172 L 382.705 351.991 L 382.854 351.991 C 382.854 352.386 382.904 352.685 383.005 352.883 L 383.292 352.702 C 383.492 352.735 383.591 352.856 383.591 353.066 L 383.591 353.232 L 383.292 353.232 L 383.292 353.413 L 383.742 353.413 L 383.877 353.066 C 383.787 352.833 383.742 352.653 383.742 352.519 L 384.027 352.519 C 384.619 353.148 384.914 353.685 384.914 354.126 L 385.35 354.126 L 385.65 353.943 L 385.501 353.596 C 385.527 353.353 385.624 353.232 385.786 353.232 C 386.514 353.232 386.91 353.413 386.973 353.779 L 386.973 354.126 C 386.973 354.369 386.823 354.49 386.523 354.49 C 386.914 355.728 387.11 356.502 387.11 356.81 C 386.627 359.174 386.387 362.145 386.387 365.724 L 386.672 365.906 C 386.672 365.784 386.722 365.724 386.823 365.724 C 386.823 365.967 386.872 366.088 386.973 366.088 L 387.56 365.724 L 387.56 365.906 C 387.56 366.26 387.168 366.497 386.387 366.618 L 386.387 367.695 L 387.409 367.695 L 389.319 367.165 C 389.319 367.277 389.369 367.331 389.468 367.331 C 389.468 367.099 389.86 366.923 390.641 366.801 L 390.641 366.983 C 390.641 367.138 390.005 367.552 388.733 368.225 C 388.733 368.7 387.851 369.236 386.087 369.832 L 386.087 370.196 L 386.823 370.015 C 386.923 370.015 386.973 370.075 386.973 370.196 C 387.164 370.075 387.31 370.015 387.409 370.015 L 387.709 370.015 L 387.709 370.196 C 386.527 370.374 385.937 370.61 385.937 370.909 C 385.937 371.263 385.886 371.439 385.786 371.439 L 385.937 371.803 C 385.745 372.81 385.65 373.4 385.65 373.576 L 385.786 374.654 C 385.786 375.747 385.495 378.48 384.914 382.855 L 384.614 382.855 L 384.614 382.508 L 384.478 382.508 L 384.478 384.827 L 384.027 384.827 L 383.441 384.297 C 383.441 384.494 383.196 385.031 382.705 385.904 C 382.705 387.174 382.414 387.887 381.832 388.041 C 381.832 388.395 381.342 388.571 380.359 388.571 L 380.209 388.571 C 380.209 388.217 380.064 388.041 379.773 388.041 L 379.623 388.041 L 379.623 386.615 C 379.623 386.34 379.573 386.102 379.474 385.904 C 379.474 385.781 379.523 385.721 379.623 385.721 C 379.623 385.478 379.573 385.357 379.474 385.357 C 379.7 380.839 379.896 378.581 380.06 378.581 L 379.923 378.215 C 380.114 377.398 380.209 376.687 380.209 376.08 L 380.209 374.654 L 380.359 373.759 C 380.123 373.528 379.928 373.412 379.773 373.412 C 378.327 373.764 377.346 374.058 376.827 374.289 L 376.827 375.367 C 376.573 375.367 376.232 376.022 375.804 377.338 L 374.483 380.899 C 374.291 381.02 374.146 381.082 374.047 381.082 L 374.047 382.508 C 374.047 382.793 373.801 383.33 373.31 384.114 C 373.31 384.82 373.21 385.174 373.01 385.174 L 373.159 385.538 C 372.377 386.555 371.986 387.152 371.986 387.328 L 371.986 388.222 L 372.137 388.571 C 371.81 388.571 371.614 388.808 371.55 389.282 Z M 378.6 365.729 C 379.064 363.928 379.405 362.974 379.623 362.863 C 379.523 362.388 379.378 361.974 379.187 361.62 L 379.474 361.09 L 379.337 361.09 C 379.173 361.09 378.973 361.504 378.737 362.333 L 378.887 363.227 C 378.842 363.702 378.695 363.94 378.451 363.94 L 378.451 364.121 L 378.6 364.47 L 378.301 364.47 L 378.301 365.365 C 378.337 365.608 378.437 365.729 378.6 365.729 Z M 382.269 380.359 C 382.505 380.359 382.65 379.762 382.705 378.569 C 382.614 378.338 382.569 378.161 382.569 378.039 L 382.854 378.039 L 382.854 377.328 C 382.854 377.083 382.759 376.962 382.569 376.962 L 382.705 376.068 L 382.705 374.295 C 382.705 374.174 382.755 374.112 382.854 374.112 L 382.705 373.748 C 382.705 373.627 382.755 373.449 382.854 373.217 L 382.569 371.61 C 382.66 371.61 382.705 371.55 382.705 371.429 L 382.418 371.429 L 382.418 372.687 C 382.418 372.952 382.369 373.191 382.269 373.4 C 382.269 373.521 382.319 373.582 382.418 373.582 L 382.269 374.461 L 382.269 374.825 L 382.418 376.068 L 382.269 376.068 L 382.418 376.432 L 382.418 376.779 C 382.418 377.022 382.319 377.145 382.119 377.145 C 382.319 377.531 382.418 377.89 382.418 378.22 L 382.418 379.099 L 382.269 380.359 Z M 381.245 381.966 C 381.437 381.07 381.532 380.535 381.532 380.359 C 381.532 380.237 381.481 380.176 381.382 380.176 L 381.532 379.282 L 381.532 377.328 L 381.382 375.172 L 381.532 375.172 L 381.382 374.825 L 381.382 373.582 C 381.382 373.461 381.432 373.4 381.532 373.4 C 381.432 373.244 381.382 372.825 381.382 372.14 C 381.192 372.186 381.096 372.307 381.096 372.506 L 381.096 373.748 C 381.096 374.432 381.045 374.853 380.946 375.007 C 381.045 375.648 381.096 376.184 381.096 376.615 L 381.096 381.966 L 381.245 381.966 Z M 374.633 377.492 C 374.633 377.106 374.974 376.277 375.655 375.007 L 376.391 373.217 L 376.391 372.853 L 376.242 372.853 C 375.678 373.615 375.237 374.571 374.919 375.72 C 374.855 375.72 374.659 376.017 374.332 376.615 L 374.332 377.492 L 374.633 377.492 Z M 371.251 380.359 C 371.833 379.584 372.91 377.62 374.483 374.461 C 374.483 374.35 374.532 374.295 374.633 374.295 L 374.633 374.825 L 374.919 374.825 C 374.919 374.328 375.019 373.731 375.218 373.035 L 375.069 373.035 L 375.069 373.217 C 374.968 373.217 374.919 373.157 374.919 373.035 C 373.31 373.753 372.382 374.112 372.137 374.112 C 371.473 373.759 371.083 373.582 370.964 373.582 L 370.964 374.112 C 370.964 374.377 371.009 374.615 371.101 374.825 C 371.101 374.945 371.055 375.007 370.964 375.007 C 371.055 375.548 371.15 377.333 371.251 380.359 Z M 394.437 388.064 L 393.563 388.064 C 393.563 387.833 393.268 387.595 392.678 387.351 C 391.204 385.452 390.468 380.515 390.468 372.54 C 390.377 372.54 390.332 372.303 390.332 371.828 C 390.332 371.706 390.377 371.646 390.468 371.646 L 390.332 370.751 L 390.332 369.143 C 390.332 369.033 390.377 368.978 390.468 368.978 C 390.377 368.747 390.332 368.564 390.332 368.431 L 390.468 364.157 L 390.619 364.157 C 390.619 364.036 390.569 363.974 390.468 363.974 C 390.595 362.362 390.696 361.412 390.768 361.125 C 390.768 361.003 390.718 360.942 390.619 360.942 C 390.619 360.822 390.668 360.644 390.768 360.412 C 390.869 357.409 390.918 355.029 390.918 353.272 C 390.918 351.328 390.722 348.825 390.332 345.767 C 390.76 344.817 391.2 344.341 391.655 344.341 C 392.218 344.341 392.559 344.639 392.678 345.236 C 393.395 345.436 394.033 346.032 394.586 347.026 C 394.586 347.345 394.687 347.699 394.887 348.087 L 395.172 347.921 L 395.323 347.921 C 395.513 349.545 395.61 350.434 395.61 350.588 L 395.909 350.588 L 395.909 350.239 C 396.327 350.239 396.573 351.068 396.646 352.725 C 396.783 352.725 396.977 353.559 397.233 355.227 C 397.332 355.227 397.382 355.287 397.382 355.408 C 397.382 355.53 397.332 355.591 397.233 355.591 L 397.669 359.335 C 397.568 359.976 397.518 360.511 397.518 360.942 L 397.518 362.897 C 397.518 363.174 397.473 363.417 397.382 363.627 C 397.473 363.848 397.518 364.024 397.518 364.157 C 397.164 368.552 396.874 370.751 396.646 370.751 L 396.795 372.01 L 396.795 375.224 C 396.795 375.489 396.745 375.726 396.646 375.935 C 396.745 376.147 396.795 376.383 396.795 376.648 L 396.795 376.831 C 396.795 377.063 396.696 377.178 396.496 377.178 C 396.496 377.058 396.446 376.997 396.345 376.997 L 396.345 377.178 L 396.646 377.708 L 396.646 378.074 L 396.06 383.79 L 395.323 385.214 C 394.996 385.214 394.7 385.39 394.437 385.744 C 394.437 385.867 394.487 385.927 394.586 385.927 L 394.437 387.717 L 394.437 388.064 Z M 347.048 351.44 C 348.409 350.825 349.686 350.311 350.881 349.899 L 351.011 349.899 L 351.011 350.199 C 350.585 350.229 350.371 350.335 350.371 350.518 C 349.604 350.575 349.22 350.783 349.22 351.137 L 348.84 351.137 C 348.555 351.137 348.26 351.291 347.95 351.598 L 347.048 351.598 L 347.048 351.44 Z M 361.648 375.013 L 361.779 375.013 C 361.779 374.793 361.653 374.479 361.4 374.076 L 361.4 373.615 L 361.519 373.298 L 360.758 371.741 C 359.351 370.012 357.73 368.46 355.894 367.086 C 354.116 365.807 353.222 365.081 353.213 364.908 C 352.51 364.542 350.636 363.15 347.59 360.728 C 345.922 359.585 344.774 358.392 344.149 357.153 C 344.189 356.74 344.316 356.534 344.528 356.534 C 344.528 355.842 347.135 354.722 349.351 353.616 C 350.632 353.193 351.272 352.833 351.272 352.534 C 353.48 351.642 354.713 351.069 354.974 350.82 C 356.256 350.474 356.896 350.214 356.896 350.041 C 357.085 350.041 357.256 350.407 357.405 351.137 L 357.276 351.44 C 357.276 351.652 357.401 351.756 357.655 351.756 L 357.655 351.915 C 357.401 351.915 357.276 352.069 357.276 352.376 C 357.363 352.895 357.619 353.567 358.047 354.395 L 358.426 354.395 L 358.295 354.077 L 358.676 354.077 C 359.047 352.732 359.348 352.059 359.577 352.059 L 359.577 351.756 C 359.577 351.247 359.703 350.729 359.957 350.199 C 359.87 350.018 359.826 349.81 359.826 349.58 C 359.787 349.224 359.107 348.551 357.785 347.563 L 355.614 346.785 L 355.485 346.785 C 354.899 346.785 354.262 346.943 353.575 347.26 C 351.177 347.874 349.644 348.494 348.97 349.12 L 348.709 348.961 L 348.461 348.961 C 348.025 349.373 347.472 349.633 346.8 349.739 L 342.327 352.219 C 340.484 353.371 339.46 354.564 339.254 355.792 C 339.254 355.946 339.467 356.619 339.895 357.81 L 339.764 358.129 C 339.764 358.214 339.935 358.676 340.274 359.511 C 340.274 359.79 340.488 360.103 340.916 360.449 C 340.916 360.748 341.298 361.367 342.065 362.308 C 343.023 363.009 343.746 363.684 344.237 364.326 C 345.091 364.509 345.519 364.769 345.519 365.104 C 347.196 366.22 348.133 366.945 348.33 367.282 C 350.489 368.733 352.704 370.438 354.974 372.399 C 356.421 373.301 357.146 373.927 357.146 374.273 C 356.267 375.127 353.669 375.801 349.351 376.291 C 349.351 376.185 349.307 376.132 349.22 376.132 C 349.07 376.237 348.9 376.291 348.709 376.291 L 343.727 376.291 C 342.366 376.291 341.686 376.91 341.686 378.15 L 341.686 378.611 C 342.01 378.611 342.224 378.977 342.327 379.707 L 343.086 380.327 C 343.451 380.634 343.707 380.789 343.858 380.789 C 344.339 381.201 344.68 381.408 344.877 381.408 C 344.877 381.936 345.689 382.302 347.31 382.503 L 347.31 382.647 L 347.179 382.964 C 347.875 382.964 348.302 383.065 348.461 383.266 L 348.84 383.266 L 349.612 383.122 L 349.86 383.266 C 351.087 383.142 352.149 382.99 353.052 382.807 C 353.052 382.912 353.096 382.964 353.183 382.964 C 354.868 382.715 356.572 382.196 358.295 381.408 C 358.842 381.255 359.312 380.581 359.707 379.389 L 360.597 379.389 L 360.858 378.309 L 360.858 377.833 C 360.858 377.593 361.911 375.695 361.648 375.013 Z" fill="#1D1D1F" style=""/>
</svg>