<svg width="343.000000" height="201.000000" viewBox="0 0 343 201" fill="none" xmlns="http://www.w3.org/2000/svg" xmlns:xlink="http://www.w3.org/1999/xlink">
	<desc>
			Created with Pixso.
	</desc>
	<defs/>
	<rect id="Component 652" width="343.000000" height="201.000000" fill="#FFFFFF" fill-opacity="0"/>
	<path id="Vector" d="M195.973 159.216C160.879 166.208 114.953 176.608 99.1758 160.803C83.3984 144.997 97.8438 102.851 120.055 73.6827C142.336 44.7218 172.242 28.6655 202.988 27.66C233.594 26.582 265.043 40.5549 278 62.5957C290.738 84.699 285.125 114.943 270.156 131.754C255.184 148.564 230.922 152.15 195.973 159.216Z" fill="#EDEDED" fill-opacity="1.000000" fill-rule="nonzero"/>
	<path id="404" d="M174.309 144.939C180.543 144.939 186 143.629 190.68 141.009C195.355 138.39 199 134.734 201.609 130.042C204.223 125.35 205.527 119.876 205.527 113.62L205.527 88.2836C205.527 82.0276 204.223 76.5537 201.609 71.8617Q199.629 68.3033 196.859 65.5396Q194.148 62.837 190.68 60.8943Q183.664 56.9648 174.309 56.9648C168.07 56.9648 162.617 58.2747 157.938 60.8943C153.262 63.514 149.617 67.1698 147.004 71.8617C144.395 76.5537 143.09 82.0276 143.09 88.2836L143.09 113.62C143.09 119.876 144.395 125.35 147.004 130.042C149.617 134.734 153.262 138.39 157.938 141.009C162.617 143.629 168.07 144.939 174.309 144.939ZM105.41 143.179L121.547 143.179L121.547 130.042L129.031 130.042L129.031 115.145L121.547 115.145L121.547 94.0311L105.41 94.0311L105.41 115.145L87.0547 115.145L113.594 58.7244L95.3555 58.7244L68.8125 115.145L68.8125 130.042L105.41 130.042L105.41 143.179ZM272.273 143.179L256.137 143.179L256.137 130.042L219.539 130.042L219.539 115.145L246.082 58.7244L264.32 58.7244L237.781 115.145L256.137 115.145L256.137 94.0311L272.273 94.0311L272.273 115.145L279.758 115.145L279.758 130.042L272.273 130.042L272.273 143.179ZM174.309 129.807C171.504 129.807 168.969 129.142 166.707 127.813C164.449 126.484 162.656 124.685 161.328 122.417C160.004 120.15 159.34 117.608 159.34 114.793L159.34 86.9933C159.34 84.1781 160.004 81.6366 161.328 79.3689C162.656 77.1011 164.449 75.3025 166.707 73.9731Q167.586 73.4579 168.516 73.0757L168.516 73.0756Q171.188 71.979 174.309 71.979Q177.43 71.979 180.102 73.0756Q181.031 73.4578 181.91 73.9731C184.168 75.3025 185.961 77.1011 187.289 79.3689C188.613 81.6366 189.273 84.1781 189.273 86.9933L189.273 114.793C189.273 117.608 188.613 120.15 187.289 122.417C185.961 124.685 184.168 126.484 181.91 127.813C179.648 129.142 177.113 129.807 174.309 129.807Z" fill="#FF6633" fill-opacity="1.000000" fill-rule="evenodd"/>
	<path id="405" d="M174.309 144.939C180.543 144.939 186 143.629 190.68 141.009C195.355 138.39 199 134.734 201.609 130.042C204.223 125.35 205.527 119.876 205.527 113.62L205.527 88.2836C205.527 82.0276 204.223 76.5537 201.609 71.8617C199 67.1698 195.355 63.514 190.68 60.8943Q183.664 56.9648 174.309 56.9648Q164.953 56.9648 157.938 60.8943C153.262 63.514 149.617 67.1698 147.004 71.8617C144.395 76.5537 143.09 82.0276 143.09 88.2836L143.09 113.62C143.09 119.876 144.395 125.35 147.004 130.042C149.617 134.734 153.262 138.39 157.938 141.009C162.617 143.629 168.07 144.939 174.309 144.939ZM105.41 143.179L121.547 143.179L121.547 130.042L129.031 130.042L129.031 115.145L121.547 115.145L121.547 94.0311L105.41 94.0311L105.41 115.145L87.0547 115.145L113.594 58.7244L95.3555 58.7244L68.8125 115.145L68.8125 130.042L105.41 130.042L105.41 143.179ZM272.273 143.179L256.137 143.179L256.137 130.042L219.539 130.042L219.539 115.145L246.082 58.7244L264.32 58.7244L237.781 115.145L256.137 115.145L256.137 94.0311L272.273 94.0311L272.273 115.145L279.758 115.145L279.758 130.042L272.273 130.042L272.273 143.179ZM174.309 129.807C171.504 129.807 168.969 129.142 166.707 127.813C164.449 126.484 162.656 124.685 161.328 122.417C160.004 120.15 159.34 117.608 159.34 114.793L159.34 86.9933C159.34 84.1781 160.004 81.6366 161.328 79.3689Q162.336 77.6475 163.699 76.2865Q165.031 74.958 166.707 73.9731C168.969 72.6437 171.504 71.979 174.309 71.979C177.113 71.979 179.648 72.6437 181.91 73.9731C184.168 75.3025 185.961 77.1011 187.289 79.3689C188.613 81.6366 189.273 84.1781 189.273 86.9933L189.273 114.793C189.273 117.608 188.613 120.15 187.289 122.417C185.961 124.685 184.168 126.484 181.91 127.813C179.648 129.142 177.113 129.807 174.309 129.807Z" fill="#FF6633" fill-opacity="1.000000" fill-rule="evenodd"/>
	<path id="406" d="M169.02 146.825Q179.156 146.825 186.855 142.513Q190.691 140.363 193.691 137.371Q196.754 134.317 198.941 130.387Q203.238 122.669 203.238 112.507L203.238 87.1703Q203.238 77.0078 198.941 69.2896Q196.754 65.3595 193.691 62.306Q190.691 59.3141 186.855 57.1637Q179.156 52.8516 169.02 52.8516Q158.879 52.8516 151.184 57.1637Q147.344 59.3141 144.344 62.3063Q141.281 65.3596 139.094 69.2896Q134.797 77.0078 134.797 87.1703L134.797 112.507Q134.797 122.669 139.094 130.387Q141.281 134.317 144.344 137.371Q147.344 140.363 151.184 142.513Q158.879 146.825 169.02 146.825ZM185.387 139.896C180.711 142.516 175.254 143.825 169.02 143.825C162.781 143.825 157.324 142.516 152.648 139.896Q149.18 137.954 146.469 135.252L146.469 135.25L146.469 135.25Q143.695 132.486 141.715 128.928C139.105 124.237 137.797 118.763 137.797 112.507L137.797 87.1703C137.797 80.9143 139.105 75.4404 141.715 70.7484Q143.695 67.1902 146.469 64.4264Q149.18 61.7239 152.648 59.781C157.324 57.1614 162.781 55.8516 169.02 55.8516C175.254 55.8516 180.711 57.1614 185.387 59.781C190.066 62.4008 193.711 66.0565 196.32 70.7484C198.934 75.4404 200.238 80.9143 200.238 87.1703L200.238 112.507C200.238 118.763 198.934 124.237 196.32 128.928C193.711 133.62 190.066 137.276 185.387 139.896ZM249.191 147.236L271.328 147.236L271.328 134.099L278.812 134.099L278.812 113.202L271.328 113.202L271.328 92.0879L249.191 92.0879L249.191 113.202L238.562 113.202L265.105 56.781L240.23 56.781L212.594 115.531L212.594 134.099L249.191 134.099L249.191 147.236ZM249.191 131.099L252.191 131.099L252.191 144.236L268.328 144.236L268.328 131.099L275.812 131.099L275.812 116.202L268.328 116.202L268.328 95.0879L252.191 95.0879L252.191 116.202L233.836 116.202L235.246 113.202L258.965 62.781L260.375 59.781L242.137 59.781L215.594 116.202L215.594 131.099L249.191 131.099ZM97.5977 147.615L119.734 147.615L119.734 134.478L127.219 134.478L127.219 113.581L119.734 113.581L119.734 92.4674L97.5977 92.4674L97.5977 113.581L86.9688 113.581L113.512 57.1605L88.6367 57.1605L61 115.911L61 134.478L97.5977 134.478L97.5977 147.615ZM97.5977 131.478L100.598 131.478L100.598 144.615L116.734 144.615L116.734 131.478L124.219 131.478L124.219 116.581L116.734 116.581L116.734 95.4674L100.598 95.4674L100.598 116.581L82.2422 116.581L83.6523 113.581L107.371 63.1605L108.781 60.1605L90.543 60.1605L64 116.581L64 131.478L97.5977 131.478ZM161.418 126.7C163.68 128.029 166.211 128.694 169.02 128.694C171.824 128.694 174.359 128.029 176.617 126.7C178.879 125.37 180.672 123.572 181.996 121.304C183.32 119.036 183.984 116.495 183.984 113.68L183.984 85.88C183.984 83.0648 183.32 80.5233 181.996 78.2556C180.672 75.9878 178.879 74.1892 176.617 72.8599Q175.742 72.3444 174.812 71.9623Q172.141 70.8657 169.02 70.8657C166.211 70.8657 163.68 71.5304 161.418 72.8599Q159.742 73.8447 158.41 75.1731Q157.047 76.5342 156.039 78.2556C154.715 80.5233 154.051 83.0648 154.051 85.88L154.051 113.68C154.051 116.495 154.715 119.036 156.039 121.304C157.363 123.572 159.156 125.37 161.418 126.7ZM164.043 124.684Q163.477 124.431 162.938 124.114Q161.602 123.327 160.535 122.267Q159.438 121.174 158.629 119.791Q158.328 119.274 158.082 118.732Q157.051 116.438 157.051 113.68L157.051 85.88Q157.051 83.1215 158.082 80.8275Q158.328 80.2854 158.629 79.7692Q159.438 78.3855 160.535 77.2926Q161.602 76.2324 162.938 75.4458Q163.477 75.1292 164.043 74.8759Q166.305 73.8657 169.02 73.8657Q171.73 73.8657 173.992 74.8759Q174.559 75.1292 175.098 75.4458Q176.434 76.2325 177.5 77.2931Q178.598 78.3857 179.406 79.7692Q179.707 80.2854 179.953 80.8276Q180.984 83.1216 180.984 85.88L180.984 113.68Q180.984 116.438 179.953 118.732Q179.707 119.274 179.406 119.791Q178.598 121.174 177.5 122.267Q176.434 123.327 175.098 124.114Q174.559 124.431 173.992 124.684Q171.73 125.694 169.02 125.694Q166.305 125.694 164.043 124.684Z" fill="#1D1D1F" fill-opacity="1.000000" fill-rule="evenodd"/>
	<ellipse id="Ellipse 99" cx="321.437500" cy="47.171509" rx="6.300000" ry="6.320000" stroke="#1A1A1A" stroke-opacity="1.000000" stroke-width="4.000000" stroke-linejoin="round"/>
	<rect id="Frame 954" width="18.828707" height="18.877533" transform="translate(220.820312 160.140625) rotate(17.656588)" fill="#FFFFFF" fill-opacity="0"/>
	<path id="Vector 256" d="M229.395 162.871L228.793 164.778" stroke="#1A1A1A" stroke-opacity="1.000000" stroke-width="4.000000" stroke-linejoin="round" stroke-linecap="round"/>
	<path id="Vector 257" d="M236.211 174.484L234.305 173.878" stroke="#1A1A1A" stroke-opacity="1.000000" stroke-width="4.000000" stroke-linejoin="round" stroke-linecap="round"/>
	<path id="Vector 258" d="M220.012 169.328L218.105 168.722" stroke="#1A1A1A" stroke-opacity="1.000000" stroke-width="4.000000" stroke-linejoin="round" stroke-linecap="round"/>
	<path id="Vector 259" d="M224.27 179.078L223.668 180.985" stroke="#1A1A1A" stroke-opacity="1.000000" stroke-width="4.000000" stroke-linejoin="round" stroke-linecap="round"/>
	<path id="Vector 260" d="M73.6875 42.9312L74.8828 57.7885L60.8984 50.52L73.6875 42.9312Z" stroke="#1A1A1A" stroke-opacity="1.000000" stroke-width="4.000000" stroke-linejoin="round"/>
</svg>
