<svg width="323" height="203" viewBox="0 0 323 203" fill="none" xmlns="http://www.w3.org/2000/svg">
<path d="M102.31 171.726L82.2276 79.0534C81.2893 74.7234 83.3119 70.2922 87.1979 68.1644L110.522 55.3926C112.215 54.4655 114.141 54.0482 116.066 54.1913L147.064 56.4947C149.003 56.6388 150.941 56.2148 152.642 55.2746L179.41 40.482C181.111 39.5418 183.049 39.1178 184.988 39.2619L211.486 41.2309C215.904 41.5592 219.579 44.7556 220.518 49.0856L240.6 141.758C242.004 148.236 236.832 154.262 230.216 153.857L209.416 152.583C207.565 152.47 205.718 152.874 204.083 153.749L176.997 168.256C175.362 169.132 173.516 169.535 171.665 169.422L140.495 167.513C138.657 167.4 136.823 167.798 135.196 168.661L116.771 178.441C110.917 181.548 103.714 178.204 102.31 171.726Z" fill="#EDEDED"/>
<circle cx="244" cy="57.2344" r="30" fill="#FF6633"/>
<path d="M172.664 50.7111C172.664 49.1788 173.367 47.731 174.571 46.783L210.904 18.1705C212.719 16.7414 215.276 16.7414 217.091 18.1705L253.424 46.783C254.628 47.731 255.331 49.1839 255.331 50.7162C255.331 69.2 255.331 80.2842 255.331 99.4344C255.331 101.901 254.363 104.266 252.64 106.01C250.918 107.755 248.582 108.734 246.146 108.734H181.849C179.413 108.734 177.077 107.755 175.354 106.01C173.632 104.266 172.664 101.901 172.664 99.4344V50.7111Z" stroke="#1D1D1F" stroke-width="5" stroke-linecap="round" stroke-linejoin="round"/>
<path d="M198.5 108.734V62.2344H229.5V108.734" stroke="#1D1D1F" stroke-width="5" stroke-linecap="round" stroke-linejoin="round"/>
<path d="M127.375 167.984C134.21 167.984 139.75 162.444 139.75 155.609C139.75 148.775 134.21 143.234 127.375 143.234C120.54 143.234 115 148.775 115 155.609C115 162.444 120.54 167.984 127.375 167.984Z" fill="#FF6633"/>
<path d="M153 195.234H199.072C207.316 195.234 214 188.551 214 180.306V180.306C214 172.062 207.316 165.378 199.072 165.378H185.328C181.005 165.378 177.5 161.873 177.5 157.55V157.55C177.5 153.226 181.005 149.722 185.328 149.722H187.25C192.635 149.722 197 145.356 197 139.972V124.234" stroke="#1D1D1F" stroke-width="4" stroke-linejoin="round" stroke-dasharray="10 15"/>
<path d="M156.5 153.234C156.5 177.734 125 198.734 125 198.734C125 198.734 93.5 177.734 93.5 153.234C93.5 144.88 96.8187 136.868 102.726 130.961C108.634 125.053 116.646 121.734 125 121.734C133.354 121.734 141.366 125.053 147.274 130.961C153.181 136.868 156.5 144.88 156.5 153.234Z" stroke="black" stroke-width="5" stroke-linecap="round" stroke-linejoin="round"/>
<path d="M125 163.734C130.799 163.734 135.5 159.033 135.5 153.234C135.5 147.435 130.799 142.734 125 142.734C119.201 142.734 114.5 147.435 114.5 153.234C114.5 159.033 119.201 163.734 125 163.734Z" stroke="black" stroke-width="5" stroke-linecap="round" stroke-linejoin="round"/>
<path d="M87.8613 46.3951C89.2426 42.6812 93.2273 39.0535 97.4176 37.6954C98.4543 37.3597 100.513 37.1888 102.85 37.2449C106.133 37.3239 106.945 37.4932 109.214 38.5716C111.022 39.4306 112.394 40.4669 113.717 41.9716L115.619 44.1355L117.652 43.4306C124.352 41.1082 132.074 44.4756 135.108 51.0435C135.663 52.2455 136.12 53.4295 136.122 53.6747C136.124 53.9198 136.875 54.2409 137.793 54.3879C142.023 55.0666 145.96 58.1511 147.859 62.2746C148.849 64.423 149 65.226 149 68.3276C149 71.4292 148.849 72.2322 147.859 74.3806C146.535 77.2562 143.752 80.0772 140.965 81.3686C139.097 82.234 139.081 82.2344 109.188 82.2344H79.2802L76.617 80.9689C72.9163 79.2107 70.2804 76.6157 68.476 72.9546C67.0297 70.0203 67 69.8685 67 65.3695C67 61.2078 67.1006 60.5633 68.0731 58.4813C69.3764 55.6916 72.8533 51.9399 75.448 50.5234C78.177 49.0338 81.6372 48.207 84.5734 48.3432L87.0936 48.4601L87.8613 46.3951Z" fill="#FF6633"/>
<path d="M86.5892 40.988C87.8863 37.4391 91.6281 33.9727 95.5629 32.675C96.5364 32.3541 98.4699 32.1909 100.664 32.2444C103.747 32.32 104.51 32.4817 106.64 33.5121C108.338 34.333 109.626 35.3232 110.868 36.761L112.654 38.8287L114.564 38.1552C120.855 35.936 128.106 39.1537 130.955 45.4298C131.477 46.5783 131.905 47.7098 131.907 47.944C131.909 48.1783 132.615 48.4851 133.476 48.6255C137.449 49.274 141.146 52.2214 142.929 56.1617C143.858 58.2146 144 58.982 144 61.9457C144 64.9095 143.858 65.6768 142.929 67.7297C141.686 70.4774 139.072 73.1731 136.455 74.4071C134.701 75.234 134.686 75.2344 106.616 75.2344H78.5314L76.0306 74.0251C72.5555 72.345 70.0804 69.8654 68.386 66.367C67.0279 63.5631 67 63.4181 67 59.119C67 55.1423 67.0945 54.5265 68.0077 52.537C69.2315 49.8712 72.4964 46.2863 74.9329 44.9328C77.4954 43.5094 80.7447 42.7193 83.5018 42.8495L85.8683 42.9611L86.5892 40.988Z" stroke="#1D1D1F" stroke-width="5"/>
</svg>
