<svg width="24" height="25" viewBox="0 0 24 25" fill="none" xmlns="http://www.w3.org/2000/svg">
<g id="&#208;&#152;&#208;&#186;&#208;&#190;&#208;&#189;&#208;&#186;&#208;&#184;">
<path id="Vector (Stroke)" fill-rule="evenodd" clip-rule="evenodd" d="M12 3.23438C10.1508 3.23438 8.37273 3.98544 7.05815 5.32989C5.74283 6.67511 5 8.5043 5 10.4162C5 13.2044 6.77507 15.9177 8.73362 18.0321C9.69377 19.0686 10.6572 19.9174 11.3815 20.5073C11.6165 20.6987 11.8255 20.8621 12 20.9952C12.1745 20.8621 12.3835 20.6987 12.6185 20.5073C13.3428 19.9174 14.3062 19.0686 15.2664 18.0321C17.2249 15.9177 19 13.2044 19 10.4162C19 8.5043 18.2572 6.67511 16.9418 5.32989C15.6273 3.98544 13.8492 3.23438 12 3.23438ZM12 22.2344C11.4367 23.0606 11.4364 23.0604 11.4361 23.0602L11.4334 23.0584L11.4273 23.0542L11.4065 23.0398C11.389 23.0276 11.364 23.0102 11.3321 22.9876C11.2684 22.9425 11.1771 22.8769 11.0621 22.7919C10.8322 22.6221 10.5071 22.3745 10.1185 22.0581C9.34284 21.4264 8.30623 20.5138 7.26638 19.3912C5.22493 17.1874 3 13.9916 3 10.4162C3 7.98818 3.94288 5.65522 5.62814 3.93166C7.31415 2.20733 9.60571 1.23438 12 1.23438C14.3943 1.23438 16.6859 2.20733 18.3719 3.93166C20.0571 5.65522 21 7.98818 21 10.4162C21 13.9916 18.7751 17.1874 16.7336 19.3912C15.6938 20.5138 14.6572 21.4264 13.8815 22.0581C13.4929 22.3745 13.1678 22.6221 12.9379 22.7919C12.8229 22.8769 12.7316 22.9425 12.6679 22.9876C12.636 23.0102 12.611 23.0276 12.5935 23.0398L12.5727 23.0542L12.5666 23.0584L12.5646 23.0598C12.5643 23.0599 12.5633 23.0606 12 22.2344ZM12 22.2344L12.5633 23.0606C12.2235 23.2923 11.776 23.2919 11.4361 23.0602L12 22.2344Z" fill="black"/>
<path id="Vector (Stroke)_2" fill-rule="evenodd" clip-rule="evenodd" d="M12 8.23438C10.8954 8.23438 10 9.12981 10 10.2344C10 11.3389 10.8954 12.2344 12 12.2344C13.1046 12.2344 14 11.3389 14 10.2344C14 9.12981 13.1046 8.23438 12 8.23438ZM8 10.2344C8 8.02524 9.79086 6.23438 12 6.23438C14.2091 6.23438 16 8.02524 16 10.2344C16 12.4435 14.2091 14.2344 12 14.2344C9.79086 14.2344 8 12.4435 8 10.2344Z" fill="black"/>
</g>
</svg>
