<svg width="110" height="37" viewBox="0 0 110 37" fill="none" xmlns="http://www.w3.org/2000/svg">
<g id="Frame 21019">
<path id="Vector" d="M8.76499 0C8.42756 0 8.0947 0 7.7591 0.00185C7.47654 0.0037 7.19763 0.00925 6.91324 0.013875C6.29598 0.021275 5.68056 0.07585 5.07153 0.178525C4.15433 0.330682 3.28545 0.699221 2.53526 1.25429C1.78507 1.80936 1.17468 2.53536 0.753506 3.37348C0.473784 3.93219 0.27983 4.53075 0.178318 5.14855C0.0760112 5.76555 0.0209805 6.38962 0.0137167 7.0152C0.00457225 7.30103 0.00457225 7.58778 0 7.8736V29.1301C0.00457225 29.4187 0.00548669 29.699 0.0137167 29.9894C0.0210323 30.6147 0.0758993 31.2382 0.178318 31.8552C0.278907 32.474 0.473685 33.0725 0.753506 33.6312C1.03178 34.1886 1.39741 34.6968 1.83621 35.1361C2.27063 35.5808 2.773 35.9519 3.32402 36.235C3.87402 36.5188 4.46313 36.7171 5.07153 36.8233C5.68056 36.9251 6.2969 36.9806 6.91324 36.988C7.19763 36.9944 7.47654 36.9981 7.75819 36.9981C8.0947 37 8.42756 37 8.76408 37H101.24C101.571 37 101.906 37 102.236 36.9981C102.516 36.9981 102.803 36.9944 103.084 36.9889C103.7 36.9808 104.314 36.9255 104.922 36.8233C105.533 36.7164 106.124 36.5181 106.677 36.235C107.227 35.9515 107.729 35.5805 108.163 35.1361C108.601 34.6952 108.967 34.1873 109.249 33.6312C109.527 33.0718 109.719 32.4729 109.818 31.8552C109.921 31.2384 109.978 30.6148 109.989 29.9894C109.993 29.699 109.993 29.4187 109.993 29.1292C110 28.7906 110 28.4539 110 28.1098V8.89202C110 8.54978 110 8.21123 109.993 7.8736C109.993 7.58685 109.993 7.3001 109.989 7.0152C109.978 6.38956 109.921 5.76562 109.818 5.14855C109.718 4.53116 109.527 3.93265 109.249 3.37348C108.683 2.25275 107.783 1.33984 106.677 0.763125C106.124 0.480826 105.533 0.283779 104.922 0.178525C104.314 0.0758365 103.7 0.0207893 103.084 0.013875C102.804 0.00925 102.517 0.0037 102.236 0.00185C101.906 0 101.571 0 101.24 0H8.76499Z" fill="#1D1D1F"/>
<path id="Vector_2" d="M7.93461 35.9972C7.65587 35.9972 7.38353 35.9936 7.10662 35.9881C6.53316 35.9806 5.96104 35.9306 5.3949 35.8387C4.86724 35.7479 4.35597 35.579 3.87784 35.3375C3.40444 35.0981 2.97246 34.7841 2.5984 34.4073C2.21922 34.0353 1.9034 33.6035 1.66348 33.129C1.42131 32.6523 1.25363 32.1411 1.16633 31.6133C1.07203 31.0459 1.02101 30.4721 1.01371 29.8969C1.00823 29.7045 1 29.0621 1 29.0621V7.92504C1 7.92504 1.00914 7.29274 1.01371 7.10672C1.02081 6.53248 1.07152 5.95961 1.16541 5.3931C1.25315 4.86435 1.4213 4.35118 1.66348 3.87283C2.15162 2.92022 2.92589 2.14545 3.87693 1.65796C4.3538 1.41727 4.86392 1.24954 5.39033 1.16037C5.95851 1.06748 6.53281 1.01725 7.10845 1.01008L7.93461 1H102.06L102.896 1.01191C103.466 1.01833 104.036 1.06781 104.599 1.16037C105.131 1.25066 105.646 1.41958 106.129 1.66162C107.078 2.15014 107.851 2.92428 108.34 3.87558C108.58 4.3521 108.745 4.85977 108.831 5.38485C108.926 5.95575 108.979 6.53307 108.99 7.1113C108.993 7.37063 108.993 7.64921 108.993 7.92596C109 8.26868 109 8.59491 109 8.9248V28.0743C109 28.4069 109 28.7313 108.993 29.0585C108.993 29.3563 108.993 29.6284 108.989 29.9089C108.979 30.477 108.926 31.0437 108.833 31.6042C108.747 32.1361 108.581 32.6517 108.338 33.1327C108.097 33.6019 107.783 34.0299 107.408 34.4009C107.033 34.7794 106.601 35.0955 106.126 35.3356C105.645 35.5793 105.13 35.7492 104.599 35.8396C104.032 35.9313 103.46 35.9817 102.887 35.989C102.618 35.9945 102.338 35.9982 102.064 35.9982L101.072 36L7.93461 35.9972Z" fill="#1D1D1F"/>
<path id="Vector_3" d="M22.168 18.1989C22.1698 20.0141 23.1925 21.6535 24.766 22.3615C24.4644 23.4036 24.0083 24.3906 23.4141 25.2868C22.6186 26.5527 21.7845 27.7899 20.4592 27.8128C19.1726 27.8443 18.7395 27.0074 17.2643 27.0074C15.7745 27.0074 15.3128 27.7899 14.0787 27.8443C12.8178 27.894 11.8531 26.4934 11.0291 25.239C9.38013 22.6786 8.09629 18.0222 9.81697 14.8541C10.6263 13.3103 12.1363 12.33 13.7982 12.2727C15.0599 12.246 16.2325 13.1803 17.0087 13.1803C17.7702 13.1803 19.2186 12.0625 20.7131 12.2288C21.418 12.2547 22.107 12.4531 22.7242 12.8079C23.3414 13.1627 23.8692 13.6637 24.2648 14.2704C23.6278 14.6918 23.1023 15.2719 22.7361 15.958C22.3699 16.6441 22.1746 17.4144 22.168 18.1989ZM20.3765 10.6228C19.6297 11.6403 18.4985 12.225 17.3067 12.2116C17.2279 10.9478 17.616 9.70036 18.3918 8.72351C19.1527 7.76197 20.243 7.14449 21.4332 7.00098C21.5277 8.30331 21.1505 9.59535 20.3755 10.6237L20.3765 10.6228Z" fill="white"/>
<g id="Vector_4">
<path d="M68.8205 23.2909C67.3095 23.2909 66.2032 22.5123 66.0763 21.3257H64.3179C64.4282 23.4887 66.148 24.8577 68.6927 24.8577C71.4149 24.8577 73.1254 23.4562 73.1254 21.2187C73.1254 19.4704 72.146 18.4845 69.7917 17.9036L68.5262 17.5807C67.0465 17.1995 66.4423 16.7017 66.4423 15.8562C66.4423 14.7958 67.3886 14.0668 68.7727 14.0668C70.1568 14.0668 71.104 14.7872 71.208 15.9804H72.9424C72.8863 13.9168 71.2236 12.5 68.7975 12.5C66.3466 12.5 64.6205 13.9168 64.6205 15.9804C64.6205 17.6475 65.599 18.6736 67.7068 19.2048L69.1948 19.5774C70.6819 19.9586 71.311 20.5146 71.311 21.4423C71.311 22.5123 70.269 23.2909 68.8205 23.2909Z" fill="white"/>
<path d="M76.8335 15.9393V13.8757H75.1073V15.9393H73.8897V17.3571H75.1073V22.3537C75.1073 24.0447 75.7676 24.7077 77.4625 24.7077C77.7826 24.7144 78.1017 24.6867 78.4171 24.6256V23.2164C78.2286 23.2403 78.0401 23.2546 77.8515 23.2575C77.1517 23.2575 76.8335 22.9097 76.8335 22.1636V17.3562H78.4245V15.9393H76.8335Z" fill="white"/>
<path d="M90.3414 15.9393H88.7035L88.7026 24.6581H90.4214V19.4866C90.3931 19.2282 90.4188 18.9664 90.4969 18.7192C90.575 18.472 90.7036 18.2453 90.8739 18.0545C91.0436 17.8642 91.251 17.7143 91.4819 17.6151C91.7127 17.516 91.9615 17.47 92.2111 17.4804C92.4726 17.4726 92.7335 17.5094 92.9836 17.5893V15.9145C92.7905 15.8696 92.5927 15.8476 92.395 15.8476C91.9363 15.8299 91.4857 15.9769 91.1191 16.2639C90.7524 16.5508 90.4921 16.9601 90.3819 17.423H90.3414V15.9393Z" fill="white"/>
<path fill-rule="evenodd" clip-rule="evenodd" d="M59.9881 20.2997C59.9881 23.0081 58.5958 24.7498 56.4944 24.7498C55.9618 24.7783 55.4323 24.6503 54.9666 24.3805C54.5008 24.1106 54.1178 23.7098 53.8614 23.2241H53.8218V27.5423H52.1039V15.9393H53.7667V17.3896H53.7979C54.0662 16.906 54.4558 16.5072 54.9252 16.2356C55.3946 15.9641 55.9261 15.83 56.4631 15.8476C58.5875 15.8476 59.9881 17.5969 59.9881 20.2997ZM56.0097 17.3734C57.346 17.3734 58.2224 18.5341 58.2224 20.2997C58.2224 22.0805 57.346 23.2327 56.0097 23.2327C54.6974 23.2327 53.8145 22.0556 53.8145 20.2997C53.8145 18.558 54.6974 17.3734 56.0097 17.3734Z" fill="white"/>
<path fill-rule="evenodd" clip-rule="evenodd" d="M50.775 20.2997C50.775 23.0081 49.3836 24.7498 47.2822 24.7498C46.7496 24.7783 46.2201 24.6503 45.7544 24.3805C45.2886 24.1106 44.9056 23.7098 44.6492 23.2241H44.6096V27.5423H42.8917V15.9393H44.5545V17.3896H44.5857C44.854 16.906 45.2436 16.5072 45.713 16.2356C46.1824 15.9641 46.7139 15.83 47.2509 15.8476C49.3753 15.8476 50.775 17.5969 50.775 20.2997ZM46.7975 17.3734C48.1338 17.3734 49.0093 18.5341 49.0093 20.2997C49.0093 22.0805 48.1338 23.2327 46.7975 23.2327C45.4852 23.2327 44.6023 22.0556 44.6023 20.2997C44.6023 18.558 45.4852 17.3734 46.7975 17.3734Z" fill="white"/>
<path fill-rule="evenodd" clip-rule="evenodd" d="M38.8894 21.426H34.5137L33.4625 24.6581H31.6094L35.7533 12.6997H37.6791L41.824 24.6581H39.9387L38.8894 21.426ZM38.4351 19.9347H34.9661L34.967 19.9338L36.6776 14.6888H36.7245L38.4351 19.9347Z" fill="white"/>
<path fill-rule="evenodd" clip-rule="evenodd" d="M79.3469 20.2997C79.3469 17.5558 80.8974 15.8323 83.3161 15.8323C85.7431 15.8323 87.2872 17.5558 87.2872 20.2997C87.2872 23.0502 85.7514 24.766 83.3161 24.766C80.8818 24.766 79.3469 23.0502 79.3469 20.2997ZM83.3161 17.3065C84.7085 17.3065 85.5362 18.4176 85.5362 20.2997C85.5362 22.1884 84.7085 23.29 83.3161 23.29C81.9247 23.29 81.097 22.1884 81.097 20.2997C81.097 18.4262 81.9238 17.3065 83.3161 17.3065Z" fill="white"/>
<path fill-rule="evenodd" clip-rule="evenodd" d="M100.905 22.0977C100.674 23.6798 99.194 24.766 97.3004 24.766C94.8661 24.766 93.3551 23.0674 93.3551 20.3407C93.3551 17.6055 94.8735 15.8314 97.2287 15.8314C99.5444 15.8314 101 17.489 101 20.1325V20.7458H95.0887V20.8538C95.0613 21.1746 95.0999 21.4979 95.2018 21.8021C95.3037 22.1063 95.4668 22.3845 95.68 22.6183C95.8926 22.8516 96.1506 23.0351 96.4369 23.1567C96.7231 23.2783 97.031 23.3351 97.34 23.3234C97.7463 23.3628 98.154 23.2647 98.5024 23.0439C98.8507 22.823 99.1211 22.4911 99.2731 22.0977H100.905ZM99.2814 19.4952H95.0969C95.0962 19.2038 95.1508 18.9151 95.2579 18.6457C95.3649 18.3763 95.5221 18.1316 95.7205 17.9256C95.9184 17.7199 96.1536 17.5571 96.4125 17.4465C96.6714 17.336 96.9488 17.28 97.2287 17.2816C97.5063 17.2756 97.782 17.3294 98.0386 17.4396C98.2952 17.5497 98.527 17.7139 98.7195 17.9217C98.9122 18.1298 99.0616 18.3769 99.1583 18.6476C99.255 18.9184 99.2969 19.2069 99.2814 19.4952Z" fill="white"/>
</g>
</g>
</svg>
