<svg width="21" height="17" viewBox="0 0 21 17" fill="none" xmlns="http://www.w3.org/2000/svg">
<g id="Group-2">
<path id="_Compound_Path_" fill-rule="evenodd" clip-rule="evenodd" d="M19.8691 15.1699V13.6406H19.5289V14.5298C19.3958 14.3617 19.1885 14.2688 18.9736 14.2808C18.4791 14.2808 18.0781 14.6789 18.0781 15.1699C18.0781 15.661 18.4791 16.0591 18.9736 16.0591C19.1885 16.0711 19.3958 15.9781 19.5289 15.8101V16.0235H19.8691V15.1699ZM8.72975 14.336H9.3566V14.6205H8.72975V15.4385C8.71856 15.5137 8.74254 15.5898 8.79487 15.6452C8.8472 15.7006 8.92215 15.7293 8.9984 15.7231C9.11226 15.725 9.22423 15.6941 9.32078 15.6341L9.42825 15.9365C9.28556 16.015 9.1257 16.0577 8.96258 16.0609C8.53274 16.0609 8.38945 15.8298 8.38945 15.4385V14.6383H8.03125V14.336H8.38945V13.8203H8.72975V14.336ZM3.76694 14.9583V16.0252H3.39083V15.0472C3.39083 14.7627 3.24754 14.6026 2.9968 14.6026C2.87693 14.5932 2.75915 14.6377 2.67587 14.7239C2.5926 14.81 2.55263 14.9287 2.56696 15.0472V16.0252H2.22666V15.0472C2.22666 14.7627 2.08338 14.6026 1.83264 14.6026C1.71277 14.5932 1.59498 14.6377 1.51171 14.7239C1.42844 14.81 1.38847 14.9287 1.40279 15.0472V16.0252H1.0625V14.3181H1.40279V14.5315C1.52286 14.3672 1.71794 14.2737 1.92219 14.2825C2.15499 14.2696 2.37577 14.3861 2.49532 14.5848C2.63268 14.3871 2.86251 14.273 3.10426 14.2825C3.28656 14.2709 3.46487 14.339 3.5923 14.4689C3.71974 14.5989 3.78354 14.7777 3.76694 14.9583ZM12.5403 14.2814C12.3519 14.2775 12.1752 14.372 12.0747 14.5303V14.3169H11.7344V16.0241H12.0747V15.0638C12.0747 14.7793 12.218 14.6015 12.4508 14.6015C12.5295 14.6046 12.6076 14.6165 12.6836 14.637L12.7911 14.3169C12.709 14.2964 12.6249 14.2845 12.5403 14.2814ZM7.02242 14.2826C7.26793 14.2712 7.51124 14.3331 7.72092 14.4604L7.54182 14.7272C7.37525 14.6416 7.1919 14.593 7.00451 14.5849C6.8075 14.5849 6.66422 14.6916 6.66422 14.7983C6.66422 14.905 6.8075 14.9583 6.96869 14.9761L7.1478 14.9939C7.52391 15.0472 7.73883 15.1717 7.73883 15.4918C7.73883 15.8119 7.47018 16.0431 6.96869 16.0431C6.70787 16.0469 6.45196 15.9725 6.23438 15.8297L6.41348 15.5629C6.57993 15.6826 6.78116 15.745 6.9866 15.7408C7.25526 15.7408 7.39854 15.6519 7.39854 15.5274C7.39854 15.4385 7.27317 15.3673 7.07615 15.3318L6.89705 15.314C6.52094 15.2606 6.32393 15.1006 6.32393 14.8161C6.32393 14.4782 6.59258 14.2826 7.02242 14.2826ZM12.94 15.1718C12.9252 15.4118 13.0147 15.6466 13.186 15.8166C13.3573 15.9867 13.5937 16.0756 13.8355 16.0609C14.0558 16.0724 14.2727 16.0027 14.4444 15.8653L14.2653 15.5985C14.1388 15.701 13.9808 15.7574 13.8176 15.7586C13.5186 15.7351 13.288 15.4873 13.288 15.1895C13.288 14.8917 13.5186 14.644 13.8176 14.6205C13.9808 14.6216 14.1388 14.6781 14.2653 14.7805L14.4444 14.5138C14.2727 14.3763 14.0558 14.3067 13.8355 14.3182C13.5967 14.2897 13.3577 14.3691 13.1842 14.5345C13.0107 14.6998 12.9211 14.9337 12.94 15.1718ZM9.67365 15.1704C9.67365 14.6369 10.0139 14.2812 10.5154 14.2812C10.999 14.2812 11.3214 14.6369 11.3214 15.1704V15.3126H10.0498C10.0787 15.5731 10.3054 15.7672 10.5692 15.7572C10.7511 15.7524 10.9268 15.6901 11.0706 15.5794L11.2497 15.8283C11.0507 15.9831 10.804 16.0647 10.5512 16.0595C10.3122 16.0701 10.0799 15.9792 9.91245 15.8096C9.74497 15.6399 9.65814 15.4075 9.67365 15.1704ZM10.5148 14.6022C10.632 14.5968 10.7463 14.6395 10.831 14.7202C10.9156 14.8009 10.9632 14.9125 10.9626 15.029H10.0312C10.0476 14.7793 10.2631 14.589 10.5148 14.6022ZM5.87696 14.3179V15.1714V16.025H5.53666V15.8116C5.40364 15.9796 5.19636 16.0726 4.98145 16.0606C4.48687 16.0606 4.08594 15.6625 4.08594 15.1714C4.08594 14.6804 4.48687 14.2823 4.98145 14.2823C5.19636 14.2703 5.40364 14.3632 5.53666 14.5312V14.3179H5.87696ZM4.48645 15.1698C4.50592 14.8806 4.7544 14.6597 5.04606 14.6724C5.33771 14.6851 5.56581 14.9266 5.55975 15.2164C5.5537 15.5062 5.31569 15.7382 5.02376 15.7388C4.87379 15.7425 4.72939 15.6824 4.62679 15.5738C4.52419 15.4651 4.47314 15.3182 4.48645 15.1698ZM17.2544 14.5303C17.3548 14.372 17.5316 14.2775 17.72 14.2814C17.8046 14.2845 17.8887 14.2964 17.9708 14.3169L17.8633 14.637C17.7873 14.6165 17.7092 14.6046 17.6305 14.6015C17.3976 14.6015 17.2544 14.7793 17.2544 15.0638V16.0241H16.9141V14.3169H17.2544V14.5303ZM20.4766 15.774C20.5018 15.7714 20.5272 15.7777 20.5482 15.7918C20.5661 15.7918 20.584 15.8096 20.6019 15.8274C20.6199 15.8452 20.6378 15.8629 20.6378 15.8807C20.6378 15.8881 20.6408 15.8955 20.6444 15.9041C20.6495 15.9163 20.6557 15.931 20.6557 15.9519C20.6584 15.9769 20.652 16.0021 20.6378 16.023C20.6288 16.0319 20.6243 16.0408 20.6199 16.0497C20.6154 16.0586 20.6109 16.0674 20.6019 16.0763C20.584 16.0941 20.5661 16.1119 20.5482 16.1119C20.5408 16.1119 20.5334 16.115 20.5247 16.1185C20.5124 16.1236 20.4976 16.1297 20.4766 16.1297C20.4513 16.1323 20.426 16.126 20.4049 16.1119C20.396 16.103 20.387 16.0986 20.3781 16.0941C20.3691 16.0897 20.3602 16.0852 20.3512 16.0763C20.3333 16.0586 20.3154 16.0408 20.3154 16.023C20.3154 16.0156 20.3123 16.0083 20.3087 15.9996C20.3036 15.9874 20.2975 15.9727 20.2975 15.9519C20.2948 15.9268 20.3011 15.9016 20.3154 15.8807C20.3243 15.8718 20.3288 15.8629 20.3333 15.8541C20.3378 15.8452 20.3423 15.8363 20.3512 15.8274C20.3691 15.8096 20.387 15.7918 20.4049 15.7918C20.4139 15.7918 20.4273 15.7874 20.4408 15.7829C20.4542 15.7785 20.4676 15.774 20.4766 15.774ZM20.5334 16.0602C20.5191 16.0738 20.4994 16.0803 20.4797 16.078C20.46 16.0803 20.4403 16.0738 20.426 16.0602L20.409 16.0433H20.4421V15.99H20.46L20.4609 15.9909V15.9952H20.4652L20.5137 16.0433H20.5625C20.556 16.0527 20.5455 16.0591 20.5334 16.0602ZM20.5644 16.0403L20.5674 16.0433H20.5625L20.5644 16.0403ZM20.5189 15.9952L20.5644 16.0403C20.567 16.0356 20.5687 16.0303 20.5692 16.0246L20.6051 15.9891C20.6051 15.9802 20.6095 15.9713 20.614 15.9624C20.6185 15.9535 20.623 15.9446 20.623 15.9357C20.6253 15.9162 20.6188 15.8966 20.6051 15.8824C20.6034 15.8634 20.5883 15.8484 20.5692 15.8468L20.5334 15.8112C20.5245 15.8112 20.5155 15.8068 20.5066 15.8023C20.4976 15.7979 20.4886 15.7934 20.4797 15.7934C20.46 15.7911 20.4403 15.7976 20.426 15.8112C20.4069 15.8129 20.3918 15.8279 20.3901 15.8468L20.3543 15.8824C20.3543 15.8912 20.3498 15.9001 20.3454 15.909C20.3409 15.9179 20.3364 15.9268 20.3364 15.9357C20.334 15.9553 20.3406 15.9748 20.3543 15.9891C20.356 16.008 20.3711 16.023 20.3901 16.0246L20.4062 16.0406V16.0433H20.409L20.4062 16.0406V15.8833H20.4958C20.5155 15.8809 20.5352 15.8875 20.5495 15.9011L20.5502 15.9017H20.4609V15.9909L20.4652 15.9952H20.5189ZM20.5609 15.9605V15.9952H20.5189L20.5137 15.99C20.5273 15.9881 20.5399 15.9819 20.5495 15.9722C20.5547 15.9671 20.5583 15.9635 20.5609 15.9605ZM20.5609 15.9128C20.5636 15.9159 20.5651 15.9183 20.5661 15.9209C20.5674 15.9247 20.5674 15.9291 20.5674 15.9366C20.5674 15.9442 20.5674 15.9485 20.5661 15.9524C20.5651 15.955 20.5636 15.9574 20.5609 15.9605V15.9128ZM20.5609 15.9128V15.9017H20.5502C20.555 15.9065 20.5584 15.9099 20.5609 15.9128ZM16.3926 15.1714V14.3179H16.0523V14.5312C15.9193 14.3632 15.712 14.2703 15.4971 14.2823C15.0025 14.2823 14.6016 14.6804 14.6016 15.1714C14.6016 15.6625 15.0025 16.0606 15.4971 16.0606C15.712 16.0726 15.9193 15.9796 16.0523 15.8116V16.025H16.3926V15.1714ZM15.5752 14.6724C15.2836 14.6597 15.0351 14.8806 15.0156 15.1698C15.0156 15.4899 15.2126 15.7566 15.5529 15.7388C15.8449 15.7382 16.0829 15.5062 16.0889 15.2164C16.095 14.9266 15.8669 14.6851 15.5752 14.6724ZM19.0304 14.6724C18.7388 14.6597 18.4903 14.8806 18.4708 15.1698C18.4575 15.3182 18.5086 15.4651 18.6112 15.5738C18.7138 15.6824 18.8582 15.7425 19.0081 15.7388C19.3001 15.7382 19.5381 15.5062 19.5441 15.2164C19.5502 14.9266 19.3221 14.6851 19.0304 14.6724Z" fill="#1D1D1F"/>
<g id="_Group_">
<rect id="Rectangle-path" x="7.32812" y="1.36719" width="6.21484" height="10.065" fill="#FF5F00"/>
<path id="_Path_" fill-rule="evenodd" clip-rule="evenodd" d="M7.97966 6.40177C7.9802 4.44016 8.88401 2.58645 10.4334 1.36927C8.21295 -0.364106 5.11474 -0.460783 2.78909 1.13074C0.463439 2.72226 -0.54817 5.63142 0.293128 8.30856C1.13443 10.9857 3.63275 12.8075 6.45729 12.8035C7.9001 12.8046 9.30104 12.3221 10.4334 11.4343C8.88401 10.2171 7.9802 8.36339 7.97966 6.40177Z" fill="#EB001B"/>
<path id="Shape" fill-rule="evenodd" clip-rule="evenodd" d="M20.2504 10.1532V10.3695H20.2146V10.1532H20.125V10.1172H20.3399V10.1532H20.2504ZM20.6772 10.1172V10.3695H20.6414V10.1712L20.5697 10.3334H20.516L20.4444 10.1712V10.3695H20.3906V10.1172H20.4623L20.5339 10.2974L20.6055 10.1172H20.6772Z" fill="#F79E1B"/>
<path id="Shape_2" fill-rule="evenodd" clip-rule="evenodd" d="M20.8769 6.40251C20.8741 8.85027 19.4658 11.0822 17.2487 12.1526C15.0316 13.223 12.3939 12.9445 10.4531 11.435C12.0029 10.2182 12.9068 8.36424 12.9068 6.40251C12.9068 4.44079 12.0029 2.58686 10.4531 1.37001C12.3939 -0.139445 15.0316 -0.417985 17.2487 0.652413C19.4658 1.72281 20.8741 3.95475 20.8769 6.40251Z" fill="#F79E1B"/>
</g>
</g>
</svg>
