<svg width="30" height="18" viewBox="0 0 30 18" fill="none" xmlns="http://www.w3.org/2000/svg">
<g id="Group-3">
<rect id="Rectangle-path" x="0.876953" width="28.513" height="17.9783" fill="white"/>
<rect id="Rectangle-path_2" x="1.3457" y="15.0625" width="27.5638" height="2.45401" fill="#F7B600"/>
<rect id="Rectangle-path_3" x="1.3457" y="0.480469" width="27.5638" height="2.45401" fill="#1A1F71"/>
<path id="Shape" fill-rule="evenodd" clip-rule="evenodd" d="M19.6652 10.1708C19.6652 9.10422 18.7761 8.63898 18.0682 8.26859C17.5959 8.02144 17.2043 7.81653 17.2115 7.50338C17.2115 7.25443 17.4443 7.00547 17.9637 6.93434C18.5596 6.87909 19.1595 6.98348 19.701 7.23664L20.0055 5.81403C19.4796 5.61354 18.921 5.51106 18.3577 5.51172C16.6205 5.51172 15.4026 6.43642 15.3847 7.73456C15.3667 8.71261 16.2623 9.24609 16.9249 9.56618C17.5876 9.88626 17.8384 10.1174 17.8384 10.402C17.8384 10.8465 17.2831 11.0599 16.7817 11.0599C16.1515 11.0772 15.5277 10.9301 14.9727 10.6331L14.6503 12.1091C15.2705 12.3563 15.9344 12.4772 16.6025 12.4648C18.4473 12.4825 19.6473 11.5756 19.6652 10.1708ZM12.3757 5.63672L9.52802 12.3764H7.66536L6.26836 6.9882C6.17881 6.65033 6.10717 6.54364 5.85643 6.40137C5.30464 6.13769 4.72064 5.9464 4.11914 5.83233L4.15496 5.63672H7.14596C7.55026 5.63853 7.89265 5.93316 7.95192 6.33024L8.68624 10.2247L10.5131 5.63672H12.3757ZM25.8868 12.3764H24.2569L24.0241 11.3628H21.7674L21.4092 12.3764H19.5645L22.2152 6.13469C22.3385 5.83058 22.6372 5.63285 22.9674 5.63678H24.4718L25.8868 12.3764ZM22.2832 9.99389L23.2145 7.46875L23.7518 9.99389H22.2832ZM13.429 12.3764L14.8798 5.63672H13.1246L11.6738 12.3764H13.429Z" fill="#1A1F71"/>
</g>
</svg>
