<svg width="24" height="25" viewBox="0 0 24 25" fill="none" xmlns="http://www.w3.org/2000/svg">
<g id="&#208;&#152;&#208;&#186;&#208;&#190;&#208;&#189;&#208;&#186;&#208;&#176;">
<path id="Vector (Stroke)" fill-rule="evenodd" clip-rule="evenodd" d="M5.2 1.9C5.38885 1.64819 5.68524 1.5 6 1.5H18C18.3148 1.5 18.6111 1.64819 18.8 1.9L21.8 5.9C21.9298 6.0731 22 6.28363 22 6.5V20.5C22 21.2957 21.6839 22.0587 21.1213 22.6213C20.5587 23.1839 19.7957 23.5 19 23.5H5C4.20435 23.5 3.44129 23.1839 2.87868 22.6213C2.31607 22.0587 2 21.2957 2 20.5V6.5C2 6.28363 2.07018 6.0731 2.2 5.9L5.2 1.9ZM6.5 3.5L4 6.83333V20.5C4 20.7652 4.10536 21.0196 4.29289 21.2071C4.48043 21.3946 4.73478 21.5 5 21.5H19C19.2652 21.5 19.5196 21.3946 19.7071 21.2071C19.8946 21.0196 20 20.7652 20 20.5V6.83333L17.5 3.5H6.5Z" fill="white"/>
<path id="Vector (Stroke)_2" fill-rule="evenodd" clip-rule="evenodd" d="M2 6.5C2 5.94772 2.44772 5.5 3 5.5H21C21.5523 5.5 22 5.94772 22 6.5C22 7.05228 21.5523 7.5 21 7.5H3C2.44772 7.5 2 7.05228 2 6.5Z" fill="white"/>
<path id="Vector (Stroke)_3" fill-rule="evenodd" clip-rule="evenodd" d="M8 9.5C8.55228 9.5 9 9.94772 9 10.5C9 11.2956 9.31607 12.0587 9.87868 12.6213C10.4413 13.1839 11.2044 13.5 12 13.5C12.7956 13.5 13.5587 13.1839 14.1213 12.6213C14.6839 12.0587 15 11.2956 15 10.5C15 9.94772 15.4477 9.5 16 9.5C16.5523 9.5 17 9.94772 17 10.5C17 11.8261 16.4732 13.0979 15.5355 14.0355C14.5979 14.9732 13.3261 15.5 12 15.5C10.6739 15.5 9.40215 14.9732 8.46447 14.0355C7.52678 13.0979 7 11.8261 7 10.5C7 9.94772 7.44772 9.5 8 9.5Z" fill="white"/>
</g>
</svg>
