<svg width="18.708984" height="18.708984" viewBox="0 0 18.709 18.709" fill="none" xmlns="http://www.w3.org/2000/svg" xmlns:xlink="http://www.w3.org/1999/xlink">
	<desc>
			Created with Pixso.
	</desc>
	<defs>
		<clipPath id="clip18_38775">
			<rect id="Component 630/trash 1" width="18.709677" height="18.709677" fill="white" fill-opacity="0"/>
		</clipPath>
	</defs>
	<rect id="Component 630/trash 1" width="18.709677" height="18.709677" fill="#FFFFFF" fill-opacity="0"/>
	<g clip-path="url(#clip18_38775)">
		<path id="Vector (Stroke)" d="M1.55859 4.67773C1.55859 4.24805 1.9082 3.89844 2.33789 3.89844L16.3711 3.89844C16.8008 3.89844 17.1504 4.24805 17.1504 4.67773C17.1504 5.10938 16.8008 5.45703 16.3711 5.45703L2.33789 5.45703C1.9082 5.45703 1.55859 5.10938 1.55859 4.67773Z" fill="#686870" fill-opacity="1.000000" fill-rule="evenodd"/>
		<path id="Vector (Stroke)" d="M7.79688 2.33789C7.58984 2.33789 7.39062 2.41992 7.24609 2.56641C7.09961 2.71289 7.01758 2.91211 7.01758 3.11719L7.01758 4.67773C7.01758 5.10742 6.66797 5.45703 6.23828 5.45703C5.80664 5.45703 5.45703 5.10742 5.45703 4.67773L5.45703 3.11719C5.45703 2.49805 5.70508 1.90234 6.14258 1.46484C6.58203 1.02539 7.17578 0.779297 7.79688 0.779297L10.9141 0.779297C11.5352 0.779297 12.1309 1.02539 12.5684 1.46484C13.0078 1.90234 13.2539 2.49805 13.2539 3.11719L13.2539 4.67773C13.2539 5.10742 12.9043 5.45703 12.4746 5.45703C12.043 5.45703 11.6953 5.10742 11.6953 4.67773L11.6953 3.11719C11.6953 2.91211 11.6113 2.71289 11.4668 2.56641C11.3203 2.41992 11.1211 2.33789 10.9141 2.33789L7.79688 2.33789ZM3.89844 3.89844C4.33008 3.89844 4.67773 4.24609 4.67773 4.67773L4.67773 15.5918C4.67773 15.7988 4.75977 15.9961 4.90625 16.1426C5.05273 16.2891 5.25195 16.3711 5.45703 16.3711L13.2539 16.3711C13.4609 16.3711 13.6582 16.2891 13.8047 16.1426C13.9512 15.9961 14.0332 15.7988 14.0332 15.5918L14.0332 4.67773C14.0332 4.24609 14.3828 3.89844 14.8125 3.89844C15.2441 3.89844 15.5918 4.24609 15.5918 4.67773L15.5918 15.5918C15.5918 16.2109 15.3457 16.8066 14.9082 17.2441C14.4688 17.6836 13.873 17.9297 13.2539 17.9297L5.45703 17.9297C4.83789 17.9297 4.24219 17.6836 3.80469 17.2441C3.36523 16.8066 3.11914 16.2109 3.11914 15.5918L3.11914 4.67773C3.11914 4.24609 3.46875 3.89844 3.89844 3.89844Z" fill="#686870" fill-opacity="1.000000" fill-rule="evenodd"/>
	</g>
</svg>
