<svg width="16" height="17" viewBox="0 0 16 17" fill="none" xmlns="http://www.w3.org/2000/svg">
<g id="&#208;&#152;&#208;&#186;&#208;&#190;&#208;&#189;&#208;&#186;&#208;&#176; &#34;&#208;&#160;&#208;&#181;&#208;&#180;&#208;&#176;&#208;&#186;&#209;&#130;&#208;&#184;&#209;&#128;&#208;&#190;&#208;&#178;&#208;&#176;&#209;&#130;&#209;&#140;&#34;">
<path id="Vector (Stroke)" fill-rule="evenodd" clip-rule="evenodd" d="M11.8111 3.40039C11.677 3.40039 11.5442 3.42681 11.4202 3.47815C11.2963 3.52949 11.1837 3.60474 11.0888 3.69959L3.92039 10.868L3.37864 12.8544L5.36508 12.3127L12.5335 5.14428C12.6283 5.04942 12.7036 4.93681 12.7549 4.81287C12.8063 4.68893 12.8327 4.55609 12.8327 4.42194C12.8327 4.28778 12.8063 4.15495 12.7549 4.03101C12.7036 3.90707 12.6283 3.79445 12.5335 3.69959C12.4386 3.60474 12.326 3.52949 12.2021 3.47815C12.0781 3.42681 11.9453 3.40039 11.8111 3.40039ZM11.0375 2.55427C11.2828 2.45268 11.5457 2.40039 11.8111 2.40039C12.0766 2.40039 12.3395 2.45268 12.5848 2.55427C12.83 2.65586 13.0529 2.80477 13.2406 2.99249C13.4283 3.18021 13.5772 3.40306 13.6788 3.64833C13.7804 3.89359 13.8327 4.15647 13.8327 4.42194C13.8327 4.68741 13.7804 4.95028 13.6788 5.19555C13.5772 5.44082 13.4283 5.66367 13.2406 5.85139L5.9783 13.1137C5.91677 13.1752 5.84025 13.2196 5.7563 13.2425L2.79759 14.0494C2.62448 14.0966 2.43935 14.0475 2.31247 13.9206C2.1856 13.7937 2.13643 13.6086 2.18365 13.4355L2.99057 10.4768C3.01346 10.3928 3.05787 10.3163 3.1194 10.2548L10.3817 2.99249C10.5694 2.80477 10.7923 2.65586 11.0375 2.55427Z" fill="#686870"/>
</g>
</svg>
