<svg width="323.000000" height="175.000000" viewBox="0 0 323 175" fill="none" xmlns="http://www.w3.org/2000/svg" xmlns:xlink="http://www.w3.org/1999/xlink">
	<desc>
			Created with Pixso.
	</desc>
	<defs>
		<clipPath id="clip124_164321">
			<rect id="clipboard" width="154.000000" height="153.999985" transform="translate(83.998047 10.998047)" fill="white" fill-opacity="0"/>
		</clipPath>
	</defs>
	<rect id="Frame 5957" width="323.000000" height="175.000000" fill="#FFFFFF" fill-opacity="0"/>
	<path id="Vector" d="M233.404 30.8477C258.08 47.5879 282.408 67.0938 287.133 90.3359C291.857 113.576 276.807 140.553 252.305 155.217C227.803 169.881 193.676 172.371 160.074 171.957C126.471 171.541 93.2188 168.359 68.8926 153.695C44.5645 139.031 28.9902 112.746 37.2148 93.1016C45.4414 73.457 77.4668 60.3145 101.795 43.5762C126.297 26.8359 142.922 6.63867 163.574 3.45703C184.225 0.275391 208.902 14.1094 233.404 30.8477Z" fill="#EDEDED" fill-opacity="1.000000" fill-rule="nonzero"/>
	<rect id="clipboard" width="154.000000" height="153.999985" transform="translate(83.998047 10.998047)" fill="#FFFFFF" fill-opacity="0"/>
	<g clip-path="url(#clip124_164321)">
		<path id="Vector" d="M186.676 36.207L199.51 36.207C202.912 36.207 206.178 37.5586 208.584 39.9668C210.99 42.373 212.342 45.6367 212.342 49.041L212.342 138.873C212.342 142.277 210.99 145.541 208.584 147.947C206.178 150.355 202.912 151.707 199.51 151.707L122.51 151.707C119.105 151.707 115.842 150.355 113.436 147.947C111.027 145.541 109.676 142.277 109.676 138.873L109.676 49.041C109.676 45.6367 111.027 42.373 113.436 39.9668C115.842 37.5586 119.105 36.207 122.51 36.207L135.342 36.207" stroke="#1D1D1F" stroke-opacity="1.000000" stroke-width="5.000000" stroke-linejoin="round" stroke-linecap="round"/>
		<path id="Vector" d="M145.752 28.8281L184.252 28.8281C187.797 28.8281 190.67 31.7012 190.67 35.2441L190.67 48.0781C190.67 51.6211 187.797 54.4941 184.252 54.4941L145.752 54.4941C142.209 54.4941 139.336 51.6211 139.336 48.0781L139.336 35.2441C139.336 31.7012 142.209 28.8281 145.752 28.8281Z" fill="#FF6633" fill-opacity="1.000000" fill-rule="evenodd"/>
		<path id="Vector" d="M180.25 23.832C183.795 23.832 186.668 26.7051 186.668 30.248L186.668 43.082C186.668 46.625 183.795 49.498 180.25 49.498L141.75 49.498C138.207 49.498 135.334 46.625 135.334 43.082L135.334 30.248C135.334 26.7051 138.207 23.832 141.75 23.832L180.25 23.832Z" stroke="#1D1D1F" stroke-opacity="1.000000" stroke-width="5.000000" stroke-linejoin="round"/>
		<rect id="Frame 5961" width="66.287308" height="65.272972" transform="translate(127.753906 70.000000)" fill="#FFFFFF" fill-opacity="0"/>
		<path id="Vector" d="M190.025 100.672L128.158 100.672" stroke="#1D1D1F" stroke-opacity="1.000000" stroke-width="5.000000" stroke-linejoin="round" stroke-linecap="round"/>
		<path id="Vector" d="M190.025 131.656L128.158 131.656" stroke="#1D1D1F" stroke-opacity="1.000000" stroke-width="5.000000" stroke-linejoin="round" stroke-linecap="round"/>
		<path id="Vector" d="M190.426 70L159.09 70L127.754 70" stroke="#1D1D1F" stroke-opacity="1.000000" stroke-width="5.000000" stroke-linejoin="round" stroke-linecap="round"/>
	</g>
	<circle id="Ellipse 100" cx="278.001953" cy="29.000000" r="10.000000" stroke="#1D1D1F" stroke-opacity="1.000000" stroke-width="3.000000" stroke-linejoin="round"/>
	<path id="Vector 256" d="M76.0703 19L76.0703 19Z" stroke="#1D1D1F" stroke-opacity="1.000000" stroke-width="3.000000" stroke-linejoin="round" stroke-linecap="round"/>
	<path id="Vector 257" d="M83.8848 34.0664L83.8848 34.0664Z" stroke="#1D1D1F" stroke-opacity="1.000000" stroke-width="3.000000" stroke-linejoin="round" stroke-linecap="round"/>
	<path id="Vector 258" d="M62.9062 27.4141L62.9062 27.4141Z" stroke="#1D1D1F" stroke-opacity="1.000000" stroke-width="3.000000" stroke-linejoin="round" stroke-linecap="round"/>
	<path id="Vector 259" d="M69.4141 39.9688L69.4141 39.9688Z" stroke="#1D1D1F" stroke-opacity="1.000000" stroke-width="3.000000" stroke-linejoin="round" stroke-linecap="round"/>
</svg>
