<svg width="26" height="26" viewBox="0 0 26 26" fill="none" xmlns="http://www.w3.org/2000/svg">
<g id="&#208;&#164;&#208;&#181;&#208;&#185;&#209;&#129;&#208;&#177;&#209;&#131;&#208;&#186;">
<rect width="26" height="26" rx="6" fill="#9E9E9E"/>
<path id="free-icon-facebook-174848 1 (Traced)" d="M12.9037 24.293V25.9982L16.8923 26L16.9255 23.7017C16.9437 22.4377 16.9587 20.3004 16.9587 18.9521L16.9588 16.5008H18.5883C20.3717 16.5008 20.438 16.4907 20.5844 16.1974C20.6272 16.1117 20.7352 15.3726 20.8461 14.4067C21.0238 12.8597 21.0301 12.7536 20.9532 12.621C20.9082 12.5435 20.8117 12.4334 20.7388 12.3764C20.6126 12.2776 20.5161 12.2719 18.7513 12.2572L16.8964 12.2418L16.9215 10.6749C16.9483 8.99069 16.9733 8.80657 17.2296 8.40539C17.3669 8.19024 17.6996 7.96129 17.999 7.8759C18.1014 7.84664 18.7075 7.80841 19.3458 7.79092C21.0024 7.74547 20.9276 7.84166 20.9041 5.78764C20.8892 4.4771 20.8855 4.43404 20.7739 4.27197C20.7029 4.16878 20.5883 4.08484 20.4735 4.05179C20.2347 3.98305 18.1098 3.98263 17.3626 4.05117C15.2934 4.24094 13.9118 5.28186 13.2583 7.14331C12.9918 7.90246 12.944 8.35662 12.9168 10.3888L12.8919 12.2402L11.6587 12.2568C10.3255 12.2748 10.2345 12.2922 10.0834 12.5574C10.0103 12.6857 10 12.9086 10 14.3714C10 16.2024 10.0094 16.2671 10.2987 16.4221C10.4186 16.4863 10.6775 16.5008 11.7078 16.5008H12.9701L12.9369 19.5443C12.9186 21.2182 12.9037 23.3552 12.9037 24.293Z" fill="white"/>
</g>
</svg>
