<svg width="323" height="178" viewBox="0 0 323 178" fill="none" xmlns="http://www.w3.org/2000/svg">
<path d="M271.428 36.7825C280.123 60.795 250.967 97.4098 227.779 125.339C204.591 153.269 187.37 172.342 165.375 174.897C143.551 177.622 117.123 163.657 101.437 139.985C85.5804 116.484 80.2948 82.9342 93.4235 56.3672C106.723 29.9705 138.266 10.3859 177.311 6.12833C216.355 1.8708 262.732 12.9404 271.428 36.7825Z" fill="#EDEDED"/>
<path d="M186.818 100.293C187.492 98.9921 188.313 97.7516 189.276 96.5948C196.541 87.8673 209.552 86.6083 218.355 93.7811C227.179 100.971 228.431 113.905 221.149 122.653C219.032 125.197 210.016 134.665 193.877 151.302C192.763 152.45 190.982 152.622 189.67 151.709C170.65 138.483 159.986 130.919 157.41 128.821C148.586 121.631 147.335 108.697 154.617 99.9485C161.881 91.221 174.893 89.962 183.696 97.1348C184.863 98.0855 185.906 99.1456 186.818 100.293Z" fill="#FF6633"/>
<path d="M182.818 95.2934C183.492 93.9921 184.313 92.7516 185.276 91.5948C192.541 82.8673 205.552 81.6083 214.355 88.7811C223.179 95.9708 224.431 108.905 217.149 117.653C215.032 120.197 206.016 129.665 189.877 146.302C188.763 147.45 186.982 147.622 185.67 146.709C166.65 133.483 155.986 125.919 153.41 123.821C144.586 116.631 143.335 103.697 150.617 94.9485C157.881 86.221 170.893 84.962 179.696 92.1348C180.863 93.0855 181.906 94.1456 182.818 95.2934Z" stroke="#1D1D1F" stroke-width="4" stroke-linecap="round" stroke-linejoin="round"/>
<path d="M230.972 6.05286C231.303 5.41734 231.705 4.81151 232.176 4.24655C235.734 -0.0158254 242.107 -0.630704 246.418 2.87237C250.739 6.38368 251.352 12.7006 247.786 16.973C246.749 18.2153 242.334 22.8391 234.429 30.9647C233.884 31.5253 233.012 31.6094 232.369 31.1636C223.054 24.7041 217.831 21.0101 216.57 19.985C212.248 16.4737 211.635 10.1568 215.201 5.88445C218.759 1.62207 225.132 1.00719 229.443 4.51026C230.015 4.97458 230.526 5.4923 230.972 6.05286Z" fill="#FF6633"/>
<path d="M229.011 11.6115C229.342 10.9759 229.744 10.3701 230.215 9.80514C233.773 5.54277 240.146 4.92789 244.457 8.43096C248.779 11.9423 249.392 18.2592 245.825 22.5316C244.788 23.7739 240.373 28.3977 232.468 36.5233C231.923 37.0839 231.051 37.168 230.408 36.7222C221.093 30.2627 215.87 26.5687 214.609 25.5436C210.287 22.0323 209.674 15.7154 213.24 11.443C216.798 7.18066 223.171 6.56579 227.482 10.0689C228.054 10.5332 228.565 11.0509 229.011 11.6115Z" stroke="#1D1D1F" stroke-width="4" stroke-linecap="round" stroke-linejoin="round"/>
<path d="M81.0529 32.1066C81.7493 31.2539 82.544 30.4685 83.4301 29.7665C90.1154 24.4699 99.8746 25.5493 105.241 32.1788C110.62 38.8238 109.547 48.5251 102.846 53.8341C100.897 55.3779 92.8104 60.9487 78.3823 70.6928C77.387 71.365 76.0512 71.2173 75.2268 70.3439C63.2831 57.6901 56.6088 50.4864 55.0386 48.5466C49.6598 41.9016 50.7328 32.2002 57.4338 26.8912C64.119 21.5947 73.8783 22.6741 79.2445 29.3035C79.9558 30.1822 80.5596 31.1223 81.0529 32.1066Z" fill="#FF6633"/>
<path d="M86.881 29.8136C87.5775 28.961 88.3721 28.1755 89.2582 27.4735C95.9435 22.177 105.703 23.2563 111.069 29.8858C116.448 36.5308 115.375 46.2322 108.674 51.5412C106.725 53.0849 98.6386 58.6557 84.2104 68.3999C83.2151 69.0721 81.8793 68.9244 81.0549 68.0509C69.1113 55.3971 62.437 48.1935 60.8668 46.2536C55.4879 39.6086 56.5609 29.9073 63.2619 24.5983C69.9472 19.3017 79.7064 20.3811 85.0727 27.0106C85.7839 27.8893 86.3878 28.8294 86.881 29.8136Z" stroke="#1D1D1F" stroke-width="4" stroke-linecap="round" stroke-linejoin="round"/>
</svg>
