<svg width="21" height="22" viewBox="0 0 21 22" fill="none" xmlns="http://www.w3.org/2000/svg">
<path d="M5.68555 11.9353V18.1697C5.68555 19.0442 6.40037 19.7531 7.28207 19.7531H13.6682C14.5499 19.7531 15.2647 19.0442 15.2647 18.1697V8.43457L6.57034 8.43457C5.99219 9.50649 5.68555 10.7082 5.68555 11.9353Z" fill="#FFF6DE"/>
<path fill-rule="evenodd" clip-rule="evenodd" d="M1.75356 5.04492C2.00671 4.63936 2.54343 4.51412 2.95237 4.76518L19.7159 15.0568C20.1248 15.3079 20.2511 15.8402 19.998 16.2457C19.7448 16.6513 19.2081 16.7765 18.7992 16.5255L2.03563 6.23382C1.6267 5.98276 1.50041 5.45047 1.75356 5.04492Z" fill="#FF6633"/>
<path fill-rule="evenodd" clip-rule="evenodd" d="M6.41325 2.33434C6.41325 1.85737 6.80313 1.4707 7.28408 1.4707H13.8902C14.3711 1.4707 14.761 1.85737 14.761 2.33434C14.761 2.78325 14.4156 3.15216 13.9741 3.19402L14.0029 5.4021C14.0029 5.66008 14.1361 6.06705 14.4155 6.57929C14.6807 7.06549 15.0193 7.54329 15.3009 7.91562C15.3274 7.95071 15.3512 7.98775 15.3721 8.02642C16.0175 9.22305 16.3598 10.5646 16.3598 11.9345V18.169C16.3598 19.5203 15.2551 20.6159 13.8924 20.6159H7.28181C5.91916 20.6159 4.81445 19.5203 4.81445 18.169V11.9345C4.81445 10.5646 5.15678 9.22305 5.8022 8.02642C5.82306 7.98775 5.84686 7.95071 5.87339 7.91562C6.15494 7.54329 6.49356 7.06549 6.75878 6.57929C7.03819 6.06705 7.17139 5.66008 7.17139 5.4021V5.3909L7.20019 3.19402C6.7586 3.15216 6.41325 2.78325 6.41325 2.33434ZM8.94196 3.19798L8.91304 5.40831C8.91122 6.11188 8.60068 6.83279 8.29065 7.40115C7.98021 7.97026 7.60385 8.5031 7.30821 8.89692C6.81655 9.82995 6.55612 10.8715 6.55612 11.9345V18.169C6.55612 18.5664 6.88105 18.8886 7.28181 18.8886H13.8924C14.2932 18.8886 14.6181 18.5664 14.6181 18.169V11.9345C14.6181 10.8715 14.3577 9.82995 13.866 8.89692C13.5704 8.5031 13.194 7.97026 12.8836 7.40115C12.5736 6.83279 12.263 6.11189 12.2612 5.40833L12.2323 3.19798H8.94196Z" fill="#1D1D1F"/>
</svg>
