<svg width="123" height="37" viewBox="0 0 123 37" fill="none" xmlns="http://www.w3.org/2000/svg">
<path d="M118.444 0H4.55556C2.03959 0 0 2.07068 0 4.625V32.375C0 34.9293 2.03959 37 4.55556 37H118.444C120.96 37 123 34.9293 123 32.375V4.625C123 2.07068 120.96 0 118.444 0Z" fill="#1D1D1F"/>
<path d="M62.0855 16.8521C61.3178 16.854 60.568 17.0869 59.9307 17.5214C59.2934 17.9559 58.7974 18.5725 58.5053 19.2932C58.2132 20.0139 58.1381 20.8064 58.2897 21.5704C58.4412 22.3345 58.8125 23.0357 59.3566 23.5855C59.9006 24.1353 60.5931 24.5089 61.3463 24.6592C62.0996 24.8094 62.8798 24.7296 63.5884 24.4296C64.2969 24.1297 64.9019 23.6232 65.3269 22.9742C65.7519 22.3251 65.9777 21.5627 65.9759 20.7834C65.9834 20.2635 65.8877 19.7474 65.6946 19.2658C65.5015 18.7842 65.2149 18.347 64.8519 17.9802C64.4889 17.6134 64.0569 17.3245 63.5816 17.1307C63.1064 16.9369 62.5976 16.8421 62.0855 16.8521ZM62.0855 23.1699C61.615 23.2033 61.1454 23.0922 60.7379 22.8511C60.3304 22.61 60.0038 22.25 59.8004 21.8179C59.5971 21.3858 59.5265 20.9017 59.5979 20.4283C59.6692 19.955 59.8791 19.5143 60.2004 19.1637C60.5216 18.8131 60.9393 18.5687 61.3992 18.4623C61.8591 18.3559 62.3399 18.3925 62.779 18.5672C63.2182 18.7418 63.5954 19.0466 63.8617 19.4419C64.128 19.8371 64.271 20.3045 64.2722 20.7834C64.2868 21.0868 64.2415 21.3901 64.1389 21.6755C64.0363 21.9608 63.8784 22.2224 63.6746 22.4448C63.4708 22.6673 63.2252 22.846 62.9523 22.9705C62.6794 23.0951 62.3846 23.1628 62.0855 23.1699ZM53.5939 16.8521C52.8263 16.854 52.0764 17.0869 51.4391 17.5214C50.8019 17.9559 50.3058 18.5725 50.0137 19.2932C49.7216 20.0139 49.6466 20.8064 49.7981 21.5704C49.9496 22.3345 50.3209 23.0357 50.865 23.5855C51.4091 24.1353 52.1015 24.5089 52.8548 24.6592C53.608 24.8094 54.3883 24.7296 55.0968 24.4296C55.8053 24.1297 56.4103 23.6232 56.8353 22.9742C57.2603 22.3251 57.4862 21.5627 57.4844 20.7834C57.4918 20.2635 57.3961 19.7474 57.203 19.2658C57.0099 18.7842 56.7233 18.347 56.3603 17.9802C55.9973 17.6134 55.5653 17.3245 55.0901 17.1307C54.6148 16.9369 54.106 16.8421 53.5939 16.8521ZM53.5939 23.1699C53.1234 23.2033 52.6539 23.0922 52.2464 22.8511C51.8389 22.61 51.5122 22.25 51.3089 21.8179C51.1056 21.3858 51.035 20.9017 51.1063 20.4283C51.1776 19.955 51.3876 19.5143 51.7088 19.1637C52.0301 18.8131 52.4478 18.5687 52.9077 18.4623C53.3675 18.3559 53.8483 18.3925 54.2875 18.5672C54.7266 18.7418 55.1039 19.0466 55.3702 19.4419C55.6364 19.8371 55.7795 20.3045 55.7806 20.7834C55.7953 21.0868 55.75 21.3901 55.6473 21.6755C55.5447 21.9608 55.3868 22.2224 55.1831 22.4448C54.9793 22.6673 54.7336 22.846 54.4607 22.9705C54.1878 23.0951 53.8931 23.1628 53.5939 23.1699ZM43.4988 18.0639V19.7289H47.4348C47.3731 20.5131 47.052 21.2531 46.5237 21.8286C46.1289 22.237 45.654 22.5567 45.1298 22.7671C44.6056 22.9774 44.0438 23.0737 43.4806 23.0496C42.3207 23.0496 41.2084 22.5818 40.3882 21.7492C39.568 20.9165 39.1073 19.7872 39.1073 18.6096C39.1073 17.4321 39.568 16.3027 40.3882 15.4701C41.2084 14.6374 42.3207 14.1696 43.4806 14.1696C44.5926 14.1528 45.6663 14.5816 46.4691 15.3629L47.6262 14.1881C47.0831 13.6428 46.4384 13.2131 45.7297 12.924C45.0209 12.6349 44.2625 12.4923 43.4988 12.5046C42.6889 12.4726 41.8808 12.607 41.1232 12.8996C40.3656 13.1922 39.674 13.6371 39.0897 14.2076C38.5055 14.778 38.0408 15.4624 37.7233 16.2196C37.4058 16.9768 37.2422 17.7913 37.2422 18.6143C37.2422 19.4372 37.4058 20.2517 37.7233 21.0089C38.0408 21.7661 38.5055 22.4505 39.0897 23.0209C39.674 23.5914 40.3656 24.0363 41.1232 24.3289C41.8808 24.6215 42.6889 24.7559 43.4988 24.7239C44.2782 24.7555 45.0554 24.6193 45.7793 24.3244C46.5031 24.0295 47.1574 23.5824 47.6991 23.0126C48.6558 21.9456 49.1656 20.5421 49.1204 19.0999C49.1237 18.7527 49.0962 18.406 49.0384 18.0639H43.4988ZM84.7813 19.3589C84.5437 18.6492 84.0993 18.0295 83.5071 17.5818C82.9149 17.1342 82.2027 16.8797 81.4648 16.8521C80.9665 16.8511 80.4732 16.9539 80.0155 17.1542C79.5578 17.3544 79.1454 17.6478 78.8038 18.0163C78.4622 18.3847 78.1987 18.8204 78.0296 19.2963C77.8604 19.7723 77.7892 20.2784 77.8204 20.7834C77.8126 21.6278 78.0741 22.4521 78.5658 23.1331C79.0575 23.8142 79.753 24.3155 80.5485 24.5621C81.344 24.8088 82.1967 24.7876 82.9793 24.5016C83.7619 24.2157 84.4324 23.6803 84.8906 22.9756L83.5695 22.0506C83.3726 22.3839 83.0932 22.6591 82.7592 22.8489C82.4252 23.0388 82.0481 23.1367 81.6653 23.1329C81.2704 23.1494 80.8798 23.0443 80.5448 22.8314C80.2098 22.6184 79.9461 22.3075 79.7884 21.9396L84.9726 19.7659L84.7813 19.3589ZM79.4968 20.6724C79.4784 20.3855 79.5166 20.0978 79.6093 19.8262C79.702 19.5546 79.8473 19.3045 80.0366 19.0908C80.226 18.877 80.4555 18.7039 80.7117 18.5815C80.9679 18.4592 81.2457 18.3901 81.5286 18.3784C81.8212 18.3594 82.1128 18.4282 82.3672 18.5762C82.6215 18.7242 82.8274 18.9449 82.9591 19.2109L79.4968 20.6724ZM75.2875 24.4834H76.9913V12.9209H75.2875V24.4834ZM72.4995 17.7309H72.4357C72.177 17.445 71.861 17.2187 71.509 17.0671C71.157 16.9155 70.7771 16.8422 70.3948 16.8521C69.3992 16.9011 68.4602 17.3372 67.7726 18.07C67.085 18.8027 66.7015 19.776 66.7015 20.788C66.7015 21.8 67.085 22.7733 67.7726 23.506C68.4602 24.2388 69.3992 24.6749 70.3948 24.7239C70.7811 24.7317 71.1643 24.6529 71.5171 24.493C71.8699 24.3331 72.1836 24.0961 72.4357 23.7989H72.4995V24.3631C72.4995 25.8709 71.7068 26.6756 70.4313 26.6756C70.0052 26.6661 69.5915 26.5283 69.2427 26.2796C68.8939 26.0309 68.6258 25.6826 68.4724 25.2789L66.9964 25.8986C67.2693 26.5945 67.7437 27.1898 68.357 27.606C68.9704 28.0222 69.6936 28.2397 70.4313 28.2296C72.4266 28.2296 74.0757 27.0364 74.0757 24.1319V17.0834H72.4995V17.7309ZM70.5406 23.1699C69.9437 23.1321 69.3833 22.8647 68.9738 22.4222C68.5642 21.9796 68.3362 21.3952 68.3362 20.788C68.3362 20.1808 68.5642 19.5964 68.9738 19.1538C69.3833 18.7113 69.9437 18.4439 70.5406 18.4061C70.8324 18.4189 71.1186 18.4911 71.3824 18.6185C71.6461 18.7459 71.8818 18.9259 72.0756 19.1477C72.2695 19.3695 72.4173 19.6286 72.5105 19.9096C72.6037 20.1906 72.6402 20.4877 72.6179 20.7834C72.6428 21.08 72.6081 21.3787 72.516 21.6613C72.424 21.944 72.2764 22.2047 72.0822 22.4278C71.888 22.6509 71.6513 22.8317 71.3863 22.9592C71.1213 23.0868 70.8336 23.1584 70.5406 23.1699ZM92.7626 12.9209H88.6808V24.4834H90.3846V20.0989H92.7626C93.2482 20.1343 93.7357 20.0678 94.1949 19.9034C94.654 19.7391 95.0749 19.4805 95.4313 19.1438C95.7876 18.8071 96.0718 18.3994 96.2662 17.9462C96.4605 17.4931 96.5608 17.0041 96.5608 16.5099C96.5608 16.0156 96.4605 15.5267 96.2662 15.0735C96.0718 14.6203 95.7876 14.2127 95.4313 13.8759C95.0749 13.5392 94.654 13.2806 94.1949 13.1163C93.7357 12.952 93.2482 12.8855 92.7626 12.9209ZM92.7626 18.4709H90.3846V14.5304H92.799C93.3162 14.5304 93.8121 14.7389 94.1777 15.1102C94.5434 15.4814 94.7488 15.9849 94.7488 16.5099C94.7488 17.0349 94.5434 17.5384 94.1777 17.9096C93.8121 18.2808 93.3162 18.4894 92.799 18.4894L92.7626 18.4709ZM103.277 16.8151C102.656 16.7763 102.038 16.9229 101.499 17.2369C100.96 17.5509 100.523 18.0185 100.243 18.5819L101.746 19.2201C101.898 18.9421 102.126 18.7146 102.403 18.5653C102.679 18.4159 102.992 18.351 103.304 18.3784C103.52 18.3527 103.74 18.3711 103.949 18.4323C104.158 18.4936 104.353 18.5965 104.523 18.7352C104.692 18.8738 104.833 19.0453 104.937 19.2398C105.04 19.4342 105.105 19.6476 105.126 19.8676V19.9786C104.578 19.6862 103.969 19.5339 103.35 19.5346C101.728 19.5346 100.07 20.4596 100.07 22.1431C100.086 22.501 100.172 22.8519 100.325 23.175C100.477 23.4982 100.692 23.7869 100.956 24.0242C101.22 24.2615 101.529 24.4424 101.863 24.5563C102.198 24.6701 102.552 24.7145 102.903 24.6869C103.331 24.7109 103.757 24.619 104.138 24.4207C104.519 24.2224 104.841 23.9248 105.072 23.5584H105.126V24.4834H106.766V20.0341C106.766 18.0084 105.254 16.8336 103.313 16.8336L103.277 16.8151ZM103.067 23.1514C102.511 23.1514 101.737 22.8646 101.737 22.1709C101.737 21.2459 102.703 20.9314 103.559 20.9314C104.101 20.9178 104.635 21.052 105.108 21.3199C105.051 21.8222 104.816 22.2865 104.448 22.6266C104.079 22.9668 103.602 23.1598 103.104 23.1699L103.067 23.1514ZM112.743 17.0834L110.793 22.0969H110.739L108.716 17.0834H106.894L109.928 24.0949L108.197 27.9891H110.019L114.638 17.0834H112.743ZM97.4366 24.4834H99.1313V12.9209H97.4366V24.4834Z" fill="white"/>
<path d="M9.50821 6.98663C9.20973 7.36441 9.06907 7.84596 9.11643 8.32788V28.7704C9.08869 29.2405 9.23858 29.7036 9.53554 30.0654L9.60843 30.1394L20.8607 18.6416V18.3641L9.5811 6.92188L9.50821 6.98663Z" fill="#5BC9F4"/>
<path d="M24.5956 22.4503L20.8418 18.6393V18.3618L24.5956 14.5508H24.6867L29.1511 17.1685C30.4176 17.8993 30.4176 19.1018 29.1511 19.8325L24.6958 22.404L24.5956 22.4503Z" fill="url(#paint0_linear_1641_12078)"/>
<path d="M24.7012 22.4035L20.8563 18.5L9.50391 30.0163C9.76308 30.25 10.095 30.3836 10.4415 30.3938C10.788 30.4039 11.127 30.2899 11.399 30.0717L24.7012 22.4035Z" fill="url(#paint1_linear_1641_12078)"/>
<path d="M24.7012 14.5963L11.399 6.92809C11.127 6.70994 10.788 6.59594 10.4415 6.60609C10.095 6.61624 9.76308 6.74988 9.50391 6.98359L20.8563 18.4998L24.7012 14.5963Z" fill="url(#paint2_linear_1641_12078)"/>
<path d="M118.444 0.74C119.459 0.74 120.433 1.14931 121.15 1.87789C121.868 2.60647 122.271 3.59463 122.271 4.625V32.375C122.271 33.4054 121.868 34.3935 121.15 35.1221C120.433 35.8507 119.459 36.26 118.444 36.26H4.55556C3.54066 36.26 2.56733 35.8507 1.84969 35.1221C1.13205 34.3935 0.728889 33.4054 0.728889 32.375V4.625C0.728889 3.59463 1.13205 2.60647 1.84969 1.87789C2.56733 1.14931 3.54066 0.74 4.55556 0.74H118.444ZM118.444 0H4.55556C3.34735 0 2.18862 0.487275 1.33429 1.35463C0.479959 2.22199 0 3.39837 0 4.625L0 32.375C0 33.6016 0.479959 34.778 1.33429 35.6454C2.18862 36.5127 3.34735 37 4.55556 37H118.444C119.653 37 120.811 36.5127 121.666 35.6454C122.52 34.778 123 33.6016 123 32.375V4.625C123 3.39837 122.52 2.22199 121.666 1.35463C120.811 0.487275 119.653 0 118.444 0V0Z" fill="#1D1D1F"/>
<defs>
<linearGradient id="paint0_linear_1641_12078" x1="28.322" y1="18.5005" x2="6.29135" y2="18.5005" gradientUnits="userSpaceOnUse">
<stop stop-color="#FEE000"/>
<stop offset="0.42" stop-color="#FBBC0E"/>
<stop offset="0.78" stop-color="#FAA418"/>
<stop offset="1" stop-color="#F99B1C"/>
</linearGradient>
<linearGradient id="paint1_linear_1641_12078" x1="22.6057" y1="20.6183" x2="1.57359" y2="41.3345" gradientUnits="userSpaceOnUse">
<stop stop-color="#EF4547"/>
<stop offset="1" stop-color="#C6186D"/>
</linearGradient>
<linearGradient id="paint2_linear_1641_12078" x1="1.79591" y1="-4.7454" x2="18.971" y2="12.1627" gradientUnits="userSpaceOnUse">
<stop stop-color="#279E6F"/>
<stop offset="0.04" stop-color="#2BA06F"/>
<stop offset="0.46" stop-color="#53B26C"/>
<stop offset="0.8" stop-color="#6BBD6A"/>
<stop offset="1" stop-color="#74C169"/>
</linearGradient>
</defs>
</svg>
