<svg width="24" height="25" viewBox="0 0 24 25" fill="none" xmlns="http://www.w3.org/2000/svg">
<g id="&#208;&#152;&#208;&#186;&#208;&#190;&#208;&#189;&#208;&#186;&#208;&#176; &#34;&#208;&#144;&#209;&#128;&#209;&#133;&#208;&#184;&#208;&#178;&#34;">
<path id="Vector (Stroke)" fill-rule="evenodd" clip-rule="evenodd" d="M4 7.23438C4.55228 7.23438 5 7.68209 5 8.23438V19.2344H19V8.23438C19 7.68209 19.4477 7.23438 20 7.23438C20.5523 7.23438 21 7.68209 21 8.23438V20.2344C21 20.7867 20.5523 21.2344 20 21.2344H4C3.44772 21.2344 3 20.7867 3 20.2344V8.23438C3 7.68209 3.44772 7.23438 4 7.23438Z" fill="#1D1D1F"/>
<path id="Vector (Stroke)_2" fill-rule="evenodd" clip-rule="evenodd" d="M1 4.23438C1 3.68209 1.44772 3.23438 2 3.23438H22C22.5523 3.23438 23 3.68209 23 4.23438V8.23438C23 8.78666 22.5523 9.23438 22 9.23438H2C1.44772 9.23438 1 8.78666 1 8.23438V4.23438ZM3 5.23438V7.23438H21V5.23438H3Z" fill="#1D1D1F"/>
<path id="Vector (Stroke)_3" fill-rule="evenodd" clip-rule="evenodd" d="M9 12.2344C9 11.6821 9.44772 11.2344 10 11.2344H14C14.5523 11.2344 15 11.6821 15 12.2344C15 12.7867 14.5523 13.2344 14 13.2344H10C9.44772 13.2344 9 12.7867 9 12.2344Z" fill="#1D1D1F"/>
</g>
</svg>
