<svg width="21" height="22" viewBox="0 0 21 22" fill="none" xmlns="http://www.w3.org/2000/svg">
<g id="home">
<path id="Vector (Stroke)" fill-rule="evenodd" clip-rule="evenodd" d="M9.95865 2.17194C10.2762 1.92185 10.7238 1.92185 11.0414 2.17194L18.0414 7.68444C18.252 7.85035 18.375 8.10371 18.375 8.37187V17.0344C18.375 17.6807 18.1215 18.3027 17.6669 18.7629C17.212 19.2236 16.5926 19.4844 15.9444 19.4844H5.05556C4.4074 19.4844 3.78802 19.2236 3.33306 18.7629C2.87847 18.3027 2.625 17.6807 2.625 17.0344V8.37187C2.625 8.10371 2.74797 7.85035 2.95865 7.68444L9.95865 2.17194ZM4.375 8.79656V17.0344C4.375 17.2235 4.44931 17.4027 4.57816 17.5332C4.70665 17.6633 4.87859 17.7344 5.05556 17.7344H15.9444C16.1214 17.7344 16.2933 17.6633 16.4218 17.5332C16.5507 17.4027 16.625 17.2235 16.625 17.0344V8.79656L10.5 3.97312L4.375 8.79656Z" fill="#686870"/>
<path id="Vector (Stroke)_2" fill-rule="evenodd" clip-rule="evenodd" d="M7 10.7344C7 10.2511 7.39175 9.85938 7.875 9.85938H13.125C13.6082 9.85938 14 10.2511 14 10.7344V18.6094C14 19.0926 13.6082 19.4844 13.125 19.4844C12.6418 19.4844 12.25 19.0926 12.25 18.6094V11.6094H8.75V18.6094C8.75 19.0926 8.35825 19.4844 7.875 19.4844C7.39175 19.4844 7 19.0926 7 18.6094V10.7344Z" fill="#686870"/>
</g>
</svg>
