<svg width="24.000000" height="24.000000" viewBox="0 0 24 24" fill="none" xmlns="http://www.w3.org/2000/svg" xmlns:xlink="http://www.w3.org/1999/xlink">
	<desc>
			Created with Pixso.
	</desc>
	<defs>
		<clipPath id="clip18_124919">
			<rect id="info 1" width="24.000000" height="24.000000" fill="white" fill-opacity="0"/>
		</clipPath>
	</defs>
	<rect id="info 1" width="24.000000" height="24.000000" fill="#FFFFFF" fill-opacity="0"/>
	<g clip-path="url(#clip18_124919)">
		<path id="Vector (Stroke)" d="M12 3C7.03125 3 3 7.02942 3 12C3 16.9706 7.03125 21 12 21C16.9688 21 21 16.9706 21 12C21 7.02942 16.9688 3 12 3ZM1 12C1 5.92493 5.92578 1 12 1C18.0742 1 23 5.92493 23 12C23 18.0751 18.0742 23 12 23C5.92578 23 1 18.0751 1 12Z" fill="#FF6633" fill-opacity="1.000000" fill-rule="evenodd"/>
		<path id="Vector (Stroke)" d="M12 11C12.5508 11 13 11.4478 13 12L13 16C13 16.5522 12.5508 17 12 17C11.4492 17 11 16.5522 11 16L11 12C11 11.4478 11.4492 11 12 11Z" fill="#FF6633" fill-opacity="1.000000" fill-rule="evenodd"/>
		<path id="Vector (Stroke)" d="M11 8C11 7.44775 11.4492 7 12 7L12.0117 7C12.5625 7 13.0117 7.44775 13.0117 8C13.0117 8.55225 12.5625 9 12.0117 9L12 9C11.4492 9 11 8.55225 11 8Z" fill="#FF6633" fill-opacity="1.000000" fill-rule="evenodd"/>
	</g>
</svg>
