<svg width="20.000000" height="20.000000" viewBox="0 0 20 20" fill="none" xmlns="http://www.w3.org/2000/svg" xmlns:xlink="http://www.w3.org/1999/xlink">
	<desc>
			Created with Pixso.
	</desc>
	<defs>
		<clipPath id="clip34_127489">
			<rect id="info 1" width="20.000000" height="20.000000" fill="white" fill-opacity="0"/>
		</clipPath>
	</defs>
	<rect id="info 1" width="20.000000" height="20.000000" fill="#FFFFFF" fill-opacity="0"/>
	<g clip-path="url(#clip34_127489)">
		<path id="Vector (Stroke)" d="M10 2.5C5.85547 2.5 2.5 5.85767 2.5 10C2.5 14.1421 5.85547 17.5 10 17.5C14.1406 17.5 17.5 14.1421 17.5 10C17.5 5.85767 14.1406 2.5 10 2.5ZM0.832031 10C0.832031 4.93726 4.9375 0.833252 10 0.833252C15.0625 0.833252 19.1641 4.93726 19.1641 10C19.1641 15.0625 15.0625 19.1665 10 19.1665C4.9375 19.1665 0.832031 15.0625 0.832031 10Z" fill="#686870" fill-opacity="1.000000" fill-rule="evenodd"/>
		<path id="Vector (Stroke)" d="M10 9.16675C10.4609 9.16675 10.8359 9.53979 10.8359 10L10.8359 13.3335C10.8359 13.7937 10.4609 14.1667 10 14.1667C9.54297 14.1667 9.16797 13.7937 9.16797 13.3335L9.16797 10C9.16797 9.53979 9.54297 9.16675 10 9.16675Z" fill="#686870" fill-opacity="1.000000" fill-rule="evenodd"/>
		<path id="Vector (Stroke)" d="M9.16797 6.6665C9.16797 6.2063 9.54297 5.83325 10 5.83325L10.0078 5.83325C10.4688 5.83325 10.8438 6.2063 10.8438 6.6665C10.8438 7.12671 10.4688 7.5 10.0078 7.5L10 7.5C9.54297 7.5 9.16797 7.12671 9.16797 6.6665Z" fill="#686870" fill-opacity="1.000000" fill-rule="evenodd"/>
	</g>
</svg>
