<svg width="26" height="26" viewBox="0 0 26 26" fill="none" xmlns="http://www.w3.org/2000/svg">
<g id="&#208;&#184;&#208;&#189;&#209;&#129;&#209;&#130;&#208;&#176;&#208;&#179;&#209;&#128;&#208;&#176;&#208;&#188; &#208;&#184;&#208;&#186;&#208;&#190;&#208;&#189;&#208;&#186;&#208;&#176;">
<rect width="26" height="26" rx="6" fill="#9E9E9E"/>
<path id="Vector" d="M9.80711 13.0575C9.80711 11.2794 11.2482 9.83758 13.0263 9.83758C14.8044 9.83758 16.2463 11.2794 16.2463 13.0575C16.2463 14.8357 14.8044 16.2775 13.0263 16.2775C11.2482 16.2775 9.80711 14.8357 9.80711 13.0575ZM8.06646 13.0575C8.06646 15.7969 10.287 18.0174 13.0263 18.0174C15.7656 18.0174 17.9861 15.7969 17.9861 13.0575C17.9861 10.3182 15.7656 8.09771 13.0263 8.09771C10.287 8.09771 8.06654 10.3181 8.06654 13.0575H8.06646ZM17.0235 7.90105C17.0234 8.1303 17.0913 8.35442 17.2186 8.54508C17.3458 8.73575 17.5268 8.88438 17.7386 8.9722C17.9503 9.06001 18.1834 9.08306 18.4082 9.03842C18.6331 8.99379 18.8397 8.88348 19.0018 8.72144C19.164 8.55941 19.2745 8.35292 19.3193 8.1281C19.3641 7.90327 19.3412 7.67021 19.2536 7.45838C19.166 7.24654 19.0175 7.06546 18.8269 6.93802C18.6363 6.81058 18.4123 6.74251 18.183 6.74242H18.1826C17.8753 6.74256 17.5806 6.86466 17.3633 7.08191C17.146 7.29915 17.0237 7.59376 17.0235 7.90105ZM9.12402 20.9199C8.18229 20.877 7.67044 20.7202 7.33028 20.5876C6.87932 20.4121 6.55755 20.203 6.21925 19.8651C5.88095 19.5273 5.67154 19.2058 5.49675 18.7549C5.36415 18.4149 5.20729 17.9029 5.16448 16.9611C5.11765 15.943 5.1083 15.6371 5.1083 13.0577C5.1083 10.4783 5.11842 10.1733 5.16448 9.15426C5.20736 8.21254 5.36539 7.70153 5.49675 7.36053C5.67231 6.90956 5.88141 6.5878 6.21925 6.2495C6.55709 5.9112 6.87854 5.70179 7.33028 5.527C7.67028 5.3944 8.18229 5.23753 9.12402 5.19472C10.1422 5.14789 10.448 5.13855 13.0263 5.13855C15.6046 5.13855 15.9107 5.14851 16.9297 5.19488C17.8715 5.23776 18.3825 5.39579 18.7235 5.52715C19.1744 5.70194 19.4962 5.91181 19.8345 6.24965C20.1728 6.58749 20.3814 6.90972 20.557 7.36068C20.6896 7.70068 20.8465 8.21269 20.8893 9.15442C20.9361 10.1734 20.9454 10.4784 20.9454 13.0579C20.9454 15.6373 20.9361 15.9423 20.8893 16.9613C20.8464 17.903 20.6887 18.4149 20.557 18.755C20.3814 19.206 20.1723 19.5278 19.8345 19.8653C19.4967 20.2028 19.1744 20.4122 18.7235 20.5878C18.3835 20.7204 17.8715 20.8772 16.9297 20.9201C15.9116 20.9669 15.6057 20.9762 13.0263 20.9762C10.4468 20.9762 10.1419 20.9669 9.12402 20.9201V20.9199ZM9.04404 3.45693C8.01577 3.50376 7.31313 3.66681 6.6995 3.90558C6.0644 4.15216 5.52604 4.48296 4.98845 5.0197C4.45086 5.55644 4.12091 6.09487 3.87433 6.73075C3.63556 7.34476 3.47251 8.04702 3.42568 9.07529C3.37808 10.1052 3.36719 10.4344 3.36719 13.0575C3.36719 15.6806 3.37808 16.0099 3.42568 17.0398C3.47251 18.0681 3.63556 18.7703 3.87433 19.3843C4.12091 20.0194 4.45094 20.5589 4.98845 21.0954C5.52596 21.6319 6.06362 21.9622 6.6995 22.2095C7.31429 22.4483 8.01577 22.6113 9.04404 22.6582C10.0745 22.705 10.4032 22.7167 13.0263 22.7167C15.6494 22.7167 15.9787 22.7058 17.0086 22.6582C18.0369 22.6113 18.7391 22.4483 19.3531 22.2095C19.9882 21.9622 20.5266 21.6321 21.0641 21.0954C21.6017 20.5587 21.931 20.0194 22.1783 19.3843C22.417 18.7703 22.5809 18.0681 22.6269 17.0398C22.6737 16.0091 22.6846 15.6806 22.6846 13.0575C22.6846 10.4344 22.6737 10.1052 22.6269 9.07529C22.5801 8.04694 22.417 7.34438 22.1783 6.73075C21.931 6.09565 21.6009 5.55729 21.0641 5.0197C20.5274 4.48211 19.9882 4.15216 19.3539 3.90558C18.7391 3.66681 18.0368 3.50299 17.0093 3.45693C15.9793 3.40987 15.6502 3.39844 13.0275 3.39844C10.4047 3.39844 10.0749 3.40933 9.04443 3.45693" fill="white"/>
</g>
</svg>
