<svg width="24.000000" height="24.000000" viewBox="0 0 24 24" fill="none" xmlns="http://www.w3.org/2000/svg" xmlns:xlink="http://www.w3.org/1999/xlink">
	<desc>
			Created with Pixso.
	</desc>
	<defs>
		<clipPath id="clip26_45824">
			<rect id="Иконка" width="24.000000" height="24.000000" fill="white" fill-opacity="0"/>
		</clipPath>
	</defs>
	<rect id="Иконка" width="24.000000" height="24.000000" fill="#FFFFFF" fill-opacity="0"/>
	<g clip-path="url(#clip26_45824)">
		<path id="Vector (Stroke)" d="M12 2C9.87891 2 7.84375 2.84277 6.34375 4.34326C4.84375 5.84326 4 7.87842 4 10C4 13.0981 6.01562 16.1045 8.22656 18.4375C9.3125 19.582 10.3984 20.5195 11.2148 21.1709C11.5195 21.4131 11.7852 21.6152 12 21.7725C12.2148 21.6152 12.4805 21.4131 12.7852 21.1709C13.6016 20.5195 14.6875 19.582 15.7734 18.4375C17.9844 16.1045 20 13.0981 20 10C20 7.87842 19.1562 5.84326 17.6562 4.34326C16.1562 2.84277 14.1211 2 12 2ZM12 23C11.4453 23.832 11.4453 23.832 11.4453 23.8315L11.4414 23.8296L11.4336 23.8252L11.4141 23.8096C11.3945 23.7964 11.3633 23.7778 11.3281 23.7529C11.2578 23.7036 11.1562 23.6323 11.0273 23.5391C10.7695 23.3535 10.4062 23.082 9.97266 22.7354C9.10156 22.043 7.9375 21.043 6.77344 19.8125C4.48438 17.3955 2 13.9019 2 10C2 7.34766 3.05469 4.8042 4.92969 2.92871C6.80469 1.05371 9.34766 0 12 0C14.6523 0 17.1953 1.05371 19.0703 2.92871C20.9453 4.8042 22 7.34766 22 10C22 13.9019 19.5156 17.3955 17.2266 19.8125C16.0625 21.043 14.8984 22.043 14.0273 22.7354C13.5938 23.082 13.2305 23.3535 12.9727 23.5391C12.8438 23.6323 12.7422 23.7036 12.6719 23.7529C12.6367 23.7778 12.6055 23.7964 12.5859 23.8096L12.5664 23.8252L12.5586 23.8296L12.5547 23.8311C12.5547 23.8315 12.5547 23.832 12 23ZM12 23L12.5547 23.832C12.2188 24.0562 11.7812 24.0557 11.4453 23.8315L12 23Z" fill="#FFFFFF" fill-opacity="1.000000" fill-rule="evenodd"/>
		<path id="Vector (Stroke)" d="M12 8C10.8945 8 10 8.89551 10 10C10 11.1045 10.8945 12 12 12C13.1055 12 14 11.1045 14 10C14 8.89551 13.1055 8 12 8ZM8 10C8 7.79102 9.78906 6 12 6C14.2109 6 16 7.79102 16 10C16 12.209 14.2109 14 12 14C9.78906 14 8 12.209 8 10Z" fill="#FFFFFF" fill-opacity="1.000000" fill-rule="evenodd"/>
	</g>
</svg>
