<svg width="24.000000" height="24.000000" viewBox="0 0 24 24" fill="none" xmlns="http://www.w3.org/2000/svg" xmlns:xlink="http://www.w3.org/1999/xlink">
	<desc>
			Created with Pixso.
	</desc>
	<defs>
		<clipPath id="clip18_38780">
			<rect id="Property 1=4" width="24.000000" height="24.000000" fill="white" fill-opacity="0"/>
		</clipPath>
	</defs>
	<rect id="Property 1=4" width="24.000000" height="24.000000" fill="#FFFFFF" fill-opacity="0"/>
	<g clip-path="url(#clip18_38780)">
		<path id="Vector (Stroke)" d="M12 3C10.1504 3 8.37305 3.75195 7.05859 5.0957C5.74219 6.44141 5 8.26953 5 10.1816C5 12.9707 6.77539 15.6836 8.73438 17.7969C9.69336 18.834 10.6562 19.6836 11.3809 20.2734C11.6172 20.4648 11.8262 20.627 12 20.7617C12.1738 20.627 12.3828 20.4648 12.6191 20.2734C13.3438 19.6836 14.3066 18.834 15.2656 17.7969C17.2246 15.6836 19 12.9707 19 10.1816C19 8.26953 18.2578 6.44141 16.9414 5.0957C15.627 3.75195 13.8496 3 12 3ZM12 22C11.4375 22.8262 11.4355 22.8262 11.4355 22.8262L11.4336 22.8242L11.4277 22.8203L11.4062 22.8047C11.3887 22.793 11.3633 22.7754 11.332 22.7539C11.2676 22.709 11.1777 22.6426 11.0625 22.5566C10.832 22.3887 10.5078 22.1406 10.1191 21.8242C9.34375 21.1914 8.30664 20.2793 7.26562 19.1562C5.22461 16.9531 3 13.7578 3 10.1816C3 7.75391 3.94336 5.41992 5.62891 3.69727C7.31445 1.97266 9.60547 1 12 1C14.3945 1 16.6855 1.97266 18.3711 3.69727C20.0566 5.41992 21 7.75391 21 10.1816C21 13.7578 18.7754 16.9531 16.7344 19.1562C15.6934 20.2793 14.6562 21.1914 13.8809 21.8242C13.4922 22.1406 13.168 22.3887 12.9375 22.5566C12.8223 22.6426 12.7324 22.709 12.668 22.7539C12.6367 22.7754 12.6113 22.793 12.5938 22.8047L12.5723 22.8203L12.5664 22.8242L12.5645 22.8262C12.5645 22.8262 12.5625 22.8262 12 22ZM12 22L12.5625 22.8262C12.2227 23.0586 11.7754 23.0566 11.4355 22.8262L12 22Z" fill="#686870" fill-opacity="1.000000" fill-rule="evenodd"/>
		<path id="Vector (Stroke)" d="M12 8C10.8945 8 10 8.89453 10 10C10 11.1055 10.8945 12 12 12C13.1055 12 14 11.1055 14 10C14 8.89453 13.1055 8 12 8ZM8 10C8 7.79102 9.79102 6 12 6C14.209 6 16 7.79102 16 10C16 12.209 14.209 14 12 14C9.79102 14 8 12.209 8 10Z" fill="#686870" fill-opacity="1.000000" fill-rule="evenodd"/>
	</g>
</svg>
