<svg width="57" height="57" viewBox="0 0 57 57" fill="none" xmlns="http://www.w3.org/2000/svg">
<g id="&#208;&#152;&#208;&#186;&#208;&#190;&#208;&#189;&#208;&#186;&#208;&#176;">
<path fill-rule="evenodd" clip-rule="evenodd" d="M15.065 10.315C18.6282 6.75178 23.4609 4.75 28.5 4.75C33.5391 4.75 38.3718 6.75178 41.935 10.315C45.4982 13.8782 47.5 18.7109 47.5 23.75C47.5 31.1079 42.7126 38.2476 37.4634 43.7885C34.8873 46.5077 32.3032 48.7337 30.3604 50.2808C29.6374 50.8565 29.0058 51.3361 28.5 51.7099C27.9942 51.3361 27.3626 50.8565 26.6396 50.2808C24.6968 48.7337 22.1127 46.5077 19.5366 43.7885C14.2874 38.2476 9.5 31.1079 9.5 23.75C9.5 18.7109 11.5018 13.8782 15.065 10.315ZM19 23.75C19 18.5033 23.2533 14.25 28.5 14.25C33.7467 14.25 38 18.5033 38 23.75C38 28.9967 33.7467 33.25 28.5 33.25C23.2533 33.25 19 28.9967 19 23.75Z" fill="#FF6633"/>
</g>
</svg>
