<svg width="21" height="21" viewBox="0 0 21 21" fill="none" xmlns="http://www.w3.org/2000/svg">
<g id="&#208;&#154;&#209;&#128;&#208;&#181;&#209;&#129;&#209;&#130;&#208;&#184;&#208;&#186;">
<path id="Vector (Stroke)" fill-rule="evenodd" clip-rule="evenodd" d="M16.0879 4.55102C16.4239 4.88696 16.4239 5.43162 16.0879 5.76755L5.76535 16.0901C5.42942 16.4261 4.88476 16.4261 4.54883 16.0901C4.21289 15.7542 4.21289 15.2095 4.54883 14.8736L14.8714 4.55102C15.2073 4.21509 15.752 4.21509 16.0879 4.55102Z" fill="red"/>
<path id="Vector (Stroke)_2" fill-rule="evenodd" clip-rule="evenodd" d="M4.54883 4.55102C4.88476 4.21509 5.42942 4.21509 5.76535 4.55102L16.0879 14.8736C16.4239 15.2095 16.4239 15.7542 16.0879 16.0901C15.752 16.4261 15.2073 16.4261 14.8714 16.0901L4.54883 5.76755C4.21289 5.43162 4.21289 4.88696 4.54883 4.55102Z" fill="red"/>
</g>
</svg>
