<svg width="24.000000" height="24.000000" viewBox="0 0 24 24" fill="none" xmlns="http://www.w3.org/2000/svg" xmlns:xlink="http://www.w3.org/1999/xlink">
	<desc>
			Created with Pixso.
	</desc>
	<defs>
		<clipPath id="clip130_55586">
			<rect id="Иконка" width="24.000000" height="24.000000" fill="white" fill-opacity="0"/>
		</clipPath>
	</defs>
	<rect id="Иконка" width="24.000000" height="24.000000" fill="#FFFFFF" fill-opacity="0"/>
	<g clip-path="url(#clip130_55586)">
		<path id="Vector (Stroke)" d="M5.19922 1.40002C5.39062 1.14819 5.68359 1 6 1L18 1C18.3164 1 18.6094 1.14819 18.8008 1.40002L21.8008 5.40002C21.9297 5.57312 22 5.78357 22 6L22 20C22 20.7957 21.6836 21.5587 21.1211 22.1213C20.5586 22.684 19.7969 23 19 23L5 23C4.20312 23 3.44141 22.684 2.87891 22.1213C2.31641 21.5587 2 20.7957 2 20L2 6C2 5.78357 2.07031 5.57312 2.19922 5.40002L5.19922 1.40002ZM6.5 3L4 6.33337L4 20C4 20.2653 4.10547 20.5195 4.29297 20.7072C4.48047 20.8947 4.73438 21 5 21L19 21C19.2656 21 19.5195 20.8947 19.707 20.7072C19.8945 20.5195 20 20.2653 20 20L20 6.33337L17.5 3L6.5 3Z" fill="#FFFFFF" fill-opacity="1.000000" fill-rule="evenodd"/>
		<path id="Vector (Stroke)" d="M2 6C2 5.44775 2.44922 5 3 5L21 5C21.5508 5 22 5.44775 22 6C22 6.55225 21.5508 7 21 7L3 7C2.44922 7 2 6.55225 2 6Z" fill="#FFFFFF" fill-opacity="1.000000" fill-rule="evenodd"/>
		<path id="Vector (Stroke)" d="M8 9C8.55078 9 9 9.44775 9 10C9 10.7957 9.31641 11.5587 9.87891 12.1213C10.4414 12.684 11.2031 13 12 13C12.7969 13 13.5586 12.684 14.1211 12.1213C14.6836 11.5587 15 10.7957 15 10C15 9.44775 15.4492 9 16 9C16.5508 9 17 9.44775 17 10C17 11.326 16.4727 12.5979 15.5352 13.5355C14.5977 14.4733 13.3242 15 12 15C10.6758 15 9.40234 14.4733 8.46484 13.5355C7.52734 12.5979 7 11.326 7 10C7 9.44775 7.44922 9 8 9Z" fill="#FFFFFF" fill-opacity="1.000000" fill-rule="evenodd"/>
	</g>
</svg>
