<svg width="20.644531" height="20.645264" viewBox="0 0 20.6445 20.6453" fill="none" xmlns="http://www.w3.org/2000/svg" xmlns:xlink="http://www.w3.org/1999/xlink">
	<desc>
			Created with Pixso.
	</desc>
	<defs>
		<clipPath id="clip74_137077">
			<rect id="plus (1) 1" width="20.645161" height="20.645161" fill="white" fill-opacity="0"/>
		</clipPath>
	</defs>
	<rect id="plus (1) 1" width="20.645161" height="20.645161" fill="#FFFFFF" fill-opacity="0"/>
	<g clip-path="url(#clip74_137077)">
		<path id="Vector (Stroke)" d="M10.3203 3.44092C10.7969 3.44092 11.1797 3.82593 11.1797 4.30103L11.1797 16.3442C11.1797 16.8193 10.7969 17.2043 10.3203 17.2043C9.84766 17.2043 9.46094 16.8193 9.46094 16.3442L9.46094 4.30103C9.46094 3.82593 9.84766 3.44092 10.3203 3.44092Z" fill="#00CC2D" fill-opacity="1.000000" fill-rule="evenodd"/>
		<path id="Vector (Stroke)" d="M3.44141 10.3225C3.44141 9.84741 3.82812 9.4624 4.30078 9.4624L16.3438 9.4624C16.8203 9.4624 17.2031 9.84741 17.2031 10.3225C17.2031 10.7976 16.8203 11.1829 16.3438 11.1829L4.30078 11.1829C3.82812 11.1829 3.44141 10.7976 3.44141 10.3225Z" fill="#00CC2D" fill-opacity="1.000000" fill-rule="evenodd"/>
	</g>
</svg>
