<svg width="24.000000" height="24.000000" viewBox="0 0 24 24" fill="none" xmlns="http://www.w3.org/2000/svg" xmlns:xlink="http://www.w3.org/1999/xlink">
	<desc>
			Created with Pixso.
	</desc>
	<defs>
		<clipPath id="clip124_161993">
			<rect id="Иконка" width="24.000000" height="24.000000" fill="white" fill-opacity="0"/>
		</clipPath>
	</defs>
	<rect id="Иконка" width="24.000000" height="24.000000" fill="#FFFFFF" fill-opacity="0"/>
	<g clip-path="url(#clip124_161993)">
		<path id="Vector (Stroke)" d="M1.875 4C2.35742 4 2.75 4.39258 2.75 4.875L2.75 9.25L7.125 9.25C7.60742 9.25 8 9.64258 8 10.125C8 10.6074 7.60742 11 7.125 11L1.875 11C1.39258 11 1 10.6074 1 10.125L1 4.875C1 4.39258 1.39258 4 1.875 4Z" fill="#00CC2D" fill-opacity="1.000000" fill-rule="evenodd"/>
		<path id="Vector (Stroke)" d="M16 13.875C16 13.3926 16.3926 13 16.875 13L22.125 13C22.6074 13 23 13.3926 23 13.875L23 19.125C23 19.6074 22.6074 20 22.125 20C21.6426 20 21.25 19.6074 21.25 19.125L21.25 14.75L16.875 14.75C16.3926 14.75 16 14.3574 16 13.875Z" fill="#00CC2D" fill-opacity="1.000000" fill-rule="evenodd"/>
		<path id="Vector (Stroke)" d="M9.45898 3.35352C10.9453 2.93164 12.5176 2.88672 14.0273 3.22266C15.5391 3.55664 16.9375 4.26367 18.0957 5.27344C19.252 6.2832 20.1309 7.56641 20.6465 9C20.8164 9.4668 20.5664 9.98242 20.0879 10.1484C19.6113 10.3145 19.0879 10.0684 18.918 9.59961C18.5059 8.45312 17.8027 7.42773 16.877 6.61914C15.9512 5.81055 14.832 5.24609 13.623 4.97852C12.416 4.70898 11.1582 4.74609 9.9668 5.08398C8.77734 5.42188 7.69336 6.05078 6.81836 6.91016C6.8125 6.91797 6.80469 6.92383 6.79688 6.93164L2.54492 10.8555C2.17578 11.1953 1.5957 11.1777 1.24805 10.8164C0.902344 10.4531 0.919922 9.88477 1.28906 9.54297L5.53125 5.62891C6.625 4.55859 7.97461 3.77539 9.45898 3.35352ZM22.752 13.1836C23.0977 13.5469 23.0801 14.1152 22.7109 14.457L18.4688 18.3711C17.375 19.4414 16.0254 20.2246 14.541 20.6445C13.0547 21.0684 11.4824 21.1133 9.97266 20.7773C8.46094 20.4434 7.0625 19.7363 5.9043 18.7266C4.74805 17.7168 3.86914 16.4336 3.35352 15C3.18359 14.5332 3.43359 14.0176 3.91211 13.8516C4.38867 13.6855 4.91211 13.9316 5.08203 14.4004C5.49414 15.5469 6.19727 16.5723 7.12305 17.3809C8.04883 18.1895 9.16797 18.7539 10.377 19.0215C11.584 19.291 12.8418 19.2539 14.0332 18.916C15.2227 18.5781 16.3066 17.9492 17.1816 17.0898C17.1855 17.0859 17.1895 17.0801 17.1934 17.0762C17.1973 17.0742 17.1992 17.0723 17.2031 17.0684L21.4551 13.1445C21.8242 12.8047 22.4043 12.8223 22.752 13.1836Z" fill="#00CC2D" fill-opacity="1.000000" fill-rule="evenodd"/>
	</g>
</svg>
