<svg width="24" height="25" viewBox="0 0 24 25" fill="none" xmlns="http://www.w3.org/2000/svg">
<g id="search 2">
<path id="Vector (Stroke)" fill-rule="evenodd" clip-rule="evenodd" d="M11 4.23438C7.13401 4.23438 4 7.36838 4 11.2344C4 15.1004 7.13401 18.2344 11 18.2344C14.866 18.2344 18 15.1004 18 11.2344C18 7.36838 14.866 4.23438 11 4.23438ZM2 11.2344C2 6.26381 6.02944 2.23438 11 2.23438C15.9706 2.23438 20 6.26381 20 11.2344C20 16.2049 15.9706 20.2344 11 20.2344C6.02944 20.2344 2 16.2049 2 11.2344Z" fill="#686870"/>
<path id="Vector (Stroke)_2" fill-rule="evenodd" clip-rule="evenodd" d="M15.9413 16.1757C16.3319 15.7852 16.965 15.7852 17.3555 16.1757L21.7055 20.5257C22.0961 20.9162 22.0961 21.5494 21.7055 21.9399C21.315 22.3304 20.6819 22.3304 20.2913 21.9399L15.9413 17.5899C15.5508 17.1994 15.5508 16.5662 15.9413 16.1757Z" fill="#686870"/>
</g>
</svg>
