<svg width="24" height="25" viewBox="0 0 24 25" fill="none" xmlns="http://www.w3.org/2000/svg">
<g id="sun 1" clip-path="url(#clip0_1485_132541)">
<path id="Vector (Stroke)" fill-rule="evenodd" clip-rule="evenodd" d="M12 8.23438C9.79086 8.23438 8 10.0252 8 12.2344C8 14.4435 9.79086 16.2344 12 16.2344C14.2091 16.2344 16 14.4435 16 12.2344C16 10.0252 14.2091 8.23438 12 8.23438ZM6 12.2344C6 8.92067 8.68629 6.23438 12 6.23438C15.3137 6.23438 18 8.92067 18 12.2344C18 15.5481 15.3137 18.2344 12 18.2344C8.68629 18.2344 6 15.5481 6 12.2344Z" fill="#1D1D1F"/>
<path id="Vector (Stroke)_2" fill-rule="evenodd" clip-rule="evenodd" d="M12 0.234375C12.5523 0.234375 13 0.68209 13 1.23438V3.23438C13 3.78666 12.5523 4.23438 12 4.23438C11.4477 4.23438 11 3.78666 11 3.23438V1.23438C11 0.68209 11.4477 0.234375 12 0.234375Z" fill="#1D1D1F"/>
<path id="Vector (Stroke)_3" fill-rule="evenodd" clip-rule="evenodd" d="M12 20.2344C12.5523 20.2344 13 20.6821 13 21.2344V23.2344C13 23.7867 12.5523 24.2344 12 24.2344C11.4477 24.2344 11 23.7867 11 23.2344V21.2344C11 20.6821 11.4477 20.2344 12 20.2344Z" fill="#1D1D1F"/>
<path id="Vector (Stroke)_4" fill-rule="evenodd" clip-rule="evenodd" d="M3.51164 3.74602C3.90217 3.35549 4.53533 3.35549 4.92586 3.74602L6.34586 5.16602C6.73638 5.55654 6.73638 6.18971 6.34586 6.58023C5.95533 6.97076 5.32217 6.97076 4.93164 6.58023L3.51164 5.16023C3.12112 4.76971 3.12112 4.13654 3.51164 3.74602Z" fill="#1D1D1F"/>
<path id="Vector (Stroke)_5" fill-rule="evenodd" clip-rule="evenodd" d="M17.6523 17.8866C18.0428 17.4961 18.676 17.4961 19.0665 17.8866L20.4865 19.3066C20.877 19.6972 20.877 20.3303 20.4865 20.7209C20.096 21.1114 19.4628 21.1114 19.0723 20.7209L17.6523 19.3009C17.2617 18.9103 17.2617 18.2772 17.6523 17.8866Z" fill="#1D1D1F"/>
<path id="Vector (Stroke)_6" fill-rule="evenodd" clip-rule="evenodd" d="M0 12.2344C0 11.6821 0.447715 11.2344 1 11.2344H3C3.55228 11.2344 4 11.6821 4 12.2344C4 12.7867 3.55228 13.2344 3 13.2344H1C0.447715 13.2344 0 12.7867 0 12.2344Z" fill="#1D1D1F"/>
<path id="Vector (Stroke)_7" fill-rule="evenodd" clip-rule="evenodd" d="M20 12.2344C20 11.6821 20.4477 11.2344 21 11.2344H23C23.5523 11.2344 24 11.6821 24 12.2344C24 12.7867 23.5523 13.2344 23 13.2344H21C20.4477 13.2344 20 12.7867 20 12.2344Z" fill="#1D1D1F"/>
<path id="Vector (Stroke)_8" fill-rule="evenodd" clip-rule="evenodd" d="M6.34586 17.8866C6.73638 18.2772 6.73638 18.9103 6.34586 19.3009L4.92586 20.7209C4.53533 21.1114 3.90217 21.1114 3.51164 20.7209C3.12112 20.3303 3.12112 19.6972 3.51164 19.3066L4.93164 17.8866C5.32217 17.4961 5.95533 17.4961 6.34586 17.8866Z" fill="#1D1D1F"/>
<path id="Vector (Stroke)_9" fill-rule="evenodd" clip-rule="evenodd" d="M20.4865 3.74602C20.877 4.13654 20.877 4.76971 20.4865 5.16023L19.0665 6.58023C18.676 6.97076 18.0428 6.97076 17.6523 6.58023C17.2617 6.18971 17.2617 5.55654 17.6523 5.16602L19.0723 3.74602C19.4628 3.35549 20.096 3.35549 20.4865 3.74602Z" fill="#1D1D1F"/>
</g>
<defs>
<clipPath id="clip0_1485_132541">
<rect width="24" height="24" fill="white" transform="translate(0 0.234375)"/>
</clipPath>
</defs>
</svg>
