<svg width="24" height="24" viewBox="0 0 24 24" fill="none" xmlns="http://www.w3.org/2000/svg">
<g id="ico-02">
<path id="Rectangle" fill-rule="evenodd" clip-rule="evenodd" d="M21.401 12.2206C21.8166 12.2206 22.1536 11.8836 22.1536 11.468C22.1536 6.06442 17.9349 1.8457 12.5313 1.8457C12.1157 1.8457 11.7787 2.18266 11.7787 2.59832C11.7787 3.01397 12.1157 3.35093 12.5313 3.35093C17.1035 3.35093 20.6483 6.89573 20.6483 11.468C20.6483 11.8836 20.9853 12.2206 21.401 12.2206ZM9.87018 9.51666C10.7519 8.63492 10.7519 7.20534 9.87018 6.32359L7.74147 4.19487C6.85972 3.31313 5.43014 3.31313 4.54839 4.19487L2.50702 6.23625C2.06146 6.68181 1.82236 7.29329 1.8475 7.9229C1.97482 11.1091 3.59902 14.2439 6.67711 17.322C9.75518 20.4 12.8899 22.0242 16.0761 22.1516C16.7057 22.1767 17.3172 21.9376 17.7628 21.4921L19.8042 19.4507C20.6859 18.5689 20.6859 17.1393 19.8042 16.2576L17.6755 14.1289C16.7937 13.2471 15.3641 13.2471 14.4824 14.1289L13.3349 15.2764C13.2454 15.3659 13.1033 15.3747 13.0035 15.297L12.1062 14.5992C11.0953 13.8129 10.1862 12.9038 9.3999 11.8929L8.70201 10.9956C8.62434 10.8957 8.63318 10.7537 8.72265 10.6642L9.87018 9.51666ZM3.57145 7.30049L5.61282 5.25911C5.90674 4.96519 6.38327 4.96519 6.67718 5.25911L8.80589 7.38783C9.09981 7.68175 9.09981 8.15827 8.80589 8.45219L7.65836 9.59972C7.03212 10.226 6.9702 11.2205 7.51393 11.9196L8.21181 12.8169C9.0748 13.9264 10.0726 14.9242 11.1821 15.7872L12.0794 16.4851C12.7785 17.0288 13.773 16.9669 14.3993 16.3406L15.5468 15.1931C15.8407 14.8992 16.3173 14.8992 16.6112 15.1931L18.7399 17.3218C19.0338 17.6157 19.0338 18.0923 18.7399 18.3862L16.6985 20.4276C16.55 20.5761 16.3461 20.6558 16.1363 20.6474C13.3684 20.5368 10.5719 19.0878 7.74154 16.2575C4.91117 13.4271 3.4622 10.6306 3.3516 7.86271C3.34322 7.65284 3.42293 7.44901 3.57145 7.30049ZM18.9602 11.8228C18.9602 12.2384 18.6233 12.5754 18.2076 12.5754C17.792 12.5754 17.455 12.2384 17.455 11.8228C17.455 9.19027 14.8087 6.54402 12.1763 6.54402C11.7606 6.54402 11.4236 6.20706 11.4236 5.79141C11.4236 5.37575 11.7606 5.03879 12.1763 5.03879C15.6401 5.03879 18.9602 8.35895 18.9602 11.8228Z" fill="#FF6633"/>
</g>
</svg>
