<svg width="20" height="16" viewBox="0 0 20 16" fill="none" xmlns="http://www.w3.org/2000/svg">
<path id="telegram 1 (Traced)" fill-rule="evenodd" clip-rule="evenodd" d="M19.6445 0.168842C19.9255 0.394386 20.0426 0.742586 19.9862 1.18478C19.8978 1.87735 16.8702 15.3025 16.7541 15.5166C16.6154 15.7724 16.2527 16.0039 15.9968 15.9999C15.6067 15.994 15.224 15.764 12.9975 14.1975L10.6858 12.5712L10.1316 13.0507C9.82677 13.3145 9.33531 13.7669 9.03945 14.056C8.33346 14.746 8.00001 14.9771 7.7106 14.9771C7.48151 14.9771 7.47943 14.9742 7.50848 14.6864C7.52462 14.5265 7.60129 13.5199 7.67883 12.4495C7.75636 11.3792 7.84408 10.4825 7.87377 10.4568C7.9034 10.4311 9.83201 8.77057 12.1595 6.7666C14.487 4.76263 16.3913 3.07355 16.3913 3.01301C16.3913 2.93529 16.333 2.90677 16.1931 2.91594C16.0712 2.92394 13.9568 4.15188 10.7061 6.10228C7.79732 7.84767 5.38234 9.29499 5.33959 9.31866C5.29684 9.34226 4.55449 9.15085 3.68991 8.89323C2.82534 8.6356 1.73928 8.31223 1.27644 8.17445C0.781393 8.02724 0.345807 7.85259 0.218495 7.75046C-0.181013 7.42982 -0.0242941 7.02539 0.620083 6.71393C0.773288 6.63984 2.36723 6.03969 4.16215 5.3803C9.36415 3.46916 17.4834 0.480375 18.1485 0.231914C18.92 -0.0563605 19.3417 -0.0741467 19.6445 0.168842Z" fill="#039BE5"/>
</svg>
