<svg width="26.000000" height="26.000000" viewBox="0 0 26 26" fill="none" xmlns="http://www.w3.org/2000/svg" xmlns:xlink="http://www.w3.org/1999/xlink">
	<desc>
			Created with Pixso.
	</desc>
	<defs>
		<clipPath id="clip74_135549">
			<rect id="Ошибка " width="26.000000" height="26.000000" fill="white" fill-opacity="0"/>
		</clipPath>
	</defs>
	<rect id="Ошибка " width="26.000000" height="26.000000" fill="#FFFFFF" fill-opacity="0"/>
	<g clip-path="url(#clip74_135549)">
		<path id="Vector (Stroke)" d="M13 3.25C7.61328 3.25 3.25 7.61523 3.25 13C3.25 18.3848 7.61328 22.75 13 22.75C18.3828 22.75 22.75 18.3848 22.75 13C22.75 7.61523 18.3828 3.25 13 3.25ZM1.08203 13C1.08203 6.41846 6.41797 1.08325 13 1.08325C19.582 1.08325 24.9141 6.41846 24.9141 13C24.9141 19.5813 19.582 24.9165 13 24.9165C6.41797 24.9165 1.08203 19.5813 1.08203 13Z" fill="#F44837" fill-opacity="1.000000" fill-rule="evenodd"/>
		<path id="Vector (Stroke)" d="M13 7.58325C13.6016 7.58325 14.0859 8.06836 14.0859 8.6665L14.0859 13C14.0859 13.5981 13.6016 14.0833 13 14.0833C12.4023 14.0833 11.918 13.5981 11.918 13L11.918 8.6665C11.918 8.06836 12.4023 7.58325 13 7.58325Z" fill="#F44837" fill-opacity="1.000000" fill-rule="evenodd"/>
		<path id="Vector (Stroke)" d="M11.918 17.3333C11.918 16.7351 12.4023 16.25 13 16.25L13.0117 16.25C13.6094 16.25 14.0938 16.7351 14.0938 17.3333C14.0938 17.9316 13.6094 18.4167 13.0117 18.4167L13 18.4167C12.4023 18.4167 11.918 17.9316 11.918 17.3333Z" fill="#F44837" fill-opacity="1.000000" fill-rule="evenodd"/>
	</g>
</svg>
